<?xml version="1.0" encoding="UTF-8" standalone="no"?>
<!-- Created with Inkscape (http://www.inkscape.org/) -->
<svg id="svg2" xmlns:rdf="http://www.w3.org/1999/02/22-rdf-syntax-ns#" xmlns="http://www.w3.org/2000/svg" height="64" width="64" version="1.1" xmlns:cc="http://creativecommons.org/ns#" xmlns:dc="http://purl.org/dc/elements/1.1/">
 <title id="title2818">WireframeSketcher SVG asset</title>
 <defs id="defs4"></defs>
 <metadata id="metadata7">
  <rdf:RDF>
   <cc:Work rdf:about="">
    <dc:format>image/svg+xml</dc:format>
    <dc:type rdf:resource="http://purl.org/dc/dcmitype/StillImage"/>
    <dc:title>WireframeSketcher SVG asset</dc:title>
    <dc:creator>
     <cc:Agent>
      <dc:title>Peter Severin</dc:title>
     </cc:Agent>
    </dc:creator>
    <dc:rights>
     <cc:Agent>
      <dc:title>Copyright (c) WireframeSketcher.com</dc:title>
     </cc:Agent>
    </dc:rights>
    <dc:subject>
     <rdf:Bag>
      <rdf:li>contacts</rdf:li>
      <rdf:li>user</rdf:li>
     </rdf:Bag>
    </dc:subject>
   </cc:Work>
  </rdf:RDF>
 </metadata>
 <path id="path3773" stroke-linejoin="round" style="enable-background:accumulate;color:#000000;" d="M-32,48a24,24,0,1,1,-48,0,24,24,0,1,1,48,0z" transform="translate(88,-16)" stroke-dashoffset="0" stroke="#000" stroke-linecap="round" stroke-miterlimit="4" stroke-dasharray="none" stroke-width="4" fill="none"/>
 <path id="path3804" style="enable-background:accumulate;color:#000000;" d="M32,13.47c-4.28,0-6.92,1.89-9,4.53-0.82,1.04-0.91,2.84-0.9,3.86,0.08,6.08-0.27,14.22,3.9,18.64v6.16c-3.15,0.69-6.09,1.9-8.74,3.54,9.74,8.8,18.74,8.8,29.48,0-2.65-1.64-5.6-2.85-8.74-3.54v-6.16c4.39-6.15,4.2-13.97,4.03-19.45-0.03-1.05-0.33-2.24-1.03-3.05-2.2-2.54-4.72-4.53-9-4.53z" fill-rule="nonzero" fill="#000"/>
</svg>
