<?xml version="1.0" encoding="UTF-8" standalone="no"?>
<!-- Created with Inkscape (http://www.inkscape.org/) -->
<svg id="svg2" xmlns:rdf="http://www.w3.org/1999/02/22-rdf-syntax-ns#" xmlns="http://www.w3.org/2000/svg" height="64" width="64" version="1.1" xmlns:cc="http://creativecommons.org/ns#" xmlns:dc="http://purl.org/dc/elements/1.1/">
 <title id="title2818">WireframeSketcher SVG asset</title>
 <defs id="defs4"></defs>
 <metadata id="metadata7">
  <rdf:RDF>
   <cc:Work rdf:about="">
    <dc:format>image/svg+xml</dc:format>
    <dc:type rdf:resource="http://purl.org/dc/dcmitype/StillImage"/>
    <dc:title>WireframeSketcher SVG asset</dc:title>
    <dc:creator>
     <cc:Agent>
      <dc:title>Peter Severin</dc:title>
     </cc:Agent>
    </dc:creator>
    <dc:rights>
     <cc:Agent>
      <dc:title>Copyright (c) WireframeSketcher.com</dc:title>
     </cc:Agent>
    </dc:rights>
    <cc:license rdf:resource=""/>
    <dc:subject>
     <rdf:Bag>
      <rdf:li>cloud</rdf:li>
      <rdf:li>tabs</rdf:li>
      <rdf:li>safari</rdf:li>
     </rdf:Bag>
    </dc:subject>
   </cc:Work>
  </rdf:RDF>
 </metadata>
 <path id="path6625" stroke-linejoin="round" style="enable-background:accumulate;color:#000000;" d="M36,16c-5.83,0-10.76,3.83-12.41,9.12-1.1-1.3-2.75-2.12-4.59-2.12-3.31,0-6,2.69-6,6,0,0.41,0.05,0.83,0.12,1.22-4.063,0.86-7.12,4.45-7.12,8.78,0,4.97,4.03,9,9,9h34.5c4.69,0,8.5-3.81,8.5-8.5s-3.81-8.5-8.5-8.5c-0.22,0-0.44,0.01-0.66,0.03,0.11-0.66,0.16-1.34,0.16-2.03,0-7.18-5.82-13-13-13z" stroke-dashoffset="0" stroke="#000" stroke-linecap="butt" stroke-miterlimit="4" stroke-dasharray="none" stroke-width="4" fill="none"/>
</svg>
