<?xml version="1.0" encoding="UTF-8" standalone="no"?>
<!-- Created with Inkscape (http://www.inkscape.org/) -->
<svg id="svg2" xmlns:rdf="http://www.w3.org/1999/02/22-rdf-syntax-ns#" xmlns="http://www.w3.org/2000/svg" height="64" width="64" version="1.1" xmlns:cc="http://creativecommons.org/ns#" xmlns:dc="http://purl.org/dc/elements/1.1/">
 <title id="title2818">WireframeSketcher SVG asset</title>
 <defs id="defs4"></defs>
 <metadata id="metadata7">
  <rdf:RDF>
   <cc:Work rdf:about="">
    <dc:format>image/svg+xml</dc:format>
    <dc:type rdf:resource="http://purl.org/dc/dcmitype/StillImage"/>
    <dc:title>WireframeSketcher SVG asset</dc:title>
    <dc:creator>
     <cc:Agent>
      <dc:title>Peter Severin</dc:title>
     </cc:Agent>
    </dc:creator>
    <dc:rights>
     <cc:Agent>
      <dc:title>Copyright (c) WireframeSketcher.com</dc:title>
     </cc:Agent>
    </dc:rights>
    <cc:license rdf:resource=""/>
    <dc:subject>
     <rdf:Bag>
      <rdf:li>keypad</rdf:li>
     </rdf:Bag>
    </dc:subject>
   </cc:Work>
  </rdf:RDF>
 </metadata>
 <path id="path5514" stroke-linejoin="round" style="enable-background:accumulate;color:#000000;" d="M-2,9.5a5.5,5.5,0,1,1,-11,0,5.5,5.5,0,1,1,11,0z" transform="translate(22.5,5.5)" stroke-dashoffset="0" stroke="#000" stroke-linecap="butt" stroke-miterlimit="4" stroke-dasharray="none" stroke-width="4" fill="none"/>
 <path id="path5516" stroke-linejoin="round" style="enable-background:accumulate;color:#000000;" d="M-2,9.5a5.5,5.5,0,1,1,-11,0,5.5,5.5,0,1,1,11,0z" transform="translate(39.5,5.5)" stroke-dashoffset="0" stroke="#000" stroke-linecap="butt" stroke-miterlimit="4" stroke-dasharray="none" stroke-width="4" fill="none"/>
 <path id="path5518" stroke-linejoin="round" style="enable-background:accumulate;color:#000000;" d="M-2,9.5a5.5,5.5,0,1,1,-11,0,5.5,5.5,0,1,1,11,0z" transform="translate(56.5,5.5)" stroke-dashoffset="0" stroke="#000" stroke-linecap="butt" stroke-miterlimit="4" stroke-dasharray="none" stroke-width="4" fill="none"/>
 <path id="path5520" stroke-linejoin="round" style="enable-background:accumulate;color:#000000;" d="M-2,9.5a5.5,5.5,0,1,1,-11,0,5.5,5.5,0,1,1,11,0z" transform="translate(22.5,22.5)" stroke-dashoffset="0" stroke="#000" stroke-linecap="butt" stroke-miterlimit="4" stroke-dasharray="none" stroke-width="4" fill="none"/>
 <path id="path5522" stroke-linejoin="round" style="enable-background:accumulate;color:#000000;" d="M-2,9.5a5.5,5.5,0,1,1,-11,0,5.5,5.5,0,1,1,11,0z" transform="translate(39.5,22.5)" stroke-dashoffset="0" stroke="#000" stroke-linecap="butt" stroke-miterlimit="4" stroke-dasharray="none" stroke-width="4" fill="none"/>
 <path id="path5524" stroke-linejoin="round" style="enable-background:accumulate;color:#000000;" d="M-2,9.5a5.5,5.5,0,1,1,-11,0,5.5,5.5,0,1,1,11,0z" transform="translate(56.5,22.5)" stroke-dashoffset="0" stroke="#000" stroke-linecap="butt" stroke-miterlimit="4" stroke-dasharray="none" stroke-width="4" fill="none"/>
 <path id="path5526" stroke-linejoin="round" style="enable-background:accumulate;color:#000000;" d="M-2,9.5a5.5,5.5,0,1,1,-11,0,5.5,5.5,0,1,1,11,0z" transform="translate(22.5,39.5)" stroke-dashoffset="0" stroke="#000" stroke-linecap="butt" stroke-miterlimit="4" stroke-dasharray="none" stroke-width="4" fill="none"/>
 <path id="path5528" stroke-linejoin="round" style="enable-background:accumulate;color:#000000;" d="M-2,9.5a5.5,5.5,0,1,1,-11,0,5.5,5.5,0,1,1,11,0z" transform="translate(39.5,39.5)" stroke-dashoffset="0" stroke="#000" stroke-linecap="butt" stroke-miterlimit="4" stroke-dasharray="none" stroke-width="4" fill="none"/>
 <path id="path5530" stroke-linejoin="round" style="enable-background:accumulate;color:#000000;" d="M-2,9.5a5.5,5.5,0,1,1,-11,0,5.5,5.5,0,1,1,11,0z" transform="translate(56.5,39.5)" stroke-dashoffset="0" stroke="#000" stroke-linecap="butt" stroke-miterlimit="4" stroke-dasharray="none" stroke-width="4" fill="none"/>
</svg>
