<?xml version="1.0" encoding="UTF-8" standalone="no"?>
<!-- Created with Inkscape (http://www.inkscape.org/) -->
<svg id="svg2" xmlns:rdf="http://www.w3.org/1999/02/22-rdf-syntax-ns#" xmlns="http://www.w3.org/2000/svg" height="64" width="64" version="1.1" xmlns:cc="http://creativecommons.org/ns#" xmlns:dc="http://purl.org/dc/elements/1.1/">
 <title id="title2818">WireframeSketcher SVG asset</title>
 <defs id="defs4"></defs>
 <metadata id="metadata7">
  <rdf:RDF>
   <cc:Work rdf:about="">
    <dc:format>image/svg+xml</dc:format>
    <dc:type rdf:resource="http://purl.org/dc/dcmitype/StillImage"/>
    <dc:title>WireframeSketcher SVG asset</dc:title>
    <dc:creator>
     <cc:Agent>
      <dc:title>Peter Severin</dc:title>
     </cc:Agent>
    </dc:creator>
    <dc:rights>
     <cc:Agent>
      <dc:title>Copyright (c) WireframeSketcher.com</dc:title>
     </cc:Agent>
    </dc:rights>
    <cc:license rdf:resource=""/>
    <dc:subject>
     <rdf:Bag>
      <rdf:li>info</rdf:li>
      <rdf:li>disclosure</rdf:li>
      <rdf:li>detail</rdf:li>
     </rdf:Bag>
    </dc:subject>
   </cc:Work>
  </rdf:RDF>
 </metadata>
 <path id="path4392" stroke-linejoin="round" style="enable-background:accumulate;color:#000000;" d="M19,21a23,23,0,1,1,-46,0,23,23,0,1,1,46,0z" transform="translate(35,12)" stroke-dashoffset="0" stroke="#000" stroke-linecap="round" stroke-miterlimit="4" stroke-dasharray="none" stroke-width="4" fill="none"/>
 <path id="rect4400" style="enable-background:accumulate;color:#000000;" d="M26,27,26,28,28,28,28,44,26,44,26,46,35,46,35,44,33,44,33,28,33,27,29,27z" fill-rule="nonzero" fill="#000"/>
 <path id="path4407" style="enable-background:accumulate;color:#000000;" d="M25,22a3,3,0,1,1,-6,0,3,3,0,1,1,6,0z" fill-rule="nonzero" transform="translate(8,0)" fill="#000"/>
</svg>
