<?xml version="1.0" encoding="UTF-8" standalone="no"?>
<!-- Created with Inkscape (http://www.inkscape.org/) -->

<svg
   xmlns:dc="http://purl.org/dc/elements/1.1/"
   xmlns:cc="http://creativecommons.org/ns#"
   xmlns:rdf="http://www.w3.org/1999/02/22-rdf-syntax-ns#"
   xmlns:svg="http://www.w3.org/2000/svg"
   xmlns="http://www.w3.org/2000/svg"
   xmlns:sodipodi="http://sodipodi.sourceforge.net/DTD/sodipodi-0.dtd"
   xmlns:inkscape="http://www.inkscape.org/namespaces/inkscape"
   width="576"
   height="1077"
   id="svg2"
   version="1.1"
   inkscape:version="0.47 r22583"
   sodipodi:docname="_phone.svg">
  <title
     id="title2818">WireframeSketcher SVG asset</title>
  <defs
     id="defs4">
    <inkscape:perspective
       sodipodi:type="inkscape:persp3d"
       inkscape:vp_x="0 : 526.2 : 1"
       inkscape:vp_y="0 : 1000 : 0"
       inkscape:vp_z="744.1 : 526.2 : 1"
       inkscape:persp3d-origin="372 : 350.8 : 1"
       id="perspective10" />
    <inkscape:perspective
       id="perspective2831"
       inkscape:persp3d-origin="0.5 : 0.3333 : 1"
       inkscape:vp_z="1 : 0.5 : 1"
       inkscape:vp_y="0 : 1000 : 0"
       inkscape:vp_x="0 : 0.5 : 1"
       sodipodi:type="inkscape:persp3d" />
    <inkscape:perspective
       id="perspective2824"
       inkscape:persp3d-origin="0.5 : 0.3333 : 1"
       inkscape:vp_z="1 : 0.5 : 1"
       inkscape:vp_y="0 : 1000 : 0"
       inkscape:vp_x="0 : 0.5 : 1"
       sodipodi:type="inkscape:persp3d" />
  </defs>
  <sodipodi:namedview
     id="base"
     pagecolor="#ffffff"
     bordercolor="#666666"
     borderopacity="1.0"
     inkscape:pageopacity="0.0"
     inkscape:pageshadow="2"
     inkscape:zoom="0.7"
     inkscape:cx="-132.1"
     inkscape:cy="576.2"
     inkscape:document-units="px"
     inkscape:current-layer="svg2"
     showgrid="true"
     inkscape:window-width="1920"
     inkscape:window-height="1080"
     inkscape:window-x="0"
     inkscape:window-y="0"
     inkscape:window-maximized="0">
    <inkscape:grid
       type="xygrid"
       id="grid2816"
       empspacing="1"
       visible="true"
       enabled="true"
       snapvisiblegridlinesonly="true" />
  </sodipodi:namedview>
  <metadata
     id="metadata7">
    <rdf:RDF>
      <cc:Work
         rdf:about="">
        <dc:format>image/svg+xml</dc:format>
        <dc:type
           rdf:resource="http://purl.org/dc/dcmitype/StillImage" />
        <dc:title>WireframeSketcher SVG asset</dc:title>
        <dc:creator>
          <cc:Agent>
            <dc:title>Peter Severin</dc:title>
          </cc:Agent>
        </dc:creator>
        <dc:rights>
          <cc:Agent>
            <dc:title>Copyright (c) WireframeSketcher.com</dc:title>
          </cc:Agent>
        </dc:rights>
      </cc:Work>
    </rdf:RDF>
  </metadata>
  <path
     style="fill:#ffffff;stroke:#000000;stroke-width:2;stroke-linecap:round;stroke-linejoin:round;stroke-miterlimit:4;stroke-opacity:1;stroke-dasharray:none;stroke-dashoffset:0;fill-opacity:1"
     d="M 30 1 C 13.93 1 1 13.93 1 30 L 1 1047 C 1 1063 13.93 1076 30 1076 L 546 1076 C 562.1 1076 575 1063 575 1047 L 575 30 C 575 13.93 562.1 1 546 1 L 30 1 z M 47 86 L 529 86 L 529 888 L 47 888 L 47 86 z "
     id="rect3611" />
  <rect
     style="fill:none;stroke:#000000;stroke-width:2;stroke-linecap:round;stroke-linejoin:round;stroke-miterlimit:4;stroke-opacity:1;stroke-dasharray:none;stroke-dashoffset:0"
     id="speaker"
     width="177"
     height="12"
     x="200"
     y="47"
     ry="6"
     inkscape:label="#rect3593" />
  <path
     style="fill:none;stroke:#000000;stroke-width:4;stroke-linecap:round;stroke-linejoin:miter;stroke-miterlimit:4;stroke-opacity:1;stroke-dasharray:none"
     d="M 201,921 201,1037"
     id="stripe1"
     inkscape:label="#path3595" />
  <path
     id="stripe2"
     d="M 375,921 375,1037"
     style="fill:none;stroke:#000000;stroke-width:4;stroke-linecap:round;stroke-linejoin:miter;stroke-miterlimit:4;stroke-opacity:1;stroke-dasharray:none"
     inkscape:label="#path3597" />
  <rect
     style="fill:none;stroke:#000000;stroke-width:2;stroke-linecap:round;stroke-linejoin:round;stroke-miterlimit:4;stroke-opacity:1;stroke-dasharray:none;stroke-dashoffset:0"
     id="rect3613"
     width="536"
     height="900"
     x="20"
     y="20"
     ry="10" />
  <path
     style="font-size:medium;font-style:normal;font-variant:normal;font-weight:normal;font-stretch:normal;text-indent:0;text-align:start;text-decoration:none;line-height:normal;letter-spacing:normal;word-spacing:normal;text-transform:none;direction:ltr;block-progression:tb;writing-mode:lr-tb;text-anchor:start;color:#000000;fill:#000000;fill-opacity:1;stroke:none;stroke-width:5;marker:none;visibility:visible;display:inline;overflow:visible;enable-background:accumulate;font-family:Andale Mono;-inkscape-font-specification:Andale Mono"
     d="M 125.6,965 118.4,965 102,981.5 118.4,998 125.6,998 111.6,984 136,984 136,979 111.6,979 125.6,965 z"
     id="back"
     sodipodi:nodetypes="cccccccccc"
     inkscape:label="#path3599" />
  <g
     id="search"
     inkscape:label="#g3646"
     transform="translate(-13,891)">
    <path
       d="M 457,108 467,98 M 487.5,89.5 C 487.5,96.4 481.9,102 475,102 468.1,102 462.5,96.4 462.5,89.5 462.5,82.6 468.1,77 475,77 481.9,77 487.5,82.6 487.5,89.5 z"
       style="fill:none;stroke:#000000;stroke-width:5;stroke-linecap:butt;stroke-linejoin:miter;stroke-miterlimit:4;stroke-opacity:1;stroke-dasharray:none"
       id="path3615" />
  </g>
  <g
     id="logo"
     transform="translate(-13,891)">
    <path
       sodipodi:nodetypes="ccccccccc"
       d="M 285.4,70.81 C 288.9,69.37 292,68.65 294.9,68.6 296.5,68.6 297.9,68.77 299.2,69.08 301.3,69.61 304.1,71.15 305.2,71.78 L 300.1,89.35 C 297.4,87.67 294.3,86.04 290,86 L 290,86 C 287.1,86 284,86.66 280.4,88.01 L 285.4,70.81 z"
       id="Windows" />
    <path
       id="path3632"
       d="M 322,92 C 318.5,93.4 315.4,94.1 312.5,94.2 310.9,94.2 309.5,94 308.2,93.7 306.1,93.2 303.3,91.6 302.2,91 L 307.3,73.4 C 310,75.1 313.1,76.7 317.4,76.8 L 317.4,76.8 C 320.3,76.8 323.4,76.1 327,74.8 L 322,92 z"
       sodipodi:nodetypes="ccccccccc" />
    <path
       sodipodi:nodetypes="ccccccccc"
       d="M 316.1,111.7 C 312.6,113.1 309.5,113.8 306.6,113.9 305,113.9 303.6,113.7 302.3,113.4 300.2,112.9 297.4,111.3 296.3,110.7 L 301.4,93.15 C 304.1,94.85 307.2,96.45 311.5,96.55 L 311.5,96.55 C 314.4,96.55 317.5,95.85 321.1,94.55 L 316.1,111.7 z"
       id="path3634" />
    <path
       id="path3636"
       d="M 279.4,90.57 C 282.9,89.13 286,88.41 288.9,88.36 290.5,88.36 291.9,88.53 293.2,88.84 295.3,89.37 298.1,90.91 299.2,91.54 L 294.1,108.9 C 291.4,107.3 288.3,105.6 284,105.6 L 284,105.6 C 281.1,105.6 278,106.3 274.4,107.6 L 279.4,90.57 z"
       sodipodi:nodetypes="ccccccccc" />
  </g>
</svg>
