<?xml version="1.0" encoding="UTF-8" standalone="no"?>
<!-- Created with Inkscape (http://www.inkscape.org/) -->
<svg id="svg2" xmlns:rdf="http://www.w3.org/1999/02/22-rdf-syntax-ns#" xmlns="http://www.w3.org/2000/svg" height="795" width="375" version="1.1" ws-layout="scale-25" xmlns:cc="http://creativecommons.org/ns#" xmlns:dc="http://purl.org/dc/elements/1.1/">
 <title id="title2818">WireframeSketcher SVG asset</title>
 <metadata id="metadata7">
  <rdf:RDF>
   <cc:Work rdf:about="">
    <dc:format>image/svg+xml</dc:format>
    <dc:type rdf:resource="http://purl.org/dc/dcmitype/StillImage"/>
    <dc:title>WireframeSketcher SVG asset</dc:title>
    <dc:creator>
     <cc:Agent>
      <dc:title>Peter Severin</dc:title>
     </cc:Agent>
    </dc:creator>
    <dc:rights>
     <cc:Agent>
      <dc:title>Copyright (c) WireframeSketcher.com</dc:title>
     </cc:Agent>
    </dc:rights>
   </cc:Work>
  </rdf:RDF>
 </metadata>
 <path id="volume-down" style="color:#000000;enable-background:accumulate;" fill-rule="nonzero" fill="#000" d="M3,255,4,255,4,281,3,281c-1.662,0-3-1.3-3-3v-20c0-1.7,1.338-3,3-3z"/>
 <path id="volume-up" style="color:#000000;enable-background:accumulate;" fill-rule="nonzero" fill="#000" d="M3,189,4,189,4,215,3,215c-1.662,0-3-1.3-3-3v-20c0-1.7,1.338-3,3-3z"/>
 <path id="silent" style="color:#000000;enable-background:accumulate;" fill-rule="nonzero" fill="#000" d="M3,115,4,115,4,149,3,149c-1.662,0-3-1.3-3-3v-28c0-1.7,1.338-3,3-3z"/>
 <path id="power" style="color:#000000;enable-background:accumulate;" fill-rule="nonzero" fill="#000" d="M255,4,255,3c0-1.662,1.3-3,3-3h55c1.7,0,3,1.338,3,3v1z"/>
 <path id="frame" stroke-linejoin="round" style="enable-background:accumulate;color:#000000;" d="M57.88,4c-29.85,0-53.88,24.03-53.88,53.88v682.22c0,29.9,24.03,53.9,53.88,53.9h262.22c29.9,0,53.9-24,53.9-53.9v-682.22c0-29.85-24-53.88-53.9-53.88h-262.22zm-29.88,112h322v569.9h-322v-569.9z" fill-rule="nonzero" stroke-dashoffset="0" stroke="#000" stroke-linecap="round" stroke-miterlimit="4" stroke-dasharray="none" stroke-width="2" fill="#FFF"/>
 <g id="home" stroke-linejoin="round" stroke-dashoffset="0" stroke="#000" stroke-linecap="round" stroke-miterlimit="4" stroke-width="2" fill="none">
  <path id="path3757" style="color:#000000;enable-background:accumulate;" d="M224,738c0,19.3-15.7,35-35,35s-35-15.7-35-35,15.7-35,35-35,35,15.7,35,35z"/>
  <rect id="rect3759" style="color:#000000;enable-background:accumulate;" ry="4.4" height="22" width="22" stroke-dasharray="none" y="727" x="178"/>
 </g>
 <rect id="ws-guides-1" style="color:#000000;enable-background:accumulate;" ry="0" height="340" width="140" stroke="#000" y="318" x="107" stroke-width="2" fill="none"/>
 <rect id="ws-guides-2" stroke-linejoin="round" style="enable-background:accumulate;color:#000000;" stroke-dasharray="none" stroke-dashoffset="0" height="120" width="120" stroke="#000" stroke-linecap="round" stroke-miterlimit="4" y="400" x="117" stroke-width="2" fill="none"/>
 <path id="camera" stroke-linejoin="round" style="enable-background:accumulate;color:#000000;" d="M195.5,41.5a6.5,6.5,0,0,1,-13,0,6.5,6.5,0,1,1,13,0z" stroke-dashoffset="0" stroke="#000" stroke-linecap="round" stroke-miterlimit="4" stroke-dasharray="none" stroke-width="2" fill="none"/>
 <path id="flash" stroke-linejoin="round" style="enable-background:accumulate;color:#000000;" d="M142,72a4.5,4.5,0,0,1,-9,0,4.5,4.5,0,1,1,9,0z" stroke-dashoffset="0" stroke="#000" stroke-linecap="round" stroke-miterlimit="4" stroke-dasharray="none" stroke-width="2" fill="none"/>
 <rect id="microphone" stroke-linejoin="round" style="enable-background:accumulate;color:#000000;" stroke-dasharray="none" stroke-dashoffset="0" ry="3" height="6" width="61" stroke="#000" stroke-linecap="round" stroke-miterlimit="4" y="69" x="158.5" stroke-width="2" fill="none"/>
</svg>
