<?xml version="1.0" encoding="UTF-8" standalone="no"?>
<!-- Created with Inkscape (http://www.inkscape.org/) -->

<svg
   xmlns:dc="http://purl.org/dc/elements/1.1/"
   xmlns:cc="http://creativecommons.org/ns#"
   xmlns:rdf="http://www.w3.org/1999/02/22-rdf-syntax-ns#"
   xmlns:svg="http://www.w3.org/2000/svg"
   xmlns="http://www.w3.org/2000/svg"
   xmlns:sodipodi="http://sodipodi.sourceforge.net/DTD/sodipodi-0.dtd"
   xmlns:inkscape="http://www.inkscape.org/namespaces/inkscape"
   width="24"
   height="24"
   id="svg2"
   version="1.1"
   inkscape:version="0.47 r22583"
   sodipodi:docname="wp-delete.svg">
  <title
     id="title2818">WireframeSketcher SVG asset</title>
  <defs
     id="defs4">
    <inkscape:perspective
       sodipodi:type="inkscape:persp3d"
       inkscape:vp_x="0 : 526.2 : 1"
       inkscape:vp_y="0 : 1000 : 0"
       inkscape:vp_z="744.1 : 526.2 : 1"
       inkscape:persp3d-origin="372 : 350.8 : 1"
       id="perspective10" />
    <inkscape:perspective
       id="perspective3639"
       inkscape:persp3d-origin="0.5 : 0.3333 : 1"
       inkscape:vp_z="1 : 0.5 : 1"
       inkscape:vp_y="0 : 1000 : 0"
       inkscape:vp_x="0 : 0.5 : 1"
       sodipodi:type="inkscape:persp3d" />
  </defs>
  <sodipodi:namedview
     id="base"
     pagecolor="#ffffff"
     bordercolor="#666666"
     borderopacity="1.0"
     inkscape:pageopacity="0.0"
     inkscape:pageshadow="2"
     inkscape:zoom="22.4"
     inkscape:cx="-2.968"
     inkscape:cy="7.163"
     inkscape:document-units="px"
     inkscape:current-layer="svg2"
     showgrid="true"
     inkscape:window-width="1920"
     inkscape:window-height="1080"
     inkscape:window-x="0"
     inkscape:window-y="0"
     inkscape:window-maximized="0">
    <inkscape:grid
       type="xygrid"
       id="grid2816"
       empspacing="1"
       visible="true"
       enabled="true"
       snapvisiblegridlinesonly="true" />
  </sodipodi:namedview>
  <metadata
     id="metadata7">
    <rdf:RDF>
      <cc:Work
         rdf:about="">
        <dc:format>image/svg+xml</dc:format>
        <dc:type
           rdf:resource="http://purl.org/dc/dcmitype/StillImage" />
        <dc:title>WireframeSketcher SVG asset</dc:title>
        <dc:creator>
          <cc:Agent>
            <dc:title>Peter Severin</dc:title>
          </cc:Agent>
        </dc:creator>
        <dc:rights>
          <cc:Agent>
            <dc:title>Copyright (c) WireframeSketcher.com</dc:title>
          </cc:Agent>
        </dc:rights>
        <dc:subject>
          <rdf:Bag>
            <rdf:li>delete</rdf:li>
            <rdf:li>trash</rdf:li>
            <rdf:li>basket</rdf:li>
          </rdf:Bag>
        </dc:subject>
      </cc:Work>
    </rdf:RDF>
  </metadata>
  <g
     id="g3675"
     transform="translate(10.31,-8.786)">
    <g
       transform="matrix(1.02,0,0,-1.02,9.26,14.18)"
       id="g146">
      <path
         id="path148"
         style="fill:#000000;fill-opacity:1;fill-rule:nonzero;stroke:none"
         d="M 0,0 -0.002,0 -14.85,0.013 C -15.51,0.013 -16.04,0.543 -16.04,1.199 -16.04,1.854 -15.51,2.386 -14.85,2.386 L 0,2.373 C 0.655,2.373 1.188,1.842 1.188,1.187 1.187,0.53 0.653,0 0,0" />
    </g>
    <g
       transform="matrix(1.02,0,0,-1.02,3.385,10.91)"
       id="g150">
      <path
         id="path152"
         style="fill:#000000;fill-opacity:1;fill-rule:nonzero;stroke:none"
         d="M 0,0 -0.004,0 -3.271,0.012 C -3.709,0.014 -4.063,0.369 -4.061,0.807 -4.059,1.244 -3.75,1.591 -3.266,1.596 L 0.002,1.584 C 0.438,1.583 0.793,1.227 0.791,0.789 0.789,0.354 0.437,0 0,0" />
    </g>
    <g
       transform="matrix(1.02,0,0,-1.02,6.404,29.69)"
       id="g154">
      <path
         id="path156"
         style="fill:#000000;fill-opacity:1;fill-rule:nonzero;stroke:none"
         d="M 0,0 C -0.016,-0.433 -0.372,-0.773 -0.803,-0.773 -0.815,-0.773 -0.823,-0.772 -0.836,-0.772 -1.28,-0.754 -1.627,-0.379 -1.61,0.063 L -1.163,11.35 C -1.147,11.79 -0.778,12.14 -0.325,12.12 0.117,12.1 0.464,11.73 0.445,11.29 L 0,0 z M -3.902,0.031 C -3.902,-0.406 -4.257,-0.76 -4.695,-0.76 -5.133,-0.759 -5.486,-0.404 -5.486,0.033 L -5.472,11.32 C -5.472,11.75 -5.119,12.11 -4.681,12.11 L -4.679,12.11 C -4.242,12.11 -3.888,11.75 -3.888,11.32 L -3.902,0.031 z M -8.553,-0.772 C -8.562,-0.772 -8.572,-0.773 -8.582,-0.773 -9.014,-0.773 -9.371,-0.433 -9.387,0.002 L -9.807,11.29 C -9.822,11.73 -9.477,12.1 -9.031,12.12 -8.603,12.13 -8.213,11.79 -8.195,11.35 L -7.777,0.062 C -7.76,-0.381 -8.107,-0.756 -8.553,-0.772 M 2.738,14.06 -11.99,14.06 -11.9,12.41 C -11.9,12.36 -11.91,12.32 -11.9,12.27 L -11.26,-0.756 C -11.21,-1.741 -10.36,-2.549 -9.373,-2.549 L 0.121,-2.549 C 1.109,-2.549 1.957,-1.741 2.007,-0.756 L 2.65,12.27 C 2.652,12.32 2.644,12.36 2.642,12.41 L 2.738,14.06 z" />
    </g>
  </g>
</svg>
