<?xml version="1.0" encoding="UTF-8" standalone="no"?>
<!-- Created with Inkscape (http://www.inkscape.org/) -->

<svg
   xmlns:dc="http://purl.org/dc/elements/1.1/"
   xmlns:cc="http://creativecommons.org/ns#"
   xmlns:rdf="http://www.w3.org/1999/02/22-rdf-syntax-ns#"
   xmlns:svg="http://www.w3.org/2000/svg"
   xmlns="http://www.w3.org/2000/svg"
   xmlns:sodipodi="http://sodipodi.sourceforge.net/DTD/sodipodi-0.dtd"
   xmlns:inkscape="http://www.inkscape.org/namespaces/inkscape"
   width="24"
   height="24"
   id="svg2"
   version="1.1"
   inkscape:version="0.47 r22583"
   sodipodi:docname="Nouveau document 17">
  <title
     id="title2818">WireframeSketcher SVG asset</title>
  <defs
     id="defs4">
    <inkscape:perspective
       sodipodi:type="inkscape:persp3d"
       inkscape:vp_x="0 : 526.2 : 1"
       inkscape:vp_y="0 : 1000 : 0"
       inkscape:vp_z="744.1 : 526.2 : 1"
       inkscape:persp3d-origin="372 : 350.8 : 1"
       id="perspective10" />
    <inkscape:perspective
       id="perspective3350"
       inkscape:persp3d-origin="0.5 : 0.3333 : 1"
       inkscape:vp_z="1 : 0.5 : 1"
       inkscape:vp_y="0 : 1000 : 0"
       inkscape:vp_x="0 : 0.5 : 1"
       sodipodi:type="inkscape:persp3d" />
  </defs>
  <sodipodi:namedview
     id="base"
     pagecolor="#ffffff"
     bordercolor="#666666"
     borderopacity="1.0"
     inkscape:pageopacity="0.0"
     inkscape:pageshadow="2"
     inkscape:zoom="31.68"
     inkscape:cx="5.305"
     inkscape:cy="11.91"
     inkscape:document-units="px"
     inkscape:current-layer="svg2"
     showgrid="true"
     inkscape:window-width="1920"
     inkscape:window-height="1080"
     inkscape:window-x="0"
     inkscape:window-y="0"
     inkscape:window-maximized="0">
    <inkscape:grid
       type="xygrid"
       id="grid2816"
       empspacing="1"
       visible="true"
       enabled="true"
       snapvisiblegridlinesonly="true" />
  </sodipodi:namedview>
  <metadata
     id="metadata7">
    <rdf:RDF>
      <cc:Work
         rdf:about="">
        <dc:format>image/svg+xml</dc:format>
        <dc:type
           rdf:resource="http://purl.org/dc/dcmitype/StillImage" />
        <dc:title>WireframeSketcher SVG asset</dc:title>
        <dc:creator>
          <cc:Agent>
            <dc:title>Peter Severin</dc:title>
          </cc:Agent>
        </dc:creator>
        <dc:rights>
          <cc:Agent>
            <dc:title>Copyright (c) WireframeSketcher.com</dc:title>
          </cc:Agent>
        </dc:rights>
      </cc:Work>
    </rdf:RDF>
  </metadata>
  <g
     id="g228"
     transform="matrix(0.9461,0,0,-0.9461,4.545,4.847)">
    <path
       d="M 0,0 C 0.402,1.039 0.967,1.939 1.695,2.701 2.424,3.463 3.301,4.059 4.328,4.484 5.357,4.912 6.504,5.125 7.774,5.125 9.414,5.125 10.78,4.9 11.88,4.451 12.98,4 13.86,3.439 14.53,2.77 15.2,2.102 15.67,1.379 15.96,0.605 16.25,-0.168 16.4,-0.889 16.4,-1.559 16.4,-2.667 16.25,-3.578 15.96,-4.293 15.67,-5.01 15.32,-5.623 14.89,-6.131 14.47,-6.639 13.99,-7.072 13.47,-7.427 12.95,-7.787 12.46,-8.145 12,-8.502 11.54,-8.859 11.13,-9.271 10.77,-9.73 10.41,-10.19 10.19,-10.77 10.1,-11.46 L 10.1,-12.78 5.42,-12.78 5.42,-11.22 C 5.488,-10.23 5.683,-9.396 5.988,-8.729 6.301,-8.059 6.666,-7.486 7.08,-7.014 7.498,-6.539 7.936,-6.131 8.396,-5.785 8.858,-5.438 9.285,-5.092 9.68,-4.745 10.07,-4.398 10.39,-4.018 10.63,-3.602 10.88,-3.188 10.98,-2.667 10.96,-2.044 10.96,-0.98 10.7,-0.195 10.18,0.313 9.662,0.818 8.941,1.074 8.015,1.074 7.394,1.074 6.856,0.951 6.406,0.711 5.957,0.467 5.586,0.143 5.301,-0.262 5.008,-0.664 4.795,-1.137 4.656,-1.68 4.521,-2.223 4.449,-2.805 4.449,-3.428 L -0.641,-3.428 C -0.619,-2.182 -0.401,-1.04 0,0"
       style="fill:#000000;fill-opacity:1;fill-rule:nonzero;stroke:none"
       id="path230" />
  </g>
  <g
     id="g232"
     transform="matrix(0.9461,0,0,-0.9461,14.37,21.43)">
    <path
       d="M 0,0 C 0,-1.502 -1.217,-2.719 -2.721,-2.719 -4.221,-2.719 -5.436,-1.502 -5.436,0 -5.436,1.5 -4.221,2.719 -2.721,2.719 -1.217,2.719 0,1.5 0,0"
       style="fill:#000000;fill-opacity:1;fill-rule:nonzero;stroke:none"
       id="path234" />
  </g>
</svg>
