<?xml version="1.0" encoding="UTF-8" standalone="no"?>
<!-- Created with Inkscape (http://www.inkscape.org/) -->

<svg
   xmlns:dc="http://purl.org/dc/elements/1.1/"
   xmlns:cc="http://creativecommons.org/ns#"
   xmlns:rdf="http://www.w3.org/1999/02/22-rdf-syntax-ns#"
   xmlns:svg="http://www.w3.org/2000/svg"
   xmlns="http://www.w3.org/2000/svg"
   xmlns:sodipodi="http://sodipodi.sourceforge.net/DTD/sodipodi-0.dtd"
   xmlns:inkscape="http://www.inkscape.org/namespaces/inkscape"
   width="24"
   height="24"
   id="svg2"
   version="1.1"
   inkscape:version="0.47 r22583"
   sodipodi:docname="wp-refresh.svg">
  <title
     id="title2818">WireframeSketcher SVG asset</title>
  <defs
     id="defs4">
    <inkscape:perspective
       sodipodi:type="inkscape:persp3d"
       inkscape:vp_x="0 : 526.2 : 1"
       inkscape:vp_y="0 : 1000 : 0"
       inkscape:vp_z="744.1 : 526.2 : 1"
       inkscape:persp3d-origin="372 : 350.8 : 1"
       id="perspective10" />
    <inkscape:perspective
       id="perspective3248"
       inkscape:persp3d-origin="0.5 : 0.3333 : 1"
       inkscape:vp_z="1 : 0.5 : 1"
       inkscape:vp_y="0 : 1000 : 0"
       inkscape:vp_x="0 : 0.5 : 1"
       sodipodi:type="inkscape:persp3d" />
  </defs>
  <sodipodi:namedview
     id="base"
     pagecolor="#ffffff"
     bordercolor="#666666"
     borderopacity="1.0"
     inkscape:pageopacity="0.0"
     inkscape:pageshadow="2"
     inkscape:zoom="15.84"
     inkscape:cx="-18.42"
     inkscape:cy="12.28"
     inkscape:document-units="px"
     inkscape:current-layer="svg2"
     showgrid="true"
     inkscape:window-width="1920"
     inkscape:window-height="1080"
     inkscape:window-x="0"
     inkscape:window-y="0"
     inkscape:window-maximized="0">
    <inkscape:grid
       type="xygrid"
       id="grid2816"
       empspacing="1"
       visible="true"
       enabled="true"
       snapvisiblegridlinesonly="true" />
  </sodipodi:namedview>
  <metadata
     id="metadata7">
    <rdf:RDF>
      <cc:Work
         rdf:about="">
        <dc:format>image/svg+xml</dc:format>
        <dc:type
           rdf:resource="http://purl.org/dc/dcmitype/StillImage" />
        <dc:title>WireframeSketcher SVG asset</dc:title>
        <dc:creator>
          <cc:Agent>
            <dc:title>Peter Severin</dc:title>
          </cc:Agent>
        </dc:creator>
        <dc:rights>
          <cc:Agent>
            <dc:title>Copyright (c) WireframeSketcher.com</dc:title>
          </cc:Agent>
        </dc:rights>
        <dc:subject>
          <rdf:Bag>
            <rdf:li>sync</rdf:li>
            <rdf:li>refresh</rdf:li>
            <rdf:li>reload</rdf:li>
          </rdf:Bag>
        </dc:subject>
      </cc:Work>
    </rdf:RDF>
  </metadata>
  <g
     id="g240"
     transform="matrix(0.8821,0,0,-0.882,13.59,5.463)">
    <path
       d="M 0,0 C 1.351,-0.262 2.573,-0.892 3.556,-1.802 L -1.813,-2.075 1.022,-4.892 9.122,-4.711 9.229,3.388 6.388,6.194 6.174,1.167 C 4.672,2.538 2.81,3.488 0.75,3.886 -5.313,5.062 -11.44,1.469 -12.83,-5.692 L -8.493,-5.741 C -7.733,-1.817 -3.924,0.758 0,0"
       style="fill:#000000;fill-opacity:1;fill-rule:nonzero;stroke:none"
       id="path242" />
  </g>
  <g
     id="g244"
     transform="matrix(0.8821,0,0,-0.882,10.27,18.66)">
    <path
       d="M 0,0 C -1.408,0.271 -2.672,0.95 -3.672,1.924 L 2.006,2.212 -0.834,5.026 -8.931,4.849 -9.037,-3.253 -6.196,-6.06 -5.993,-1.317 C -4.521,-2.605 -2.729,-3.506 -0.752,-3.889 5.317,-5.062 11.62,-1.198 12.95,5.698 L 8.502,5.743 C 7.74,1.815 3.928,-0.761 0,0"
       style="fill:#000000;fill-opacity:1;fill-rule:nonzero;stroke:none"
       id="path246" />
  </g>
</svg>
