<?xml version="1.0" encoding="UTF-8" standalone="no"?>
<!-- Created with Inkscape (http://www.inkscape.org/) -->

<svg
   xmlns:dc="http://purl.org/dc/elements/1.1/"
   xmlns:cc="http://creativecommons.org/ns#"
   xmlns:rdf="http://www.w3.org/1999/02/22-rdf-syntax-ns#"
   xmlns:svg="http://www.w3.org/2000/svg"
   xmlns="http://www.w3.org/2000/svg"
   xmlns:sodipodi="http://sodipodi.sourceforge.net/DTD/sodipodi-0.dtd"
   xmlns:inkscape="http://www.inkscape.org/namespaces/inkscape"
   width="24"
   height="24"
   id="svg2"
   version="1.1"
   inkscape:version="0.47 r22583"
   sodipodi:docname="wp-search.svg">
  <title
     id="title2818">WireframeSketcher SVG asset</title>
  <defs
     id="defs4">
    <inkscape:perspective
       sodipodi:type="inkscape:persp3d"
       inkscape:vp_x="0 : 526.2 : 1"
       inkscape:vp_y="0 : 1000 : 0"
       inkscape:vp_z="744.1 : 526.2 : 1"
       inkscape:persp3d-origin="372 : 350.8 : 1"
       id="perspective10" />
    <inkscape:perspective
       id="perspective3557"
       inkscape:persp3d-origin="0.5 : 0.3333 : 1"
       inkscape:vp_z="1 : 0.5 : 1"
       inkscape:vp_y="0 : 1000 : 0"
       inkscape:vp_x="0 : 0.5 : 1"
       sodipodi:type="inkscape:persp3d" />
  </defs>
  <sodipodi:namedview
     id="base"
     pagecolor="#ffffff"
     bordercolor="#666666"
     borderopacity="1.0"
     inkscape:pageopacity="0.0"
     inkscape:pageshadow="2"
     inkscape:zoom="15.84"
     inkscape:cx="-1.204"
     inkscape:cy="2.491"
     inkscape:document-units="px"
     inkscape:current-layer="svg2"
     showgrid="true"
     inkscape:window-width="1920"
     inkscape:window-height="1080"
     inkscape:window-x="0"
     inkscape:window-y="0"
     inkscape:window-maximized="0">
    <inkscape:grid
       type="xygrid"
       id="grid2816"
       empspacing="1"
       visible="true"
       enabled="true"
       snapvisiblegridlinesonly="true" />
  </sodipodi:namedview>
  <metadata
     id="metadata7">
    <rdf:RDF>
      <cc:Work
         rdf:about="">
        <dc:format>image/svg+xml</dc:format>
        <dc:type
           rdf:resource="http://purl.org/dc/dcmitype/StillImage" />
        <dc:title>WireframeSketcher SVG asset</dc:title>
        <dc:creator>
          <cc:Agent>
            <dc:title>Peter Severin</dc:title>
          </cc:Agent>
        </dc:creator>
        <dc:rights>
          <cc:Agent>
            <dc:title>Copyright (c) WireframeSketcher.com</dc:title>
          </cc:Agent>
        </dc:rights>
        <dc:subject>
          <rdf:Bag>
            <rdf:li>search</rdf:li>
            <rdf:li>find</rdf:li>
          </rdf:Bag>
        </dc:subject>
      </cc:Work>
    </rdf:RDF>
  </metadata>
  <g
     id="g130"
     transform="matrix(1.077,0,0,-1.077,7.552,13.34)">
    <path
       d="M 0,0 -5.933,-5.988 C -6.72,-6.781 -6.712,-8.062 -5.921,-8.846 -5.526,-9.237 -5.012,-9.431 -4.498,-9.431 -3.978,-9.431 -3.458,-9.232 -3.063,-8.833 L 2.855,-2.858 C 1.656,-2.156 0.678,-1.171 0,0"
       style="fill:#000000;fill-opacity:1;fill-rule:nonzero;stroke:none"
       id="path132" />
  </g>
  <path
     style="fill:#000000;fill-opacity:1;fill-rule:nonzero;stroke:none"
     d="M 14.94,0.5 C 11.11,0.4979 7.615,3.114 6.656,7 6.484,7.683 6.406,8.356 6.406,9.031 6.406,10.56 6.823,12.03 7.562,13.31 8.284,14.56 9.417,15.58 10.62,16.38 11.31,16.84 12.09,17.11 12.91,17.31 13.59,17.48 14.26,17.56 14.94,17.56 18.78,17.56 22.26,14.98 23.22,11.09 23.39,10.4 23.47,9.708 23.47,9.031 23.47,5.194 20.85,1.71 16.97,0.75 16.29,0.5798 15.62,0.5 14.94,0.5 z M 14.94,3.125 C 15.41,3.125 15.87,3.162 16.34,3.281 19.04,3.941 20.88,6.377 20.88,9.031 20.88,9.498 20.81,9.96 20.69,10.44 20.03,13.14 17.6,14.97 14.94,14.97 14.47,14.97 14.01,14.89 13.53,14.78 12.82,14.6 12.17,14.32 11.59,13.91 10.98,13.48 10.41,12.95 10.03,12.31 9.448,11.33 9.031,10.21 9.031,9.031 9.031,8.561 9.069,8.098 9.188,7.625 9.855,4.923 12.29,3.125 14.94,3.125 z"
     id="path136"
     sodipodi:nodetypes="ccsaassssscccssssaassc" />
</svg>
