<?xml version="1.0" encoding="UTF-8" standalone="no"?>
<!-- Created with Inkscape (http://www.inkscape.org/) -->

<svg
   xmlns:dc="http://purl.org/dc/elements/1.1/"
   xmlns:cc="http://creativecommons.org/ns#"
   xmlns:rdf="http://www.w3.org/1999/02/22-rdf-syntax-ns#"
   xmlns:svg="http://www.w3.org/2000/svg"
   xmlns="http://www.w3.org/2000/svg"
   xmlns:sodipodi="http://sodipodi.sourceforge.net/DTD/sodipodi-0.dtd"
   xmlns:inkscape="http://www.inkscape.org/namespaces/inkscape"
   width="24"
   height="24"
   id="svg2"
   version="1.1"
   inkscape:version="0.47 r22583"
   sodipodi:docname="wp-share.svg">
  <title
     id="title2818">WireframeSketcher SVG asset</title>
  <defs
     id="defs4">
    <inkscape:perspective
       sodipodi:type="inkscape:persp3d"
       inkscape:vp_x="0 : 526.2 : 1"
       inkscape:vp_y="0 : 1000 : 0"
       inkscape:vp_z="744.1 : 526.2 : 1"
       inkscape:persp3d-origin="372 : 350.8 : 1"
       id="perspective10" />
    <inkscape:perspective
       id="perspective3590"
       inkscape:persp3d-origin="0.5 : 0.3333 : 1"
       inkscape:vp_z="1 : 0.5 : 1"
       inkscape:vp_y="0 : 1000 : 0"
       inkscape:vp_x="0 : 0.5 : 1"
       sodipodi:type="inkscape:persp3d" />
    <inkscape:perspective
       id="perspective3854"
       inkscape:persp3d-origin="0.5 : 0.3333 : 1"
       inkscape:vp_z="1 : 0.5 : 1"
       inkscape:vp_y="0 : 1000 : 0"
       inkscape:vp_x="0 : 0.5 : 1"
       sodipodi:type="inkscape:persp3d" />
  </defs>
  <sodipodi:namedview
     id="base"
     pagecolor="#ffffff"
     bordercolor="#666666"
     borderopacity="1.0"
     inkscape:pageopacity="0.0"
     inkscape:pageshadow="2"
     inkscape:zoom="16"
     inkscape:cx="-13.14"
     inkscape:cy="5.19"
     inkscape:document-units="px"
     inkscape:current-layer="svg2"
     showgrid="true"
     inkscape:window-width="1920"
     inkscape:window-height="1080"
     inkscape:window-x="0"
     inkscape:window-y="0"
     inkscape:window-maximized="0">
    <inkscape:grid
       type="xygrid"
       id="grid2816"
       empspacing="1"
       visible="true"
       enabled="true"
       snapvisiblegridlinesonly="true" />
  </sodipodi:namedview>
  <metadata
     id="metadata7">
    <rdf:RDF>
      <cc:Work
         rdf:about="">
        <dc:format>image/svg+xml</dc:format>
        <dc:type
           rdf:resource="http://purl.org/dc/dcmitype/StillImage" />
        <dc:title>WireframeSketcher SVG asset</dc:title>
        <dc:creator>
          <cc:Agent>
            <dc:title>Peter Severin</dc:title>
          </cc:Agent>
        </dc:creator>
        <dc:rights>
          <cc:Agent>
            <dc:title>Copyright (c) WireframeSketcher.com</dc:title>
          </cc:Agent>
        </dc:rights>
        <dc:subject>
          <rdf:Bag>
            <rdf:li>share</rdf:li>
            <rdf:li>gift</rdf:li>
          </rdf:Bag>
        </dc:subject>
      </cc:Work>
    </rdf:RDF>
  </metadata>
  <path
     d="M 19.61,17.29 14.2,17.29 14.2,24 19.61,24 19.61,17.29 z"
     style="fill:#000000;fill-opacity:1;fill-rule:nonzero;stroke:none"
     id="path288" />
  <path
     d="M 4.4,24 9.8,24 9.8,17.29 4.4,17.29 4.4,24 z"
     style="fill:#000000;fill-opacity:1;fill-rule:nonzero;stroke:none"
     id="path290" />
  <g
     id="g292"
     transform="matrix(1.017,0,0,-1.017,14.19,12.41)">
    <path
       d="M 0,0 0,-3.361 6.141,-3.361 6.141,0 5.639,2.16 -0.486,2.16 -0.037,0 0,0 z"
       style="fill:#000000;fill-opacity:1;fill-rule:nonzero;stroke:none"
       id="path294" />
  </g>
  <g
     id="g296"
     transform="matrix(1.017,0,0,-1.017,9.82,12.41)">
    <path
       d="M 0,0 0.45,2.16 -5.653,2.16 -6.154,0 -6.154,-3.361 -0.022,-3.361 -0.022,0 0,0 z"
       style="fill:#000000;fill-opacity:1;fill-rule:nonzero;stroke:none"
       id="path298" />
  </g>
  <path
     id="path350"
     style="fill:#000000;fill-opacity:1;fill-rule:nonzero;stroke:none"
     d="M 15.93,4.845 C 16.09,4.765 16.26,4.724 16.44,4.724 16.88,4.724 17.27,4.97 17.47,5.36 17.75,5.93 17.51,6.62 16.95,6.9 16.66,7.05 15.49,7.19 13.68,7.24 14.62,6.07 15.57,5.024 15.93,4.845 M 10.84,2.811 C 10.84,2.177 11.35,1.66 11.99,1.659 12.62,1.659 13.14,2.175 13.14,2.809 13.14,3.21 12.62,4.517 11.99,5.88 11.36,4.513 10.84,3.202 10.84,2.811 M 7.05,6.88 C 6.48,6.6 6.25,5.91 6.53,5.34 6.72,4.942 7.12,4.697 7.56,4.697 7.74,4.697 7.91,4.739 8.07,4.82 8.43,4.997 9.37,6.04 10.31,7.22 8.51,7.16 7.33,7.02 7.05,6.88 M 12.35,8.88 C 14.32,8.88 16.82,8.79 17.69,8.36 19.07,7.67 19.64,5.99 18.95,4.603 18.48,3.645 17.51,3.049 16.45,3.049 16.01,3.049 15.59,3.148 15.19,3.343 15.02,3.426 14.83,3.574 14.62,3.758 14.72,3.38 14.79,3.047 14.79,2.799 14.79,1.256 13.53,0 11.99,0 10.44,0.002 9.19,1.261 9.19,2.805 9.19,3.047 9.25,3.371 9.36,3.741 9.16,3.566 8.96,3.424 8.8,3.343 8.41,3.148 7.99,3.049 7.55,3.049 6.48,3.049 5.52,3.645 5.04,4.603 4.36,5.99 4.92,7.67 6.31,8.36 7.17,8.79 9.66,8.88 11.64,8.88 L 12,8.88 12.35,8.88 z"
     sodipodi:nodetypes="cscscccsscccssscccscsscssscssccccc" />
</svg>
