<?xml version="1.0" encoding="UTF-8" standalone="no"?>
<!-- Created with Inkscape (http://www.inkscape.org/) -->
<svg id="svg2" xmlns:rdf="http://www.w3.org/1999/02/22-rdf-syntax-ns#" xmlns="http://www.w3.org/2000/svg" height="640" width="1140" version="1.1" ws-layout="scale-25" xmlns:cc="http://creativecommons.org/ns#" xmlns:dc="http://purl.org/dc/elements/1.1/">
 <title id="title2818">WireframeSketcher SVG asset</title>
 <defs id="defs4"></defs>
 <metadata id="metadata7">
  <rdf:RDF>
   <cc:Work rdf:about="">
    <dc:format>image/svg+xml</dc:format>
    <dc:type rdf:resource="http://purl.org/dc/dcmitype/StillImage"/>
    <dc:title>WireframeSketcher SVG asset</dc:title>
    <dc:creator>
     <cc:Agent>
      <dc:title>Peter Severin</dc:title>
     </cc:Agent>
    </dc:creator>
    <dc:rights>
     <cc:Agent>
      <dc:title>Copyright (c) WireframeSketcher.com</dc:title>
     </cc:Agent>
    </dc:rights>
   </cc:Work>
  </rdf:RDF>
 </metadata>
 <path id="rect3003" stroke-linejoin="round" style="enable-background:accumulate;color:#000000;" d="M34,1c-18.28,0-33,14.72-33,33v572c0,18.3,14.72,33,33,33h1072c18,0,33-14.7,33-33v-572c0-18.28-15-33-33-33h-1072zm95,43,882,0,0,552-882,0,0-552z" stroke-dashoffset="0" stroke="#000" stroke-linecap="round" stroke-miterlimit="4" stroke-dasharray="none" stroke-width="2" fill="#FFF"/>
 <path id="path3036" stroke-linejoin="round" style="enable-background:accumulate;color:#000000;" d="M110,190.5a7.5,7.5,0,1,1,-15,0,7.5,7.5,0,1,1,15,0z" transform="translate(-13,-14)" stroke-dashoffset="0" stroke="#000" stroke-linecap="round" stroke-miterlimit="4" stroke-dasharray="none" stroke-width="2" fill="none"/>
 <path id="path3038" stroke-linejoin="round" style="enable-background:accumulate;color:#000000;" d="M1090,333.5a3.5,3.5,0,1,1,-7,0,3.5,3.5,0,1,1,7,0z" transform="translate(-12.5,-13.5)" stroke-dashoffset="0" stroke="#000" stroke-linecap="round" stroke-miterlimit="4" stroke-dasharray="none" stroke-width="2" fill="none"/>
 <rect id="ws-guides-2" stroke-linejoin="round" style="enable-background:accumulate;color:#000000;" stroke-dasharray="none" stroke-dashoffset="0" ry="0" height="140" width="440" stroke="#000" stroke-linecap="round" stroke-miterlimit="4" y="250" x="350" stroke-width="2" fill="none"/>
 <rect id="ws-guides-1" stroke-linejoin="round" style="enable-background:accumulate;color:#000000;" stroke-dasharray="none" stroke-dashoffset="0" height="220" width="480" stroke="#000" stroke-linecap="round" stroke-miterlimit="4" y="210" x="330" stroke-width="2" fill="none"/>
</svg>
