<?xml version="1.0" encoding="ISO-8859-1"?>
<!-- Converted from Font Awesome. Glyph: f26e -->
<!DOCTYPE svg PUBLIC "-//W3C//DTD SVG 1.1//EN" "http://www.w3.org/Graphics/SVG/1.1/DTD/svg11.dtd">
<svg version="1.1" xmlns="http://www.w3.org/2000/svg" xmlns:xlink="http://www.w3.org/1999/xlink" width="2048" height="2048" xml:space="preserve">
<g transform="translate(0, 1536) scale(0.888888888888889, -0.888888888888889)">
	<path id="500px" d="M1391 390v0l-1 1q-15 18 -34.5 37.5t-62.5 57.5t-93.5 62t-95.5 24q-48 0 -83 -21.5t-51 -54t-23 -59t-7 -47.5v0v0q0 -21 7 -48t23 -59t51 -53.5t83 -21.5q45 0 95.5 24t94 62.5t62 57t34.5 37.5zM2103 390q0 21 -7 47.5t-23 59t-51 54t-83 21.5q-45 0 -95.5 -24 t-94 -62.5t-62 -57t-34.5 -37.5l-1 -1v0v0l1 -1q15 -18 34.5 -37.5t62.5 -57.5t93.5 -62t95.5 -24q48 0 83 21.5t51 53.5t23 59t7 48zM2304 393q0 -69 -24 -137.5t-68 -126t-116 -93.5t-159 -36q-68 0 -134 24t-113.5 58.5t-84.5 69.5t-59.5 59t-25.5 24t-22.5 -24 t-54.5 -58.5t-81.5 -69.5t-115 -59t-143.5 -24q-65 0 -123.5 22.5t-96.5 54t-66.5 66.5t-41 59.5t-12.5 32.5q0 -8 -8.5 -26.5t-25 -45.5t-47 -55t-69 -52.5t-96.5 -40t-125 -15.5q-71 0 -130 15.5t-98.5 39.5t-70.5 56.5t-48 63.5t-27.5 63.5t-14 54t-3.5 36.5h217 q0 -55 49 -107.5t126 -52.5q79 0 134.5 67t55.5 148q0 80 -52 136.5t-138 56.5q-5 0 -13 -0.5t-31 -5t-43 -12t-42 -24.5t-34 -40h-195l102 583h602v-174h-445q-27 -159 -41 -248q4 0 16.5 13t31.5 28.5t65 28.5t108 13t114 -20.5t82.5 -49.5t51.5 -58.5t31 -50t11 -20.5 t13 25t36.5 60.5t60.5 71.5t97 61t133 25t140.5 -25t115.5 -60.5t83.5 -71.5t56.5 -61t21 -25q2 0 22 25t56 60.5t83.5 71.5t115.5 61t140 25q92 0 164.5 -35t115.5 -93t65 -125t22 -137z" />
</g>
</svg>	
