<?xml version="1.0" encoding="ISO-8859-1"?>
<!-- Converted from Font Awesome. Glyph: f17b -->
<!DOCTYPE svg PUBLIC "-//W3C//DTD SVG 1.1//EN" "http://www.w3.org/Graphics/SVG/1.1/DTD/svg11.dtd">
<svg version="1.1" xmlns="http://www.w3.org/2000/svg" xmlns:xlink="http://www.w3.org/1999/xlink" width="2048" height="2048" xml:space="preserve">
<g transform="translate(320, 1664) scale(1, -1)">
	<path id="android" d="M0 337v430q0 42 30 72t73 30q42 0 72 -30t30 -72v-430q0 -43 -29.5 -73t-72.5 -30t-73 30t-30 73zM241 886q0 117 64 215.5t172 153.5l-71 131q-7 13 5 20q13 6 20 -6l72 -132q95 42 201 42t201 -42l72 132q7 12 20 6q12 -7 5 -20l-71 -131q107 -55 171 -153.5t64 -215.5 h-925zM245 184v666h918v-666q0 -46 -32 -78t-77 -32h-75v-227q0 -43 -30 -73t-73 -30t-73 30t-30 73v227h-138v-227q0 -43 -30 -73t-73 -30q-42 0 -72 30t-30 73l-1 227h-74q-46 0 -78 32t-32 78zM455 1092q0 -16 11 -27.5t27 -11.5t27.5 11.5t11.5 27.5t-11.5 27.5 t-27.5 11.5t-27 -11.5t-11 -27.5zM876 1092q0 -16 11.5 -27.5t27.5 -11.5t27 11.5t11 27.5t-11 27.5t-27 11.5t-27.5 -11.5t-11.5 -27.5zM1203 337v430q0 43 30 72.5t72 29.5q43 0 73 -29.5t30 -72.5v-430q0 -43 -30 -73t-73 -30q-42 0 -72 30t-30 73z" />
</g>
</svg>	
