<?xml version="1.0" encoding="ISO-8859-1"?>
<!-- Converted from Font Awesome. Glyph: f242 -->
<!DOCTYPE svg PUBLIC "-//W3C//DTD SVG 1.1//EN" "http://www.w3.org/Graphics/SVG/1.1/DTD/svg11.dtd">
<svg version="1.1" xmlns="http://www.w3.org/2000/svg" xmlns:xlink="http://www.w3.org/1999/xlink" width="2048" height="2048" xml:space="preserve">
  <metadata>
    <rdf:RDF>
      <cc:Work>
        <dc:subject>
          <rdf:Bag><rdf:li>half</rdf:li></rdf:Bag>
        </dc:subject>
      </cc:Work>
    </rdf:RDF>
  </metadata>
<g transform="translate(0, 1536) scale(0.888888888888889, -0.888888888888889)">
	<path id="battery-2" d="M256 256v768h896v-768h-896zM2176 960q53 0 90.5 -37.5t37.5 -90.5v-384q0 -53 -37.5 -90.5t-90.5 -37.5v-160q0 -66 -47 -113t-113 -47h-1856q-66 0 -113 47t-47 113v960q0 66 47 113t113 47h1856q66 0 113 -47t47 -113v-160zM2176 448v384h-128v288q0 14 -9 23t-23 9 h-1856q-14 0 -23 -9t-9 -23v-960q0 -14 9 -23t23 -9h1856q14 0 23 9t9 23v288h128z" />
</g>
</svg>	
