<?xml version="1.0" encoding="ISO-8859-1"?>
<!-- Converted from Font Awesome. Glyph: f19c -->
<!DOCTYPE svg PUBLIC "-//W3C//DTD SVG 1.1//EN" "http://www.w3.org/Graphics/SVG/1.1/DTD/svg11.dtd">
<svg version="1.1" xmlns="http://www.w3.org/2000/svg" xmlns:xlink="http://www.w3.org/1999/xlink" width="2048" height="2048" xml:space="preserve">
  <metadata>
    <rdf:RDF>
      <cc:Work>
        <dc:subject>
          <rdf:Bag><rdf:li>university</rdf:li><rdf:li>institution</rdf:li></rdf:Bag>
        </dc:subject>
      </cc:Work>
    </rdf:RDF>
  </metadata>
<g transform="translate(0, 1664) scale(1, -1)">
	<path id="bank" d="M0 -128q0 26 20.5 45t48.5 19h1782q28 0 48.5 -19t20.5 -45v-128h-1920v128zM0 1024v128l960 384l960 -384v-128h-128q0 -26 -20.5 -45t-48.5 -19h-1526q-28 0 -48.5 19t-20.5 45h-128zM128 0v64q0 26 20.5 45t48.5 19h59v768h256v-768h128v768h256v-768h128v768h256 v-768h128v768h256v-768h59q28 0 48.5 -19t20.5 -45v-64h-1664z" />
</g>
</svg>	
