<?xml version="1.0" encoding="ISO-8859-1"?>
<!-- Converted from Font Awesome. Glyph: f1b5 -->
<!DOCTYPE svg PUBLIC "-//W3C//DTD SVG 1.1//EN" "http://www.w3.org/Graphics/SVG/1.1/DTD/svg11.dtd">
<svg version="1.1" xmlns="http://www.w3.org/2000/svg" xmlns:xlink="http://www.w3.org/1999/xlink" width="2048" height="2048" xml:space="preserve">
<g transform="translate(256, 1664) scale(1, -1)">
	<path id="behance-square" d="M0 160v960q0 119 84.5 203.5t203.5 84.5h960q119 0 203.5 -84.5t84.5 -203.5v-960q0 -119 -84.5 -203.5t-203.5 -84.5h-960q-119 0 -203.5 84.5t-84.5 203.5zM128 254h382q117 0 197 57.5t80 170.5q0 158 -143 200q107 52 107 164q0 57 -19.5 96.5t-56.5 60.5t-79 29.5 t-97 8.5h-371v-787zM301 388v217h189q124 0 124 -113q0 -104 -128 -104h-185zM301 723v184h163q119 0 119 -90q0 -94 -106 -94h-176zM838 538q0 -135 79 -217t213 -82q205 0 267 191h-138q-11 -34 -47.5 -54t-75.5 -20q-68 0 -104 38t-36 107h411q1 10 1 30 q0 132 -74.5 220.5t-203.5 88.5q-128 0 -210 -86t-82 -216zM964 911v77h319v-77h-319zM996 600q4 56 39 89t91 33q113 0 124 -122h-254z" />
</g>
</svg>	
