<?xml version="1.0" encoding="ISO-8859-1"?>
<!-- Converted from Font Awesome. Glyph: f02a -->
<!DOCTYPE svg PUBLIC "-//W3C//DTD SVG 1.1//EN" "http://www.w3.org/Graphics/SVG/1.1/DTD/svg11.dtd">
<svg version="1.1" xmlns="http://www.w3.org/2000/svg" xmlns:xlink="http://www.w3.org/1999/xlink" width="2048" height="2048" xml:space="preserve">
<g transform="translate(128, 1664) scale(1, -1)">
	<path id="barcode" d="M0 0v1408h63v-1408h-63zM94 1v1407h32v-1407h-32zM189 1v1407h31v-1407h-31zM346 1v1407h31v-1407h-31zM472 1v1407h62v-1407h-62zM629 1v1407h31v-1407h-31zM692 1v1407h31v-1407h-31zM755 1v1407h31v-1407h-31zM880 1v1407h63v-1407h-63zM1037 1v1407h63v-1407h-63z M1163 1v1407h63v-1407h-63zM1289 1v1407h63v-1407h-63zM1383 1v1407h63v-1407h-63zM1541 1v1407h94v-1407h-94zM1666 1v1407h32v-1407h-32zM1729 0v1408h63v-1408h-63z" />
</g>
</svg>	
