<?xml version="1.0" encoding="ISO-8859-1"?>
<!-- Converted from Font Awesome. Glyph: f24e -->
<!DOCTYPE svg PUBLIC "-//W3C//DTD SVG 1.1//EN" "http://www.w3.org/Graphics/SVG/1.1/DTD/svg11.dtd">
<svg version="1.1" xmlns="http://www.w3.org/2000/svg" xmlns:xlink="http://www.w3.org/1999/xlink" width="2048" height="2048" xml:space="preserve">
<g transform="translate(0, 1536) scale(0.888888888888889, -0.888888888888889)">
	<path id="balance-scale" d="M1728 1088l-384 -704h768zM448 1088l-384 -704h768zM1269 1280q-14 -40 -45.5 -71.5t-71.5 -45.5v-1291h608q14 0 23 -9t9 -23v-64q0 -14 -9 -23t-23 -9h-1344q-14 0 -23 9t-9 23v64q0 14 9 23t23 9h608v1291q-40 14 -71.5 45.5t-45.5 71.5h-491q-14 0 -23 9t-9 23v64 q0 14 9 23t23 9h491q21 57 70 92.5t111 35.5t111 -35.5t70 -92.5h491q14 0 23 -9t9 -23v-64q0 -14 -9 -23t-23 -9h-491zM1088 1264q33 0 56.5 23.5t23.5 56.5t-23.5 56.5t-56.5 23.5t-56.5 -23.5t-23.5 -56.5t23.5 -56.5t56.5 -23.5zM2176 384q0 -73 -46.5 -131t-117.5 -91 t-144.5 -49.5t-139.5 -16.5t-139.5 16.5t-144.5 49.5t-117.5 91t-46.5 131q0 11 35 81t92 174.5t107 195.5t102 184t56 100q18 33 56 33t56 -33q4 -7 56 -100t102 -184t107 -195.5t92 -174.5t35 -81zM896 384q0 -73 -46.5 -131t-117.5 -91t-144.5 -49.5t-139.5 -16.5 t-139.5 16.5t-144.5 49.5t-117.5 91t-46.5 131q0 11 35 81t92 174.5t107 195.5t102 184t56 100q18 33 56 33t56 -33q4 -7 56 -100t102 -184t107 -195.5t92 -174.5t35 -81z" />
</g>
</svg>	
