<?xml version="1.0" encoding="ISO-8859-1"?>
<!-- Converted from Font Awesome. Glyph: f172 -->
<!DOCTYPE svg PUBLIC "-//W3C//DTD SVG 1.1//EN" "http://www.w3.org/Graphics/SVG/1.1/DTD/svg11.dtd">
<svg version="1.1" xmlns="http://www.w3.org/2000/svg" xmlns:xlink="http://www.w3.org/1999/xlink" width="2048" height="2048" xml:space="preserve">
<g transform="translate(256, 1664) scale(1, -1)">
	<path id="bitbucket-square" d="M0 160v960q0 119 84.5 203.5t203.5 84.5h960q119 0 203.5 -84.5t84.5 -203.5v-960q0 -119 -84.5 -203.5t-203.5 -84.5h-960q-119 0 -203.5 84.5t-84.5 203.5zM260 1060q8 -68 19 -138t29 -171t24 -137q1 -5 5 -31t7 -36t12 -27t22 -28q105 -80 284 -100q259 -28 440 63 q24 13 39.5 23t31 29t19.5 40q48 267 80 473q9 53 -8 75q-43 55 -155 88q-216 63 -487 36q-132 -12 -226 -46q-38 -15 -59.5 -25t-47 -34t-29.5 -54zM385 384q26 -154 41 -210q47 -81 204 -108q249 -46 428 53q34 19 49 51.5t22.5 85.5t12.5 71q0 7 5.5 26.5t3 32 t-17.5 16.5q-161 -106 -365 -106t-366 106l-12 -6zM436 1073q13 19 36 31t40 15.5t47 8.5q198 35 408 1q33 -5 51 -8.5t43 -16t39 -31.5q-20 -21 -53.5 -34t-53 -16t-63.5 -8q-155 -20 -324 0q-44 6 -63 9.5t-52.5 16t-54.5 32.5zM607 653q-2 49 25.5 93t72.5 64 q70 31 141.5 -10t81.5 -118q8 -66 -36 -121t-110 -61t-119 40t-56 113zM687.5 660.5q0.5 -52.5 43.5 -70.5q39 -23 81 4t36 72q0 43 -41 66t-77 1q-43 -20 -42.5 -72.5z" />
</g>
</svg>	
