<?xml version="1.0" encoding="ISO-8859-1"?>
<!-- Converted from Font Awesome. Glyph: f1e5 -->
<!DOCTYPE svg PUBLIC "-//W3C//DTD SVG 1.1//EN" "http://www.w3.org/Graphics/SVG/1.1/DTD/svg11.dtd">
<svg version="1.1" xmlns="http://www.w3.org/2000/svg" xmlns:xlink="http://www.w3.org/1999/xlink" width="2048" height="2048" xml:space="preserve">
<g transform="translate(128, 1664) scale(1, -1)">
	<path id="binoculars" d="M704 1216v-768q0 -26 -19 -45t-45 -19v-576q0 -26 -19 -45t-45 -19h-512q-26 0 -45 19t-19 45v512l249 873q7 23 31 23h424zM1024 1216v-704h-256v704h256zM1792 320v-512q0 -26 -19 -45t-45 -19h-512q-26 0 -45 19t-19 45v576q-26 0 -45 19t-19 45v768h424q24 0 31 -23z M736 1504v-224h-352v224q0 14 9 23t23 9h288q14 0 23 -9t9 -23zM1408 1504v-224h-352v224q0 14 9 23t23 9h288q14 0 23 -9t9 -23z" />
</g>
</svg>	
