<?xml version="1.0" encoding="ISO-8859-1"?>
<!-- Converted from Font Awesome. Glyph: f1ad -->
<!DOCTYPE svg PUBLIC "-//W3C//DTD SVG 1.1//EN" "http://www.w3.org/Graphics/SVG/1.1/DTD/svg11.dtd">
<svg version="1.1" xmlns="http://www.w3.org/2000/svg" xmlns:xlink="http://www.w3.org/1999/xlink" width="2048" height="2048" xml:space="preserve">
<g transform="translate(256, 1664) scale(1, -1)">
	<path id="building" d="M0 -192v1664q0 26 19 45t45 19h1280q26 0 45 -19t19 -45v-1664q0 -26 -19 -45t-45 -19h-1280q-26 0 -45 19t-19 45zM256 160q0 -14 9 -23t23 -9h64q14 0 23 9t9 23v64q0 14 -9 23t-23 9h-64q-14 0 -23 -9t-9 -23v-64zM256 416q0 -14 9 -23t23 -9h64q14 0 23 9t9 23v64 q0 14 -9 23t-23 9h-64q-14 0 -23 -9t-9 -23v-64zM256 672q0 -14 9 -23t23 -9h64q14 0 23 9t9 23v64q0 14 -9 23t-23 9h-64q-14 0 -23 -9t-9 -23v-64zM256 928q0 -14 9 -23t23 -9h64q14 0 23 9t9 23v64q0 14 -9 23t-23 9h-64q-14 0 -23 -9t-9 -23v-64zM256 1184q0 -14 9 -23 t23 -9h64q14 0 23 9t9 23v64q0 14 -9 23t-23 9h-64q-14 0 -23 -9t-9 -23v-64zM512 96v-192q0 -14 9 -23t23 -9h320q14 0 23 9t9 23v192q0 14 -9 23t-23 9h-320q-14 0 -23 -9t-9 -23zM512 416q0 -14 9 -23t23 -9h64q14 0 23 9t9 23v64q0 14 -9 23t-23 9h-64q-14 0 -23 -9 t-9 -23v-64zM512 672q0 -14 9 -23t23 -9h64q14 0 23 9t9 23v64q0 14 -9 23t-23 9h-64q-14 0 -23 -9t-9 -23v-64zM512 928q0 -14 9 -23t23 -9h64q14 0 23 9t9 23v64q0 14 -9 23t-23 9h-64q-14 0 -23 -9t-9 -23v-64zM512 1184q0 -14 9 -23t23 -9h64q14 0 23 9t9 23v64 q0 14 -9 23t-23 9h-64q-14 0 -23 -9t-9 -23v-64zM768 416q0 -14 9 -23t23 -9h64q14 0 23 9t9 23v64q0 14 -9 23t-23 9h-64q-14 0 -23 -9t-9 -23v-64zM768 672q0 -14 9 -23t23 -9h64q14 0 23 9t9 23v64q0 14 -9 23t-23 9h-64q-14 0 -23 -9t-9 -23v-64zM768 928q0 -14 9 -23 t23 -9h64q14 0 23 9t9 23v64q0 14 -9 23t-23 9h-64q-14 0 -23 -9t-9 -23v-64zM768 1184q0 -14 9 -23t23 -9h64q14 0 23 9t9 23v64q0 14 -9 23t-23 9h-64q-14 0 -23 -9t-9 -23v-64zM1024 160q0 -14 9 -23t23 -9h64q14 0 23 9t9 23v64q0 14 -9 23t-23 9h-64q-14 0 -23 -9 t-9 -23v-64zM1024 416q0 -14 9 -23t23 -9h64q14 0 23 9t9 23v64q0 14 -9 23t-23 9h-64q-14 0 -23 -9t-9 -23v-64zM1024 672q0 -14 9 -23t23 -9h64q14 0 23 9t9 23v64q0 14 -9 23t-23 9h-64q-14 0 -23 -9t-9 -23v-64zM1024 928q0 -14 9 -23t23 -9h64q14 0 23 9t9 23v64 q0 14 -9 23t-23 9h-64q-14 0 -23 -9t-9 -23v-64zM1024 1184q0 -14 9 -23t23 -9h64q14 0 23 9t9 23v64q0 14 -9 23t-23 9h-64q-14 0 -23 -9t-9 -23v-64z" />
</g>
</svg>	
