<?xml version="1.0" encoding="ISO-8859-1"?>
<!-- Converted from Font Awesome. Glyph: f1e2 -->
<!DOCTYPE svg PUBLIC "-//W3C//DTD SVG 1.1//EN" "http://www.w3.org/Graphics/SVG/1.1/DTD/svg11.dtd">
<svg version="1.1" xmlns="http://www.w3.org/2000/svg" xmlns:xlink="http://www.w3.org/1999/xlink" width="2048" height="2048" xml:space="preserve">
<g transform="translate(128, 1664) scale(1, -1)">
	<path id="bomb" d="M0 448q0 143 55.5 273.5t150 225t225 150t273.5 55.5q182 0 343 -89l64 64q19 19 45.5 19t45.5 -19l68 -68l243 244l46 -46l-244 -243l68 -68q19 -19 19 -45.5t-19 -45.5l-64 -64q89 -161 89 -343q0 -143 -55.5 -273.5t-150 -225t-225 -150t-273.5 -55.5t-273.5 55.5 t-225 150t-150 225t-55.5 273.5zM170 615q10 -24 35 -34q13 -5 24 -5q42 0 60 40q34 84 98.5 148.5t148.5 98.5q25 11 35 35t0 49t-34 35t-49 0q-108 -44 -191 -127t-127 -191q-10 -25 0 -49zM1376 1472q0 13 9 23q10 9 23 9t23 -9l90 -91q10 -9 10 -22.5t-10 -22.5 q-10 -10 -22 -10q-13 0 -23 10l-91 90q-9 10 -9 23zM1536 1408v96q0 14 9 23t23 9t23 -9t9 -23v-96q0 -14 -9 -23t-23 -9t-23 9t-9 23zM1605 1242.5q0 13.5 10 22.5q9 10 22.5 10t22.5 -10l91 -90q9 -10 9 -23t-9 -23q-11 -9 -23 -9t-23 9l-90 91q-10 9 -10 22.5z M1605 1381.5q0 13.5 10 22.5l90 91q10 9 23 9t23 -9q9 -10 9 -23t-9 -23l-91 -90q-10 -10 -22 -10q-13 0 -23 10q-10 9 -10 22.5zM1632 1312q0 14 9 23t23 9h96q14 0 23 -9t9 -23t-9 -23t-23 -9h-96q-14 0 -23 9t-9 23z" />
</g>
</svg>	
