<?xml version="1.0" encoding="ISO-8859-1"?>
<!-- Converted from Font Awesome. Glyph: f1b4 -->
<!DOCTYPE svg PUBLIC "-//W3C//DTD SVG 1.1//EN" "http://www.w3.org/Graphics/SVG/1.1/DTD/svg11.dtd">
<svg version="1.1" xmlns="http://www.w3.org/2000/svg" xmlns:xlink="http://www.w3.org/1999/xlink" width="2048" height="2048" xml:space="preserve">
<g transform="translate(0, 1664) scale(1, -1)">
	<path id="behance" d="M0 22v1260h594q87 0 155 -14t126.5 -47.5t90 -96.5t31.5 -154q0 -181 -172 -263q114 -32 172 -115t58 -204q0 -75 -24.5 -136.5t-66 -103.5t-98.5 -71t-121 -42t-134 -13h-611zM277 236h296q205 0 205 167q0 180 -199 180h-302v-347zM277 773h281q78 0 123.5 36.5 t45.5 113.5q0 144 -190 144h-260v-294zM1137 477q0 208 130.5 345.5t336.5 137.5q138 0 240.5 -68t153 -179t50.5 -248q0 -17 -2 -47h-658q0 -111 57.5 -171.5t166.5 -60.5q63 0 122 32t76 87h221q-100 -307 -427 -307q-214 0 -340.5 132t-126.5 347zM1337 1073h511v124 h-511v-124zM1388 576h408q-18 195 -200 195q-90 0 -146 -52.5t-62 -142.5z" />
</g>
</svg>	
