<?xml version="1.0" encoding="ISO-8859-1"?>
<!-- Converted from Font Awesome. Glyph: f1b9 -->
<!DOCTYPE svg PUBLIC "-//W3C//DTD SVG 1.1//EN" "http://www.w3.org/Graphics/SVG/1.1/DTD/svg11.dtd">
<svg version="1.1" xmlns="http://www.w3.org/2000/svg" xmlns:xlink="http://www.w3.org/1999/xlink" width="2048" height="2048" xml:space="preserve">
  <metadata>
    <rdf:RDF>
      <cc:Work>
        <dc:subject>
          <rdf:Bag><rdf:li>automobile</rdf:li></rdf:Bag>
        </dc:subject>
      </cc:Work>
    </rdf:RDF>
  </metadata>
<g transform="translate(32, 1664) scale(1, -1)">
	<path id="car" d="M0 160v384q0 93 65.5 158.5t158.5 65.5h28l105 419q23 94 104 157.5t179 63.5h704q98 0 179 -63.5t104 -157.5l105 -419h28q93 0 158.5 -65.5t65.5 -158.5v-384q0 -14 -9 -23t-23 -9h-128v-128q0 -80 -56 -136t-136 -56t-136 56t-56 136v128h-928v-128q0 -80 -56 -136 t-136 -56t-136 56t-56 136v128h-96q-14 0 -23 9t-9 23zM160 448q0 -66 47 -113t113 -47t113 47t47 113t-47 113t-113 47t-113 -47t-47 -113zM516 768h952l-89 357q-2 8 -14 17.5t-21 9.5h-704q-9 0 -21 -9.5t-14 -17.5zM1472 448q0 -66 47 -113t113 -47t113 47t47 113 t-47 113t-113 47t-113 -47t-47 -113z" />
</g>
</svg>	
