<?xml version="1.0" encoding="ISO-8859-1"?>
<!-- Converted from Font Awesome. Glyph: f1ae -->
<!DOCTYPE svg PUBLIC "-//W3C//DTD SVG 1.1//EN" "http://www.w3.org/Graphics/SVG/1.1/DTD/svg11.dtd">
<svg version="1.1" xmlns="http://www.w3.org/2000/svg" xmlns:xlink="http://www.w3.org/1999/xlink" width="2048" height="2048" xml:space="preserve">
<g transform="translate(384, 1664) scale(1, -1)">
	<path id="child" d="M1188 988l-292 -292v-824q0 -46 -33 -79t-79 -33t-79 33t-33 79v384h-64v-384q0 -46 -33 -79t-79 -33t-79 33t-33 79v824l-292 292q-28 28 -28 68t28 68t68 28t68 -28l228 -228h368l228 228q28 28 68 28t68 -28t28 -68t-28 -68zM864 1152q0 -93 -65.5 -158.5 t-158.5 -65.5t-158.5 65.5t-65.5 158.5t65.5 158.5t158.5 65.5t158.5 -65.5t65.5 -158.5z" />
</g>
</svg>	
