<?xml version="1.0" encoding="ISO-8859-1"?>
<!-- Converted from Font Awesome. Glyph: f1b2 -->
<!DOCTYPE svg PUBLIC "-//W3C//DTD SVG 1.1//EN" "http://www.w3.org/Graphics/SVG/1.1/DTD/svg11.dtd">
<svg version="1.1" xmlns="http://www.w3.org/2000/svg" xmlns:xlink="http://www.w3.org/1999/xlink" width="2048" height="2048" xml:space="preserve">
<g transform="translate(128, 1664) scale(1, -1)">
	<path id="cube" d="M0 256v768q0 40 23 73t61 47l704 256q22 8 44 8t44 -8l704 -256q38 -14 61 -47t23 -73v-768q0 -35 -18 -65t-49 -47l-704 -384q-28 -16 -61 -16t-61 16l-704 384q-31 17 -49 47t-18 65zM134 1026l698 -254l698 254l-698 254zM896 -93l640 349v636l-640 -233v-752z" />
</g>
</svg>	
