<?xml version="1.0" encoding="ISO-8859-1"?>
<!-- Converted from Font Awesome. Glyph: f268 -->
<!DOCTYPE svg PUBLIC "-//W3C//DTD SVG 1.1//EN" "http://www.w3.org/Graphics/SVG/1.1/DTD/svg11.dtd">
<svg version="1.1" xmlns="http://www.w3.org/2000/svg" xmlns:xlink="http://www.w3.org/1999/xlink" width="2048" height="2048" xml:space="preserve">
<g transform="translate(128, 1664) scale(1, -1)">
	<path id="chrome" d="M893 1536q240 2 451 -120q232 -134 352 -372l-742 39q-160 9 -294 -74.5t-185 -229.5l-276 424q128 159 311 245.5t383 87.5zM146 1131l337 -663q72 -143 211 -217t293 -45l-230 -451q-212 33 -385 157.5t-272.5 316t-99.5 411.5q0 267 146 491zM1732 962 q58 -150 59.5 -310.5t-48.5 -306t-153 -272t-246 -209.5q-230 -133 -498 -119l405 623q88 131 82.5 290.5t-106.5 277.5zM896 942q125 0 213.5 -88.5t88.5 -213.5t-88.5 -213.5t-213.5 -88.5t-213.5 88.5t-88.5 213.5t88.5 213.5t213.5 88.5z" />
</g>
</svg>	
