<?xml version="1.0" encoding="ISO-8859-1"?>
<!-- Converted from Font Awesome. Glyph: f05d -->
<!DOCTYPE svg PUBLIC "-//W3C//DTD SVG 1.1//EN" "http://www.w3.org/Graphics/SVG/1.1/DTD/svg11.dtd">
<svg version="1.1" xmlns="http://www.w3.org/2000/svg" xmlns:xlink="http://www.w3.org/1999/xlink" width="2048" height="2048" xml:space="preserve">
<g transform="translate(256, 1664) scale(1, -1)">
	<path id="check-circle-o" d="M0 640q0 209 103 385.5t279.5 279.5t385.5 103t385.5 -103t279.5 -279.5t103 -385.5t-103 -385.5t-279.5 -279.5t-385.5 -103t-385.5 103t-279.5 279.5t-103 385.5zM224 640q0 -148 73 -273t198 -198t273 -73t273 73t198 198t73 273t-73 273t-198 198t-273 73t-273 -73 t-198 -198t-73 -273zM346 640q0 26 19 45l102 102q19 19 45 19t45 -19l147 -147l275 275q19 19 45 19t45 -19l102 -102q19 -19 19 -45t-19 -45l-422 -422q-19 -19 -45 -19t-45 19l-294 294q-19 19 -19 45z" />
</g>
</svg>	
