<?xml version="1.0" encoding="ISO-8859-1"?>
<!-- Converted from Font Awesome. Glyph: f1f4 -->
<!DOCTYPE svg PUBLIC "-//W3C//DTD SVG 1.1//EN" "http://www.w3.org/Graphics/SVG/1.1/DTD/svg11.dtd">
<svg version="1.1" xmlns="http://www.w3.org/2000/svg" xmlns:xlink="http://www.w3.org/1999/xlink" width="2048" height="2048" xml:space="preserve">
<g transform="translate(0, 1536) scale(0.888888888888889, -0.888888888888889)">
	<path id="cc-paypal" d="M322 689h-15q-19 0 -19 18q0 28 19 85q5 15 15 19.5t28 4.5q77 0 77 -49q0 -41 -30.5 -59.5t-74.5 -18.5zM664 528q-47 0 -47 29q0 62 123 62l3 -3q-5 -88 -79 -88zM1438 687h-15q-19 0 -19 19q0 28 19 85q5 15 14.5 19t28.5 4q77 0 77 -49q0 -41 -30.5 -59.5 t-74.5 -18.5zM1780 527q-47 0 -47 30q0 62 123 62l3 -3q-5 -89 -79 -89zM373 894h-128q-8 0 -14.5 -4t-8.5 -7.5t-7 -12.5q-3 -7 -45 -190t-42 -192q0 -7 5.5 -12.5t13.5 -5.5h62q25 0 32.5 34.5l15 69t32.5 34.5q47 0 87.5 7.5t80.5 24.5t63.5 52.5t23.5 84.5 q0 36 -14.5 61t-41 36.5t-53.5 15.5t-62 4zM719 798q-38 0 -74 -6q-2 0 -8.5 -1t-9 -1.5l-7.5 -1.5t-7.5 -2t-6.5 -3t-6.5 -4t-5 -5t-4.5 -7t-4 -9q-9 -29 -9 -39t9 -10q5 0 21.5 5t19.5 6q30 8 58 8q74 0 74 -36q0 -11 -10 -14q-8 -2 -18 -3t-21.5 -1.5t-17.5 -1.5 q-38 -4 -64.5 -10t-56.5 -19.5t-45.5 -39t-15.5 -62.5q0 -38 26 -59.5t64 -21.5q24 0 45.5 6.5t33 13t38.5 23.5q-3 -7 -3 -15t5.5 -13.5t12.5 -5.5h56q1 1 7 3.5t7.5 3.5t5 3.5t5 5.5t2.5 8l45 194q4 13 4 30q0 81 -145 81zM1247 793h-74q-22 0 -39 -23q-5 -7 -29.5 -51 t-46.5 -81.5t-26 -38.5l-5 4q0 77 -27 166q-1 5 -3.5 8.5t-6 6.5t-6.5 5t-8.5 3t-8.5 1.5t-9.5 1t-9 0.5h-10h-8.5q-38 0 -38 -21l1 -5q5 -53 25 -151t25 -143q2 -16 2 -24q0 -19 -30.5 -61.5t-30.5 -58.5q0 -13 40 -13q61 0 76 25l245 415q10 20 10 26q0 9 -8 9zM1489 892 h-129q-18 0 -29 -23q-6 -13 -46.5 -191.5t-40.5 -190.5q0 -20 43 -20h7.5h9h9t9.5 1t8.5 2t8.5 3t6.5 4.5t5.5 6t3 8.5l21 91q2 10 10.5 17t19.5 7q47 0 87.5 7t80.5 24.5t63.5 52.5t23.5 84q0 36 -14.5 61t-41 36.5t-53.5 15.5t-62 4zM1835 798q-26 0 -74 -6 q-38 -6 -48 -16q-7 -8 -11 -19q-8 -24 -8 -39q0 -10 8 -10q1 0 41 12q30 8 58 8q74 0 74 -36q0 -12 -10 -14q-4 -1 -57 -7q-38 -4 -64.5 -10t-56.5 -19.5t-45.5 -39t-15.5 -62.5t26 -58.5t64 -21.5q24 0 45 6t34 13t38 24q-3 -15 -3 -16q0 -5 2 -8.5t6.5 -5.5t8 -3.5 t10.5 -2t9.5 -0.5h9.5h8q42 0 48 25l45 194q3 15 3 31q0 81 -145 81zM2157 889h-55q-25 0 -33 -40q-10 -44 -36.5 -167t-42.5 -190v-5q0 -16 16 -18h1h57q10 0 18.5 6.5t10.5 16.5l83 374h-1l1 5q0 7 -5.5 12.5t-13.5 5.5zM2304 1280v-1280q0 -52 -38 -90t-90 -38h-2048 q-52 0 -90 38t-38 90v1280q0 52 38 90t90 38h2048q52 0 90 -38t38 -90z" />
</g>
</svg>	
