<?xml version="1.0" encoding="ISO-8859-1"?>
<!-- Converted from Font Awesome. Glyph: f1cb -->
<!DOCTYPE svg PUBLIC "-//W3C//DTD SVG 1.1//EN" "http://www.w3.org/Graphics/SVG/1.1/DTD/svg11.dtd">
<svg version="1.1" xmlns="http://www.w3.org/2000/svg" xmlns:xlink="http://www.w3.org/1999/xlink" width="2048" height="2048" xml:space="preserve">
<g transform="translate(128, 1664) scale(1, -1)">
	<path id="codepen" d="M216 367l603 -402v359l-334 223zM154 511l193 129l-193 129v-258zM973 -35l603 402l-269 180l-334 -223v-359zM896 458l272 182l-272 182l-272 -182zM485 733l334 223v359l-603 -402zM1445 640l193 -129v258zM1307 733l269 180l-603 402v-359zM1792 913v-546 q0 -41 -34 -64l-819 -546q-21 -13 -43 -13t-43 13l-819 546q-34 23 -34 64v546q0 41 34 64l819 546q21 13 43 13t43 -13l819 -546q34 -23 34 -64z" />
</g>
</svg>	
