<?xml version="1.0" encoding="ISO-8859-1"?>
<!-- Converted from Font Awesome. Glyph: f1f0 -->
<!DOCTYPE svg PUBLIC "-//W3C//DTD SVG 1.1//EN" "http://www.w3.org/Graphics/SVG/1.1/DTD/svg11.dtd">
<svg version="1.1" xmlns="http://www.w3.org/2000/svg" xmlns:xlink="http://www.w3.org/1999/xlink" width="2048" height="2048" xml:space="preserve">
<g transform="translate(0, 1536) scale(0.888888888888889, -0.888888888888889)">
	<path id="cc-visa" d="M1975 546h-138q14 37 66 179l3 9q4 10 10 26t9 26l12 -55zM531 611l-58 295q-11 54 -75 54h-268l-2 -13q311 -79 403 -336zM710 960l-162 -438l-17 89q-26 70 -85 129.5t-131 88.5l135 -510h175l261 641h-176zM849 318h166l104 642h-166zM1617 944q-69 27 -149 27 q-123 0 -201 -59t-79 -153q-1 -102 145 -174q48 -23 67 -41t19 -39q0 -30 -30 -46t-69 -16q-86 0 -156 33l-22 11l-23 -144q74 -34 185 -34q130 -1 208.5 59t80.5 160q0 106 -140 174q-49 25 -71 42t-22 38q0 22 24.5 38.5t70.5 16.5q70 1 124 -24l15 -8zM2042 960h-128 q-65 0 -87 -54l-246 -588h174l35 96h212q5 -22 20 -96h154zM2304 1280v-1280q0 -52 -38 -90t-90 -38h-2048q-52 0 -90 38t-38 90v1280q0 52 38 90t90 38h2048q52 0 90 -38t38 -90z" />
</g>
</svg>	
