<?xml version="1.0" encoding="ISO-8859-1"?>
<!-- Converted from Font Awesome. Glyph: f17d -->
<!DOCTYPE svg PUBLIC "-//W3C//DTD SVG 1.1//EN" "http://www.w3.org/Graphics/SVG/1.1/DTD/svg11.dtd">
<svg version="1.1" xmlns="http://www.w3.org/2000/svg" xmlns:xlink="http://www.w3.org/1999/xlink" width="2048" height="2048" xml:space="preserve">
<g transform="translate(256, 1664) scale(1, -1)">
	<path id="dribbble" d="M0 640q0 209 103 385.5t279.5 279.5t385.5 103t385.5 -103t279.5 -279.5t103 -385.5t-103 -385.5t-279.5 -279.5t-385.5 -103t-385.5 103t-279.5 279.5t-103 385.5zM112 640q0 -124 44 -236.5t124 -201.5q50 89 123.5 166.5t142.5 124.5t130.5 81t99.5 48l37 13 q4 1 13 3.5t13 4.5q-21 49 -53 111q-311 -93 -673 -93q-1 -7 -1 -21zM126 775q302 0 606 80q-120 213 -244 378q-138 -65 -234 -186t-128 -272zM350 134q184 -150 418 -150q132 0 256 52q-42 241 -140 498h-2l-2 -1q-16 -6 -43 -16.5t-101 -49t-137 -82t-131 -114.5 t-103 -148zM609 1276q1 1 2 1q-1 0 -2 -1zM613 1277q131 -170 246 -382q69 26 130 60.5t96.5 61.5t65.5 57t37.5 40.5l12.5 17.5q-185 164 -433 164q-76 0 -155 -19zM909 797q25 -53 44 -95q2 -6 6.5 -17.5t7.5 -16.5q36 5 74.5 7t73.5 2t69 -1.5t64 -4t56.5 -5.5t48 -6.5 t36.5 -6t25 -4.5l10 -2q-3 232 -149 410l-1 -1q-9 -12 -19 -24.5t-43.5 -44.5t-71 -60.5t-100 -65t-131.5 -64.5zM1007 565q87 -239 128 -469q111 75 185 189.5t96 250.5q-210 60 -409 29z" />
</g>
</svg>	
