<?xml version="1.0" encoding="ISO-8859-1"?>
<!-- Converted from Font Awesome. Glyph: f1a6 -->
<!DOCTYPE svg PUBLIC "-//W3C//DTD SVG 1.1//EN" "http://www.w3.org/Graphics/SVG/1.1/DTD/svg11.dtd">
<svg version="1.1" xmlns="http://www.w3.org/2000/svg" xmlns:xlink="http://www.w3.org/1999/xlink" width="2048" height="2048" xml:space="preserve">
<g transform="translate(0, 1664) scale(1, -1)">
	<path id="digg" d="M328 1254h204v-983h-532v697h328v286zM328 435v369h-123v-369h123zM614 968v-697h205v697h-205zM614 1254v-204h205v204h-205zM901 968h533v-942h-533v163h328v82h-328v697zM1229 435v369h-123v-369h123zM1516 968h532v-942h-532v163h327v82h-327v697zM1843 435v369h-123 v-369h123z" />
</g>
</svg>	
