<?xml version="1.0" encoding="ISO-8859-1"?>
<!-- Converted from Font Awesome. Glyph: f16b -->
<!DOCTYPE svg PUBLIC "-//W3C//DTD SVG 1.1//EN" "http://www.w3.org/Graphics/SVG/1.1/DTD/svg11.dtd">
<svg version="1.1" xmlns="http://www.w3.org/2000/svg" xmlns:xlink="http://www.w3.org/1999/xlink" width="2048" height="2048" xml:space="preserve">
<g transform="translate(128, 1664) scale(1, -1)">
	<path id="dropbox" d="M64 558l338 271l494 -305l-342 -285zM64 1099l490 319l342 -285l-494 -304zM407 166v108l147 -96l342 284v2l1 -1l1 1v-2l343 -284l147 96v-108l-490 -293v-1l-1 1l-1 -1v1zM896 524l494 305l338 -271l-489 -319zM896 1133l343 285l489 -319l-338 -270z" />
</g>
</svg>	
