<?xml version="1.0" encoding="ISO-8859-1"?>
<!-- Converted from Font Awesome. Glyph: f1bd -->
<!DOCTYPE svg PUBLIC "-//W3C//DTD SVG 1.1//EN" "http://www.w3.org/Graphics/SVG/1.1/DTD/svg11.dtd">
<svg version="1.1" xmlns="http://www.w3.org/2000/svg" xmlns:xlink="http://www.w3.org/1999/xlink" width="2048" height="2048" xml:space="preserve">
<g transform="translate(256, 1664) scale(1, -1)">
	<path id="deviantart" d="M0 11v1258q0 58 40.5 98.5t98.5 40.5h1258q58 0 98.5 -40.5t40.5 -98.5v-1258q0 -58 -40.5 -98.5t-98.5 -40.5h-1258q-58 0 -98.5 40.5t-40.5 98.5zM71 11q0 -28 20 -48t48 -20h1258q28 0 48 20t20 48v1258q0 28 -20 48t-48 20h-1258q-28 0 -48 -20t-20 -48v-1258z M121 11v141l711 195l-212 439q4 1 12 2.5t12 1.5q170 32 303.5 21.5t221 -46t143.5 -94.5q27 -28 -25 -42q-64 -16 -256 -62l-97 198q-111 7 -240 -16l188 -387l533 145v-496q0 -7 -5.5 -12.5t-12.5 -5.5h-1258q-7 0 -12.5 5.5t-5.5 12.5zM121 709v560q0 7 5.5 12.5 t12.5 5.5h1258q7 0 12.5 -5.5t5.5 -12.5v-428q-85 30 -188 52q-294 64 -645 12l-18 -3l-65 134h-233l85 -190q-132 -51 -230 -137zM246 413q-24 203 166 305l129 -270l-255 -61q-14 -3 -26 4.5t-14 21.5z" />
</g>
</svg>	
