<?xml version="1.0" encoding="ISO-8859-1"?>
<!-- Converted from Font Awesome. Glyph: f1a6 -->
<!DOCTYPE svg PUBLIC "-//W3C//DTD SVG 1.1//EN" "http://www.w3.org/Graphics/SVG/1.1/DTD/svg11.dtd">
<svg version="1.1" xmlns="http://www.w3.org/2000/svg" xmlns:xlink="http://www.w3.org/1999/xlink" width="2048" height="2048" xml:space="preserve">
<g transform="translate(0, 1664) scale(1, -1)">
	<path id="digg" d="M0 271v697h328v286h204v-983h-532zM205 435h123v369h-123v-369zM614 271h205v697h-205v-697zM614 1050h205v204h-205v-204zM901 26v163h328v82h-328v697h533v-942h-533zM1106 435h123v369h-123v-369zM1516 26v163h327v82h-327v697h532v-942h-532zM1720 435h123v369h-123 v-369z" />
</g>
</svg>	
