<?xml version="1.0" encoding="ISO-8859-1"?>
<!-- Converted from Font Awesome. Glyph: f1c0 -->
<!DOCTYPE svg PUBLIC "-//W3C//DTD SVG 1.1//EN" "http://www.w3.org/Graphics/SVG/1.1/DTD/svg11.dtd">
<svg version="1.1" xmlns="http://www.w3.org/2000/svg" xmlns:xlink="http://www.w3.org/1999/xlink" width="2048" height="2048" xml:space="preserve">
<g transform="translate(256, 1664) scale(1, -1)">
	<path id="database" d="M768 768q237 0 443 43t325 127v-170q0 -69 -103 -128t-280 -93.5t-385 -34.5t-385 34.5t-280 93.5t-103 128v170q119 -84 325 -127t443 -43zM768 0q237 0 443 43t325 127v-170q0 -69 -103 -128t-280 -93.5t-385 -34.5t-385 34.5t-280 93.5t-103 128v170q119 -84 325 -127 t443 -43zM768 384q237 0 443 43t325 127v-170q0 -69 -103 -128t-280 -93.5t-385 -34.5t-385 34.5t-280 93.5t-103 128v170q119 -84 325 -127t443 -43zM768 1536q208 0 385 -34.5t280 -93.5t103 -128v-128q0 -69 -103 -128t-280 -93.5t-385 -34.5t-385 34.5t-280 93.5 t-103 128v128q0 69 103 128t280 93.5t385 34.5z" />
</g>
</svg>	
