<?xml version="1.0" encoding="ISO-8859-1"?>
<!-- Converted from Font Awesome. Glyph: f219 -->
<!DOCTYPE svg PUBLIC "-//W3C//DTD SVG 1.1//EN" "http://www.w3.org/Graphics/SVG/1.1/DTD/svg11.dtd">
<svg version="1.1" xmlns="http://www.w3.org/2000/svg" xmlns:xlink="http://www.w3.org/1999/xlink" width="2048" height="2048" xml:space="preserve">
<g transform="translate(0, 1664) scale(1, -1)">
	<path id="diamond" d="M212 768l623 -665l-300 665h-323zM1024 -4l349 772h-698zM538 896l204 384h-262l-288 -384h346zM1213 103l623 665h-323zM683 896h682l-204 384h-274zM1510 896h346l-288 384h-262zM1651 1382l384 -512q14 -18 13 -41.5t-17 -40.5l-960 -1024q-18 -20 -47 -20t-47 20 l-960 1024q-16 17 -17 40.5t13 41.5l384 512q18 26 51 26h1152q33 0 51 -26z" />
</g>
</svg>	
