<?xml version="1.0" encoding="ISO-8859-1"?>
<!-- Converted from Font Awesome. Glyph: f06e -->
<!DOCTYPE svg PUBLIC "-//W3C//DTD SVG 1.1//EN" "http://www.w3.org/Graphics/SVG/1.1/DTD/svg11.dtd">
<svg version="1.1" xmlns="http://www.w3.org/2000/svg" xmlns:xlink="http://www.w3.org/1999/xlink" width="2048" height="2048" xml:space="preserve">
<g transform="translate(128, 1664) scale(1, -1)">
	<path id="eye" d="M0 576q0 34 20 69q140 229 376.5 368t499.5 139t499.5 -139t376.5 -368q20 -35 20 -69t-20 -69q-140 -230 -376.5 -368.5t-499.5 -138.5t-499.5 139t-376.5 368q-20 35 -20 69zM128 576q133 -205 333.5 -326.5t434.5 -121.5t434.5 121.5t333.5 326.5q-152 236 -381 353 q61 -104 61 -225q0 -185 -131.5 -316.5t-316.5 -131.5t-316.5 131.5t-131.5 316.5q0 121 61 225q-229 -117 -381 -353zM592 704q0 -20 14 -34t34 -14t34 14t14 34q0 86 61 147t147 61q20 0 34 14t14 34t-14 34t-34 14q-125 0 -214.5 -89.5t-89.5 -214.5z" />
</g>
</svg>	
