<?xml version="1.0" encoding="ISO-8859-1"?>
<!-- Converted from Font Awesome. Glyph: f199 -->
<!DOCTYPE svg PUBLIC "-//W3C//DTD SVG 1.1//EN" "http://www.w3.org/Graphics/SVG/1.1/DTD/svg11.dtd">
<svg version="1.1" xmlns="http://www.w3.org/2000/svg" xmlns:xlink="http://www.w3.org/1999/xlink" width="2048" height="2048" xml:space="preserve">
<g transform="translate(256, 1664) scale(1, -1)">
	<path id="envelope-square" d="M0 160v960q0 119 84.5 203.5t203.5 84.5h960q119 0 203.5 -84.5t84.5 -203.5v-960q0 -119 -84.5 -203.5t-203.5 -84.5h-960q-119 0 -203.5 84.5t-84.5 203.5zM256 352q0 -40 28 -68t68 -28h832q40 0 68 28t28 68v436q-31 -35 -64 -55q-34 -22 -132.5 -85t-151.5 -99 q-98 -69 -164 -69t-164 69q-46 32 -141.5 92.5t-142.5 92.5q-12 8 -33 27t-31 27v-436zM256 928q0 -37 30.5 -76.5t67.5 -64.5q47 -32 137.5 -89t129.5 -83q3 -2 17 -11.5t21 -14t21 -13t23.5 -13t21.5 -9.5t22.5 -7.5t20.5 -2.5t20.5 2.5t22.5 7.5t21.5 9.5t23.5 13t21 13 t21 14t17 11.5l267 174q35 23 66.5 62.5t31.5 73.5q0 41 -27.5 70t-68.5 29h-832q-40 0 -68 -28t-28 -68z" />
</g>
</svg>	
