<?xml version="1.0" encoding="ISO-8859-1"?>
<!-- Converted from Font Awesome. Glyph: f070 -->
<!DOCTYPE svg PUBLIC "-//W3C//DTD SVG 1.1//EN" "http://www.w3.org/Graphics/SVG/1.1/DTD/svg11.dtd">
<svg version="1.1" xmlns="http://www.w3.org/2000/svg" xmlns:xlink="http://www.w3.org/1999/xlink" width="2048" height="2048" xml:space="preserve">
<g transform="translate(128, 1664) scale(1, -1)">
	<path id="eye-slash" d="M0 576q0 38 20 69q153 235 380 371t496 136q89 0 180 -17l54 97q10 16 28 16q5 0 18 -6t31 -15.5t33 -18.5t31.5 -18.5t19.5 -11.5q16 -10 16 -27q0 -7 -1 -9q-105 -188 -315 -566t-316 -567l-49 -89q-10 -16 -28 -16q-12 0 -134 70q-16 10 -16 28q0 12 44 87 q-143 65 -263.5 173t-208.5 245q-20 31 -20 69zM128 576q167 -258 427 -375l78 141q-87 63 -136 159t-49 203q0 121 61 225q-229 -117 -381 -353zM592 704q0 -20 14 -34t34 -14t34 14t14 34q0 86 61 147t147 61q20 0 34 14t14 34t-14 34t-34 14q-125 0 -214.5 -89.5 t-89.5 -214.5zM896 0l74 132q212 18 392.5 137t301.5 307q-115 179 -282 294l63 112q95 -64 182.5 -153t144.5 -184q20 -34 20 -69t-20 -69q-39 -64 -109 -145q-150 -172 -347.5 -267t-419.5 -95zM1056 286l280 502q8 -45 8 -84q0 -139 -79 -253.5t-209 -164.5z" />
</g>
</svg>	
