<?xml version="1.0" encoding="ISO-8859-1"?>
<!-- Converted from Font Awesome. Glyph: f044 -->
<!DOCTYPE svg PUBLIC "-//W3C//DTD SVG 1.1//EN" "http://www.w3.org/Graphics/SVG/1.1/DTD/svg11.dtd">
<svg version="1.1" xmlns="http://www.w3.org/2000/svg" xmlns:xlink="http://www.w3.org/1999/xlink" width="2048" height="2048" xml:space="preserve">
  <metadata>
    <rdf:RDF>
      <cc:Work>
        <dc:subject>
          <rdf:Bag><rdf:li>pencil</rdf:li><rdf:li>square</rdf:li><rdf:li>o</rdf:li></rdf:Bag>
        </dc:subject>
      </cc:Work>
    </rdf:RDF>
  </metadata>
<g transform="translate(128, 1664) scale(1, -1)">
	<path id="edit" d="M0 288v832q0 119 84.5 203.5t203.5 84.5h832q63 0 117 -25q15 -7 18 -23q3 -17 -9 -29l-49 -49q-14 -14 -32 -8q-23 6 -45 6h-832q-66 0 -113 -47t-47 -113v-832q0 -66 47 -113t113 -47h832q66 0 113 47t47 113v126q0 13 9 22l64 64q15 15 35 7t20 -29v-190 q0 -119 -84.5 -203.5t-203.5 -84.5h-832q-119 0 -203.5 84.5t-84.5 203.5zM640 256v288l672 672l288 -288l-672 -672h-288zM736 448h96v-96h56l116 116l-152 152l-116 -116v-56zM944 688q16 -16 33 1l350 350q17 17 1 33t-33 -1l-350 -350q-17 -17 -1 -33zM1376 1280l92 92 q28 28 68 28t68 -28l152 -152q28 -28 28 -68t-28 -68l-92 -92z" />
</g>
</svg>	
