<?xml version="1.0" encoding="ISO-8859-1"?>
<!-- Converted from Font Awesome. Glyph: f1c9 -->
<!DOCTYPE svg PUBLIC "-//W3C//DTD SVG 1.1//EN" "http://www.w3.org/Graphics/SVG/1.1/DTD/svg11.dtd">
<svg version="1.1" xmlns="http://www.w3.org/2000/svg" xmlns:xlink="http://www.w3.org/1999/xlink" width="2048" height="2048" xml:space="preserve">
<g transform="translate(256, 1664) scale(1, -1)">
	<path id="file-code-o" d="M0 -160v1600q0 40 28 68t68 28h896q40 0 88 -20t76 -48l312 -312q28 -28 48 -76t20 -88v-1152q0 -40 -28 -68t-68 -28h-1344q-40 0 -68 28t-28 68zM128 -128h1280v1024h-416q-40 0 -68 28t-28 68v416h-768v-1536zM254 429q-14 19 0 38l226 301q8 11 21 12.5t24 -6.5 l51 -38q11 -8 12.5 -21t-6.5 -24l-182 -243l182 -243q8 -11 6.5 -24t-12.5 -21l-51 -38q-11 -8 -24 -6.5t-21 12.5zM636 43l138 831q2 13 13 20.5t24 5.5l63 -10q13 -2 20.5 -13t5.5 -24l-138 -831q-2 -13 -13 -20.5t-24 -5.5l-63 10q-13 2 -20.5 13t-5.5 24zM947.5 181 q-1.5 13 6.5 24l182 243l-182 243q-8 11 -6.5 24t12.5 21l51 38q11 8 24 6.5t21 -12.5l226 -301q14 -19 0 -38l-226 -301q-8 -11 -21 -12.5t-24 6.5l-51 38q-11 8 -12.5 21zM1024 1024h376q-10 29 -22 41l-313 313q-12 12 -41 22v-376z" />
</g>
</svg>	
