<?xml version="1.0" encoding="ISO-8859-1"?>
<!-- Converted from Font Awesome. Glyph: f016 -->
<!DOCTYPE svg PUBLIC "-//W3C//DTD SVG 1.1//EN" "http://www.w3.org/Graphics/SVG/1.1/DTD/svg11.dtd">
<svg version="1.1" xmlns="http://www.w3.org/2000/svg" xmlns:xlink="http://www.w3.org/1999/xlink" width="2048" height="2048" xml:space="preserve">
<g transform="translate(256, 1664) scale(1, -1)">
	<path id="file-o" d="M1468 1156q28 -28 48 -76t20 -88v-1152q0 -40 -28 -68t-68 -28h-1344q-40 0 -68 28t-28 68v1600q0 40 28 68t68 28h896q40 0 88 -20t76 -48zM1024 1400v-376h376q-10 29 -22 41l-313 313q-12 12 -41 22zM1408 -128v1024h-416q-40 0 -68 28t-28 68v416h-768v-1536h1280z " />
</g>
</svg>	
