<?xml version="1.0" encoding="ISO-8859-1"?>
<!-- Converted from Font Awesome. Glyph: f1c6 -->
<!DOCTYPE svg PUBLIC "-//W3C//DTD SVG 1.1//EN" "http://www.w3.org/Graphics/SVG/1.1/DTD/svg11.dtd">
<svg version="1.1" xmlns="http://www.w3.org/2000/svg" xmlns:xlink="http://www.w3.org/1999/xlink" width="2048" height="2048" xml:space="preserve">
  <metadata>
    <rdf:RDF>
      <cc:Work>
        <dc:subject>
          <rdf:Bag><rdf:li>archive</rdf:li></rdf:Bag>
        </dc:subject>
      </cc:Work>
    </rdf:RDF>
  </metadata>
<g transform="translate(256, 1664) scale(1, -1)">
	<path id="file-zip-o" d="M0 -160v1600q0 40 28 68t68 28h896q40 0 88 -20t76 -48l312 -312q28 -28 48 -76t20 -88v-1152q0 -40 -28 -68t-68 -28h-1344q-40 0 -68 28t-28 68zM128 -128h1280v1024h-416q-40 0 -68 28t-28 68v416h-128v-128h-128v128h-512v-1536zM384 192q0 25 8 52q21 63 120 396 v128h128v-128h79q22 0 39 -13t23 -34l107 -349q8 -27 8 -52q0 -83 -72.5 -137.5t-183.5 -54.5t-183.5 54.5t-72.5 137.5zM512 192q0 -26 37.5 -45t90.5 -19t90.5 19t37.5 45t-37.5 45t-90.5 19t-90.5 -19t-37.5 -45zM512 896h128v128h-128v-128zM512 1152h128v128h-128v-128 zM640 768h128v128h-128v-128zM640 1024h128v128h-128v-128zM1024 1024h376q-10 29 -22 41l-313 313q-12 12 -41 22v-376z" />
</g>
</svg>	
