<?xml version="1.0" encoding="ISO-8859-1"?>
<!-- Converted from Font Awesome. Glyph: f082 -->
<!DOCTYPE svg PUBLIC "-//W3C//DTD SVG 1.1//EN" "http://www.w3.org/Graphics/SVG/1.1/DTD/svg11.dtd">
<svg version="1.1" xmlns="http://www.w3.org/2000/svg" xmlns:xlink="http://www.w3.org/1999/xlink" width="2048" height="2048" xml:space="preserve">
<g transform="translate(256, 1664) scale(1, -1)">
	<path id="facebook-square" d="M1248 1408q119 0 203.5 -84.5t84.5 -203.5v-960q0 -119 -84.5 -203.5t-203.5 -84.5h-188v595h199l30 232h-229v148q0 56 23.5 84t91.5 28l122 1v207q-63 9 -178 9q-136 0 -217.5 -80t-81.5 -226v-171h-200v-232h200v-595h-532q-119 0 -203.5 84.5t-84.5 203.5v960 q0 119 84.5 203.5t203.5 84.5h960z" />
</g>
</svg>	
