<?xml version="1.0" encoding="ISO-8859-1"?>
<!-- Converted from Font Awesome. Glyph: f082 -->
<!DOCTYPE svg PUBLIC "-//W3C//DTD SVG 1.1//EN" "http://www.w3.org/Graphics/SVG/1.1/DTD/svg11.dtd">
<svg version="1.1" xmlns="http://www.w3.org/2000/svg" xmlns:xlink="http://www.w3.org/1999/xlink" width="2048" height="2048" xml:space="preserve">
<g transform="translate(256, 1664) scale(1, -1)">
	<path id="facebook-square" d="M1536 160q0 -119 -84.5 -203.5t-203.5 -84.5h-192v608h203l30 224h-233v143q0 54 28 83t96 29l132 1v207q-96 9 -180 9q-136 0 -218 -80.5t-82 -225.5v-166h-224v-224h224v-608h-544q-119 0 -203.5 84.5t-84.5 203.5v960q0 119 84.5 203.5t203.5 84.5h960 q119 0 203.5 -84.5t84.5 -203.5v-960z" />
</g>
</svg>	
