<?xml version="1.0" encoding="ISO-8859-1"?>
<!-- Converted from Font Awesome. Glyph: f1ac -->
<!DOCTYPE svg PUBLIC "-//W3C//DTD SVG 1.1//EN" "http://www.w3.org/Graphics/SVG/1.1/DTD/svg11.dtd">
<svg version="1.1" xmlns="http://www.w3.org/2000/svg" xmlns:xlink="http://www.w3.org/1999/xlink" width="2048" height="2048" xml:space="preserve">
<g transform="translate(128, 1664) scale(1, -1)">
	<path id="fax" d="M0 -96v1088q0 66 47 113t113 47h128q66 0 113 -47t47 -113v-1088q0 -66 -47 -113t-113 -47h-128q-66 0 -113 47t-47 113zM512 -96v1536q0 40 28 68t68 28h672q40 0 88 -20t76 -48l152 -152q28 -28 48 -76t20 -88v-163q58 -34 93 -93t35 -128v-768q0 -106 -75 -181 t-181 -75h-864q-66 0 -113 47t-47 113zM640 896h896v256h-160q-40 0 -68 28t-28 68v160h-640v-512zM736 0q0 -14 9 -23t23 -9h128q14 0 23 9t9 23v128q0 14 -9 23t-23 9h-128q-14 0 -23 -9t-9 -23v-128zM736 256q0 -14 9 -23t23 -9h128q14 0 23 9t9 23v128q0 14 -9 23t-23 9 h-128q-14 0 -23 -9t-9 -23v-128zM736 512q0 -14 9 -23t23 -9h128q14 0 23 9t9 23v128q0 14 -9 23t-23 9h-128q-14 0 -23 -9t-9 -23v-128zM992 0q0 -14 9 -23t23 -9h128q14 0 23 9t9 23v128q0 14 -9 23t-23 9h-128q-14 0 -23 -9t-9 -23v-128zM992 256q0 -14 9 -23t23 -9h128 q14 0 23 9t9 23v128q0 14 -9 23t-23 9h-128q-14 0 -23 -9t-9 -23v-128zM992 512q0 -14 9 -23t23 -9h128q14 0 23 9t9 23v128q0 14 -9 23t-23 9h-128q-14 0 -23 -9t-9 -23v-128zM1248 0q0 -14 9 -23t23 -9h128q14 0 23 9t9 23v128q0 14 -9 23t-23 9h-128q-14 0 -23 -9t-9 -23 v-128zM1248 256q0 -14 9 -23t23 -9h128q14 0 23 9t9 23v128q0 14 -9 23t-23 9h-128q-14 0 -23 -9t-9 -23v-128zM1248 512q0 -14 9 -23t23 -9h128q14 0 23 9t9 23v128q0 14 -9 23t-23 9h-128q-14 0 -23 -9t-9 -23v-128z" />
</g>
</svg>	
