<?xml version="1.0" encoding="ISO-8859-1"?>
<!-- Converted from Font Awesome. Glyph: f1c3 -->
<!DOCTYPE svg PUBLIC "-//W3C//DTD SVG 1.1//EN" "http://www.w3.org/Graphics/SVG/1.1/DTD/svg11.dtd">
<svg version="1.1" xmlns="http://www.w3.org/2000/svg" xmlns:xlink="http://www.w3.org/1999/xlink" width="2048" height="2048" xml:space="preserve">
<g transform="translate(256, 1664) scale(1, -1)">
	<path id="file-excel-o" d="M0 -160v1600q0 40 28 68t68 28h896q40 0 88 -20t76 -48l312 -312q28 -28 48 -76t20 -88v-1152q0 -40 -28 -68t-68 -28h-1344q-40 0 -68 28t-28 68zM128 -128h1280v1024h-416q-40 0 -68 28t-28 68v416h-768v-1536zM429 0h281v106h-75l103 161q5 7 10 16.5t7.5 13.5t3.5 4 h2q1 -4 5 -10q2 -4 4.5 -7.5t6 -8t6.5 -8.5l107 -161h-76v-106h291v106h-68l-192 273l195 282h67v107h-279v-107h74l-103 -159q-4 -7 -10 -16.5t-9 -13.5l-2 -3h-2q-1 4 -5 10q-6 11 -17 23l-106 159h76v107h-290v-107h68l189 -272l-194 -283h-68v-106zM1024 1024h376 q-10 29 -22 41l-313 313q-12 12 -41 22v-376z" />
</g>
</svg>	
