<?xml version="1.0" encoding="ISO-8859-1"?>
<!-- Converted from Font Awesome. Glyph: f008 -->
<!DOCTYPE svg PUBLIC "-//W3C//DTD SVG 1.1//EN" "http://www.w3.org/Graphics/SVG/1.1/DTD/svg11.dtd">
<svg version="1.1" xmlns="http://www.w3.org/2000/svg" xmlns:xlink="http://www.w3.org/1999/xlink" width="2048" height="2048" xml:space="preserve">
<g transform="translate(64, 1664) scale(1, -1)">
	<path id="film" d="M0 -96v1344q0 66 47 113t113 47h1600q66 0 113 -47t47 -113v-1344q0 -66 -47 -113t-113 -47h-1600q-66 0 -113 47t-47 113zM128 64v-128q0 -26 19 -45t45 -19h128q26 0 45 19t19 45v128q0 26 -19 45t-45 19h-128q-26 0 -45 -19t-19 -45zM128 320q0 -26 19 -45t45 -19h128 q26 0 45 19t19 45v128q0 26 -19 45t-45 19h-128q-26 0 -45 -19t-19 -45v-128zM128 704q0 -26 19 -45t45 -19h128q26 0 45 19t19 45v128q0 26 -19 45t-45 19h-128q-26 0 -45 -19t-19 -45v-128zM128 1088q0 -26 19 -45t45 -19h128q26 0 45 19t19 45v128q0 26 -19 45t-45 19 h-128q-26 0 -45 -19t-19 -45v-128zM512 -64q0 -26 19 -45t45 -19h768q26 0 45 19t19 45v512q0 26 -19 45t-45 19h-768q-26 0 -45 -19t-19 -45v-512zM512 704q0 -26 19 -45t45 -19h768q26 0 45 19t19 45v512q0 26 -19 45t-45 19h-768q-26 0 -45 -19t-19 -45v-512zM1536 64 v-128q0 -26 19 -45t45 -19h128q26 0 45 19t19 45v128q0 26 -19 45t-45 19h-128q-26 0 -45 -19t-19 -45zM1536 320q0 -26 19 -45t45 -19h128q26 0 45 19t19 45v128q0 26 -19 45t-45 19h-128q-26 0 -45 -19t-19 -45v-128zM1536 704q0 -26 19 -45t45 -19h128q26 0 45 19t19 45 v128q0 26 -19 45t-45 19h-128q-26 0 -45 -19t-19 -45v-128zM1536 1088q0 -26 19 -45t45 -19h128q26 0 45 19t19 45v128q0 26 -19 45t-45 19h-128q-26 0 -45 -19t-19 -45v-128z" />
</g>
</svg>	
