<?xml version="1.0" encoding="ISO-8859-1"?>
<!-- Converted from Font Awesome. Glyph: f230 -->
<!DOCTYPE svg PUBLIC "-//W3C//DTD SVG 1.1//EN" "http://www.w3.org/Graphics/SVG/1.1/DTD/svg11.dtd">
<svg version="1.1" xmlns="http://www.w3.org/2000/svg" xmlns:xlink="http://www.w3.org/1999/xlink" width="2048" height="2048" xml:space="preserve">
<g transform="translate(256, 1664) scale(1, -1)">
	<path id="facebook-official" d="M1451 1408q35 0 60 -25t25 -60v-1366q0 -35 -25 -60t-60 -25h-391v595h199l30 232h-229v148q0 56 23.5 84t91.5 28l122 1v207q-63 9 -178 9q-136 0 -217.5 -80t-81.5 -226v-171h-200v-232h200v-595h-735q-35 0 -60 25t-25 60v1366q0 35 25 60t60 25h1366z" />
</g>
</svg>	
