<?xml version="1.0" encoding="ISO-8859-1"?>
<!-- Converted from Font Awesome. Glyph: f1c8 -->
<!DOCTYPE svg PUBLIC "-//W3C//DTD SVG 1.1//EN" "http://www.w3.org/Graphics/SVG/1.1/DTD/svg11.dtd">
<svg version="1.1" xmlns="http://www.w3.org/2000/svg" xmlns:xlink="http://www.w3.org/1999/xlink" width="2048" height="2048" xml:space="preserve">
  <metadata>
    <rdf:RDF>
      <cc:Work>
        <dc:subject>
          <rdf:Bag><rdf:li>movie</rdf:li></rdf:Bag>
        </dc:subject>
      </cc:Work>
    </rdf:RDF>
  </metadata>
<g transform="translate(256, 1664) scale(1, -1)">
	<path id="file-video-o" d="M0 -160v1600q0 40 28 68t68 28h896q40 0 88 -20t76 -48l312 -312q28 -28 48 -76t20 -88v-1152q0 -40 -28 -68t-68 -28h-1344q-40 0 -68 28t-28 68zM128 -128h1280v1024h-416q-40 0 -68 28t-28 68v416h-768v-1536zM256 256v384q0 52 38 90t90 38h384q52 0 90 -38t38 -90 v-384q0 -52 -38 -90t-90 -38h-384q-52 0 -90 38t-38 90zM960 403v90l265 266q9 9 23 9q4 0 12 -2q20 -8 20 -30v-576q0 -22 -20 -30q-8 -2 -12 -2q-14 0 -23 9zM1024 1024h376q-10 29 -22 41l-313 313q-12 12 -41 22v-376z" />
</g>
</svg>	
