<?xml version="1.0" encoding="ISO-8859-1"?>
<!-- Converted from Font Awesome. Glyph: f1ee -->
<!DOCTYPE svg PUBLIC "-//W3C//DTD SVG 1.1//EN" "http://www.w3.org/Graphics/SVG/1.1/DTD/svg11.dtd">
<svg version="1.1" xmlns="http://www.w3.org/2000/svg" xmlns:xlink="http://www.w3.org/1999/xlink" width="2048" height="2048" xml:space="preserve">
<g transform="translate(128, 1664) scale(1, -1)">
	<path id="google-wallet" d="M602 949q19 -61 31 -123.5t17 -141.5t-14 -159t-62 -145q-21 81 -67 157t-95.5 127t-99 90.5t-78.5 57.5t-33 19q-62 34 -81.5 100t14.5 128t101 81.5t129 -14.5q138 -83 238 -177zM927 1236q11 -25 20.5 -46t36.5 -100.5t42.5 -150.5t25.5 -179.5t0 -205.5t-47.5 -209.5 t-105.5 -208.5q-51 -72 -138 -72q-54 0 -98 31q-57 40 -69 109t28 127q60 85 81 195t13 199.5t-32 180.5t-39 128t-22 52q-31 63 -8.5 129.5t85.5 97.5q34 17 75 17q47 0 88.5 -25t63.5 -69zM1248 567q-17 -160 -72 -311q-17 131 -63 246q25 174 -5 361q-27 178 -94 342 q114 -90 212 -211q9 -37 15 -80q26 -179 7 -347zM1520 1440q9 -17 23.5 -49.5t43.5 -117.5t50.5 -178t34 -227.5t5 -269t-47 -300t-112.5 -323.5q-22 -48 -66 -75.5t-95 -27.5q-39 0 -74 16q-67 31 -92.5 100t4.5 136q58 126 90 257.5t37.5 239.5t-3.5 213.5t-26.5 180.5 t-38.5 138.5t-32.5 90t-15.5 32.5q-34 65 -11.5 135.5t87.5 104.5q37 20 81 20q49 0 91.5 -25.5t66.5 -70.5z" />
</g>
</svg>	
