<?xml version="1.0" encoding="ISO-8859-1"?>
<!-- Converted from Font Awesome. Glyph: f265 -->
<!DOCTYPE svg PUBLIC "-//W3C//DTD SVG 1.1//EN" "http://www.w3.org/Graphics/SVG/1.1/DTD/svg11.dtd">
<svg version="1.1" xmlns="http://www.w3.org/2000/svg" xmlns:xlink="http://www.w3.org/1999/xlink" width="2048" height="2048" xml:space="preserve">
<g transform="translate(164, 1664) scale(1, -1)">
	<path id="get-pocket" d="M1565 1408q65 0 110 -45.5t45 -110.5v-519q0 -176 -68 -336t-182.5 -275t-274 -182.5t-334.5 -67.5q-176 0 -335.5 67.5t-274.5 182.5t-183 275t-68 336v519q0 64 46 110t110 46h1409zM861 344q47 0 82 33l404 388q37 35 37 85q0 49 -34.5 83.5t-83.5 34.5q-47 0 -82 -33 l-323 -310l-323 310q-35 33 -81 33q-49 0 -83.5 -34.5t-34.5 -83.5q0 -51 36 -85l405 -388q33 -33 81 -33z" />
</g>
</svg>	
