<?xml version="1.0" encoding="ISO-8859-1"?>
<!-- Converted from Font Awesome. Glyph: f11b -->
<!DOCTYPE svg PUBLIC "-//W3C//DTD SVG 1.1//EN" "http://www.w3.org/Graphics/SVG/1.1/DTD/svg11.dtd">
<svg version="1.1" xmlns="http://www.w3.org/2000/svg" xmlns:xlink="http://www.w3.org/1999/xlink" width="2048" height="2048" xml:space="preserve">
<g transform="translate(64, 1664) scale(1, -1)">
	<path id="gamepad" d="M0 512q0 212 150 362t362 150h896q212 0 362 -150t150 -362t-150 -362t-362 -150q-192 0 -338 128h-220q-146 -128 -338 -128q-212 0 -362 150t-150 362zM192 448q0 -14 9 -23t23 -9h192v-192q0 -14 9 -23t23 -9h128q14 0 23 9t9 23v192h192q14 0 23 9t9 23v128 q0 14 -9 23t-23 9h-192v192q0 14 -9 23t-23 9h-128q-14 0 -23 -9t-9 -23v-192h-192q-14 0 -23 -9t-9 -23v-128zM1152 384q0 -53 37.5 -90.5t90.5 -37.5t90.5 37.5t37.5 90.5t-37.5 90.5t-90.5 37.5t-90.5 -37.5t-37.5 -90.5zM1408 640q0 -53 37.5 -90.5t90.5 -37.5 t90.5 37.5t37.5 90.5t-37.5 90.5t-90.5 37.5t-90.5 -37.5t-37.5 -90.5z" />
</g>
</svg>	
