<?xml version="1.0" encoding="ISO-8859-1"?>
<!-- Converted from Font Awesome. Glyph: f0d4 -->
<!DOCTYPE svg PUBLIC "-//W3C//DTD SVG 1.1//EN" "http://www.w3.org/Graphics/SVG/1.1/DTD/svg11.dtd">
<svg version="1.1" xmlns="http://www.w3.org/2000/svg" xmlns:xlink="http://www.w3.org/1999/xlink" width="2048" height="2048" xml:space="preserve">
<g transform="translate(256, 1664) scale(1, -1)">
	<path id="google-plus-square" d="M829 318q0 -76 -58.5 -112.5t-139.5 -36.5q-41 0 -80.5 9.5t-75.5 28.5t-58 53t-22 78q0 46 25 80t65.5 51.5t82 25t84.5 7.5q20 0 31 -2q2 -1 23 -16.5t26 -19t23 -18t24.5 -22t19 -22.5t17 -26t9 -26.5t4.5 -31.5zM755 863q0 -60 -33 -99.5t-92 -39.5q-53 0 -93 42.5 t-57.5 96.5t-17.5 106q0 61 32 104t92 43q53 0 93.5 -45t58 -101t17.5 -107zM861 1120l88 64h-265q-85 0 -161 -32t-127.5 -98t-51.5 -153q0 -93 64.5 -154.5t158.5 -61.5q22 0 43 3q-13 -29 -13 -54q0 -44 40 -94q-175 -12 -257 -63q-47 -29 -75.5 -73t-28.5 -95 q0 -43 18.5 -77.5t48.5 -56.5t69 -37t77.5 -21t76.5 -6q60 0 120.5 15.5t113.5 46t86 82.5t33 117q0 49 -20 89.5t-49 66.5t-58 47.5t-49 44t-20 44.5t15.5 42.5t37.5 39.5t44 42t37.5 59.5t15.5 82.5q0 60 -22.5 99.5t-72.5 90.5h83zM1152 672h128v64h-128v128h-64v-128 h-128v-64h128v-160h64v160zM1536 1120v-960q0 -119 -84.5 -203.5t-203.5 -84.5h-960q-119 0 -203.5 84.5t-84.5 203.5v960q0 119 84.5 203.5t203.5 84.5h960q119 0 203.5 -84.5t84.5 -203.5z" />
</g>
</svg>	
