<?xml version="1.0" encoding="ISO-8859-1"?>
<!-- Converted from Font Awesome. Glyph: f0d5 -->
<!DOCTYPE svg PUBLIC "-//W3C//DTD SVG 1.1//EN" "http://www.w3.org/Graphics/SVG/1.1/DTD/svg11.dtd">
<svg version="1.1" xmlns="http://www.w3.org/2000/svg" xmlns:xlink="http://www.w3.org/1999/xlink" width="2048" height="2048" xml:space="preserve">
<g transform="translate(192, 1664) scale(1, -1)">
	<path id="google-plus" d="M735 740q0 -36 32 -70.5t77.5 -68t90.5 -73.5t77 -104t32 -142q0 -90 -48 -173q-72 -122 -211 -179.5t-298 -57.5q-132 0 -246.5 41.5t-171.5 137.5q-37 60 -37 131q0 81 44.5 150t118.5 115q131 82 404 100q-32 42 -47.5 74t-15.5 73q0 36 21 85q-46 -4 -68 -4 q-148 0 -249.5 96.5t-101.5 244.5q0 82 36 159t99 131q77 66 182.5 98t217.5 32h418l-138 -88h-131q74 -63 112 -133t38 -160q0 -72 -24.5 -129.5t-59 -93t-69.5 -65t-59.5 -61.5t-24.5 -66zM589 836q38 0 78 16.5t66 43.5q53 57 53 159q0 58 -17 125t-48.5 129.5 t-84.5 103.5t-117 41q-42 0 -82.5 -19.5t-65.5 -52.5q-47 -59 -47 -160q0 -46 10 -97.5t31.5 -103t52 -92.5t75 -67t96.5 -26zM591 -37q58 0 111.5 13t99 39t73 73t27.5 109q0 25 -7 49t-14.5 42t-27 41.5t-29.5 35t-38.5 34.5t-36.5 29t-41.5 30t-36.5 26q-16 2 -48 2 q-53 0 -105 -7t-107.5 -25t-97 -46t-68.5 -74.5t-27 -105.5q0 -70 35 -123.5t91.5 -83t119 -44t127.5 -14.5zM1401 839h213v-108h-213v-219h-105v219h-212v108h212v217h105v-217z" />
</g>
</svg>	
