<?xml version="1.0" encoding="ISO-8859-1"?>
<!-- Converted from Font Awesome. Glyph: f1d1 -->
<!DOCTYPE svg PUBLIC "-//W3C//DTD SVG 1.1//EN" "http://www.w3.org/Graphics/SVG/1.1/DTD/svg11.dtd">
<svg version="1.1" xmlns="http://www.w3.org/2000/svg" xmlns:xlink="http://www.w3.org/1999/xlink" width="2048" height="2048" xml:space="preserve">
  <metadata>
    <rdf:RDF>
      <cc:Work>
        <dc:subject>
          <rdf:Bag><rdf:li>empire</rdf:li></rdf:Bag>
        </dc:subject>
      </cc:Work>
    </rdf:RDF>
  </metadata>
<g transform="translate(128, 1664) scale(1, -1)">
	<path id="ge" d="M0 640q0 182 71 348t191 286t286 191t348 71t348 -71t286 -191t191 -286t71 -348t-71 -348t-191 -286t-286 -191t-348 -71t-348 71t-286 191t-191 286t-71 348zM44 640q0 -173 67.5 -331t181.5 -272t272 -181.5t331 -67.5t331 67.5t272 181.5t181.5 272t67.5 331 t-67.5 331t-181.5 272t-272 181.5t-331 67.5t-331 -67.5t-272 -181.5t-181.5 -272t-67.5 -331zM87 640q0 205 98 385l57 -33q-30 -56 -49 -112l82 -28q-35 -100 -35 -212q0 -109 36 -212l-83 -28q22 -60 49 -112l-57 -33q-98 180 -98 385zM206 217l58 34q29 -49 73 -99 l65 57q148 -168 368 -212l-17 -86q65 -12 121 -13v-66q-208 6 -385 109.5t-283 275.5zM207 1063q106 172 282 275.5t385 109.5v-66q-65 -2 -121 -13l17 -86q-220 -42 -368 -211l-65 56q-38 -42 -73 -98zM415 805q33 93 99 169l185 -162q59 68 147 86l-48 240q44 10 98 10 t98 -10l-48 -240q88 -18 147 -86l185 162q66 -76 99 -169l-233 -80q14 -42 14 -85t-14 -85l232 -80q-31 -92 -98 -169l-185 162q-57 -67 -147 -85l48 -241q-52 -10 -98 -10t-98 10l48 241q-90 18 -147 85l-185 -162q-67 77 -98 169l232 80q-14 42 -14 85t14 85zM918 -102 q56 1 121 13l-17 86q220 44 368 212l65 -57q44 50 73 99l58 -34q-106 -172 -283 -275.5t-385 -109.5v66zM918 1382v66q209 -6 385 -109.5t282 -275.5l-57 -33q-35 56 -73 98l-65 -56q-148 169 -368 211l17 86q-56 11 -121 13zM1516 428q36 103 36 212q0 112 -35 212l82 28 q-19 56 -49 112l57 33q98 -180 98 -385t-98 -385l-57 33q27 52 49 112z" />
</g>
</svg>	
