<?xml version="1.0" encoding="ISO-8859-1"?>
<!-- Converted from Font Awesome. Glyph: f1a0 -->
<!DOCTYPE svg PUBLIC "-//W3C//DTD SVG 1.1//EN" "http://www.w3.org/Graphics/SVG/1.1/DTD/svg11.dtd">
<svg version="1.1" xmlns="http://www.w3.org/2000/svg" xmlns:xlink="http://www.w3.org/1999/xlink" width="2048" height="2048" xml:space="preserve">
<g transform="translate(384, 1664) scale(1, -1)">
	<path id="google" d="M111 182q0 81 44.5 150t118.5 115q131 82 404 100q-32 41 -47.5 73.5t-15.5 73.5q0 40 21 85q-46 -4 -68 -4q-148 0 -249.5 96.5t-101.5 244.5q0 82 36 159t99 131q76 66 182 98t218 32h417l-137 -88h-132q75 -63 113 -133t38 -160q0 -72 -24.5 -129.5t-59.5 -93 t-69.5 -65t-59 -61.5t-24.5 -66q0 -36 32 -70.5t77 -68t90.5 -73.5t77.5 -104t32 -142q0 -91 -49 -173q-71 -122 -209.5 -179.5t-298.5 -57.5q-132 0 -246.5 41.5t-172.5 137.5q-36 59 -36 131zM297 228q0 -56 23.5 -102t61 -75.5t87 -50t100 -29t101.5 -8.5q58 0 111.5 13 t99 39t73 73t27.5 109q0 25 -7 49t-14.5 42t-27 41.5t-29.5 35t-38.5 34.5t-36.5 29t-41.5 30t-36.5 26q-16 2 -49 2q-53 0 -104.5 -7t-107 -25t-97 -46t-68.5 -74.5t-27 -105.5zM403 1222q0 -46 10 -97.5t31.5 -103t52 -92.5t75 -67t96.5 -26q37 0 77.5 16.5t65.5 43.5 q53 56 53 159q0 59 -17 125.5t-48 129t-84 103.5t-117 41q-42 0 -82.5 -19.5t-66.5 -52.5q-46 -59 -46 -160z" />
</g>
</svg>	
