<?xml version="1.0" encoding="ISO-8859-1"?>
<!-- Converted from Font Awesome. Glyph: f1d2 -->
<!DOCTYPE svg PUBLIC "-//W3C//DTD SVG 1.1//EN" "http://www.w3.org/Graphics/SVG/1.1/DTD/svg11.dtd">
<svg version="1.1" xmlns="http://www.w3.org/2000/svg" xmlns:xlink="http://www.w3.org/1999/xlink" width="2048" height="2048" xml:space="preserve">
<g transform="translate(256, 1664) scale(1, -1)">
	<path id="git-square" d="M0 160v960q0 119 84.5 203.5t203.5 84.5h960q119 0 203.5 -84.5t84.5 -203.5v-960q0 -119 -84.5 -203.5t-203.5 -84.5h-960q-119 0 -203.5 84.5t-84.5 203.5zM256 218q0 -45 20 -78.5t54 -51t72 -25.5t81 -8q224 0 224 188q0 67 -48 99t-126 46q-27 5 -51.5 20.5 t-24.5 39.5q0 44 49 52q77 15 122 70t45 134q0 24 -10 52q37 9 49 13v125q-78 -29 -135 -29q-50 29 -110 29q-86 0 -145 -57t-59 -143q0 -50 29.5 -102t73.5 -67v-3q-38 -17 -38 -85q0 -53 41 -77v-3q-113 -37 -113 -139zM382 225q0 64 98 64q102 0 102 -61q0 -66 -93 -66 q-107 0 -107 63zM395 693q0 90 77 90q36 0 55 -25.5t19 -63.5q0 -85 -74 -85q-77 0 -77 84zM755 1072q0 -36 25 -62.5t60 -26.5t59.5 27t24.5 62q0 36 -24 63.5t-60 27.5t-60.5 -27t-24.5 -64zM771 350h137q-2 27 -2 82v387q0 46 2 69h-137q3 -23 3 -71v-392q0 -50 -3 -75z M966 771q36 3 37 3q3 0 11 -0.5t12 -0.5v-2h-2v-217q0 -37 2.5 -64t11.5 -56.5t24.5 -48.5t43.5 -31t66 -12q64 0 108 24v121q-30 -21 -68 -21q-53 0 -53 82v225h52q9 0 26.5 -1t26.5 -1v117h-105q0 82 3 102h-140q4 -24 4 -55v-47h-60v-117z" />
</g>
</svg>	
