<?xml version="1.0" encoding="ISO-8859-1"?>
<!-- Converted from Font Awesome. Glyph: f254 -->
<!DOCTYPE svg PUBLIC "-//W3C//DTD SVG 1.1//EN" "http://www.w3.org/Graphics/SVG/1.1/DTD/svg11.dtd">
<svg version="1.1" xmlns="http://www.w3.org/2000/svg" xmlns:xlink="http://www.w3.org/1999/xlink" width="2048" height="2048" xml:space="preserve">
<g transform="translate(256, 1664) scale(1, -1)">
	<path id="hourglass" d="M1504 -64q14 0 23 -9t9 -23v-128q0 -14 -9 -23t-23 -9h-1472q-14 0 -23 9t-9 23v128q0 14 9 23t23 9h1472zM130 0q3 55 16 107t30 95t46 87t53.5 76t64.5 69.5t66 60t70.5 55t66.5 47.5t65 43q-43 28 -65 43t-66.5 47.5t-70.5 55t-66 60t-64.5 69.5t-53.5 76t-46 87 t-30 95t-16 107h1276q-3 -55 -16 -107t-30 -95t-46 -87t-53.5 -76t-64.5 -69.5t-66 -60t-70.5 -55t-66.5 -47.5t-65 -43q43 -28 65 -43t66.5 -47.5t70.5 -55t66 -60t64.5 -69.5t53.5 -76t46 -87t30 -95t16 -107h-1276zM1504 1536q14 0 23 -9t9 -23v-128q0 -14 -9 -23t-23 -9 h-1472q-14 0 -23 9t-9 23v128q0 14 9 23t23 9h1472z" />
</g>
</svg>	
