<?xml version="1.0" encoding="ISO-8859-1"?>
<!-- Converted from Font Awesome. Glyph: f275 -->
<!DOCTYPE svg PUBLIC "-//W3C//DTD SVG 1.1//EN" "http://www.w3.org/Graphics/SVG/1.1/DTD/svg11.dtd">
<svg version="1.1" xmlns="http://www.w3.org/2000/svg" xmlns:xlink="http://www.w3.org/1999/xlink" width="2048" height="2048" xml:space="preserve">
<g transform="translate(128, 1664) scale(1, -1)">
	<path id="industry" d="M448 1536q26 0 45 -19t19 -45v-891l536 429q17 14 40 14q26 0 45 -19t19 -45v-379l536 429q17 14 40 14q26 0 45 -19t19 -45v-1152q0 -26 -19 -45t-45 -19h-1664q-26 0 -45 19t-19 45v1664q0 26 19 45t45 19h384z" />
</g>
</svg>	
