<?xml version="1.0" encoding="ISO-8859-1"?>
<!-- Converted from Font Awesome. Glyph: f26b -->
<!DOCTYPE svg PUBLIC "-//W3C//DTD SVG 1.1//EN" "http://www.w3.org/Graphics/SVG/1.1/DTD/svg11.dtd">
<svg version="1.1" xmlns="http://www.w3.org/2000/svg" xmlns:xlink="http://www.w3.org/1999/xlink" width="2048" height="2048" xml:space="preserve">
<g transform="translate(128, 1664) scale(1, -1)">
	<path id="internet-explorer" d="M716 -69q-143 35 -261.5 114t-197.5 191q-139 -300 -17 -398q26 -21 85 -24.5t127.5 9.5t141 41.5t122.5 66.5zM693 762h452q0 108 -61.5 169t-168.5 61q-103 0 -162.5 -62.5t-59.5 -167.5zM1724 1137h-34q26 102 22.5 170t-25 110t-63.5 57t-93.5 11t-115 -26.5 t-128.5 -56.5t-134 -79q129 -37 238.5 -113.5t185 -179t110 -231.5t15.5 -262h-1005q0 -60 10 -106t34 -85t69.5 -60t112.5 -21q87 0 142.5 44t72.5 122h540q-71 -230 -281.5 -377t-477.5 -147q-83 0 -159 15q-35 -40 -151 -94t-248 -78t-219 35q-78 60 -100 159t7 214 t88 242t143.5 248t173.5 226.5t177.5 183.5t156.5 112v24q-120 -37 -258.5 -137.5t-240.5 -207t-159 -195.5q4 106 34 201t80 169t118 135.5t147.5 100.5t168 65.5t180.5 29.5t185 -8q310 186 503 189h7q57 0 103 -18q80 -30 98 -132.5t-30 -248.5z" />
</g>
</svg>	
