<?xml version="1.0" encoding="ISO-8859-1"?>
<!-- Converted from Font Awesome. Glyph: f03c -->
<!DOCTYPE svg PUBLIC "-//W3C//DTD SVG 1.1//EN" "http://www.w3.org/Graphics/SVG/1.1/DTD/svg11.dtd">
<svg version="1.1" xmlns="http://www.w3.org/2000/svg" xmlns:xlink="http://www.w3.org/1999/xlink" width="2048" height="2048" xml:space="preserve">
<g transform="translate(128, 1664) scale(1, -1)">
	<path id="indent" d="M0 32v192q0 13 9.5 22.5t22.5 9.5h1728q13 0 22.5 -9.5t9.5 -22.5v-192q0 -13 -9.5 -22.5t-22.5 -9.5h-1728q-13 0 -22.5 9.5t-9.5 22.5zM0 416v576q0 13 9.5 22.5t22.5 9.5q14 0 23 -9l288 -288q9 -9 9 -23t-9 -23l-288 -288q-9 -9 -23 -9q-13 0 -22.5 9.5t-9.5 22.5z M0 1184v192q0 13 9.5 22.5t22.5 9.5h1728q13 0 22.5 -9.5t9.5 -22.5v-192q0 -13 -9.5 -22.5t-22.5 -9.5h-1728q-13 0 -22.5 9.5t-9.5 22.5zM640 416v192q0 13 9.5 22.5t22.5 9.5h1088q13 0 22.5 -9.5t9.5 -22.5v-192q0 -13 -9.5 -22.5t-22.5 -9.5h-1088q-13 0 -22.5 9.5 t-9.5 22.5zM640 800v192q0 13 9.5 22.5t22.5 9.5h1088q13 0 22.5 -9.5t9.5 -22.5v-192q0 -13 -9.5 -22.5t-22.5 -9.5h-1088q-13 0 -22.5 9.5t-9.5 22.5z" />
</g>
</svg>	
