<?xml version="1.0" encoding="ISO-8859-1"?>
<!-- Converted from Font Awesome. Glyph: f11c -->
<!DOCTYPE svg PUBLIC "-//W3C//DTD SVG 1.1//EN" "http://www.w3.org/Graphics/SVG/1.1/DTD/svg11.dtd">
<svg version="1.1" xmlns="http://www.w3.org/2000/svg" xmlns:xlink="http://www.w3.org/1999/xlink" width="2048" height="2048" xml:space="preserve">
<g transform="translate(64, 1664) scale(1, -1)">
	<path id="keyboard-o" d="M0 128v896q0 53 37.5 90.5t90.5 37.5h1664q53 0 90.5 -37.5t37.5 -90.5v-896q0 -53 -37.5 -90.5t-90.5 -37.5h-1664q-53 0 -90.5 37.5t-37.5 90.5zM128 128h1664v896h-1664v-896zM256 272v96q0 16 16 16h96q16 0 16 -16v-96q0 -16 -16 -16h-96q-16 0 -16 16zM256 528v96 q0 16 16 16h224q16 0 16 -16v-96q0 -16 -16 -16h-224q-16 0 -16 16zM256 784v96q0 16 16 16h96q16 0 16 -16v-96q0 -16 -16 -16h-96q-16 0 -16 16zM512 272v96q0 16 16 16h864q16 0 16 -16v-96q0 -16 -16 -16h-864q-16 0 -16 16zM512 784v96q0 16 16 16h96q16 0 16 -16v-96 q0 -16 -16 -16h-96q-16 0 -16 16zM640 528v96q0 16 16 16h96q16 0 16 -16v-96q0 -16 -16 -16h-96q-16 0 -16 16zM768 784v96q0 16 16 16h96q16 0 16 -16v-96q0 -16 -16 -16h-96q-16 0 -16 16zM896 528v96q0 16 16 16h96q16 0 16 -16v-96q0 -16 -16 -16h-96q-16 0 -16 16z M1024 784v96q0 16 16 16h96q16 0 16 -16v-96q0 -16 -16 -16h-96q-16 0 -16 16zM1152 528v96q0 16 16 16h96q16 0 16 -16v-96q0 -16 -16 -16h-96q-16 0 -16 16zM1280 784v96q0 16 16 16h96q16 0 16 -16v-96q0 -16 -16 -16h-96q-16 0 -16 16zM1408 528v96q0 16 16 16h112v240 q0 16 16 16h96q16 0 16 -16v-352q0 -16 -16 -16h-224q-16 0 -16 16zM1536 272v96q0 16 16 16h96q16 0 16 -16v-96q0 -16 -16 -16h-96q-16 0 -16 16z" />
</g>
</svg>	
