<?xml version="1.0" encoding="ISO-8859-1"?>
<!-- Converted from Font Awesome. Glyph: f159 -->
<!DOCTYPE svg PUBLIC "-//W3C//DTD SVG 1.1//EN" "http://www.w3.org/Graphics/SVG/1.1/DTD/svg11.dtd">
<svg version="1.1" xmlns="http://www.w3.org/2000/svg" xmlns:xlink="http://www.w3.org/1999/xlink" width="2048" height="2048" xml:space="preserve">
  <metadata>
    <rdf:RDF>
      <cc:Work>
        <dc:subject>
          <rdf:Bag><rdf:li>won</rdf:li></rdf:Bag>
        </dc:subject>
      </cc:Work>
    </rdf:RDF>
  </metadata>
<g transform="translate(128, 1664) scale(1, -1)">
	<path id="krw" d="M0 672v64q0 14 9 23t23 9h175l-33 128h-142q-14 0 -23 9t-9 23v64q0 14 9 23t23 9h109l-89 344q-5 15 5 28q10 12 26 12h137q26 0 31 -24l90 -360h359l97 360q7 24 31 24h126q24 0 31 -24l98 -360h365l93 360q5 24 31 24h137q16 0 26 -12q10 -13 5 -28l-91 -344h111 q14 0 23 -9t9 -23v-64q0 -14 -9 -23t-23 -9h-145l-34 -128h179q14 0 23 -9t9 -23v-64q0 -14 -9 -23t-23 -9h-213l-164 -616q-7 -24 -31 -24h-159q-24 0 -31 24l-166 616h-209l-167 -616q-7 -24 -31 -24h-159q-11 0 -19.5 7t-10.5 17l-160 616h-208q-14 0 -23 9t-9 23z M373 896l32 -128h225l35 128h-292zM436 640l75 -300q1 -1 1 -3t1 -3q0 1 0.5 3.5t0.5 3.5l81 299h-159zM822 768h139l-35 128h-70zM1118 896l34 -128h230l33 128h-297zM1187 640l81 -299q0 -1 0.5 -3.5t1.5 -3.5q0 1 0.5 3t0.5 3l78 300h-162z" />
</g>
</svg>	
