<?xml version="1.0" encoding="ISO-8859-1"?>
<!-- Converted from Font Awesome. Glyph: f022 -->
<!DOCTYPE svg PUBLIC "-//W3C//DTD SVG 1.1//EN" "http://www.w3.org/Graphics/SVG/1.1/DTD/svg11.dtd">
<svg version="1.1" xmlns="http://www.w3.org/2000/svg" xmlns:xlink="http://www.w3.org/1999/xlink" width="2048" height="2048" xml:space="preserve">
<g transform="translate(128, 1664) scale(1, -1)">
	<path id="list-alt" d="M0 160v1088q0 66 47 113t113 47h1472q66 0 113 -47t47 -113v-1088q0 -66 -47 -113t-113 -47h-1472q-66 0 -113 47t-47 113zM128 160q0 -13 9.5 -22.5t22.5 -9.5h1472q13 0 22.5 9.5t9.5 22.5v832q0 13 -9.5 22.5t-22.5 9.5h-1472q-13 0 -22.5 -9.5t-9.5 -22.5v-832z M256 288v64q0 13 9.5 22.5t22.5 9.5h64q13 0 22.5 -9.5t9.5 -22.5v-64q0 -13 -9.5 -22.5t-22.5 -9.5h-64q-13 0 -22.5 9.5t-9.5 22.5zM256 544v64q0 13 9.5 22.5t22.5 9.5h64q13 0 22.5 -9.5t9.5 -22.5v-64q0 -13 -9.5 -22.5t-22.5 -9.5h-64q-13 0 -22.5 9.5t-9.5 22.5z M256 800v64q0 13 9.5 22.5t22.5 9.5h64q13 0 22.5 -9.5t9.5 -22.5v-64q0 -13 -9.5 -22.5t-22.5 -9.5h-64q-13 0 -22.5 9.5t-9.5 22.5zM512 288v64q0 13 9.5 22.5t22.5 9.5h960q13 0 22.5 -9.5t9.5 -22.5v-64q0 -13 -9.5 -22.5t-22.5 -9.5h-960q-13 0 -22.5 9.5t-9.5 22.5z M512 544v64q0 13 9.5 22.5t22.5 9.5h960q13 0 22.5 -9.5t9.5 -22.5v-64q0 -13 -9.5 -22.5t-22.5 -9.5h-960q-13 0 -22.5 9.5t-9.5 22.5zM512 800v64q0 13 9.5 22.5t22.5 9.5h960q13 0 22.5 -9.5t9.5 -22.5v-64q0 -13 -9.5 -22.5t-22.5 -9.5h-960q-13 0 -22.5 9.5t-9.5 22.5z " />
</g>
</svg>	
