<?xml version="1.0" encoding="ISO-8859-1"?>
<!-- Converted from Font Awesome. Glyph: f109 -->
<!DOCTYPE svg PUBLIC "-//W3C//DTD SVG 1.1//EN" "http://www.w3.org/Graphics/SVG/1.1/DTD/svg11.dtd">
<svg version="1.1" xmlns="http://www.w3.org/2000/svg" xmlns:xlink="http://www.w3.org/1999/xlink" width="2048" height="2048" xml:space="preserve">
<g transform="translate(64, 1664) scale(1, -1)">
	<path id="laptop" d="M0 96v96h160h1600h160v-96q0 -40 -47 -68t-113 -28h-1600q-66 0 -113 28t-47 68zM256 416v704q0 66 47 113t113 47h1088q66 0 113 -47t47 -113v-704q0 -66 -47 -113t-113 -47h-1088q-66 0 -113 47t-47 113zM384 416q0 -13 9.5 -22.5t22.5 -9.5h1088q13 0 22.5 9.5 t9.5 22.5v704q0 13 -9.5 22.5t-22.5 9.5h-1088q-13 0 -22.5 -9.5t-9.5 -22.5v-704zM864 112q0 -16 16 -16h160q16 0 16 16t-16 16h-160q-16 0 -16 -16z" />
</g>
</svg>	
