<?xml version="1.0" encoding="ISO-8859-1"?>
<!-- Converted from Font Awesome. Glyph: f23a -->
<!DOCTYPE svg PUBLIC "-//W3C//DTD SVG 1.1//EN" "http://www.w3.org/Graphics/SVG/1.1/DTD/svg11.dtd">
<svg version="1.1" xmlns="http://www.w3.org/2000/svg" xmlns:xlink="http://www.w3.org/1999/xlink" width="2048" height="2048" xml:space="preserve">
<g transform="translate(128, 1664) scale(1, -1)">
	<path id="medium" d="M1792 204v-209h-642v209h134v926h-6l-314 -1135h-243l-310 1135h-8v-926h135v-209h-538v209h69q21 0 43 19.5t22 37.5v881q0 18 -22 40t-43 22h-69v209h672l221 -821h6l223 821h670v-209h-71q-19 0 -41 -22t-22 -40v-881q0 -18 21.5 -37.5t41.5 -19.5h71z" />
</g>
</svg>	
