<?xml version="1.0" encoding="ISO-8859-1"?>
<!-- Converted from Font Awesome. Glyph: f278 -->
<!DOCTYPE svg PUBLIC "-//W3C//DTD SVG 1.1//EN" "http://www.w3.org/Graphics/SVG/1.1/DTD/svg11.dtd">
<svg version="1.1" xmlns="http://www.w3.org/2000/svg" xmlns:xlink="http://www.w3.org/1999/xlink" width="2048" height="2048" xml:space="preserve">
<g transform="translate(0, 1664) scale(1, -1)">
	<path id="map-o" d="M2020 1525q28 -20 28 -53v-1408q0 -20 -11 -36t-29 -23l-640 -256q-24 -11 -48 0l-616 246l-616 -246q-10 -5 -24 -5q-19 0 -36 11q-28 20 -28 53v1408q0 20 11 36t29 23l640 256q24 11 48 0l616 -246l616 246q32 13 60 -6zM736 1390v-1270l576 -230v1270zM128 1173 v-1270l544 217v1270zM1920 107v1270l-544 -217v-1270z" />
</g>
</svg>	
