<?xml version="1.0" encoding="ISO-8859-1"?>
<!-- Converted from Font Awesome. Glyph: f229 -->
<!DOCTYPE svg PUBLIC "-//W3C//DTD SVG 1.1//EN" "http://www.w3.org/Graphics/SVG/1.1/DTD/svg11.dtd">
<svg version="1.1" xmlns="http://www.w3.org/2000/svg" xmlns:xlink="http://www.w3.org/1999/xlink" width="2048" height="2048" xml:space="preserve">
<g transform="translate(128, 1664) scale(1, -1)">
	<path id="mars-stroke" d="M1728 1536q26 0 45 -19t19 -45v-416q0 -14 -9 -23t-23 -9h-64q-14 0 -23 9t-9 23v262l-229 -230l156 -156q9 -10 9 -23t-9 -22l-46 -46q-9 -9 -22 -9t-23 9l-156 157l-99 -100q87 -104 129.5 -236.5t30.5 -276.5q-22 -250 -200.5 -431t-428.5 -206q-163 -17 -314 39.5 t-256.5 162t-162 256.5t-39.5 314q25 250 206 428.5t431 200.5q144 12 276.5 -30.5t236.5 -129.5l99 99l-156 156q-9 10 -9 23t9 22l46 46q9 9 22 9t23 -9l156 -156l229 229h-261q-14 0 -23 9t-9 23v64q0 14 9 23t23 9h416zM1280 448q0 117 -45.5 223.5t-123 184t-184 123 t-223.5 45.5t-223.5 -45.5t-184 -123t-123 -184t-45.5 -223.5t45.5 -223.5t123 -184t184 -123t223.5 -45.5t223.5 45.5t184 123t123 184t45.5 223.5z" />
</g>
</svg>	
