<?xml version="1.0" encoding="ISO-8859-1"?>
<!-- Converted from Font Awesome. Glyph: f0d0 -->
<!DOCTYPE svg PUBLIC "-//W3C//DTD SVG 1.1//EN" "http://www.w3.org/Graphics/SVG/1.1/DTD/svg11.dtd">
<svg version="1.1" xmlns="http://www.w3.org/2000/svg" xmlns:xlink="http://www.w3.org/1999/xlink" width="2048" height="2048" xml:space="preserve">
<g transform="translate(192, 1664) scale(1, -1)">
	<path id="magic" d="M27 160q0 27 18 45l1286 1286q18 18 45 18t45 -18l198 -198q18 -18 18 -45t-18 -45l-1286 -1286q-18 -18 -45 -18t-45 18l-198 198q-18 18 -18 45zM128 1408l98 30l30 98l30 -98l98 -30l-98 -30l-30 -98l-30 98zM320 1216l196 60l60 196l60 -196l196 -60l-196 -60 l-60 -196l-60 196zM768 1408l98 30l30 98l30 -98l98 -30l-98 -30l-30 -98l-30 98zM1083 1062l107 -107l293 293l-107 107zM1408 768l98 30l30 98l30 -98l98 -30l-98 -30l-30 -98l-30 98z" />
</g>
</svg>	
