<?xml version="1.0" encoding="ISO-8859-1"?>
<!-- Converted from Font Awesome. Glyph: f22b -->
<!DOCTYPE svg PUBLIC "-//W3C//DTD SVG 1.1//EN" "http://www.w3.org/Graphics/SVG/1.1/DTD/svg11.dtd">
<svg version="1.1" xmlns="http://www.w3.org/2000/svg" xmlns:xlink="http://www.w3.org/1999/xlink" width="2048" height="2048" xml:space="preserve">
<g transform="translate(0, 1664) scale(1, -1)">
	<path id="mars-stroke-h" d="M2029 685q19 -19 19 -45t-19 -45l-294 -294q-9 -10 -22.5 -10t-22.5 10l-45 45q-10 9 -10 22.5t10 22.5l185 185h-294v-224q0 -14 -9 -23t-23 -9h-64q-14 0 -23 9t-9 23v224h-131q-12 -119 -67 -226t-139 -183.5t-196.5 -121.5t-234.5 -45q-180 0 -330.5 91t-234.5 247 t-74 337q8 162 94 300t226.5 219.5t302.5 85.5q166 4 310.5 -71.5t235.5 -208.5t107 -296h131v224q0 14 9 23t23 9h64q14 0 23 -9t9 -23v-224h294l-185 185q-10 9 -10 22.5t10 22.5l45 45q9 10 22.5 10t22.5 -10zM640 128q104 0 198.5 40.5t163.5 109.5t109.5 163.5 t40.5 198.5t-40.5 198.5t-109.5 163.5t-163.5 109.5t-198.5 40.5t-198.5 -40.5t-163.5 -109.5t-109.5 -163.5t-40.5 -198.5t40.5 -198.5t109.5 -163.5t163.5 -109.5t198.5 -40.5z" />
</g>
</svg>	
