<?xml version="1.0" encoding="ISO-8859-1"?>
<!-- Converted from Font Awesome. Glyph: f19d -->
<!DOCTYPE svg PUBLIC "-//W3C//DTD SVG 1.1//EN" "http://www.w3.org/Graphics/SVG/1.1/DTD/svg11.dtd">
<svg version="1.1" xmlns="http://www.w3.org/2000/svg" xmlns:xlink="http://www.w3.org/1999/xlink" width="2048" height="2048" xml:space="preserve">
  <metadata>
    <rdf:RDF>
      <cc:Work>
        <dc:subject>
          <rdf:Bag><rdf:li>graduation</rdf:li><rdf:li>cap</rdf:li></rdf:Bag>
        </dc:subject>
      </cc:Work>
    </rdf:RDF>
  </metadata>
<g transform="translate(-128, 1664) scale(1, -1)">
	<path id="mortar-board" d="M0 1024q0 23 22 31l1120 352q4 1 10 1t10 -1l1120 -352q22 -8 22 -31t-22 -31l-1120 -352q-4 -1 -10 -1t-10 1l-652 206q-43 -34 -71 -111.5t-34 -178.5q63 -36 63 -109q0 -69 -58 -107l58 -433q2 -14 -8 -25q-9 -11 -24 -11h-192q-15 0 -24 11q-10 11 -8 25l58 433 q-58 38 -58 107q0 73 65 111q11 207 98 330l-333 104q-22 8 -22 31zM512 384l18 316l574 -181q22 -7 48 -7t48 7l574 181l18 -316q4 -69 -82 -128t-235 -93.5t-323 -34.5t-323 34.5t-235 93.5t-82 128z" />
</g>
</svg>	
