<?xml version="1.0" encoding="ISO-8859-1"?>
<!-- Converted from Font Awesome. Glyph: f222 -->
<!DOCTYPE svg PUBLIC "-//W3C//DTD SVG 1.1//EN" "http://www.w3.org/Graphics/SVG/1.1/DTD/svg11.dtd">
<svg version="1.1" xmlns="http://www.w3.org/2000/svg" xmlns:xlink="http://www.w3.org/1999/xlink" width="2048" height="2048" xml:space="preserve">
<g transform="translate(128, 1664) scale(1, -1)">
	<path id="mars" d="M1280 1504q0 14 9 23t23 9h416q26 0 45 -19t19 -45v-416q0 -14 -9 -23t-23 -9h-64q-14 0 -23 9t-9 23v262l-419 -420q87 -104 129.5 -236.5t30.5 -276.5q-22 -250 -200.5 -431t-428.5 -206q-163 -17 -314 39.5t-256.5 162t-162 256.5t-39.5 314q25 250 206 428.5 t431 200.5q144 12 276.5 -30.5t236.5 -129.5l419 419h-261q-14 0 -23 9t-9 23v64zM704 -128q117 0 223.5 45.5t184 123t123 184t45.5 223.5t-45.5 223.5t-123 184t-184 123t-223.5 45.5t-223.5 -45.5t-184 -123t-123 -184t-45.5 -223.5t45.5 -223.5t123 -184t184 -123 t223.5 -45.5z" />
</g>
</svg>	
