<?xml version="1.0" encoding="ISO-8859-1"?>
<!-- Converted from Font Awesome. Glyph: f22b -->
<!DOCTYPE svg PUBLIC "-//W3C//DTD SVG 1.1//EN" "http://www.w3.org/Graphics/SVG/1.1/DTD/svg11.dtd">
<svg version="1.1" xmlns="http://www.w3.org/2000/svg" xmlns:xlink="http://www.w3.org/1999/xlink" width="2048" height="2048" xml:space="preserve">
<g transform="translate(0, 1664) scale(1, -1)">
	<path id="mars-stroke-h" d="M1901 621q19 -19 19 -45t-19 -45l-294 -294q-9 -10 -22.5 -10t-22.5 10l-45 45q-10 9 -10 22.5t10 22.5l185 185h-294v-224q0 -14 -9 -23t-23 -9h-64q-14 0 -23 9t-9 23v224h-132q-24 -217 -187.5 -364.5t-384.5 -147.5q-167 0 -306 87t-212 236t-54 319q15 133 88 245.5 t188 182t249 80.5q155 12 292 -52.5t224 -186t103 -271.5h132v224q0 14 9 23t23 9h64q14 0 23 -9t9 -23v-224h294l-185 185q-10 9 -10 22.5t10 22.5l45 45q9 10 22.5 10t22.5 -10zM576 128q185 0 316.5 131.5t131.5 316.5t-131.5 316.5t-316.5 131.5t-316.5 -131.5 t-131.5 -316.5t131.5 -316.5t316.5 -131.5z" />
</g>
</svg>	
