<?xml version="1.0" encoding="ISO-8859-1"?>
<!-- Converted from Font Awesome. Glyph: f279 -->
<!DOCTYPE svg PUBLIC "-//W3C//DTD SVG 1.1//EN" "http://www.w3.org/Graphics/SVG/1.1/DTD/svg11.dtd">
<svg version="1.1" xmlns="http://www.w3.org/2000/svg" xmlns:xlink="http://www.w3.org/1999/xlink" width="2048" height="2048" xml:space="preserve">
<g transform="translate(128, 1664) scale(1, -1)">
	<path id="map" d="M512 1536q13 0 22.5 -9.5t9.5 -22.5v-1472q0 -20 -17 -28l-480 -256q-7 -4 -15 -4q-13 0 -22.5 9.5t-9.5 22.5v1472q0 20 17 28l480 256q7 4 15 4zM1760 1536q13 0 22.5 -9.5t9.5 -22.5v-1472q0 -20 -17 -28l-480 -256q-7 -4 -15 -4q-13 0 -22.5 9.5t-9.5 22.5v1472 q0 20 17 28l480 256q7 4 15 4zM640 1536q8 0 14 -3l512 -256q18 -10 18 -29v-1472q0 -13 -9.5 -22.5t-22.5 -9.5q-8 0 -14 3l-512 256q-18 10 -18 29v1472q0 13 9.5 22.5t22.5 9.5z" />
</g>
</svg>	
