<?xml version="1.0" encoding="ISO-8859-1"?>
<!-- Converted from Font Awesome. Glyph: f22c -->
<!DOCTYPE svg PUBLIC "-//W3C//DTD SVG 1.1//EN" "http://www.w3.org/Graphics/SVG/1.1/DTD/svg11.dtd">
<svg version="1.1" xmlns="http://www.w3.org/2000/svg" xmlns:xlink="http://www.w3.org/1999/xlink" width="2048" height="2048" xml:space="preserve">
<g transform="translate(384, 1664) scale(1, -1)">
	<path id="neuter" d="M1152 960q0 -221 -147.5 -384.5t-364.5 -187.5v-612q0 -14 -9 -23t-23 -9h-64q-14 0 -23 9t-9 23v612q-217 24 -364.5 187.5t-147.5 384.5q0 117 45.5 223.5t123 184t184 123t223.5 45.5t223.5 -45.5t184 -123t123 -184t45.5 -223.5zM576 512q185 0 316.5 131.5 t131.5 316.5t-131.5 316.5t-316.5 131.5t-316.5 -131.5t-131.5 -316.5t131.5 -316.5t316.5 -131.5z" />
</g>
</svg>	
