<?xml version="1.0" encoding="ISO-8859-1"?>
<!-- Converted from Font Awesome. Glyph: f248 -->
<!DOCTYPE svg PUBLIC "-//W3C//DTD SVG 1.1//EN" "http://www.w3.org/Graphics/SVG/1.1/DTD/svg11.dtd">
<svg version="1.1" xmlns="http://www.w3.org/2000/svg" xmlns:xlink="http://www.w3.org/1999/xlink" width="2048" height="2048" xml:space="preserve">
<g transform="translate(0, 1536) scale(0.888888888888889, -0.888888888888889)">
	<path id="object-ungroup" d="M2304 768h-128v-640h128v-384h-384v128h-896v-128h-384v384h128v128h-384v-128h-384v384h128v640h-128v384h384v-128h896v128h384v-384h-128v-128h384v128h384v-384zM2048 1024v-128h128v128h-128zM1408 1408v-128h128v128h-128zM128 1408v-128h128v128h-128zM256 256 v128h-128v-128h128zM1536 384h-128v-128h128v128zM384 384h896v128h128v640h-128v128h-896v-128h-128v-640h128v-128zM896 -128v128h-128v-128h128zM2176 -128v128h-128v-128h128zM2048 128v640h-128v128h-384v-384h128v-384h-384v128h-384v-128h128v-128h896v128h128z" />
</g>
</svg>	
