<?xml version="1.0" encoding="ISO-8859-1"?>
<!-- Converted from Font Awesome. Glyph: f19b -->
<!DOCTYPE svg PUBLIC "-//W3C//DTD SVG 1.1//EN" "http://www.w3.org/Graphics/SVG/1.1/DTD/svg11.dtd">
<svg version="1.1" xmlns="http://www.w3.org/2000/svg" xmlns:xlink="http://www.w3.org/1999/xlink" width="2048" height="2048" xml:space="preserve">
<g transform="translate(128, 1664) scale(1, -1)">
	<path id="openid" d="M0 455q0 140 100.5 263.5t275 205.5t391.5 108v-172q-217 -38 -356.5 -150t-139.5 -255q0 -152 154.5 -267t388.5 -145v1360l272 133v-1536l-272 -128q-228 20 -414 102t-293 208.5t-107 272.5zM1134 860v172q277 -33 481 -157l140 79l37 -390l-525 114l147 83 q-119 70 -280 99z" />
</g>
</svg>	
