<?xml version="1.0" encoding="ISO-8859-1"?>
<!-- Converted from Font Awesome. Glyph: f26a -->
<!DOCTYPE svg PUBLIC "-//W3C//DTD SVG 1.1//EN" "http://www.w3.org/Graphics/SVG/1.1/DTD/svg11.dtd">
<svg version="1.1" xmlns="http://www.w3.org/2000/svg" xmlns:xlink="http://www.w3.org/1999/xlink" width="2048" height="2048" xml:space="preserve">
<g transform="translate(256, 1664) scale(1, -1)">
	<path id="opera" d="M768 -92q77 0 139.5 63t100.5 166t59 234.5t21 268.5t-21 268.5t-59 234.5t-100.5 166t-139.5 63t-139.5 -63t-100.5 -166t-59 -234.5t-21 -268.5t21 -268.5t59 -234.5t100.5 -166t139.5 -63zM768 -256q-184 0 -333 77t-240 203t-141 287t-50 329t50 329t141 287t240 203 t333 77q148 0 274 -50t214.5 -136t151.5 -201t92.5 -244t29.5 -265t-29.5 -265t-92.5 -244t-151.5 -201t-214.5 -136t-274 -50z" />
</g>
</svg>	
