<?xml version="1.0" encoding="ISO-8859-1"?>
<!-- Converted from Font Awesome. Glyph: f247 -->
<!DOCTYPE svg PUBLIC "-//W3C//DTD SVG 1.1//EN" "http://www.w3.org/Graphics/SVG/1.1/DTD/svg11.dtd">
<svg version="1.1" xmlns="http://www.w3.org/2000/svg" xmlns:xlink="http://www.w3.org/1999/xlink" width="2048" height="2048" xml:space="preserve">
<g transform="translate(0, 1664) scale(1, -1)">
	<path id="object-group" d="M2048 1152h-128v-1024h128v-384h-384v128h-1280v-128h-384v384h128v1024h-128v384h384v-128h1280v128h384v-384zM1792 1408v-128h128v128h-128zM128 1408v-128h128v128h-128zM256 -128v128h-128v-128h128zM1664 0v128h128v1024h-128v128h-1280v-128h-128v-1024h128v-128 h1280zM1920 -128v128h-128v-128h128zM1280 896h384v-768h-896v256h-384v768h896v-256zM512 512h640v512h-640v-512zM1536 256v512h-256v-384h-384v-128h640z" />
</g>
</svg>	
