<?xml version="1.0" encoding="ISO-8859-1"?>
<!-- Converted from Font Awesome. Glyph: f1dd -->
<!DOCTYPE svg PUBLIC "-//W3C//DTD SVG 1.1//EN" "http://www.w3.org/Graphics/SVG/1.1/DTD/svg11.dtd">
<svg version="1.1" xmlns="http://www.w3.org/2000/svg" xmlns:xlink="http://www.w3.org/1999/xlink" width="2048" height="2048" xml:space="preserve">
<g transform="translate(384, 1664) scale(1, -1)">
	<path id="paragraph" d="M1278 1347v-73q0 -29 -18.5 -61t-42.5 -32q-50 0 -54 -1q-26 -6 -32 -31q-3 -11 -3 -64v-1152q0 -25 -18 -43t-43 -18h-108q-25 0 -43 18t-18 43v1218h-143v-1218q0 -25 -17.5 -43t-43.5 -18h-108q-26 0 -43.5 18t-17.5 43v496q-147 12 -245 59q-126 58 -192 179 q-64 117 -64 259q0 166 88 286q88 118 209 159q111 37 417 37h479q25 0 43 -18t18 -43z" />
</g>
</svg>	
