<?xml version="1.0" encoding="ISO-8859-1"?>
<!-- Converted from Font Awesome. Glyph: f0ea -->
<!DOCTYPE svg PUBLIC "-//W3C//DTD SVG 1.1//EN" "http://www.w3.org/Graphics/SVG/1.1/DTD/svg11.dtd">
<svg version="1.1" xmlns="http://www.w3.org/2000/svg" xmlns:xlink="http://www.w3.org/1999/xlink" width="2048" height="2048" xml:space="preserve">
  <metadata>
    <rdf:RDF>
      <cc:Work>
        <dc:subject>
          <rdf:Bag><rdf:li>clipboard</rdf:li></rdf:Bag>
        </dc:subject>
      </cc:Work>
    </rdf:RDF>
  </metadata>
<g transform="translate(128, 1664) scale(1, -1)">
	<path id="paste" d="M0 96v1344q0 40 28 68t68 28h1088q40 0 68 -28t28 -68v-328q21 -13 36 -28l408 -408q28 -28 48 -76t20 -88v-672q0 -40 -28 -68t-68 -28h-960q-40 0 -68 28t-28 68v160h-544q-40 0 -68 28t-28 68zM256 1312q0 -13 9.5 -22.5t22.5 -9.5h704q13 0 22.5 9.5t9.5 22.5v64 q0 13 -9.5 22.5t-22.5 9.5h-704q-13 0 -22.5 -9.5t-9.5 -22.5v-64zM768 -128h896v640h-416q-40 0 -68 28t-28 68v416h-384v-1152zM1280 640h299l-299 299v-299z" />
</g>
</svg>	
