<?xml version="1.0" encoding="ISO-8859-1"?>
<!-- Converted from Font Awesome. Glyph: f03e -->
<!DOCTYPE svg PUBLIC "-//W3C//DTD SVG 1.1//EN" "http://www.w3.org/Graphics/SVG/1.1/DTD/svg11.dtd">
<svg version="1.1" xmlns="http://www.w3.org/2000/svg" xmlns:xlink="http://www.w3.org/1999/xlink" width="2048" height="2048" xml:space="preserve">
  <metadata>
    <rdf:RDF>
      <cc:Work>
        <dc:subject>
          <rdf:Bag><rdf:li>picture</rdf:li><rdf:li>o</rdf:li><rdf:li>image</rdf:li></rdf:Bag>
        </dc:subject>
      </cc:Work>
    </rdf:RDF>
  </metadata>
<g transform="translate(64, 1664) scale(1, -1)">
	<path id="photo" d="M0 32v1216q0 66 47 113t113 47h1600q66 0 113 -47t47 -113v-1216q0 -66 -47 -113t-113 -47h-1600q-66 0 -113 47t-47 113zM128 32q0 -13 9.5 -22.5t22.5 -9.5h1600q13 0 22.5 9.5t9.5 22.5v1216q0 13 -9.5 22.5t-22.5 9.5h-1600q-13 0 -22.5 -9.5t-9.5 -22.5v-1216z M256 128v192l320 320l160 -160l512 512l416 -416v-448h-1408zM256 960q0 80 56 136t136 56t136 -56t56 -136t-56 -136t-136 -56t-136 56t-56 136z" />
</g>
</svg>	
