<?xml version="1.0" encoding="ISO-8859-1"?>
<!-- Converted from Font Awesome. Glyph: f1a2 -->
<!DOCTYPE svg PUBLIC "-//W3C//DTD SVG 1.1//EN" "http://www.w3.org/Graphics/SVG/1.1/DTD/svg11.dtd">
<svg version="1.1" xmlns="http://www.w3.org/2000/svg" xmlns:xlink="http://www.w3.org/1999/xlink" width="2048" height="2048" xml:space="preserve">
<g transform="translate(256, 1664) scale(1, -1)">
	<path id="reddit-square" d="M0 193v894q0 133 94 227t226 94h896q132 0 226 -94t94 -227v-894q0 -133 -94 -227t-226 -94h-896q-132 0 -226 94t-94 227zM155 709q0 -37 19.5 -67.5t52.5 -45.5q-7 -25 -7 -54q0 -98 74 -181.5t201.5 -132t278.5 -48.5q150 0 277.5 48.5t201.5 132t74 181.5q0 27 -6 54 q35 14 57 45.5t22 70.5q0 51 -36 87.5t-87 36.5q-60 0 -98 -48q-151 107 -375 115l83 265l206 -49q1 -50 36.5 -85t84.5 -35q50 0 86 35.5t36 85.5t-36 86t-86 36q-36 0 -66 -20.5t-45 -53.5l-227 54q-9 2 -17.5 -2.5t-11.5 -14.5l-95 -302q-224 -4 -381 -113q-36 43 -93 43 q-51 0 -87 -36.5t-36 -87.5zM493 613q0 37 26 63t63 26t63 -26t26 -63t-26 -64t-63 -27t-63 27t-26 64zM560 375q0 11 8 18q7 7 17.5 7t17.5 -7q49 -51 172 -51h1h1q122 0 173 51q7 7 17.5 7t17.5 -7t7 -18t-7 -18q-65 -64 -208 -64h-1h-1q-143 0 -207 64q-8 7 -8 18z M882 613q0 37 26 63t63 26t63 -26t26 -63t-26 -64t-63 -27t-63 27t-26 64zM1143 1120q0 30 21 51t50 21q30 0 51 -21t21 -51q0 -29 -21 -50t-51 -21q-29 0 -50 21t-21 50z" />
</g>
</svg>	
