<?xml version="1.0" encoding="ISO-8859-1"?>
<!-- Converted from Font Awesome. Glyph: f1a1 -->
<!DOCTYPE svg PUBLIC "-//W3C//DTD SVG 1.1//EN" "http://www.w3.org/Graphics/SVG/1.1/DTD/svg11.dtd">
<svg version="1.1" xmlns="http://www.w3.org/2000/svg" xmlns:xlink="http://www.w3.org/1999/xlink" width="2048" height="2048" xml:space="preserve">
<g transform="translate(0, 1536) scale(0.888888888888889, -0.888888888888889)">
	<path id="reddit" d="M1509 107q0 -14 -12 -29q-52 -59 -147.5 -83t-196.5 -24q-252 0 -346 107q-12 15 -12 29q0 17 12 29.5t29 12.5q15 0 30 -12q58 -49 125.5 -66t159.5 -17t160 17t127 66q15 12 30 12q17 0 29 -12.5t12 -29.5zM978 498q0 -61 -43 -104t-104 -43q-60 0 -104.5 43.5 t-44.5 103.5q0 61 44 105t105 44t104 -44t43 -105zM1622 498q0 -61 -43 -104t-104 -43q-60 0 -104.5 43.5t-44.5 103.5q0 61 44 105t105 44t104 -44t43 -105zM415 793q-39 27 -88 27q-66 0 -113 -47t-47 -113q0 -72 54 -121q53 141 194 254zM2020 382q0 222 -249 387 q-128 85 -291.5 126.5t-331.5 41.5t-331.5 -41.5t-292.5 -126.5q-249 -165 -249 -387t249 -387q129 -85 292.5 -126.5t331.5 -41.5t331.5 41.5t291.5 126.5q249 165 249 387zM2137 660q0 66 -47 113t-113 47q-50 0 -93 -30q140 -114 192 -256q61 48 61 126zM1993 1335 q0 49 -34.5 83.5t-82.5 34.5q-49 0 -83.5 -34.5t-34.5 -83.5q0 -48 34.5 -82.5t83.5 -34.5q48 0 82.5 34.5t34.5 82.5zM2220 660q0 -65 -33 -122t-89 -90q5 -35 5 -66q0 -139 -79 -255.5t-208 -201.5q-140 -92 -313.5 -136.5t-354.5 -44.5t-355 44.5t-314 136.5 q-129 85 -208 201.5t-79 255.5q0 36 6 71q-53 33 -83.5 88.5t-30.5 118.5q0 100 71 171.5t172 71.5q91 0 159 -60q265 170 638 177l144 456q10 29 40 29q24 0 384 -90q24 55 74 88t110 33q82 0 141 -59t59 -142t-59 -141.5t-141 -58.5q-83 0 -141.5 58.5t-59.5 140.5 l-339 80l-125 -395q349 -15 603 -179q71 63 163 63q101 0 172 -71.5t71 -171.5z" />
</g>
</svg>	
