<?xml version="1.0" encoding="ISO-8859-1"?>
<!-- Converted from Font Awesome. Glyph: f1b8 -->
<!DOCTYPE svg PUBLIC "-//W3C//DTD SVG 1.1//EN" "http://www.w3.org/Graphics/SVG/1.1/DTD/svg11.dtd">
<svg version="1.1" xmlns="http://www.w3.org/2000/svg" xmlns:xlink="http://www.w3.org/1999/xlink" width="2048" height="2048" xml:space="preserve">
<g transform="translate(128, 1664) scale(1, -1)">
	<path id="recycle" d="M16 970l433 -17l180 -379l-147 92q-63 -72 -111.5 -144.5t-72.5 -125t-39.5 -94.5t-18.5 -63l-4 -21l-190 357q-17 26 -18 56t6 47l8 18q35 63 114 188zM270.5 158q-3.5 28 4 65t12 55t21.5 64t19 53q78 -12 509 -28l-15 -368l-2 -22l-420 29q-36 3 -67 31.5t-47 65.5 q-11 27 -14.5 55zM294 1124l225 356q20 31 60 45t80 10q24 -2 48.5 -12t42 -21t41.5 -33t36 -34.5t36 -39.5t32 -35q-47 -63 -265 -435l-317 187zM782 1524l405 -1q31 3 58 -10.5t39 -28.5l11 -15q39 -61 112 -190l142 83l-220 -373l-419 20l151 86q-34 89 -75 166 t-75.5 123.5t-64.5 80t-47 46.5zM953 197l211 362l7 -173q170 -16 283 -5t170 33l56 22l-188 -359q-12 -29 -36.5 -46.5t-43.5 -20.5l-18 -4q-71 -7 -219 -12l8 -164zM1218 847l313 195l19 11l212 -363q18 -37 12.5 -76t-27.5 -74q-13 -20 -33 -37t-38 -28t-48.5 -22 t-47 -16t-51.5 -14t-46 -12q-34 72 -265 436z" />
</g>
</svg>	
