<?xml version="1.0" encoding="ISO-8859-1"?>
<!-- Converted from Font Awesome. Glyph: f1a1 -->
<!DOCTYPE svg PUBLIC "-//W3C//DTD SVG 1.1//EN" "http://www.w3.org/Graphics/SVG/1.1/DTD/svg11.dtd">
<svg version="1.1" xmlns="http://www.w3.org/2000/svg" xmlns:xlink="http://www.w3.org/1999/xlink" width="2048" height="2048" xml:space="preserve">
<g transform="translate(32, 1664) scale(1, -1)">
	<path id="reddit" d="M0 722q0 94 66 160t160 66q83 0 148 -55q248 158 592 164l134 423q4 14 17.5 21.5t28.5 4.5l347 -82q22 50 68.5 81t102.5 31q77 0 131.5 -54.5t54.5 -131.5t-54.5 -132t-131.5 -55q-76 0 -130.5 54t-55.5 131l-315 74l-116 -366q327 -14 560 -166q64 58 151 58 q94 0 160 -66t66 -160q0 -62 -31 -114t-83 -82q5 -33 5 -61q0 -121 -68.5 -230.5t-197.5 -193.5q-125 -82 -285.5 -125.5t-335.5 -43.5q-176 0 -336.5 43.5t-284.5 125.5q-129 84 -197.5 193t-68.5 231q0 29 5 66q-48 31 -77 81.5t-29 109.5zM77 722q0 -67 51 -111 q49 131 180 235q-36 25 -82 25q-62 0 -105.5 -43.5t-43.5 -105.5zM178 465q0 -101 59.5 -194t171.5 -166q116 -75 265.5 -115.5t313.5 -40.5t313.5 40.5t265.5 115.5q112 73 171.5 166t59.5 194t-59.5 193.5t-171.5 165.5q-116 75 -265.5 115.5t-313.5 40.5t-313.5 -40.5 t-265.5 -115.5q-112 -73 -171.5 -165.5t-59.5 -193.5zM555 572q0 57 41.5 98t97.5 41t96.5 -41t40.5 -98q0 -56 -40.5 -96t-96.5 -40q-57 0 -98 40t-41 96zM661 209.5q0 16.5 11 27.5t27 11t27 -11q77 -77 265 -77h2q188 0 265 77q11 11 27 11t27 -11t11 -27.5t-11 -27.5 q-99 -99 -319 -99h-2q-220 0 -319 99q-11 11 -11 27.5zM1153 572q0 57 41.5 98t97.5 41t96.5 -41t40.5 -98q0 -56 -40.5 -96t-96.5 -40q-57 0 -98 40t-41 96zM1555 1350q0 -45 32 -77t77 -32t77 32t32 77t-32 77t-77 32t-77 -32t-32 -77zM1672 843q131 -105 178 -238 q57 46 57 117q0 62 -43.5 105.5t-105.5 43.5q-49 0 -86 -28z" />
</g>
</svg>	
