<?xml version="1.0" encoding="ISO-8859-1"?>
<!-- Converted from Font Awesome. Glyph: f18b -->
<!DOCTYPE svg PUBLIC "-//W3C//DTD SVG 1.1//EN" "http://www.w3.org/Graphics/SVG/1.1/DTD/svg11.dtd">
<svg version="1.1" xmlns="http://www.w3.org/2000/svg" xmlns:xlink="http://www.w3.org/1999/xlink" width="2048" height="2048" xml:space="preserve">
<g transform="translate(256, 1664) scale(1, -1)">
	<path id="renren" d="M1133 -34q-171 -94 -368 -94q-196 0 -367 94q138 87 235.5 211t131.5 268q35 -144 132.5 -268t235.5 -211zM638 1394v-485q0 -252 -126.5 -459.5t-330.5 -306.5q-181 215 -181 495q0 187 83.5 349.5t229.5 269.5t325 137zM1536 638q0 -280 -181 -495 q-204 99 -330.5 306.5t-126.5 459.5v485q179 -30 325 -137t229.5 -269.5t83.5 -349.5z" />
</g>
</svg>	
