<?xml version="1.0" encoding="ISO-8859-1"?>
<!-- Converted from Font Awesome. Glyph: f25d -->
<!DOCTYPE svg PUBLIC "-//W3C//DTD SVG 1.1//EN" "http://www.w3.org/Graphics/SVG/1.1/DTD/svg11.dtd">
<svg version="1.1" xmlns="http://www.w3.org/2000/svg" xmlns:xlink="http://www.w3.org/1999/xlink" width="2048" height="2048" xml:space="preserve">
<g transform="translate(128, 1664) scale(1, -1)">
	<path id="registered" d="M1042 833q0 88 -60 121q-33 18 -117 18h-123v-281h162q66 0 102 37t36 105zM1094 548l205 -373q8 -17 -1 -31q-8 -16 -27 -16h-152q-20 0 -28 17l-194 365h-155v-350q0 -14 -9 -23t-23 -9h-134q-14 0 -23 9t-9 23v960q0 14 9 23t23 9h294q128 0 190 -24q85 -31 134 -109 t49 -180q0 -92 -42.5 -165.5t-115.5 -109.5q6 -10 9 -16zM896 1376q-150 0 -286 -58.5t-234.5 -157t-157 -234.5t-58.5 -286t58.5 -286t157 -234.5t234.5 -157t286 -58.5t286 58.5t234.5 157t157 234.5t58.5 286t-58.5 286t-157 234.5t-234.5 157t-286 58.5zM1792 640 q0 -182 -71 -348t-191 -286t-286 -191t-348 -71t-348 71t-286 191t-191 286t-71 348t71 348t191 286t286 191t348 71t348 -71t286 -191t191 -286t71 -348z" />
</g>
</svg>	
