<?xml version="1.0" encoding="ISO-8859-1"?>
<!-- Converted from Font Awesome. Glyph: f239 -->
<!DOCTYPE svg PUBLIC "-//W3C//DTD SVG 1.1//EN" "http://www.w3.org/Graphics/SVG/1.1/DTD/svg11.dtd">
<svg version="1.1" xmlns="http://www.w3.org/2000/svg" xmlns:xlink="http://www.w3.org/1999/xlink" width="2048" height="2048" xml:space="preserve">
<g transform="translate(256, 1664) scale(1, -1)">
	<path id="subway" d="M1088 1536q185 0 316.5 -93.5t131.5 -226.5v-896q0 -130 -125.5 -222t-305.5 -97l213 -202q16 -15 8 -35t-30 -20h-1056q-22 0 -30 20t8 35l213 202q-180 5 -305.5 97t-125.5 222v896q0 133 131.5 226.5t316.5 93.5h640zM288 224q66 0 113 47t47 113t-47 113t-113 47 t-113 -47t-47 -113t47 -113t113 -47zM704 768v512h-544v-512h544zM1248 224q66 0 113 47t47 113t-47 113t-113 47t-113 -47t-47 -113t47 -113t113 -47zM1408 768v512h-576v-512h576z" />
</g>
</svg>	
