<?xml version="1.0" encoding="ISO-8859-1"?>
<!-- Converted from Font Awesome. Glyph: f1d8 -->
<!DOCTYPE svg PUBLIC "-//W3C//DTD SVG 1.1//EN" "http://www.w3.org/Graphics/SVG/1.1/DTD/svg11.dtd">
<svg version="1.1" xmlns="http://www.w3.org/2000/svg" xmlns:xlink="http://www.w3.org/1999/xlink" width="2048" height="2048" xml:space="preserve">
  <metadata>
    <rdf:RDF>
      <cc:Work>
        <dc:subject>
          <rdf:Bag><rdf:li>paper</rdf:li><rdf:li>plane</rdf:li></rdf:Bag>
        </dc:subject>
      </cc:Work>
    </rdf:RDF>
  </metadata>
<g transform="translate(128, 1664) scale(1, -1)">
	<path id="send" d="M0 508q-2 40 32 59l1664 960q15 9 32 9q20 0 36 -11q33 -24 27 -64l-256 -1536q-5 -29 -32 -45q-14 -8 -31 -8q-11 0 -24 5l-453 185l-242 -295q-18 -23 -49 -23q-13 0 -22 4q-19 7 -30.5 23.5t-11.5 36.5v349l864 1059l-1069 -925l-395 162q-37 14 -40 55z" />
</g>
</svg>	
