<?xml version="1.0" encoding="ISO-8859-1"?>
<!-- Converted from Font Awesome. Glyph: f1e0 -->
<!DOCTYPE svg PUBLIC "-//W3C//DTD SVG 1.1//EN" "http://www.w3.org/Graphics/SVG/1.1/DTD/svg11.dtd">
<svg version="1.1" xmlns="http://www.w3.org/2000/svg" xmlns:xlink="http://www.w3.org/1999/xlink" width="2048" height="2048" xml:space="preserve">
<g transform="translate(256, 1664) scale(1, -1)">
	<path id="share-alt" d="M1216 512q133 0 226.5 -93.5t93.5 -226.5t-93.5 -226.5t-226.5 -93.5t-226.5 93.5t-93.5 226.5q0 12 2 34l-360 180q-92 -86 -218 -86q-133 0 -226.5 93.5t-93.5 226.5t93.5 226.5t226.5 93.5q126 0 218 -86l360 180q-2 22 -2 34q0 133 93.5 226.5t226.5 93.5 t226.5 -93.5t93.5 -226.5t-93.5 -226.5t-226.5 -93.5q-126 0 -218 86l-360 -180q2 -22 2 -34t-2 -34l360 -180q92 86 218 86z" />
</g>
</svg>	
