<?xml version="1.0" encoding="ISO-8859-1"?>
<!-- Converted from Font Awesome. Glyph: f1b7 -->
<!DOCTYPE svg PUBLIC "-//W3C//DTD SVG 1.1//EN" "http://www.w3.org/Graphics/SVG/1.1/DTD/svg11.dtd">
<svg version="1.1" xmlns="http://www.w3.org/2000/svg" xmlns:xlink="http://www.w3.org/1999/xlink" width="2048" height="2048" xml:space="preserve">
<g transform="translate(256, 1664) scale(1, -1)">
	<path id="steam-square" d="M0 160v960q0 119 84.5 203.5t203.5 84.5h960q119 0 203.5 -84.5t84.5 -203.5v-960q0 -119 -84.5 -203.5t-203.5 -84.5h-960q-119 0 -203.5 84.5t-84.5 203.5zM128 693q0 -53 38 -91t92 -38q36 0 66 18l489 -197q10 -44 45.5 -73t81.5 -29q50 0 86.5 34t41.5 83l167 122 q71 0 122 50.5t51 122.5t-51 123t-122 51q-72 0 -122.5 -50.5t-51.5 -121.5l-108 -155q-2 0 -6.5 0.5t-6.5 0.5q-35 0 -67 -19l-489 197q-10 44 -45.5 73t-80.5 29q-54 0 -92 -38t-38 -92zM162 693q0 40 28 68t68 28q27 0 49.5 -14t34.5 -37l-48 19q-29 11 -56.5 -2 t-38.5 -41q-12 -29 -0.5 -57t39.5 -40v-1l40 -16q-14 -2 -20 -2q-40 0 -68 27.5t-28 67.5zM855 369q5 -2 47 -19q29 -12 58 0.5t41 41.5q11 29 -1 57.5t-41 40.5l-40 16q14 2 21 2q39 0 67 -27.5t28 -67.5t-28 -67.5t-67 -27.5q-59 0 -85 51zM1118 695q0 48 34 82t83 34 q48 0 82 -34t34 -82t-34 -82t-82 -34q-49 0 -83 34t-34 82zM1142 696q0 -39 27.5 -66t65.5 -27t65.5 27t27.5 66q0 38 -27.5 65.5t-65.5 27.5t-65.5 -27.5t-27.5 -65.5z" />
</g>
</svg>	
