<?xml version="1.0" encoding="ISO-8859-1"?>
<!-- Converted from Font Awesome. Glyph: f0c7 -->
<!DOCTYPE svg PUBLIC "-//W3C//DTD SVG 1.1//EN" "http://www.w3.org/Graphics/SVG/1.1/DTD/svg11.dtd">
<svg version="1.1" xmlns="http://www.w3.org/2000/svg" xmlns:xlink="http://www.w3.org/1999/xlink" width="2048" height="2048" xml:space="preserve">
  <metadata>
    <rdf:RDF>
      <cc:Work>
        <dc:subject>
          <rdf:Bag><rdf:li>floppy</rdf:li><rdf:li>o</rdf:li></rdf:Bag>
        </dc:subject>
      </cc:Work>
    </rdf:RDF>
  </metadata>
<g transform="translate(256, 1664) scale(1, -1)">
	<path id="save" d="M0 -32v1344q0 40 28 68t68 28h928q40 0 88 -20t76 -48l280 -280q28 -28 48 -76t20 -88v-928q0 -40 -28 -68t-68 -28h-1344q-40 0 -68 28t-28 68zM128 0h128v416q0 40 28 68t68 28h832q40 0 68 -28t28 -68v-416h128v896q0 14 -10 38.5t-20 34.5l-281 281q-10 10 -34 20 t-39 10v-416q0 -40 -28 -68t-68 -28h-576q-40 0 -68 28t-28 68v416h-128v-1280zM384 0h768v384h-768v-384zM640 928q0 -13 9.5 -22.5t22.5 -9.5h192q13 0 22.5 9.5t9.5 22.5v320q0 13 -9.5 22.5t-22.5 9.5h-192q-13 0 -22.5 -9.5t-9.5 -22.5v-320z" />
</g>
</svg>	
