<?xml version="1.0" encoding="ISO-8859-1"?>
<!-- Converted from Font Awesome. Glyph: f012 -->
<!DOCTYPE svg PUBLIC "-//W3C//DTD SVG 1.1//EN" "http://www.w3.org/Graphics/SVG/1.1/DTD/svg11.dtd">
<svg version="1.1" xmlns="http://www.w3.org/2000/svg" xmlns:xlink="http://www.w3.org/1999/xlink" width="2048" height="2048" xml:space="preserve">
<g transform="translate(128, 1664) scale(1, -1)">
	<path id="signal" d="M0 -96v192q0 14 9 23t23 9h192q14 0 23 -9t9 -23v-192q0 -14 -9 -23t-23 -9h-192q-14 0 -23 9t-9 23zM384 -96v320q0 14 9 23t23 9h192q14 0 23 -9t9 -23v-320q0 -14 -9 -23t-23 -9h-192q-14 0 -23 9t-9 23zM768 -96v576q0 14 9 23t23 9h192q14 0 23 -9t9 -23v-576 q0 -14 -9 -23t-23 -9h-192q-14 0 -23 9t-9 23zM1152 -96v960q0 14 9 23t23 9h192q14 0 23 -9t9 -23v-960q0 -14 -9 -23t-23 -9h-192q-14 0 -23 9t-9 23zM1536 -96v1472q0 14 9 23t23 9h192q14 0 23 -9t9 -23v-1472q0 -14 -9 -23t-23 -9h-192q-14 0 -23 9t-9 23z" />
</g>
</svg>	
