<?xml version="1.0" encoding="ISO-8859-1"?>
<!-- Converted from Font Awesome. Glyph: f197 -->
<!DOCTYPE svg PUBLIC "-//W3C//DTD SVG 1.1//EN" "http://www.w3.org/Graphics/SVG/1.1/DTD/svg11.dtd">
<svg version="1.1" xmlns="http://www.w3.org/2000/svg" xmlns:xlink="http://www.w3.org/1999/xlink" width="2048" height="2048" xml:space="preserve">
<g transform="translate(-64, 1664) scale(1, -1)">
	<path id="space-shuttle" d="M0 576q0 12 38.5 20.5t96.5 10.5q-7 25 -7 49q0 33 9.5 56.5t22.5 23.5h64v64h128q158 0 268 -64h1113q42 -7 106.5 -18t80.5 -14q89 -15 150 -40.5t83.5 -47.5t22.5 -40t-22.5 -40t-83.5 -47.5t-150 -40.5q-16 -3 -80.5 -14t-106.5 -18h-1113q-110 -64 -268 -64h-128v64 h-64q-13 0 -22.5 23.5t-9.5 56.5q0 24 7 49q-58 2 -96.5 10.5t-38.5 20.5zM323 336h29q157 0 273 64h1015q-217 -38 -456 -80q-57 0 -113 -24t-83 -48l-28 -24l-288 -288q-26 -26 -70.5 -45t-89.5 -19h-96zM323 816l93 464h96q46 0 90 -19t70 -45l288 -288q4 -4 11 -10.5 t30.5 -23t48.5 -29t61.5 -23t72.5 -10.5l456 -80h-1015q-116 64 -273 64h-29zM1739 484l81 -30q68 48 68 122t-68 122l-81 -30q53 -36 53 -92t-53 -92z" />
</g>
</svg>	
