<?xml version="1.0" encoding="ISO-8859-1"?>
<!-- Converted from Font Awesome. Glyph: f1de -->
<!DOCTYPE svg PUBLIC "-//W3C//DTD SVG 1.1//EN" "http://www.w3.org/Graphics/SVG/1.1/DTD/svg11.dtd">
<svg version="1.1" xmlns="http://www.w3.org/2000/svg" xmlns:xlink="http://www.w3.org/1999/xlink" width="2048" height="2048" xml:space="preserve">
<g transform="translate(256, 1664) scale(1, -1)">
	<path id="sliders" d="M0 736v64q0 40 28 68t68 28h320q40 0 68 -28t28 -68v-64q0 -40 -28 -68t-68 -28h-320q-40 0 -68 28t-28 68zM128 -96v672h256v-672q0 -14 -9 -23t-23 -9h-192q-14 0 -23 9t-9 23zM128 960v416q0 14 9 23t23 9h192q14 0 23 -9t9 -23v-416h-256zM512 224v64q0 40 28 68 t68 28h320q40 0 68 -28t28 -68v-64q0 -40 -28 -68t-68 -28h-320q-40 0 -68 28t-28 68zM640 64h256v-160q0 -14 -9 -23t-23 -9h-192q-14 0 -23 9t-9 23v160zM640 448v928q0 14 9 23t23 9h192q14 0 23 -9t9 -23v-928h-256zM1024 992v64q0 40 28 68t68 28h320q40 0 68 -28 t28 -68v-64q0 -40 -28 -68t-68 -28h-320q-40 0 -68 28t-28 68zM1152 -96v928h256v-928q0 -14 -9 -23t-23 -9h-192q-14 0 -23 9t-9 23zM1152 1216v160q0 14 9 23t23 9h192q14 0 23 -9t9 -23v-160h-256z" />
</g>
</svg>	
