<?xml version="1.0" encoding="ISO-8859-1"?>
<!-- Converted from Font Awesome. Glyph: f161 -->
<!DOCTYPE svg PUBLIC "-//W3C//DTD SVG 1.1//EN" "http://www.w3.org/Graphics/SVG/1.1/DTD/svg11.dtd">
<svg version="1.1" xmlns="http://www.w3.org/2000/svg" xmlns:xlink="http://www.w3.org/1999/xlink" width="2048" height="2048" xml:space="preserve">
<g transform="translate(128, 1664) scale(1, -1)">
	<path id="sort-amount-desc" d="M34 108q8 20 30 20h192v1376q0 14 9 23t23 9h192q14 0 23 -9t9 -23v-1376h192q14 0 23 -9t9 -23q0 -12 -10 -24l-319 -319q-10 -9 -23 -9q-12 0 -23 9l-320 320q-15 16 -7 35zM896 -32q0 14 9 23t23 9h256q14 0 23 -9t9 -23v-192q0 -14 -9 -23t-23 -9h-256q-14 0 -23 9 t-9 23v192zM896 288v192q0 14 9 23t23 9h448q14 0 23 -9t9 -23v-192q0 -14 -9 -23t-23 -9h-448q-14 0 -23 9t-9 23zM896 800v192q0 14 9 23t23 9h640q14 0 23 -9t9 -23v-192q0 -14 -9 -23t-23 -9h-640q-14 0 -23 9t-9 23zM896 1312v192q0 14 9 23t23 9h832q14 0 23 -9t9 -23 v-192q0 -14 -9 -23t-23 -9h-832q-14 0 -23 9t-9 23z" />
</g>
</svg>	
