<?xml version="1.0" encoding="ISO-8859-1"?>
<!-- Converted from Font Awesome. Glyph: f24a -->
<!DOCTYPE svg PUBLIC "-//W3C//DTD SVG 1.1//EN" "http://www.w3.org/Graphics/SVG/1.1/DTD/svg11.dtd">
<svg version="1.1" xmlns="http://www.w3.org/2000/svg" xmlns:xlink="http://www.w3.org/1999/xlink" width="2048" height="2048" xml:space="preserve">
<g transform="translate(256, 1664) scale(1, -1)">
	<path id="sticky-note-o" d="M1400 256h-248v-248q29 10 41 22l185 185q12 12 22 41zM1120 384h288v896h-1280v-1280h896v288q0 40 28 68t68 28zM1536 1312v-1024q0 -40 -20 -88t-48 -76l-184 -184q-28 -28 -76 -48t-88 -20h-1024q-40 0 -68 28t-28 68v1344q0 40 28 68t68 28h1344q40 0 68 -28t28 -68 z" />
</g>
</svg>	
