<?xml version="1.0" encoding="ISO-8859-1"?>
<!-- Converted from Font Awesome. Glyph: f1cd -->
<!DOCTYPE svg PUBLIC "-//W3C//DTD SVG 1.1//EN" "http://www.w3.org/Graphics/SVG/1.1/DTD/svg11.dtd">
<svg version="1.1" xmlns="http://www.w3.org/2000/svg" xmlns:xlink="http://www.w3.org/1999/xlink" width="2048" height="2048" xml:space="preserve">
  <metadata>
    <rdf:RDF>
      <cc:Work>
        <dc:subject>
          <rdf:Bag><rdf:li>life</rdf:li><rdf:li>ring</rdf:li><rdf:li>life</rdf:li><rdf:li>bouy</rdf:li><rdf:li>life</rdf:li><rdf:li>buoy</rdf:li><rdf:li>life</rdf:li><rdf:li>saver</rdf:li></rdf:Bag>
        </dc:subject>
      </cc:Work>
    </rdf:RDF>
  </metadata>
<g transform="translate(128, 1664) scale(1, -1)">
	<path id="support" d="M896 1536q182 0 348 -71t286 -191t191 -286t71 -348t-71 -348t-191 -286t-286 -191t-348 -71t-348 71t-286 191t-191 286t-71 348t71 348t191 286t286 191t348 71zM896 1408q-190 0 -361 -90l194 -194q82 28 167 28t167 -28l194 194q-171 90 -361 90zM218 279l194 194 q-28 82 -28 167t28 167l-194 194q-90 -171 -90 -361t90 -361zM896 -128q190 0 361 90l-194 194q-82 -28 -167 -28t-167 28l-194 -194q171 -90 361 -90zM896 256q159 0 271.5 112.5t112.5 271.5t-112.5 271.5t-271.5 112.5t-271.5 -112.5t-112.5 -271.5t112.5 -271.5 t271.5 -112.5zM1380 473l194 -194q90 171 90 361t-90 361l-194 -194q28 -82 28 -167t-28 -167z" />
</g>
</svg>	
