<?xml version="1.0" encoding="ISO-8859-1"?>
<!-- Converted from Font Awesome. Glyph: f123 -->
<!DOCTYPE svg PUBLIC "-//W3C//DTD SVG 1.1//EN" "http://www.w3.org/Graphics/SVG/1.1/DTD/svg11.dtd">
<svg version="1.1" xmlns="http://www.w3.org/2000/svg" xmlns:xlink="http://www.w3.org/1999/xlink" width="2048" height="2048" xml:space="preserve">
  <metadata>
    <rdf:RDF>
      <cc:Work>
        <dc:subject>
          <rdf:Bag><rdf:li>empty</rdf:li><rdf:li>full</rdf:li></rdf:Bag>
        </dc:subject>
      </cc:Work>
    </rdf:RDF>
  </metadata>
<g transform="translate(192, 1664) scale(1, -1)">
	<path id="star-half-o" d="M2 900.5q9 27.5 54 34.5l502 73l225 455q20 41 49 41q28 0 49 -41l225 -455l502 -73q45 -7 54 -34.5t-24 -59.5l-363 -354l86 -500q5 -33 -6 -51.5t-34 -18.5q-17 0 -40 12l-449 236l-449 -236q-23 -12 -40 -12q-23 0 -34 18.5t-6 51.5l86 500l-364 354q-32 32 -23 59.5z M832 310l59 -31l318 -168l-60 355l-12 66l49 47l257 250l-356 52l-66 10l-30 60l-159 322v-963z" />
</g>
</svg>	
