<?xml version="1.0" encoding="ISO-8859-1"?>
<!-- Converted from Font Awesome. Glyph: f16c -->
<!DOCTYPE svg PUBLIC "-//W3C//DTD SVG 1.1//EN" "http://www.w3.org/Graphics/SVG/1.1/DTD/svg11.dtd">
<svg version="1.1" xmlns="http://www.w3.org/2000/svg" xmlns:xlink="http://www.w3.org/1999/xlink" width="2048" height="2048" xml:space="preserve">
<g transform="translate(320, 1664) scale(1, -1)">
	<path id="stack-overflow" d="M0 -255v736h121v-618h928v618h120v-701l-1 -35v-1h-1132l-35 1h-1zM221 -17v151l707 1v-151zM227 243l14 150l704 -65l-13 -150zM270 563l39 146l683 -183l-39 -146zM395 928l77 130l609 -360l-77 -130zM707 1303l125 86l398 -585l-124 -85zM1136 1510l149 26l121 -697 l-149 -26z" />
</g>
</svg>	
