<?xml version="1.0" encoding="ISO-8859-1"?>
<!-- Converted from Font Awesome. Glyph: f15d -->
<!DOCTYPE svg PUBLIC "-//W3C//DTD SVG 1.1//EN" "http://www.w3.org/Graphics/SVG/1.1/DTD/svg11.dtd">
<svg version="1.1" xmlns="http://www.w3.org/2000/svg" xmlns:xlink="http://www.w3.org/1999/xlink" width="2048" height="2048" xml:space="preserve">
<g transform="translate(192, 1664) scale(1, -1)">
	<path id="sort-alpha-asc" d="M34 108q8 20 30 20h192v1376q0 14 9 23t23 9h192q14 0 23 -9t9 -23v-1376h192q14 0 23 -9t9 -23q0 -12 -10 -24l-319 -319q-10 -9 -23 -9q-12 0 -23 9l-320 320q-15 16 -7 35zM899 768v106h70l230 662h162l230 -662h70v-106h-288v106h75l-47 144h-243l-47 -144h75v-106 h-287zM988 -166l369 529q12 18 21 27l11 9v3q-2 0 -6.5 -0.5t-7.5 -0.5q-12 -3 -30 -3h-232v-115h-120v229h567v-89l-369 -530q-6 -8 -21 -26l-11 -11v-2l14 2q9 2 30 2h248v119h121v-233h-584v90zM1191 1128h177l-72 218l-12 47q-2 16 -2 20h-4l-3 -20q0 -1 -3.5 -18 t-7.5 -29z" />
</g>
</svg>	
