<?xml version="1.0" encoding="ISO-8859-1"?>
<!-- Converted from Font Awesome. Glyph: f1a3 -->
<!DOCTYPE svg PUBLIC "-//W3C//DTD SVG 1.1//EN" "http://www.w3.org/Graphics/SVG/1.1/DTD/svg11.dtd">
<svg version="1.1" xmlns="http://www.w3.org/2000/svg" xmlns:xlink="http://www.w3.org/1999/xlink" width="2048" height="2048" xml:space="preserve">
<g transform="translate(256, 1664) scale(1, -1)">
	<path id="stumbleupon-circle" d="M0 640q0 209 103 385.5t279.5 279.5t385.5 103t385.5 -103t279.5 -279.5t103 -385.5t-103 -385.5t-279.5 -279.5t-385.5 -103t-385.5 103t-279.5 279.5t-103 385.5zM320 502q0 -82 57.5 -139t139.5 -57q81 0 138.5 56.5t57.5 136.5v280q0 19 13.5 33t33.5 14 q19 0 32.5 -14t13.5 -33v-54l60 -28l90 27v62q0 79 -58 135t-138 56t-138 -55.5t-58 -134.5v-283q0 -20 -14 -33.5t-33 -13.5t-32.5 13.5t-13.5 33.5v120h-151v-122zM806 500q0 -80 58 -137t139 -57t138.5 57t57.5 139v122h-150v-126q0 -20 -13.5 -33.5t-33.5 -13.5 q-19 0 -32.5 14t-13.5 33v123l-90 -26l-60 28v-123z" />
</g>
</svg>	
