<?xml version="1.0" encoding="ISO-8859-1"?>
<!-- Converted from Font Awesome. Glyph: f213 -->
<!DOCTYPE svg PUBLIC "-//W3C//DTD SVG 1.1//EN" "http://www.w3.org/Graphics/SVG/1.1/DTD/svg11.dtd">
<svg version="1.1" xmlns="http://www.w3.org/2000/svg" xmlns:xlink="http://www.w3.org/1999/xlink" width="2048" height="2048" xml:space="preserve">
<g transform="translate(0, 1664) scale(1, -1)">
	<path id="sellsy" d="M1500 165v733q0 21 -15 36t-35 15h-93q-20 0 -35 -15t-15 -36v-733q0 -20 15 -35t35 -15h93q20 0 35 15t15 35zM1216 165v531q0 20 -15 35t-35 15h-101q-20 0 -35 -15t-15 -35v-531q0 -20 15 -35t35 -15h101q20 0 35 15t15 35zM924 165v429q0 20 -15 35t-35 15h-101 q-20 0 -35 -15t-15 -35v-429q0 -20 15 -35t35 -15h101q20 0 35 15t15 35zM632 165v362q0 20 -15 35t-35 15h-101q-20 0 -35 -15t-15 -35v-362q0 -20 15 -35t35 -15h101q20 0 35 15t15 35zM2048 311q0 -166 -118 -284t-284 -118h-1244q-166 0 -284 118t-118 284 q0 116 63 214.5t168 148.5q-10 34 -10 73q0 113 80.5 193.5t193.5 80.5q102 0 180 -67q45 183 194 300t338 117q149 0 275 -73.5t199.5 -199.5t73.5 -275q0 -66 -14 -122q135 -33 221 -142.5t86 -247.5z" />
</g>
</svg>	
