<?xml version="1.0" encoding="ISO-8859-1"?>
<!-- Converted from Font Awesome. Glyph: f1d5 -->
<!DOCTYPE svg PUBLIC "-//W3C//DTD SVG 1.1//EN" "http://www.w3.org/Graphics/SVG/1.1/DTD/svg11.dtd">
<svg version="1.1" xmlns="http://www.w3.org/2000/svg" xmlns:xlink="http://www.w3.org/1999/xlink" width="2048" height="2048" xml:space="preserve">
<g transform="translate(384, 1664) scale(1, -1)">
	<path id="tencent-weibo" d="M57 953q0 119 46.5 227t124.5 186t186 124t226 46q158 0 292.5 -78t212.5 -212.5t78 -292.5t-78 -292t-212.5 -212t-292.5 -78q-64 0 -131 14q-21 5 -32.5 23.5t-6.5 39.5q5 20 23 31.5t39 7.5q51 -13 108 -13q97 0 186 38t153 102t102 153t38 186t-38 186t-102 153 t-153 102t-186 38t-186 -38t-153 -102t-102 -153t-38 -186q0 -114 52 -218q10 -20 3.5 -40t-25.5 -30t-39.5 -3t-30.5 26q-64 123 -64 265zM113.5 38.5q10.5 121.5 29.5 217t54 186t69 155.5t74 125q61 90 132 165q-16 35 -16 77q0 80 56.5 136.5t136.5 56.5t136.5 -56.5 t56.5 -136.5t-57 -136.5t-136 -56.5q-60 0 -111 35q-62 -67 -115 -146q-247 -371 -202 -859q1 -22 -12.5 -38.5t-34.5 -18.5h-5q-20 0 -35 13.5t-17 33.5q-14 126 -3.5 247.5z" />
</g>
</svg>	
