<?xml version="1.0" encoding="ISO-8859-1"?>
<!-- Converted from Font Awesome. Glyph: f0ce -->
<!DOCTYPE svg PUBLIC "-//W3C//DTD SVG 1.1//EN" "http://www.w3.org/Graphics/SVG/1.1/DTD/svg11.dtd">
<svg version="1.1" xmlns="http://www.w3.org/2000/svg" xmlns:xlink="http://www.w3.org/1999/xlink" width="2048" height="2048" xml:space="preserve">
<g transform="translate(192, 1664) scale(1, -1)">
	<path id="table" d="M0 160v1088q0 66 47 113t113 47h1344q66 0 113 -47t47 -113v-1088q0 -66 -47 -113t-113 -47h-1344q-66 0 -113 47t-47 113zM128 160q0 -14 9 -23t23 -9h320q14 0 23 9t9 23v192q0 14 -9 23t-23 9h-320q-14 0 -23 -9t-9 -23v-192zM128 544q0 -14 9 -23t23 -9h320 q14 0 23 9t9 23v192q0 14 -9 23t-23 9h-320q-14 0 -23 -9t-9 -23v-192zM128 928q0 -14 9 -23t23 -9h320q14 0 23 9t9 23v192q0 14 -9 23t-23 9h-320q-14 0 -23 -9t-9 -23v-192zM640 160q0 -14 9 -23t23 -9h320q14 0 23 9t9 23v192q0 14 -9 23t-23 9h-320q-14 0 -23 -9 t-9 -23v-192zM640 544q0 -14 9 -23t23 -9h320q14 0 23 9t9 23v192q0 14 -9 23t-23 9h-320q-14 0 -23 -9t-9 -23v-192zM640 928q0 -14 9 -23t23 -9h320q14 0 23 9t9 23v192q0 14 -9 23t-23 9h-320q-14 0 -23 -9t-9 -23v-192zM1152 160q0 -14 9 -23t23 -9h320q14 0 23 9t9 23 v192q0 14 -9 23t-23 9h-320q-14 0 -23 -9t-9 -23v-192zM1152 544q0 -14 9 -23t23 -9h320q14 0 23 9t9 23v192q0 14 -9 23t-23 9h-320q-14 0 -23 -9t-9 -23v-192zM1152 928q0 -14 9 -23t23 -9h320q14 0 23 9t9 23v192q0 14 -9 23t-23 9h-320q-14 0 -23 -9t-9 -23v-192z" />
</g>
</svg>	
