<?xml version="1.0" encoding="ISO-8859-1"?>
<!-- Converted from Font Awesome. Glyph: f26c -->
<!DOCTYPE svg PUBLIC "-//W3C//DTD SVG 1.1//EN" "http://www.w3.org/Graphics/SVG/1.1/DTD/svg11.dtd">
<svg version="1.1" xmlns="http://www.w3.org/2000/svg" xmlns:xlink="http://www.w3.org/1999/xlink" width="2048" height="2048" xml:space="preserve">
  <metadata>
    <rdf:RDF>
      <cc:Work>
        <dc:subject>
          <rdf:Bag><rdf:li>television</rdf:li></rdf:Bag>
        </dc:subject>
      </cc:Work>
    </rdf:RDF>
  </metadata>
<g transform="translate(0, 1664) scale(1, -1)">
	<path id="tv" d="M1792 288v960q0 13 -9.5 22.5t-22.5 9.5h-1600q-13 0 -22.5 -9.5t-9.5 -22.5v-960q0 -13 9.5 -22.5t22.5 -9.5h1600q13 0 22.5 9.5t9.5 22.5zM1920 1248v-960q0 -66 -47 -113t-113 -47h-736v-128h352q14 0 23 -9t9 -23v-64q0 -14 -9 -23t-23 -9h-832q-14 0 -23 9t-9 23 v64q0 14 9 23t23 9h352v128h-736q-66 0 -113 47t-47 113v960q0 66 47 113t113 47h1600q66 0 113 -47t47 -113z" />
</g>
</svg>	
