<?xml version="1.0" encoding="ISO-8859-1"?>
<!-- Converted from Font Awesome. Glyph: f00b -->
<!DOCTYPE svg PUBLIC "-//W3C//DTD SVG 1.1//EN" "http://www.w3.org/Graphics/SVG/1.1/DTD/svg11.dtd">
<svg version="1.1" xmlns="http://www.w3.org/2000/svg" xmlns:xlink="http://www.w3.org/1999/xlink" width="2048" height="2048" xml:space="preserve">
<g transform="translate(128, 1664) scale(1, -1)">
	<path id="th-list" d="M0 96v192q0 40 28 68t68 28h320q40 0 68 -28t28 -68v-192q0 -40 -28 -68t-68 -28h-320q-40 0 -68 28t-28 68zM0 608v192q0 40 28 68t68 28h320q40 0 68 -28t28 -68v-192q0 -40 -28 -68t-68 -28h-320q-40 0 -68 28t-28 68zM0 1120v192q0 40 28 68t68 28h320q40 0 68 -28 t28 -68v-192q0 -40 -28 -68t-68 -28h-320q-40 0 -68 28t-28 68zM640 96v192q0 40 28 68t68 28h960q40 0 68 -28t28 -68v-192q0 -40 -28 -68t-68 -28h-960q-40 0 -68 28t-28 68zM640 608v192q0 40 28 68t68 28h960q40 0 68 -28t28 -68v-192q0 -40 -28 -68t-68 -28h-960 q-40 0 -68 28t-28 68zM640 1120v192q0 40 28 68t68 28h960q40 0 68 -28t28 -68v-192q0 -40 -28 -68t-68 -28h-960q-40 0 -68 28t-28 68z" />
</g>
</svg>	
