<?xml version="1.0" encoding="ISO-8859-1"?>
<!-- Converted from Font Awesome. Glyph: f173 -->
<!DOCTYPE svg PUBLIC "-//W3C//DTD SVG 1.1//EN" "http://www.w3.org/Graphics/SVG/1.1/DTD/svg11.dtd">
<svg version="1.1" xmlns="http://www.w3.org/2000/svg" xmlns:xlink="http://www.w3.org/1999/xlink" width="2048" height="2048" xml:space="preserve">
<g transform="translate(512, 1664) scale(1, -1)">
	<path id="tumblr" d="M944 207l80 -237q-23 -35 -111 -66t-177 -32q-104 -2 -190.5 26t-142.5 74t-95 106t-55.5 120t-16.5 118v544h-168v215q72 26 129 69.5t91 90t58 102t34 99t15 88.5q1 5 4.5 8.5t7.5 3.5h244v-424h333v-252h-334v-518q0 -30 6.5 -56t22.5 -52.5t49.5 -41.5t81.5 -14 q78 2 134 29z" />
</g>
</svg>	
