<?xml version="1.0" encoding="ISO-8859-1"?>
<!-- Converted from Font Awesome. Glyph: f181 -->
<!DOCTYPE svg PUBLIC "-//W3C//DTD SVG 1.1//EN" "http://www.w3.org/Graphics/SVG/1.1/DTD/svg11.dtd">
<svg version="1.1" xmlns="http://www.w3.org/2000/svg" xmlns:xlink="http://www.w3.org/1999/xlink" width="2048" height="2048" xml:space="preserve">
<g transform="translate(256, 1664) scale(1, -1)">
	<path id="trello" d="M0 -64v1408q0 26 19 45t45 19h1408q26 0 45 -19t19 -45v-1408q0 -26 -19 -45t-45 -19h-1408q-26 0 -45 19t-19 45zM160 192q0 -14 9 -23t23 -9h480q14 0 23 9t9 23v1024q0 14 -9 23t-23 9h-480q-14 0 -23 -9t-9 -23v-1024zM832 576q0 -14 9 -23t23 -9h480q14 0 23 9t9 23 v640q0 14 -9 23t-23 9h-480q-14 0 -23 -9t-9 -23v-640z" />
</g>
</svg>	
