<?xml version="1.0" encoding="ISO-8859-1"?>
<!-- Converted from Font Awesome. Glyph: f152 -->
<!DOCTYPE svg PUBLIC "-//W3C//DTD SVG 1.1//EN" "http://www.w3.org/Graphics/SVG/1.1/DTD/svg11.dtd">
<svg version="1.1" xmlns="http://www.w3.org/2000/svg" xmlns:xlink="http://www.w3.org/1999/xlink" width="2048" height="2048" xml:space="preserve">
  <metadata>
    <rdf:RDF>
      <cc:Work>
        <dc:subject>
          <rdf:Bag><rdf:li>caret</rdf:li><rdf:li>square</rdf:li><rdf:li>o</rdf:li></rdf:Bag>
        </dc:subject>
      </cc:Work>
    </rdf:RDF>
  </metadata>
<g transform="translate(256, 1664) scale(1, -1)">
	<path id="toggle-right" d="M0 160v960q0 119 84.5 203.5t203.5 84.5h960q119 0 203.5 -84.5t84.5 -203.5v-960q0 -119 -84.5 -203.5t-203.5 -84.5h-960q-119 0 -203.5 84.5t-84.5 203.5zM256 160q0 -14 9 -23t23 -9h960q14 0 23 9t9 23v960q0 14 -9 23t-23 9h-960q-14 0 -23 -9t-9 -23v-960z M512 320v640q0 40 35 57q35 18 66 -5l448 -320q27 -19 27 -52t-27 -52l-448 -320q-31 -23 -66 -5q-35 17 -35 57z" />
</g>
</svg>	
