<?xml version="1.0" encoding="ISO-8859-1"?>
<!-- Converted from Font Awesome. Glyph: f204 -->
<!DOCTYPE svg PUBLIC "-//W3C//DTD SVG 1.1//EN" "http://www.w3.org/Graphics/SVG/1.1/DTD/svg11.dtd">
<svg version="1.1" xmlns="http://www.w3.org/2000/svg" xmlns:xlink="http://www.w3.org/1999/xlink" width="2048" height="2048" xml:space="preserve">
<g transform="translate(0, 1664) scale(1, -1)">
	<path id="toggle-off" d="M1152 640q0 104 -40.5 198.5t-109.5 163.5t-163.5 109.5t-198.5 40.5t-198.5 -40.5t-163.5 -109.5t-109.5 -163.5t-40.5 -198.5t40.5 -198.5t109.5 -163.5t163.5 -109.5t198.5 -40.5t198.5 40.5t163.5 109.5t109.5 163.5t40.5 198.5zM1920 640q0 104 -40.5 198.5 t-109.5 163.5t-163.5 109.5t-198.5 40.5h-386q119 -90 188.5 -224t69.5 -288t-69.5 -288t-188.5 -224h386q104 0 198.5 40.5t163.5 109.5t109.5 163.5t40.5 198.5zM2048 640q0 -130 -51 -248.5t-136.5 -204t-204 -136.5t-248.5 -51h-768q-130 0 -248.5 51t-204 136.5 t-136.5 204t-51 248.5t51 248.5t136.5 204t204 136.5t248.5 51h768q130 0 248.5 -51t204 -136.5t136.5 -204t51 -248.5z" />
</g>
</svg>	
