<?xml version="1.0" encoding="ISO-8859-1"?>
<!-- Converted from Font Awesome. Glyph: f224 -->
<!DOCTYPE svg PUBLIC "-//W3C//DTD SVG 1.1//EN" "http://www.w3.org/Graphics/SVG/1.1/DTD/svg11.dtd">
<svg version="1.1" xmlns="http://www.w3.org/2000/svg" xmlns:xlink="http://www.w3.org/1999/xlink" width="2048" height="2048" xml:space="preserve">
  <metadata>
    <rdf:RDF>
      <cc:Work>
        <dc:subject>
          <rdf:Bag><rdf:li>intersex</rdf:li></rdf:Bag>
        </dc:subject>
      </cc:Work>
    </rdf:RDF>
  </metadata>
<g transform="translate(256, 1664) scale(1, -1)">
	<path id="transgender" d="M1024 1504q0 14 9 23t23 9h288q26 0 45 -19t19 -45v-288q0 -14 -9 -23t-23 -9h-64q-14 0 -23 9t-9 23v134l-254 -255q126 -158 126 -359q0 -221 -147.5 -384.5t-364.5 -187.5v-132h96q14 0 23 -9t9 -23v-64q0 -14 -9 -23t-23 -9h-96v-96q0 -14 -9 -23t-23 -9h-64 q-14 0 -23 9t-9 23v96h-96q-14 0 -23 9t-9 23v64q0 14 9 23t23 9h96v132q-149 16 -270.5 103t-186.5 223.5t-53 291.5q16 204 160 353.5t347 172.5q118 14 228 -19t198 -103l255 254h-134q-14 0 -23 9t-9 23v64zM576 256q185 0 316.5 131.5t131.5 316.5t-131.5 316.5 t-316.5 131.5t-316.5 -131.5t-131.5 -316.5t131.5 -316.5t316.5 -131.5z" />
</g>
</svg>	
