<?xml version="1.0" encoding="ISO-8859-1"?>
<!-- Converted from Font Awesome. Glyph: f194 -->
<!DOCTYPE svg PUBLIC "-//W3C//DTD SVG 1.1//EN" "http://www.w3.org/Graphics/SVG/1.1/DTD/svg11.dtd">
<svg version="1.1" xmlns="http://www.w3.org/2000/svg" xmlns:xlink="http://www.w3.org/1999/xlink" width="2048" height="2048" xml:space="preserve">
<g transform="translate(256, 1664) scale(1, -1)">
	<path id="vimeo-square" d="M1292 898q10 216 -161 222q-231 8 -312 -261q44 19 82 19q85 0 74 -96q-4 -57 -74 -167t-105 -110q-43 0 -82 169q-13 54 -45 255q-30 189 -160 177q-59 -7 -164 -100l-81 -72l-81 -72l52 -67q76 52 87 52q57 0 107 -179q15 -55 45 -164.5t45 -164.5q68 -179 164 -179 q157 0 383 294q220 283 226 444zM1536 1120v-960q0 -119 -84.5 -203.5t-203.5 -84.5h-960q-119 0 -203.5 84.5t-84.5 203.5v960q0 119 84.5 203.5t203.5 84.5h960q119 0 203.5 -84.5t84.5 -203.5z" />
</g>
</svg>	
