<?xml version="1.0" encoding="ISO-8859-1"?>
<!-- Converted from Font Awesome. Glyph: f194 -->
<!DOCTYPE svg PUBLIC "-//W3C//DTD SVG 1.1//EN" "http://www.w3.org/Graphics/SVG/1.1/DTD/svg11.dtd">
<svg version="1.1" xmlns="http://www.w3.org/2000/svg" xmlns:xlink="http://www.w3.org/1999/xlink" width="2048" height="2048" xml:space="preserve">
<g transform="translate(256, 1664) scale(1, -1)">
	<path id="vimeo-square" d="M0 160v960q0 119 84.5 203.5t203.5 84.5h960q119 0 203.5 -84.5t84.5 -203.5v-960q0 -119 -84.5 -203.5t-203.5 -84.5h-960q-119 0 -203.5 84.5t-84.5 203.5zM128 806q16 -8 25.5 -26t21.5 -20q21 -3 54.5 8.5t58 10.5t41.5 -30q11 -18 18.5 -38.5t15 -48t12.5 -40.5 q17 -46 53 -187q36 -146 57 -197q42 -99 103 -125q43 -12 85 -1.5t76 31.5q131 77 250 237q104 139 172.5 292.5t82.5 226.5q16 85 -21 132q-52 65 -187 45q-17 -3 -41 -12.5t-57.5 -30.5t-64.5 -48.5t-59.5 -70t-44.5 -91.5q80 7 113.5 -16t26.5 -99q-5 -52 -52 -143 q-43 -78 -71 -99q-44 -32 -87 14q-23 24 -37.5 64.5t-19 73t-10 84t-8.5 71.5q-23 129 -34 164q-12 37 -35.5 69t-50.5 40q-57 16 -127 -25q-54 -32 -136.5 -106t-122.5 -102v-7z" />
</g>
</svg>	
