<?xml version="1.0" encoding="ISO-8859-1"?>
<!-- Converted from Font Awesome. Glyph: f0ad -->
<!DOCTYPE svg PUBLIC "-//W3C//DTD SVG 1.1//EN" "http://www.w3.org/Graphics/SVG/1.1/DTD/svg11.dtd">
<svg version="1.1" xmlns="http://www.w3.org/2000/svg" xmlns:xlink="http://www.w3.org/1999/xlink" width="2048" height="2048" xml:space="preserve">
<g transform="translate(192, 1664) scale(1, -1)">
	<path id="wrench" d="M21 0q0 53 38 91l681 681q39 -98 114.5 -173.5t173.5 -114.5l-682 -682q-37 -37 -90 -37q-52 0 -91 37l-106 108q-38 36 -38 90zM256 64q0 -26 19 -45t45 -19t45 19t19 45t-19 45t-45 19t-45 -19t-19 -45zM768 960q0 185 131.5 316.5t316.5 131.5q58 0 121.5 -16.5 t107.5 -46.5q16 -11 16 -28t-16 -28l-293 -169v-224l193 -107q5 3 79 48.5t135.5 81t70.5 35.5q15 0 23.5 -10t8.5 -25q0 -39 -23 -106q-47 -134 -164.5 -217.5t-258.5 -83.5q-185 0 -316.5 131.5t-131.5 316.5z" />
</g>
</svg>	
