<?xml version="1.0" encoding="ISO-8859-1"?>
<!-- Converted from Font Awesome. Glyph: f19a -->
<!DOCTYPE svg PUBLIC "-//W3C//DTD SVG 1.1//EN" "http://www.w3.org/Graphics/SVG/1.1/DTD/svg11.dtd">
<svg version="1.1" xmlns="http://www.w3.org/2000/svg" xmlns:xlink="http://www.w3.org/1999/xlink" width="2048" height="2048" xml:space="preserve">
<g transform="translate(128, 1664) scale(1, -1)">
	<path id="wordpress" d="M0 640q0 182 71 348t191 286t286 191t348 71t348 -71t286 -191t191 -286t71 -348t-71 -348t-191 -286t-286 -191t-348 -71t-348 71t-286 191t-191 286t-71 348zM41 640q0 -173 68 -331.5t182.5 -273t273 -182.5t331.5 -68t331.5 68t273 182.5t182.5 273t68 331.5 t-68 331.5t-182.5 273t-273 182.5t-331.5 68t-331.5 -68t-273 -182.5t-182.5 -273t-68 -331.5zM127 640q0 163 67 313l367 -1005q-196 95 -315 281t-119 411zM254 1062q105 160 274.5 253.5t367.5 93.5q147 0 280.5 -53t238.5 -149h-10q-55 0 -92 -40.5t-37 -95.5 q0 -12 2 -24t4 -21.5t8 -23t9 -21t12 -22.5t12.5 -21t14.5 -24t14 -23q63 -107 63 -212q0 -19 -2.5 -38.5t-10 -49.5t-11.5 -44t-17.5 -59t-17.5 -58l-76 -256l-278 826q46 3 88 8q19 2 26 18.5t-2.5 31t-28.5 13.5l-205 -10q-75 1 -202 10q-12 1 -20.5 -5t-11.5 -15 t-1.5 -18.5t9 -16.5t19.5 -8l80 -8l120 -328l-168 -504l-280 832q46 3 88 8q19 2 26 18.5t-2.5 31t-28.5 13.5l-205 -10q-7 0 -23 0.5t-26 0.5zM679 -97l230 670l237 -647q1 -6 5 -11q-126 -44 -255 -44q-112 0 -217 32zM1282 -24l235 678q59 169 59 276q0 42 -6 79 q95 -174 95 -369q0 -209 -104 -385.5t-279 -278.5z" />
</g>
</svg>	
