<?xml version="1.0" encoding="ISO-8859-1"?>
<!-- Converted from Font Awesome. Glyph: f19e -->
<!DOCTYPE svg PUBLIC "-//W3C//DTD SVG 1.1//EN" "http://www.w3.org/Graphics/SVG/1.1/DTD/svg11.dtd">
<svg version="1.1" xmlns="http://www.w3.org/2000/svg" xmlns:xlink="http://www.w3.org/1999/xlink" width="2048" height="2048" xml:space="preserve">
<g transform="translate(256, 1664) scale(1, -1)">
	<path id="yahoo" d="M109 1536q58 -15 108 -15q43 0 111 15q63 -111 133.5 -229.5t167 -276.5t138.5 -227q37 61 109.5 177.5t117.5 190t105 176t107 189.5q54 -14 107 -14q56 0 114 14q-28 -39 -60 -88.5t-49.5 -78.5t-56.5 -96t-49 -84q-146 -248 -353 -610l13 -707q-62 11 -105 11 q-41 0 -105 -11l13 707q-40 69 -168.5 295.5t-216.5 374.5t-181 287z" />
</g>
</svg>	
