<?xml version="1.0" encoding="UTF-8" standalone="no"?>
<!-- Created with Inkscape (http://www.inkscape.org/) -->

<svg
   xmlns:dc="http://purl.org/dc/elements/1.1/"
   xmlns:cc="http://creativecommons.org/ns#"
   xmlns:rdf="http://www.w3.org/1999/02/22-rdf-syntax-ns#"
   xmlns:svg="http://www.w3.org/2000/svg"
   xmlns="http://www.w3.org/2000/svg"
   xmlns:sodipodi="http://sodipodi.sourceforge.net/DTD/sodipodi-0.dtd"
   xmlns:inkscape="http://www.inkscape.org/namespaces/inkscape"
   width="387"
   height="766.91101"
   id="svg2944"
   version="1.1"
   inkscape:version="0.47 r22583"
   sodipodi:docname="_phone-wire.svg">
  <defs
     id="defs2946">
    <inkscape:perspective
       sodipodi:type="inkscape:persp3d"
       inkscape:vp_x="0 : 526.18109 : 1"
       inkscape:vp_y="0 : 1000 : 0"
       inkscape:vp_z="744.09448 : 526.18109 : 1"
       inkscape:persp3d-origin="372.04724 : 350.78739 : 1"
       id="perspective2952" />
    <inkscape:perspective
       id="perspective2919"
       inkscape:persp3d-origin="0.5 : 0.33333333 : 1"
       inkscape:vp_z="1 : 0.5 : 1"
       inkscape:vp_y="0 : 1000 : 0"
       inkscape:vp_x="0 : 0.5 : 1"
       sodipodi:type="inkscape:persp3d" />
  </defs>
  <sodipodi:namedview
     id="base"
     pagecolor="#ffffff"
     bordercolor="#666666"
     borderopacity="1.0"
     inkscape:pageopacity="0.0"
     inkscape:pageshadow="2"
     inkscape:zoom="1.4"
     inkscape:cx="311.33695"
     inkscape:cy="450.28128"
     inkscape:document-units="px"
     inkscape:current-layer="layer1"
     showgrid="false"
     inkscape:window-width="1920"
     inkscape:window-height="1080"
     inkscape:window-x="0"
     inkscape:window-y="0"
     inkscape:window-maximized="0" />
  <metadata
     id="metadata2949">
    <rdf:RDF>
      <cc:Work
         rdf:about="">
        <dc:format>image/svg+xml</dc:format>
        <dc:type
           rdf:resource="http://purl.org/dc/dcmitype/StillImage" />
        <dc:title />
      </cc:Work>
    </rdf:RDF>
  </metadata>
  <g
     inkscape:label="Calque 1"
     inkscape:groupmode="layer"
     id="layer1"
     transform="translate(554.6075,385.37903)">
    <path
       style="fill:none;stroke:#231f20;stroke-opacity:1;stroke-width:3;stroke-miterlimit:4;stroke-dasharray:none"
       d="M -372.6875,-383.3125 C -405.95365,-383.09153 -439.2213,-381.24152 -472.04104,-375.86406 -491.67186,-372.00811 -513.22813,-372.00008 -530.1875,-360.25 -543.48849,-350.89376 -548.61539,-334.20474 -549.6875,-318.65625 -553.68474,-271.15016 -551.48174,-223.39651 -552.1159,-175.78127 L -552.10062,249.96845 C -550.48296,276.23599 -550.61751,303.17819 -543.3125,328.5 -538.02929,347.23279 -522.95324,362.5917 -503.88654,367.25814 -464.80668,377.46402 -423.79669,377.24897 -383.5625,379.3125 -337.93522,379.95515 -292.11254,378.00931 -246.80631,373.05052 -225.20635,370.06811 -200.87856,365.56164 -187.03125,346.9375 -170.45561,323.81266 -170.53405,293.94501 -169.71509,266.50073 L -169.60416,-290.93707 C -170.37352,-312.13104 -170.74667,-336.06625 -185.46875,-352.71875 -201.17745,-370.11076 -225.89189,-372.00495 -247.55205,-375.73792 -288.91345,-381.22795 -330.91465,-383.58466 -372.6875,-383.3125 z"
       id="path38"
       sodipodi:nodetypes="cccccccccccccccc" />
    <path
       style="fill:none;stroke:#231f20;stroke-width:3;stroke-opacity:1"
       d="M -171.56862,301.51422 C -172.70425,305.55522 -172.0995,309.52397 -173.7765,312.68497 -177.5385,319.77297 -181.0905,326.46997 -199.0225,337.01697 -212.5835,344.99097 -243.1005,351.02297 -252.0905,352.20497 -262.2785,353.54497 -299.5515,356.39697 -317.4705,357.20997 -334.2595,357.97097 -342.7035,358.20197 -353.6105,358.20197 L -357.1775,358.19397 -360.8185,358.20097 C -379.1305,358.20097 -391.9645,357.68897 -402.5565,357.20997 -420.4755,356.39797 -457.7465,353.54497 -467.9345,352.20497 -476.9235,351.02397 -507.4405,344.99397 -521.0005,337.01697 -538.9325,326.46997 -542.4855,319.77597 -546.2495,312.68597 -547.088,311.10497 -546.85611,309.32222 -547.5565,307.42959"
       id="path40"
       sodipodi:nodetypes="cccsccccccccs" />
    <path
       id="path44"
       d="M -374.2815,-372.42603 C -364.0805,-372.42603 -346.4075,-372.28603 -337.5725,-372.18603 -329.9585,-372.09803 -319.2795,-371.46103 -310.6885,-370.95003 L -310.1885,-370.92203 C -307.6765,-370.77203 -305.3185,-370.63203 -303.2285,-370.51703 -294.7565,-370.05603 -286.9625,-369.58203 -284.6725,-368.87603 -282.9505,-368.34503 -282.8665,-367.69703 -282.7275,-366.62103 L -282.6955,-366.37703 C -282.5075,-365.01103 -283.0085,-363.94803 -284.1865,-363.21503 -285.1735,-362.60003 -285.5095,-362.50003 -286.5835,-362.50003 -286.9165,-362.50003 -287.3105,-362.50903 -287.8205,-362.52403 L -289.5245,-362.55903 C -293.2845,-362.61603 -300.7475,-363.30003 -308.0675,-363.99503 -314.7665,-364.63403 -331.2435,-365.32103 -340.0725,-365.55203 -348.9175,-365.78203 -366.3495,-365.78203 -372.9125,-365.78203 -377.8395,-365.78203 -385.1195,-365.53603 -391.5385,-365.32003 L -392.3225,-365.29403 -392.6435,-365.28303 C -394.7385,-365.21303 -396.7495,-365.14503 -398.5795,-365.09203 -403.9945,-364.93203 -409.6215,-364.55403 -414.5855,-364.22003 L -414.6575,-364.21503 -414.9815,-364.19203 -415.7535,-364.14103 C -417.5175,-364.02303 -419.1765,-363.91203 -420.6895,-363.82603 -421.8255,-363.76003 -423.0105,-363.68403 -424.1995,-363.60703 L -424.5785,-363.58203 C -427.8715,-363.36803 -431.2755,-363.14703 -433.5925,-363.14703 -434.6965,-363.14703 -435.4905,-363.19703 -435.9595,-363.29603 -436.8785,-363.48903 -437.5615,-363.92903 -437.9865,-364.60203 -438.5725,-365.52903 -438.5255,-366.63603 -438.4055,-367.14003 -438.2015,-367.99803 -437.1095,-369.81403 -435.5095,-370.12503 -434.1255,-370.39403 -429.5615,-370.60103 -424.2295,-370.84403 L -420.1045,-371.03403 C -413.0755,-371.36603 -387.9225,-372.35703 -378.7065,-372.41503 -377.4475,-372.42203 -375.9515,-372.42603 -374.2815,-372.42603 M -374.2815,-375.42603 C -375.9575,-375.42603 -377.4585,-375.42203 -378.7225,-375.41603 -388.0275,-375.35703 -413.2215,-374.36403 -420.2465,-374.03203 L -424.3675,-373.84203 C -430.2365,-373.57503 -434.4765,-373.38303 -436.0815,-373.07103 -439.1345,-372.47903 -440.9175,-369.54703 -441.3245,-367.83703 -441.6215,-366.58303 -441.5685,-364.65503 -440.5225,-363.00103 -439.6605,-361.63703 -438.2965,-360.72403 -436.5775,-360.36203 -435.8885,-360.21603 -434.9405,-360.14903 -433.5935,-360.14903 -431.1745,-360.14903 -427.7105,-360.37403 -424.3615,-360.59103 L -424.0045,-360.61403 C -422.8235,-360.69103 -421.6465,-360.76603 -420.5175,-360.83203 -418.7805,-360.93103 -416.8475,-361.06203 -414.7835,-361.20003 L -414.4495,-361.22303 C -409.4925,-361.55603 -403.8735,-361.93503 -398.4925,-362.09403 -396.5665,-362.15003 -394.4375,-362.22203 -392.2225,-362.29603 L -391.4395,-362.32203 C -385.0335,-362.53803 -377.7725,-362.78303 -372.9125,-362.78303 -366.3605,-362.78303 -348.9565,-362.78303 -340.1505,-362.55403 -331.3755,-362.32503 -315.0045,-361.64403 -308.3525,-361.01003 -300.9645,-360.30803 -293.4295,-359.61903 -289.5705,-359.56103 L -287.8835,-359.52603 C -287.3655,-359.51003 -286.9425,-359.50103 -286.5845,-359.50103 -284.9505,-359.50103 -284.0575,-359.76303 -282.6015,-360.66903 -280.4245,-362.02303 -279.3755,-364.25903 -279.7235,-366.78603 L -279.7525,-367.00803 C -279.9165,-368.27903 -280.2225,-370.64303 -283.7875,-371.74303 -286.1745,-372.47903 -292.1525,-372.91803 -303.0645,-373.51303 -305.1485,-373.62803 -307.5025,-373.76703 -310.0085,-373.91703 L -310.5195,-373.94603 C -319.1485,-374.46003 -329.8865,-375.09803 -337.5375,-375.18703 -346.3105,-375.28603 -363.9615,-375.42603 -374.2815,-375.42603 L -374.2815,-375.42603 z"
       style="fill:#231f20;fill-opacity:1" />
    <path
       style="fill:none;stroke:#231f20;stroke-width:3;stroke-opacity:1"
       d="M -360.5715,345.59497 C -372.2705,345.59497 -381.7915,336.04897 -381.7915,324.31797 -381.7915,312.58497 -372.2705,303.04097 -360.5715,303.04097 -348.8695,303.04097 -339.3505,312.58497 -339.3505,324.31797 -339.3505,336.04897 -348.8705,345.59497 -360.5715,345.59497"
       id="path46" />
    <path
       id="path52"
       d="M -200.5705,-304.92603 -200.5705,230.40697 -520.5705,230.40697 -520.5705,-304.92603 -200.5705,-304.92603 M -197.5705,-307.92603 -200.5705,-307.92603 -520.5705,-307.92603 -523.5705,-307.92603 -523.5705,-304.92603 -523.5705,230.40697 -523.5705,233.40697 -520.5705,233.40697 -200.5705,233.40697 -197.5705,233.40697 -197.5705,230.40697 -197.5705,-304.92603 -197.5705,-307.92603 -197.5705,-307.92603 z"
       style="fill:#231f20;fill-opacity:1"
       sodipodi:nodetypes="ccccccccccccccccccc" />
    <path
       id="path56"
       d="M -361.5965,-355.48303 C -340.8645,-355.48303 -320.6335,-354.76603 -299.7445,-353.29103 -283.7075,-352.15903 -277.2055,-351.58403 -254.8705,-348.93003 -231.9065,-346.20003 -217.6365,-343.47203 -208.5985,-340.08603 -199.5785,-336.71103 -190.3835,-332.56903 -185.7065,-322.44403 -181.0425,-312.34603 -180.4345,-297.70503 -180.1865,-282.32403 -180.0455,-273.59903 -179.6945,-225.29403 -179.4105,-186.47903 L -179.3935,-184.09403 C -179.2205,-160.22103 -179.0815,-141.36603 -179.0385,-137.69303 -178.9215,-127.67103 -178.8105,70.22597 -178.8105,78.43297 -178.8105,83.30197 -178.7855,109.99897 -178.7585,138.07197 L -178.7355,163.02997 C -178.7145,186.11197 -178.6965,205.75297 -178.6965,209.26297 L -178.6865,213.04197 C -178.6445,224.25697 -178.5675,245.13597 -180.1265,251.87997 -181.9065,259.57797 -188.3705,269.58797 -201.1705,274.59897 -211.1155,278.48997 -227.8375,282.14197 -249.5245,285.16097 -261.2525,286.78697 -300.8985,290.33397 -322.4005,291.23797 -332.5385,291.66197 -346.7225,291.89697 -362.3365,291.89697 -376.5905,291.89697 -390.1605,291.69197 -398.6365,291.35297 -415.2325,290.68297 -447.9615,287.96797 -460.1275,286.75797 -471.8995,285.58997 -492.7005,282.14097 -497.9305,280.93997 L -499.9435,280.48697 C -505.6115,279.22097 -515.1015,277.10597 -521.6675,273.56997 -529.1365,269.54397 -531.2695,267.88697 -536.8865,259.49297 -541.5865,252.47097 -541.3645,237.63897 -541.2305,228.77797 L -541.2275,228.58297 C -541.2075,227.30897 -541.1895,226.14897 -541.1895,225.14497 -541.1895,217.04297 -541.7555,104.88597 -541.8785,88.77097 -541.9915,73.97797 -542.1075,-5.96403 -542.1075,-16.03803 -542.1075,-18.92703 -542.1525,-31.89403 -542.2125,-48.66203 -542.3385,-85.06803 -542.5305,-151.42003 -542.4505,-158.75303 -542.4135,-162.36503 -542.3765,-175.37503 -542.3275,-191.95503 L -542.3235,-193.20003 C -542.2295,-225.47703 -542.1025,-269.68403 -541.8775,-280.35903 -541.8435,-282.00803 -541.8155,-283.63003 -541.7905,-285.22703 -541.5635,-299.18903 -541.3665,-311.24703 -535.8635,-324.48803 -529.9135,-338.80403 -510.0095,-344.34003 -481.9535,-348.24603 -455.4535,-351.93703 -414.1225,-354.72903 -376.6585,-355.35803 -371.6565,-355.44003 -366.5895,-355.48303 -361.5965,-355.48303 M -361.5965,-358.48303 C -366.5975,-358.48303 -371.6825,-358.44003 -376.7095,-358.35503 -414.2855,-357.72503 -455.7585,-354.92203 -482.3685,-351.21503 -511.4435,-347.16703 -532.1385,-341.26803 -538.6355,-325.63703 -544.3605,-311.86103 -544.5605,-299.54003 -544.7915,-285.27303 -544.8175,-283.68003 -544.8445,-282.06403 -544.8785,-280.41903 -545.1035,-269.76703 -545.2315,-225.77403 -545.3245,-193.65103 L -545.3255,-193.20603 -545.3295,-191.96203 -545.3315,-191.20203 C -545.3785,-175.07003 -545.4155,-162.32703 -545.4525,-158.78103 -545.5355,-151.17003 -545.3275,-81.29503 -545.2145,-48.64903 -545.1565,-32.54403 -545.1095,-18.97403 -545.1095,-16.03603 -545.1095,-5.95203 -544.9935,74.03197 -544.8805,88.79597 -544.7575,104.87497 -544.1915,217.01497 -544.1915,225.14697 -544.1915,226.12597 -544.2095,227.25497 -544.2285,228.49397 L -544.2315,228.73597 C -544.3705,237.94597 -544.6035,253.36297 -539.3815,261.16397 -533.4255,270.06497 -530.9775,271.96297 -523.0935,276.21297 -516.1715,279.93997 -506.4395,282.11297 -500.6255,283.41097 L -498.5915,283.86897 C -493.3205,285.07897 -472.3135,288.56597 -460.4255,289.74497 -448.2585,290.95397 -415.4645,293.67697 -398.7595,294.35197 -390.2185,294.69397 -376.6035,294.89897 -362.3385,294.89897 -346.6925,294.89897 -332.4655,294.66397 -322.2765,294.23797 -300.7025,293.33097 -260.8965,289.76897 -249.1135,288.13497 -227.1945,285.08297 -210.2385,281.36897 -200.0785,277.39497 -186.1905,271.95897 -179.1565,261.00097 -177.2035,252.55797 -175.6925,246.02097 -175.6285,228.72797 -175.6865,213.03297 L -175.6965,209.25697 C -175.6965,206.50597 -175.7085,193.77697 -175.7225,177.24297 L -175.7355,163.02997 -175.7585,138.07097 C -175.7855,109.99997 -175.8105,83.30297 -175.8105,78.43497 -175.8105,69.72397 -175.9215,-127.70603 -176.0385,-137.72703 -176.0825,-141.36003 -176.2195,-160.05403 -176.3935,-184.11503 L -176.4105,-186.49903 -176.4315,-189.46203 C -176.7065,-227.06103 -177.0495,-273.85403 -177.1865,-282.37203 -177.4385,-298.08603 -178.0725,-313.07103 -182.9815,-323.70103 -188.1355,-334.85903 -198.3635,-339.45903 -207.5455,-342.89503 -216.8195,-346.36903 -231.3055,-349.14803 -254.5145,-351.90803 -276.8925,-354.56703 -283.4185,-355.14503 -299.5315,-356.28303 -320.4945,-357.76403 -340.7955,-358.48303 -361.5965,-358.48303 L -361.5965,-358.48303 z"
       style="fill:#231f20;fill-opacity:1" />
    <path
       style="fill:#231f20;fill-rule:evenodd;fill-opacity:1"
       clip-rule="evenodd"
       d="M -487.4715,248.83397 C -487.4715,248.83397 -494.2895,255.11997 -494.8475,255.60797 -495.4025,256.09997 -494.9855,257.07497 -494.2885,257.48997 -493.5935,257.90497 -487.3975,264.36597 -487.3975,264.36597 L -484.3355,264.21797 -490.6695,257.82797 C -490.6695,257.82797 -483.8495,257.73797 -481.0655,257.93797 -478.2825,258.13997 -475.9835,259.59797 -474.3835,260.77697 -472.7815,261.95697 -470.9055,264.25197 -470.9055,264.25197 L -467.9795,264.24297 C -467.9795,264.24297 -469.7915,260.97397 -473.6175,258.12897 -477.4475,255.28197 -480.4395,255.50097 -482.5295,255.36597 -484.6155,255.23197 -490.8785,255.31797 -490.8785,255.31797 L -484.4075,248.82297 -487.4715,248.83397 z"
       id="path60" />
    <rect
       style="fill:#231f20;fill-rule:evenodd;fill-opacity:1"
       x="-413.85852"
       y="246.12195"
       clip-rule="evenodd"
       width="26.007"
       height="2.441"
       id="rect62" />
    <rect
       style="fill:#231f20;fill-rule:evenodd;fill-opacity:1"
       x="-406.90451"
       y="252.67493"
       clip-rule="evenodd"
       width="19.054001"
       height="2.7609999"
       id="rect64" />
    <rect
       style="fill:#231f20;fill-rule:evenodd;fill-opacity:1"
       x="-406.90451"
       y="258.74194"
       clip-rule="evenodd"
       width="19.054001"
       height="2.8599999"
       id="rect66" />
    <rect
       style="fill:#231f20;fill-rule:evenodd;fill-opacity:1"
       x="-406.90451"
       y="265.15692"
       clip-rule="evenodd"
       width="19.054001"
       height="2.648"
       id="rect68" />
    <polygon
       style="fill:#231f20;fill-rule:evenodd;fill-opacity:1"
       transform="translate(-806.2145,-642.35703)"
       clip-rule="evenodd"
       points="487.722,889.967 500.443,902.583 502.182,901.191 496.55,895.754 496.55,888.922 494.326,888.922 494.326,893.453 487.511,887.038 473.048,901.12 474.717,902.724 "
       id="polygon70" />
    <polygon
       style="fill:#231f20;fill-rule:evenodd;fill-opacity:1"
       transform="translate(-806.2145,-642.35703)"
       clip-rule="evenodd"
       points="480.973,909.209 480.973,902.516 478.68,904.12 478.68,911.23 496.412,911.23 496.412,904.12 494.255,902.305 494.255,909.209 "
       id="polygon72" />
    <path
       style="fill:#231f20;fill-rule:evenodd;fill-opacity:1"
       clip-rule="evenodd"
       d="M -234.6995,258.88297 -232.3515,261.84497 V 263.30797 C -232.3515,263.30797 -228.6655,267.55797 -227.2775,268.67597 -225.8845,269.78997 -225.5395,269.30197 -225.0505,268.81397 -224.5625,268.32597 -224.2875,266.86297 -224.9125,266.16397 -225.5385,265.46697 -229.8505,260.58797 -229.8505,260.58797 L -231.0995,260.65497 -232.7365,258.56397"
       id="path74" />
    <path
       id="path78"
       d="M -239.6285,246.24597 C -235.9805,246.24597 -233.0125,249.21397 -233.0125,252.86197 -233.0125,256.50997 -235.9805,259.47797 -239.6285,259.47797 -243.2765,259.47797 -246.2445,256.50997 -246.2445,252.86197 -246.2445,249.21397 -243.2765,246.24597 -239.6285,246.24597 M -239.6285,243.24597 C -244.9395,243.24597 -249.2445,247.55097 -249.2445,252.86197 -249.2445,258.17297 -244.9395,262.47797 -239.6285,262.47797 -234.3175,262.47797 -230.0125,258.17297 -230.0125,252.86197 -230.0125,247.55097 -234.3175,243.24597 -239.6285,243.24597 L -239.6285,243.24597 z"
       style="fill:#231f20;fill-opacity:1" />
  </g>
</svg>
