<?xml version="1.0" encoding="UTF-8" standalone="no"?>
<!-- Created with Inkscape (http://www.inkscape.org/) -->

<svg
   xmlns:dc="http://purl.org/dc/elements/1.1/"
   xmlns:cc="http://creativecommons.org/ns#"
   xmlns:rdf="http://www.w3.org/1999/02/22-rdf-syntax-ns#"
   xmlns:svg="http://www.w3.org/2000/svg"
   xmlns="http://www.w3.org/2000/svg"
   xmlns:sodipodi="http://sodipodi.sourceforge.net/DTD/sodipodi-0.dtd"
   xmlns:inkscape="http://www.inkscape.org/namespaces/inkscape"
   width="387"
   height="766.91101"
   id="svg2944"
   version="1.1"
   inkscape:version="0.47 r22583"
   sodipodi:docname="_phone.svg">
  <defs
     id="defs2946">
    <inkscape:perspective
       sodipodi:type="inkscape:persp3d"
       inkscape:vp_x="0 : 526.18109 : 1"
       inkscape:vp_y="0 : 1000 : 0"
       inkscape:vp_z="744.09448 : 526.18109 : 1"
       inkscape:persp3d-origin="372.04724 : 350.78739 : 1"
       id="perspective2952" />
    <inkscape:perspective
       id="perspective2919"
       inkscape:persp3d-origin="0.5 : 0.33333333 : 1"
       inkscape:vp_z="1 : 0.5 : 1"
       inkscape:vp_y="0 : 1000 : 0"
       inkscape:vp_x="0 : 0.5 : 1"
       sodipodi:type="inkscape:persp3d" />
  </defs>
  <sodipodi:namedview
     id="base"
     pagecolor="#ffffff"
     bordercolor="#666666"
     borderopacity="1.0"
     inkscape:pageopacity="0.0"
     inkscape:pageshadow="2"
     inkscape:zoom="1.979899"
     inkscape:cx="151.2189"
     inkscape:cy="152.5658"
     inkscape:document-units="px"
     inkscape:current-layer="layer1"
     showgrid="false"
     inkscape:window-width="1920"
     inkscape:window-height="1080"
     inkscape:window-x="0"
     inkscape:window-y="0"
     inkscape:window-maximized="0" />
  <metadata
     id="metadata2949">
    <rdf:RDF>
      <cc:Work
         rdf:about="">
        <dc:format>image/svg+xml</dc:format>
        <dc:type
           rdf:resource="http://purl.org/dc/dcmitype/StillImage" />
        <dc:title />
      </cc:Work>
    </rdf:RDF>
  </metadata>
  <g
     inkscape:label="Calque 1"
     inkscape:groupmode="layer"
     id="layer1"
     transform="translate(554.6075,385.37903)">
    <path
       style="fill:#231f20"
       d="M -167.5735,-288.92203 C -167.9025,-313.26503 -169.9695,-337.83503 -182.7605,-352.65803 -195.6895,-367.64403 -211.6625,-371.03803 -224.4985,-373.76603 -239.0165,-376.84903 -265.7175,-381.07003 -310.4815,-383.66503 -330.9565,-384.85103 -347.0235,-385.37903 -362.5765,-385.37903 -376.3455,-385.37903 -388.7775,-384.98303 -404.5155,-384.48203 L -412.1725,-384.24103 C -442.4645,-383.29603 -503.4635,-373.46803 -512.8605,-370.54103 -528.3575,-365.71403 -536.4575,-359.79503 -543.8145,-347.92103 -550.4625,-337.19303 -551.8025,-318.74803 -552.3065,-311.80403 -552.3615,-311.05603 -552.4055,-310.44003 -552.4465,-309.98703 -553.7695,-295.19503 -554.0135,-264.77203 -554.0485,-258.82203 -554.0485,-258.82203 -554.4305,224.51697 -554.2835,234.58297 -554.2455,237.16097 -554.2325,239.30997 -554.2205,241.27897 L -554.2155,241.97097 C -554.1615,251.66697 -554.1295,257.51997 -551.6425,290.63097 -548.9245,326.81797 -541.9535,341.49597 -532.3225,352.40097 -523.6345,362.24297 -512.1055,368.11397 -494.9415,371.43597 -493.0465,371.80397 -491.2685,372.15897 -489.5295,372.50597 -476.2955,375.14697 -465.8415,377.23297 -429.3895,379.15197 -425.6955,379.34497 -422.1145,379.54197 -418.5865,379.73997 -401.9865,380.66097 -386.3075,381.53197 -365.3225,381.53197 -350.4265,381.53197 -333.9515,381.09197 -314.9575,380.18597 -248.8105,377.03297 -216.0665,373.27297 -196.9005,359.33097 -178.3005,345.79897 -173.9915,325.56797 -171.1385,312.16897 L -171.0185,311.59997 C -167.6465,295.78197 -167.5735,259.98897 -167.5735,249.23797 -167.5735,179.86797 -167.5735,-244.29903 -167.5735,-288.92203 z"
       id="path38" />
    <path
       style="fill:none;stroke:#ffffff;stroke-width:3"
       d="M -167.44225,292.61034 C -167.63191,293.54425 -167.83676,294.50812 -168.05714,295.49047 -168.4979,297.45516 -169.00081,299.49372 -169.56862,301.51422 -170.70425,305.55522 -172.0995,309.52397 -173.7765,312.68497 -177.5385,319.77297 -181.0905,326.46997 -199.0225,337.01697 -212.5835,344.99097 -243.1005,351.02297 -252.0905,352.20497 -262.2785,353.54497 -299.5515,356.39697 -317.4705,357.20997 -334.2595,357.97097 -342.7035,358.20197 -353.6105,358.20197 L -357.1775,358.19397 -360.8185,358.20097 C -379.1305,358.20097 -391.9645,357.68897 -402.5565,357.20997 -420.4755,356.39797 -457.7465,353.54497 -467.9345,352.20497 -476.9235,351.02397 -507.4405,344.99397 -521.0005,337.01697 -538.9325,326.46997 -542.4855,319.77597 -546.2495,312.68597 -549.6035,306.36197 -551.8305,296.80997 -553.1075,289.90997"
       id="path40"
       sodipodi:nodetypes="cssccsccccccccc" />
    <g
       transform="translate(-806.2145,-642.35703)"
       id="g42">
      <path
         style="fill:#ffffff"
         d="M 431.933,269.931 C 442.134,269.931 459.807,270.071 468.642,270.171 476.256,270.259 486.935,270.896 495.526,271.407 L 496.026,271.435 C 498.538,271.585 500.896,271.725 502.986,271.84 511.458,272.301 519.252,272.775 521.542,273.481 523.264,274.012 523.348,274.66 523.487,275.736 L 523.519,275.98 C 523.707,277.346 523.206,278.409 522.028,279.142 521.041,279.757 520.705,279.857 519.631,279.857 519.298,279.857 518.904,279.848 518.394,279.833 L 516.69,279.798 C 512.93,279.741 505.467,279.057 498.147,278.362 491.448,277.723 474.971,277.036 466.142,276.805 457.297,276.575 439.865,276.575 433.302,276.575 428.375,276.575 421.095,276.821 414.676,277.037 L 413.892,277.063 413.571,277.074 C 411.476,277.144 409.465,277.212 407.635,277.265 402.22,277.425 396.593,277.803 391.629,278.137 L 391.557,278.142 391.233,278.165 390.461,278.216 C 388.697,278.334 387.038,278.445 385.525,278.531 384.389,278.597 383.204,278.673 382.015,278.75 L 381.636,278.775 C 378.343,278.989 374.939,279.21 372.622,279.21 371.518,279.21 370.724,279.16 370.255,279.061 369.336,278.868 368.653,278.428 368.228,277.755 367.642,276.828 367.689,275.721 367.809,275.217 368.013,274.359 369.105,272.543 370.705,272.232 372.089,271.963 376.653,271.756 381.985,271.513 L 386.11,271.323 C 393.139,270.991 418.292,270 427.508,269.942 428.767,269.935 430.263,269.931 431.933,269.931 M 431.933,266.931 C 430.257,266.931 428.756,266.935 427.492,266.941 418.187,267 392.993,267.993 385.968,268.325 L 381.847,268.515 C 375.978,268.782 371.738,268.974 370.133,269.286 367.08,269.878 365.297,272.81 364.89,274.52 364.593,275.774 364.646,277.702 365.692,279.356 366.554,280.72 367.918,281.633 369.637,281.995 370.326,282.141 371.274,282.208 372.621,282.208 375.04,282.208 378.504,281.983 381.853,281.766 L 382.21,281.743 C 383.391,281.666 384.568,281.591 385.697,281.525 387.434,281.426 389.367,281.295 391.431,281.157 L 391.765,281.134 C 396.722,280.801 402.341,280.422 407.722,280.263 409.648,280.207 411.777,280.135 413.992,280.061 L 414.775,280.035 C 421.181,279.819 428.442,279.574 433.302,279.574 439.854,279.574 457.258,279.574 466.064,279.803 474.839,280.032 491.21,280.713 497.862,281.347 505.25,282.049 512.785,282.738 516.644,282.796 L 518.331,282.831 C 518.849,282.847 519.272,282.856 519.63,282.856 521.264,282.856 522.157,282.594 523.613,281.688 525.79,280.334 526.839,278.098 526.491,275.571 L 526.462,275.349 C 526.298,274.078 525.992,271.714 522.427,270.614 520.04,269.878 514.062,269.439 503.15,268.844 501.066,268.729 498.712,268.59 496.206,268.44 L 495.695,268.411 C 487.066,267.897 476.328,267.259 468.677,267.17 459.904,267.071 442.253,266.931 431.933,266.931 L 431.933,266.931 z"
         id="path44" />
    </g>
    <path
       style="fill:none;stroke:#ffffff;stroke-width:3"
       d="M -360.5715,345.59497 C -372.2705,345.59497 -381.7915,336.04897 -381.7915,324.31797 -381.7915,312.58497 -372.2705,303.04097 -360.5715,303.04097 -348.8695,303.04097 -339.3505,312.58497 -339.3505,324.31797 -339.3505,336.04897 -348.8705,345.59497 -360.5715,345.59497"
       id="path46" />
    <g
       transform="matrix(0.98159509,0,0,0.99382014,-798.04946,-639.81992)"
       id="g48">
      <rect
         style="fill:#ffffff"
         x="284.14401"
         y="337.931"
         width="323"
         height="536.33301"
         id="rect50" />
      <path
         style="fill:#ffffff"
         d="M 605.644,339.431 V 872.764 H 285.644 V 339.431 H 605.644 M 608.644,336.431 H 605.644 285.644 282.644 V 339.431 872.764 875.764 H 285.644 605.644 608.644 V 872.764 339.431 336.431 L 608.644,336.431 z"
         id="path52" />
    </g>
    <g
       transform="translate(-806.2145,-642.35703)"
       id="g54">
      <path
         style="fill:#ffffff"
         d="M 444.618,286.874 C 465.35,286.874 485.581,287.591 506.47,289.066 522.507,290.198 529.009,290.773 551.344,293.427 574.308,296.157 588.578,298.885 597.616,302.271 606.636,305.646 615.831,309.788 620.508,319.913 625.172,330.011 625.78,344.652 626.028,360.033 626.169,368.758 626.52,417.063 626.804,455.878 L 626.821,458.263 C 626.994,482.136 627.133,500.991 627.176,504.664 627.293,514.686 627.404,712.583 627.404,720.79 627.404,725.659 627.429,752.356 627.456,780.429 L 627.479,805.387 C 627.5,828.469 627.518,848.11 627.518,851.62 L 627.528,855.399 C 627.57,866.614 627.647,887.493 626.088,894.237 624.308,901.935 617.844,911.945 605.044,916.956 595.099,920.847 578.377,924.499 556.69,927.518 544.962,929.144 505.316,932.691 483.814,933.595 473.676,934.019 459.492,934.254 443.878,934.254 429.624,934.254 416.054,934.049 407.578,933.71 390.982,933.04 358.253,930.325 346.087,929.115 334.315,927.947 313.514,924.498 308.284,923.297 L 306.271,922.844 C 300.603,921.578 291.113,919.463 284.547,915.927 277.078,911.901 274.945,910.244 269.328,901.85 264.628,894.828 264.85,879.996 264.984,871.135 L 264.987,870.94 C 265.007,869.666 265.025,868.506 265.025,867.502 265.025,859.4 264.459,747.243 264.336,731.128 264.223,716.335 264.107,636.393 264.107,626.319 264.107,623.43 264.062,610.463 264.002,593.695 263.876,557.289 263.684,490.937 263.764,483.604 263.801,479.992 263.838,466.982 263.887,450.402 L 263.891,449.157 C 263.985,416.88 264.112,372.673 264.337,361.998 264.371,360.349 264.399,358.727 264.424,357.13 264.651,343.168 264.848,331.11 270.351,317.869 276.301,303.553 296.205,298.017 324.261,294.111 350.761,290.42 392.092,287.628 429.556,286.999 434.558,286.917 439.625,286.874 444.618,286.874 M 444.618,283.874 C 439.617,283.874 434.532,283.917 429.505,284.002 391.929,284.632 350.456,287.435 323.846,291.142 294.771,295.19 274.076,301.089 267.579,316.72 261.854,330.496 261.654,342.817 261.423,357.084 261.397,358.677 261.37,360.293 261.336,361.938 261.111,372.59 260.983,416.583 260.89,448.706 L 260.889,449.151 260.885,450.395 260.883,451.155 C 260.836,467.287 260.799,480.03 260.762,483.576 260.679,491.187 260.887,561.062 261,593.708 261.058,609.813 261.105,623.383 261.105,626.321 261.105,636.405 261.221,716.389 261.334,731.153 261.457,747.232 262.023,859.372 262.023,867.504 262.023,868.483 262.005,869.612 261.986,870.851 L 261.983,871.093 C 261.844,880.303 261.611,895.72 266.833,903.521 272.789,912.422 275.237,914.32 283.121,918.57 290.043,922.297 299.775,924.47 305.589,925.768 L 307.623,926.226 C 312.894,927.436 333.901,930.923 345.789,932.102 357.956,933.311 390.75,936.034 407.455,936.709 415.996,937.051 429.611,937.256 443.876,937.256 459.522,937.256 473.749,937.021 483.938,936.595 505.512,935.688 545.318,932.126 557.101,930.492 579.02,927.44 595.976,923.726 606.136,919.752 620.024,914.316 627.058,903.358 629.011,894.915 630.522,888.378 630.586,871.085 630.528,855.39 L 630.518,851.614 C 630.518,848.863 630.506,836.134 630.492,819.6 L 630.479,805.387 630.456,780.428 C 630.429,752.357 630.404,725.66 630.404,720.792 630.404,712.081 630.293,514.651 630.176,504.63 630.132,500.997 629.995,482.303 629.821,458.242 L 629.804,455.858 629.783,452.895 C 629.508,415.296 629.165,368.503 629.028,359.985 628.776,344.271 628.142,329.286 623.233,318.656 618.079,307.498 607.851,302.898 598.669,299.462 589.395,295.988 574.909,293.209 551.7,290.449 529.322,287.79 522.796,287.212 506.683,286.074 485.72,284.593 465.419,283.874 444.618,283.874 L 444.618,283.874 z"
         id="path56" />
    </g>
    <path
       style="fill:#ffffff;fill-rule:evenodd"
       clip-rule="evenodd"
       d="M -487.4715,248.83397 C -487.4715,248.83397 -494.2895,255.11997 -494.8475,255.60797 -495.4025,256.09997 -494.9855,257.07497 -494.2885,257.48997 -493.5935,257.90497 -487.3975,264.36597 -487.3975,264.36597 L -484.3355,264.21797 -490.6695,257.82797 C -490.6695,257.82797 -483.8495,257.73797 -481.0655,257.93797 -478.2825,258.13997 -475.9835,259.59797 -474.3835,260.77697 -472.7815,261.95697 -470.9055,264.25197 -470.9055,264.25197 L -467.9795,264.24297 C -467.9795,264.24297 -469.7915,260.97397 -473.6175,258.12897 -477.4475,255.28197 -480.4395,255.50097 -482.5295,255.36597 -484.6155,255.23197 -490.8785,255.31797 -490.8785,255.31797 L -484.4075,248.82297 -487.4715,248.83397 z"
       id="path60" />
    <rect
       style="fill:#ffffff;fill-rule:evenodd"
       x="-413.85852"
       y="246.12195"
       clip-rule="evenodd"
       width="26.007"
       height="2.441"
       id="rect62" />
    <rect
       style="fill:#ffffff;fill-rule:evenodd"
       x="-406.90451"
       y="252.67493"
       clip-rule="evenodd"
       width="19.054001"
       height="2.7609999"
       id="rect64" />
    <rect
       style="fill:#ffffff;fill-rule:evenodd"
       x="-406.90451"
       y="258.74194"
       clip-rule="evenodd"
       width="19.054001"
       height="2.8599999"
       id="rect66" />
    <rect
       style="fill:#ffffff;fill-rule:evenodd"
       x="-406.90451"
       y="265.15692"
       clip-rule="evenodd"
       width="19.054001"
       height="2.648"
       id="rect68" />
    <polygon
       style="fill:#ffffff;fill-rule:evenodd"
       transform="translate(-806.2145,-642.35703)"
       clip-rule="evenodd"
       points="487.722,889.967 500.443,902.583 502.182,901.191 496.55,895.754 496.55,888.922 494.326,888.922 494.326,893.453 487.511,887.038 473.048,901.12 474.717,902.724 "
       id="polygon70" />
    <polygon
       style="fill:#ffffff;fill-rule:evenodd"
       transform="translate(-806.2145,-642.35703)"
       clip-rule="evenodd"
       points="480.973,909.209 480.973,902.516 478.68,904.12 478.68,911.23 496.412,911.23 496.412,904.12 494.255,902.305 494.255,909.209 "
       id="polygon72" />
    <path
       style="fill:#ffffff;fill-rule:evenodd"
       clip-rule="evenodd"
       d="M -234.6995,258.88297 -232.3515,261.84497 V 263.30797 C -232.3515,263.30797 -228.6655,267.55797 -227.2775,268.67597 -225.8845,269.78997 -225.5395,269.30197 -225.0505,268.81397 -224.5625,268.32597 -224.2875,266.86297 -224.9125,266.16397 -225.5385,265.46697 -229.8505,260.58797 -229.8505,260.58797 L -231.0995,260.65497 -232.7365,258.56397"
       id="path74" />
    <g
       transform="translate(-806.2145,-642.35703)"
       id="g76">
      <path
         style="fill:#ffffff"
         d="M 566.586,888.603 C 570.234,888.603 573.202,891.571 573.202,895.219 573.202,898.867 570.234,901.835 566.586,901.835 562.938,901.835 559.97,898.867 559.97,895.219 559.97,891.571 562.938,888.603 566.586,888.603 M 566.586,885.603 C 561.275,885.603 556.97,889.908 556.97,895.219 556.97,900.53 561.275,904.835 566.586,904.835 571.897,904.835 576.202,900.53 576.202,895.219 576.202,889.908 571.897,885.603 566.586,885.603 L 566.586,885.603 z"
         id="path78" />
    </g>
  </g>
</svg>
