<?xml version="1.0" encoding="UTF-8" standalone="no"?>
<!-- Created with Inkscape (http://www.inkscape.org/) -->

<svg
   xmlns:dc="http://purl.org/dc/elements/1.1/"
   xmlns:cc="http://creativecommons.org/ns#"
   xmlns:rdf="http://www.w3.org/1999/02/22-rdf-syntax-ns#"
   xmlns:svg="http://www.w3.org/2000/svg"
   xmlns="http://www.w3.org/2000/svg"
   xmlns:sodipodi="http://sodipodi.sourceforge.net/DTD/sodipodi-0.dtd"
   xmlns:inkscape="http://www.inkscape.org/namespaces/inkscape"
   width="100"
   height="100"
   id="svg2"
   version="1.1"
   inkscape:version="0.47 r22583"
   sodipodi:docname="Nouveau document 2">
  <title
     id="title2818">WireframeSketcher SVG asset</title>
  <defs
     id="defs4">
    <inkscape:perspective
       sodipodi:type="inkscape:persp3d"
       inkscape:vp_x="0 : 526.2 : 1"
       inkscape:vp_y="0 : 1000 : 0"
       inkscape:vp_z="744.1 : 526.2 : 1"
       inkscape:persp3d-origin="372 : 350.8 : 1"
       id="perspective10" />
    <inkscape:perspective
       id="perspective2831"
       inkscape:persp3d-origin="0.5 : 0.3333 : 1"
       inkscape:vp_z="1 : 0.5 : 1"
       inkscape:vp_y="0 : 1000 : 0"
       inkscape:vp_x="0 : 0.5 : 1"
       sodipodi:type="inkscape:persp3d" />
  </defs>
  <sodipodi:namedview
     id="base"
     pagecolor="#ffffff"
     bordercolor="#666666"
     borderopacity="1.0"
     inkscape:pageopacity="0.0"
     inkscape:pageshadow="2"
     inkscape:zoom="3.96"
     inkscape:cx="0.5612"
     inkscape:cy="-1.563"
     inkscape:document-units="px"
     inkscape:current-layer="svg2"
     showgrid="true"
     inkscape:window-width="1920"
     inkscape:window-height="1080"
     inkscape:window-x="0"
     inkscape:window-y="0"
     inkscape:window-maximized="0">
    <inkscape:grid
       type="xygrid"
       id="grid2816"
       empspacing="1"
       visible="true"
       enabled="true"
       snapvisiblegridlinesonly="true" />
  </sodipodi:namedview>
  <metadata
     id="metadata7">
    <rdf:RDF>
      <cc:Work
         rdf:about="">
        <dc:format>image/svg+xml</dc:format>
        <dc:type
           rdf:resource="http://purl.org/dc/dcmitype/StillImage" />
        <dc:title>WireframeSketcher SVG asset</dc:title>
        <dc:creator>
          <cc:Agent>
            <dc:title>Peter Severin</dc:title>
          </cc:Agent>
        </dc:creator>
        <dc:rights>
          <cc:Agent>
            <dc:title>Copyright (c) WireframeSketcher.com</dc:title>
          </cc:Agent>
        </dc:rights>
      </cc:Work>
    </rdf:RDF>
  </metadata>
  <path
     style="fill:#000000;fill-opacity:1;stroke:none"
     d="M 20 5 C 11.69 5 5 11.69 5 20 L 5 80 C 5 88.31 11.69 95 20 95 L 80 95 C 88.31 95 95 88.31 95 80 L 95 20 C 95 11.69 88.31 5 80 5 L 20 5 z M 50 18 C 59.39 18 67 25.61 67 35 C 67 44.39 59.39 52 50 52 C 40.61 52 33 44.39 33 35 C 33 25.61 40.61 18 50 18 z M 50 28 C 46.13 28 43 31.13 43 35 C 43 38.87 46.13 42 50 42 C 53.87 42 57 38.87 57 35 C 57 31.13 53.87 28 50 28 z M 64.28 50.53 A 5 5 0 0 1 66.78 59.84 C 65.18 60.93 63.48 61.9 61.69 62.62 C 59.99 63.37 58.2 63.91 56.38 64.31 L 65.53 73.47 A 5 5 0 1 1 58.47 80.53 L 50 72.06 L 41.53 80.53 A 5 5 0 1 1 34.47 73.47 L 43.66 64.28 C 41.82 63.88 40.04 63.36 38.34 62.62 C 38.34 62.62 38.32 62.66 38.31 62.62 C 36.5 61.89 34.8 60.91 33.22 59.88 A 5 5 0 0 1 35.5 50.69 A 5 5 0 0 1 38.81 51.59 C 39.88 52.32 41.04 52.91 42.22 53.41 L 42.22 53.44 C 44.61 54.45 47.21 55 50 55 C 52.77 55 55.4 54.45 57.78 53.44 C 58.96 52.94 60.11 52.3 61.16 51.59 A 5 5 0 0 1 63.72 50.56 A 5 5 0 0 1 64.28 50.53 z "
     id="rect2837" />
</svg>
