<?xml version="1.0" encoding="UTF-8" standalone="no"?>
<!-- Created with Inkscape (http://www.inkscape.org/) -->

<svg
   xmlns:dc="http://purl.org/dc/elements/1.1/"
   xmlns:cc="http://creativecommons.org/ns#"
   xmlns:rdf="http://www.w3.org/1999/02/22-rdf-syntax-ns#"
   xmlns:svg="http://www.w3.org/2000/svg"
   xmlns="http://www.w3.org/2000/svg"
   xmlns:sodipodi="http://sodipodi.sourceforge.net/DTD/sodipodi-0.dtd"
   xmlns:inkscape="http://www.inkscape.org/namespaces/inkscape"
   width="100"
   height="100"
   id="svg2"
   version="1.1"
   inkscape:version="0.47 r22583"
   sodipodi:docname="vk_alt.svg">
  <title
     id="title2818">WireframeSketcher SVG asset</title>
  <defs
     id="defs4">
    <inkscape:perspective
       sodipodi:type="inkscape:persp3d"
       inkscape:vp_x="0 : 526.2 : 1"
       inkscape:vp_y="0 : 1000 : 0"
       inkscape:vp_z="744.1 : 526.2 : 1"
       inkscape:persp3d-origin="372 : 350.8 : 1"
       id="perspective10" />
    <inkscape:perspective
       id="perspective2871"
       inkscape:persp3d-origin="0.5 : 0.3333 : 1"
       inkscape:vp_z="1 : 0.5 : 1"
       inkscape:vp_y="0 : 1000 : 0"
       inkscape:vp_x="0 : 0.5 : 1"
       sodipodi:type="inkscape:persp3d" />
    <linearGradient
       id="SVGID_2_"
       gradientUnits="userSpaceOnUse"
       x1="70"
       y1="97.15"
       x2="70"
       y2="22.85">
      <stop
         offset="0"
         style="stop-color:#CCCCCC"
         id="stop17" />
      <stop
         offset="0.15"
         style="stop-color:#DBDBDB"
         id="stop19" />
      <stop
         offset="0.65"
         style="stop-color:#FFFFFF"
         id="stop21" />
    </linearGradient>
    <inkscape:perspective
       id="perspective3743"
       inkscape:persp3d-origin="0.5 : 0.3333 : 1"
       inkscape:vp_z="1 : 0.5 : 1"
       inkscape:vp_y="0 : 1000 : 0"
       inkscape:vp_x="0 : 0.5 : 1"
       sodipodi:type="inkscape:persp3d" />
    <linearGradient
       id="SVGID_2_-3"
       gradientUnits="userSpaceOnUse"
       x1="70"
       y1="97.15"
       x2="70"
       y2="22.85">
      <stop
         offset="0"
         style="stop-color:#CCCCCC"
         id="stop17-2" />
      <stop
         offset="0.15"
         style="stop-color:#DBDBDB"
         id="stop19-9" />
      <stop
         offset="0.65"
         style="stop-color:#FFFFFF"
         id="stop21-7" />
    </linearGradient>
  </defs>
  <sodipodi:namedview
     id="base"
     pagecolor="#ffffff"
     bordercolor="#666666"
     borderopacity="1.0"
     inkscape:pageopacity="0.0"
     inkscape:pageshadow="2"
     inkscape:zoom="5.6"
     inkscape:cx="9.154"
     inkscape:cy="46.1"
     inkscape:document-units="px"
     inkscape:current-layer="svg2"
     showgrid="true"
     inkscape:window-width="1920"
     inkscape:window-height="1080"
     inkscape:window-x="0"
     inkscape:window-y="0"
     inkscape:window-maximized="0">
    <inkscape:grid
       type="xygrid"
       id="grid2816"
       empspacing="1"
       visible="true"
       enabled="true"
       snapvisiblegridlinesonly="true" />
  </sodipodi:namedview>
  <metadata
     id="metadata7">
    <rdf:RDF>
      <cc:Work
         rdf:about="">
        <dc:format>image/svg+xml</dc:format>
        <dc:type
           rdf:resource="http://purl.org/dc/dcmitype/StillImage" />
        <dc:title>WireframeSketcher SVG asset</dc:title>
        <dc:creator>
          <cc:Agent>
            <dc:title>Peter Severin</dc:title>
          </cc:Agent>
        </dc:creator>
        <dc:rights>
          <cc:Agent>
            <dc:title>Copyright (c) WireframeSketcher.com</dc:title>
          </cc:Agent>
        </dc:rights>
        <dc:subject>
          <rdf:Bag>
            <rdf:li>vk</rdf:li>
            <rdf:li>vkontakte</rdf:li>
            <rdf:li>ВКонтакте</rdf:li>
          </rdf:Bag>
        </dc:subject>
      </cc:Work>
    </rdf:RDF>
  </metadata>
  <path
     style="fill:#000000;fill-rule:evenodd;fill-opacity:1"
     clip-rule="evenodd"
     d="M 31.88,76.52 52.89,76.52 C 56.46,76.52 59.46,76.18 61.79,75.52 64.16,74.87 66.37,73.74 68.32,72.22 70,70.91 71.37,69.24 72.36,67.25 73.35,65.26 73.85,62.92 73.85,60.31 73.85,56.7 72.85,53.79 70.86,51.64 69.16,49.81 66.94,48.5 64.26,47.72 66.02,46.77 67.44,45.45 68.5,43.77 69.81,41.75 70.47,39.41 70.47,36.81 70.47,34.58 69.99,32.57 69.04,30.84 68.09,29.1 66.63,27.7 64.71,26.66 62.97,25.71 61.08,25.1 59.08,24.8 57.14,24.51 54.33,24.37 50.49,24.37 L 31.88,24.37 31.88,76.52 z M 45.84,65.95 45.84,54.42 47.59,54.42 C 49.86,54.42 51.67,54.43 53.02,54.46 54.33,54.49 55.33,54.65 56.01,54.92 57.2,55.35 58.04,55.94 58.62,56.73 59.18,57.51 59.46,58.62 59.46,60.07 59.46,61.18 59.21,62.2 58.73,63.07 58.25,63.93 57.52,64.56 56.47,65.01 55.24,65.55 54,65.84 52.79,65.88 51.53,65.93 49.23,65.95 45.92,65.95 L 45.84,65.95 z M 45.84,44.49 45.84,34.92 46.12,34.92 C 48.39,34.92 50.1,34.93 51.24,34.97 52.34,35 53.24,35.19 54.01,35.52 54.76,35.85 55.31,36.37 55.68,37.11 56.06,37.9 56.25,38.64 56.25,39.39 56.25,40.39 56.07,41.3 55.72,42.08 55.4,42.78 54.79,43.35 53.9,43.76 53.05,44.15 52.2,44.38 51.4,44.42 50.56,44.46 49.07,44.49 46.84,44.49 L 45.84,44.49 z"
     id="path23"
     sodipodi:nodetypes="cccssscccsscsccccccscssscccccccsscsssscc" />
</svg>
