<?xml version="1.0" encoding="UTF-8" standalone="no"?>
<!-- Created with Inkscape (http://www.inkscape.org/) -->

<svg
   xmlns:dc="http://purl.org/dc/elements/1.1/"
   xmlns:cc="http://creativecommons.org/ns#"
   xmlns:rdf="http://www.w3.org/1999/02/22-rdf-syntax-ns#"
   xmlns:svg="http://www.w3.org/2000/svg"
   xmlns="http://www.w3.org/2000/svg"
   xmlns:sodipodi="http://sodipodi.sourceforge.net/DTD/sodipodi-0.dtd"
   xmlns:inkscape="http://www.inkscape.org/namespaces/inkscape"
   width="100"
   height="100"
   id="svg2"
   version="1.1"
   inkscape:version="0.47 r22583"
   sodipodi:docname="vk_int.svg">
  <title
     id="title2818">WireframeSketcher SVG asset</title>
  <defs
     id="defs4">
    <inkscape:perspective
       sodipodi:type="inkscape:persp3d"
       inkscape:vp_x="0 : 526.2 : 1"
       inkscape:vp_y="0 : 1000 : 0"
       inkscape:vp_z="744.1 : 526.2 : 1"
       inkscape:persp3d-origin="372 : 350.8 : 1"
       id="perspective10" />
    <inkscape:perspective
       id="perspective2831"
       inkscape:persp3d-origin="0.5 : 0.3333 : 1"
       inkscape:vp_z="1 : 0.5 : 1"
       inkscape:vp_y="0 : 1000 : 0"
       inkscape:vp_x="0 : 0.5 : 1"
       sodipodi:type="inkscape:persp3d" />
  </defs>
  <sodipodi:namedview
     id="base"
     pagecolor="#ffffff"
     bordercolor="#666666"
     borderopacity="1.0"
     inkscape:pageopacity="0.0"
     inkscape:pageshadow="2"
     inkscape:zoom="45.25"
     inkscape:cx="57.25"
     inkscape:cy="69.01"
     inkscape:document-units="px"
     inkscape:current-layer="svg2"
     showgrid="true"
     inkscape:window-width="1920"
     inkscape:window-height="1080"
     inkscape:window-x="0"
     inkscape:window-y="0"
     inkscape:window-maximized="0">
    <inkscape:grid
       type="xygrid"
       id="grid2816"
       empspacing="1"
       visible="true"
       enabled="true"
       snapvisiblegridlinesonly="true" />
  </sodipodi:namedview>
  <metadata
     id="metadata7">
    <rdf:RDF>
      <cc:Work
         rdf:about="">
        <dc:format>image/svg+xml</dc:format>
        <dc:type
           rdf:resource="http://purl.org/dc/dcmitype/StillImage" />
        <dc:title>WireframeSketcher SVG asset</dc:title>
        <dc:creator>
          <cc:Agent>
            <dc:title>Peter Severin</dc:title>
          </cc:Agent>
        </dc:creator>
        <dc:rights>
          <cc:Agent>
            <dc:title>Copyright (c) WireframeSketcher.com</dc:title>
          </cc:Agent>
        </dc:rights>
        <dc:subject>
          <rdf:Bag>
            <rdf:li>vk</rdf:li>
            <rdf:li>vkontakte</rdf:li>
            <rdf:li>вконтакте</rdf:li>
          </rdf:Bag>
        </dc:subject>
      </cc:Work>
    </rdf:RDF>
  </metadata>
  <path
     style="fill:#000000"
     d="M 41.61,74.74 C 29.61,71.49 20.01,61 9.106,38.9 2.876,26.42 3.076,25.94 14.31,26.31 L 18.71,26.46 20.81,26.53 C 20.81,26.53 22.21,26.58 22.81,26.97 23.41,27.35 24.01,28.49 24.01,28.49 L 24.91,30.38 26.81,34.17 C 31.01,42.46 37.01,50.07 38.31,48.78 38.71,48.33 39.31,44.68 39.51,40.66 39.91,33.06 38.71,29.1 36.11,29.1 34.91,29.1 34.51,28.36 34.71,27.48 35.01,26.61 35.91,25.6 37.21,25.08 40.51,23.82 51.81,23.82 55.11,25.08 56.36,25.56 57.01,25.84 57.35,27.28 57.69,28.73 57.71,31.33 57.71,36.45 57.71,49.17 58.91,51.18 63.31,45.73 64.91,43.81 68.01,38.73 70.21,34.42 L 72.21,30.51 73.21,28.56 C 73.21,28.56 73.51,27.74 74.21,27.04 74.81,26.41 76.71,26.6 76.71,26.6 L 79.21,26.6 84.21,26.6 C 93.71,26.6 94.21,26.7 94.51,28.78 94.91,31.64 92.61,35.91 86.01,44.65 83.11,48.57 80.71,52.38 80.71,53.11 80.71,53.84 83.61,57.44 87.11,61.11 98.31,72.76 97.21,76.47 82.41,75.92 L 78.11,75.76 75.91,75.68 C 75.91,75.68 74.51,75.69 73.91,75.39 73.21,75.12 72.21,74.12 72.21,74.12 L 70.71,72.64 67.71,69.68 C 62.61,64.62 61.51,63.95 60.21,65.06 59.31,65.78 58.41,68.12 58.01,70.27 57.71,72.52 56.61,74.58 55.61,75.14 53.21,76.42 47.21,76.25 41.61,74.74 z"
     id="path2861"
     sodipodi:nodetypes="cccccscccccssccssccccscccccsccccsccccccc" />
  <g
     id="g2839"
     transform="translate(84.92,-1.5)" />
</svg>
