<?xml version="1.0" encoding="UTF-8" standalone="no"?>
<!-- Created with Inkscape (http://www.inkscape.org/) -->

<svg
   xmlns:dc="http://purl.org/dc/elements/1.1/"
   xmlns:cc="http://creativecommons.org/ns#"
   xmlns:rdf="http://www.w3.org/1999/02/22-rdf-syntax-ns#"
   xmlns:svg="http://www.w3.org/2000/svg"
   xmlns="http://www.w3.org/2000/svg"
   xmlns:sodipodi="http://sodipodi.sourceforge.net/DTD/sodipodi-0.dtd"
   xmlns:inkscape="http://www.inkscape.org/namespaces/inkscape"
   width="32"
   height="32"
   id="svg2"
   version="1.1"
   inkscape:version="0.47 r22583"
   sodipodi:docname="Nouveau document 2">
  <title
     id="title2818">WireframeSketcher SVG asset</title>
  <defs
     id="defs4">
    <inkscape:perspective
       sodipodi:type="inkscape:persp3d"
       inkscape:vp_x="0 : 526.2 : 1"
       inkscape:vp_y="0 : 1000 : 0"
       inkscape:vp_z="744.1 : 526.2 : 1"
       inkscape:persp3d-origin="372 : 350.8 : 1"
       id="perspective10" />
    <inkscape:perspective
       id="perspective2831"
       inkscape:persp3d-origin="0.5 : 0.3333 : 1"
       inkscape:vp_z="1 : 0.5 : 1"
       inkscape:vp_y="0 : 1000 : 0"
       inkscape:vp_x="0 : 0.5 : 1"
       sodipodi:type="inkscape:persp3d" />
  </defs>
  <sodipodi:namedview
     id="base"
     pagecolor="#ffffff"
     bordercolor="#666666"
     borderopacity="1.0"
     inkscape:pageopacity="0.0"
     inkscape:pageshadow="2"
     inkscape:zoom="31.68"
     inkscape:cx="13.6"
     inkscape:cy="11.86"
     inkscape:document-units="px"
     inkscape:current-layer="svg2"
     showgrid="true"
     inkscape:window-width="1916"
     inkscape:window-height="1076"
     inkscape:window-x="0"
     inkscape:window-y="0"
     inkscape:window-maximized="0">
    <inkscape:grid
       type="xygrid"
       id="grid2816"
       empspacing="1"
       visible="true"
       enabled="true"
       snapvisiblegridlinesonly="true" />
  </sodipodi:namedview>
  <metadata
     id="metadata7">
    <rdf:RDF>
      <cc:Work
         rdf:about="">
        <dc:format>image/svg+xml</dc:format>
        <dc:type
           rdf:resource="http://purl.org/dc/dcmitype/StillImage" />
        <dc:title>WireframeSketcher SVG asset</dc:title>
        <dc:creator>
          <cc:Agent>
            <dc:title>Peter Severin</dc:title>
          </cc:Agent>
        </dc:creator>
        <dc:rights>
          <cc:Agent>
            <dc:title>Copyright (c) WireframeSketcher.com</dc:title>
          </cc:Agent>
        </dc:rights>
      </cc:Work>
    </rdf:RDF>
  </metadata>
  <path
     style="fill:#000000"
     d="M 0,27.44 C 0,25.18 4.54,23.36 6.538,22.48 8.536,21.6 12.24,19.8 12.38,18.42 12.44,17.81 12.65,17.17 11.85,16.12 11,15 10.72,14.86 10.45,14.08 9.881,12.41 10.33,10.47 10.16,8.792 9.987,5.834 10.43,4.762 12.37,3.496 14.69,1.976 17.76,2.161 19.61,3.609 21.28,4.996 21.38,6.952 21.48,8.988 21.47,10.7 21.55,12.78 21.07,14.35 20.87,15.04 20.46,15.16 19.97,16.06 19.48,16.96 19.21,17.82 19.44,18.52 19.85,19.72 21.35,20.63 25.59,22.5 29.83,24.37 32,25.95 32,27.44 32,28.93 32,30 32,30 L 0,30 C 0,30 0,30 0,27.44 z"
     id="path3657"
     sodipodi:nodetypes="czszaccccszszzzzz" />
</svg>
