<?xml version="1.0" encoding="ISO-8859-1"?>
<!-- Converted from Font Awesome. Glyph: e053 -->
<!DOCTYPE svg PUBLIC "-//W3C//DTD SVG 1.1//EN" "http://www.w3.org/Graphics/SVG/1.1/DTD/svg11.dtd">
<svg version="1.1" xmlns="http://www.w3.org/2000/svg" xmlns:xlink="http://www.w3.org/1999/xlink" width="1600" height="1600" xml:space="preserve">
<g transform="translate(200, 1400) scale(1, -1)">
	<path id="align-center" d="M0 50q0 -20 14.5 -35t35.5 -15h1100q21 0 35.5 15t14.5 35v100q0 21 -14.5 35.5t-35.5 14.5h-1100q-21 0 -35.5 -14.5t-14.5 -35.5v-100zM0 650q0 -20 14.5 -35t35.5 -15h1100q21 0 35.5 15t14.5 35v100q0 21 -14.5 35.5t-35.5 14.5h-1100q-21 0 -35.5 -14.5t-14.5 -35.5 v-100zM200 350q0 -20 14.5 -35t35.5 -15h700q21 0 35.5 15t14.5 35v100q0 21 -14.5 35.5t-35.5 14.5h-700q-21 0 -35.5 -14.5t-14.5 -35.5v-100zM200 950q0 -20 14.5 -35t35.5 -15h700q21 0 35.5 15t14.5 35v100q0 21 -14.5 35.5t-35.5 14.5h-700q-21 0 -35.5 -14.5 t-14.5 -35.5v-100z" />
</g>
</svg>	
