<?xml version="1.0" encoding="ISO-8859-1"?>
<!-- Converted from Font Awesome. Glyph: e040 -->
<!DOCTYPE svg PUBLIC "-//W3C//DTD SVG 1.1//EN" "http://www.w3.org/Graphics/SVG/1.1/DTD/svg11.dtd">
<svg version="1.1" xmlns="http://www.w3.org/2000/svg" xmlns:xlink="http://www.w3.org/1999/xlink" width="1600" height="1600" xml:space="preserve">
<g transform="translate(200, 1400) scale(1, -1)">
	<path id="barcode" d="M0 200h100v1000h-100v-1000zM100 0v100h300v-100h-300zM200 200v1000h100v-1000h-100zM500 0v91h100v-91h-100zM500 200v1000h200v-1000h-200zM700 0v91h100v-91h-100zM800 200v1000h100v-1000h-100zM900 0v91h200v-91h-200zM1000 200v1000h200v-1000h-200z" />
</g>
</svg>	
