<?xml version="1.0" encoding="ISO-8859-1"?>
<!-- Converted from Font Awesome. Glyph: e090 -->
<!DOCTYPE svg PUBLIC "-//W3C//DTD SVG 1.1//EN" "http://www.w3.org/Graphics/SVG/1.1/DTD/svg11.dtd">
<svg version="1.1" xmlns="http://www.w3.org/2000/svg" xmlns:xlink="http://www.w3.org/1999/xlink" width="1600" height="1600" xml:space="preserve">
<g transform="translate(200, 1400) scale(1, -1)">
	<path id="ban-circle" d="M4 600q0 162 80 299t217 217t299 80t299 -80t217 -217t80 -299t-80 -299t-217 -217t-299 -80t-299 80t-217 217t-80 299zM186 600q0 -115 62 -215l568 567q-100 62 -216 62q-171 0 -292.5 -121.5t-121.5 -292.5zM391 245q97 -59 209 -59q171 0 292.5 121.5t121.5 292.5 q0 112 -59 209z" />
</g>
</svg>	
