<?xml version="1.0" encoding="ISO-8859-1"?>
<!-- Converted from Font Awesome. Glyph: e123 -->
<!DOCTYPE svg PUBLIC "-//W3C//DTD SVG 1.1//EN" "http://www.w3.org/Graphics/SVG/1.1/DTD/svg11.dtd">
<svg version="1.1" xmlns="http://www.w3.org/2000/svg" xmlns:xlink="http://www.w3.org/1999/xlink" width="1600" height="1600" xml:space="preserve">
<g transform="translate(200, 1400) scale(1, -1)">
	<path id="bell" d="M74 350q0 21 13.5 35.5t33.5 14.5h17l118 173l63 327q15 77 76 140t144 83l-18 32q-6 19 3 32t29 13h94q20 0 29 -10.5t3 -29.5l-18 -37q83 -19 144 -82.5t76 -140.5l63 -327l118 -173h17q20 0 33.5 -14.5t13.5 -35.5q0 -20 -13 -40t-31 -27q-22 -9 -63 -23t-167.5 -37 t-251.5 -23t-245.5 20.5t-178.5 41.5l-58 20q-18 7 -31 27.5t-13 40.5zM497 110q12 -49 40 -79.5t63 -30.5t63 30.5t39 79.5q-48 -6 -102 -6t-103 6z" />
</g>
</svg>	
