<?xml version="1.0" encoding="ISO-8859-1"?>
<!-- Converted from Font Awesome. Glyph: e048 -->
<!DOCTYPE svg PUBLIC "-//W3C//DTD SVG 1.1//EN" "http://www.w3.org/Graphics/SVG/1.1/DTD/svg11.dtd">
<svg version="1.1" xmlns="http://www.w3.org/2000/svg" xmlns:xlink="http://www.w3.org/1999/xlink" width="1600" height="1600" xml:space="preserve">
<g transform="translate(200, 1400) scale(1, -1)">
	<path id="bold" d="M100 0v89q41 7 70.5 32.5t29.5 65.5v827q0 28 -1 39.5t-5.5 26t-15.5 21t-29 14t-49 14.5v70h471q120 0 213 -88t93 -228q0 -55 -11.5 -101.5t-28 -74t-33.5 -47.5t-28 -28l-12 -7q8 -3 21.5 -9t48 -31.5t60.5 -58t47.5 -91.5t21.5 -129q0 -84 -59 -156.5t-142 -111 t-162 -38.5h-500zM400 200h161q89 0 153 48.5t64 132.5q0 90 -62.5 154.5t-156.5 64.5h-159v-400zM400 700h139q76 0 130 61.5t54 138.5q0 82 -84 130.5t-239 48.5v-379z" />
</g>
</svg>	
