<?xml version="1.0" encoding="ISO-8859-1"?>
<!-- Converted from Font Awesome. Glyph: e122 -->
<!DOCTYPE svg PUBLIC "-//W3C//DTD SVG 1.1//EN" "http://www.w3.org/Graphics/SVG/1.1/DTD/svg11.dtd">
<svg version="1.1" xmlns="http://www.w3.org/2000/svg" xmlns:xlink="http://www.w3.org/1999/xlink" width="1600" height="1600" xml:space="preserve">
<g transform="translate(200, 1400) scale(1, -1)">
	<path id="bullhorn" d="M-101 600v50q0 24 25 49t50 38l25 13v-250l-11 5.5t-24 14t-30 21.5t-24 27.5t-11 31.5zM99 500v250v5q0 13 0.5 18.5t2.5 13t8 10.5t15 3h200l675 250v-850l-675 200h-38l47 -276q2 -12 -3 -17.5t-11 -6t-21 -0.5h-8h-83q-20 0 -34.5 14t-18.5 35q-56 337 -56 351z M1100 200v850q0 21 14.5 35.5t35.5 14.5q20 0 35 -14.5t15 -35.5v-850q0 -20 -15 -35t-35 -15q-21 0 -35.5 15t-14.5 35z" />
</g>
</svg>	
