<?xml version="1.0" encoding="ISO-8859-1"?>
<!-- Converted from Font Awesome. Glyph: e179 -->
<!DOCTYPE svg PUBLIC "-//W3C//DTD SVG 1.1//EN" "http://www.w3.org/Graphics/SVG/1.1/DTD/svg11.dtd">
<svg version="1.1" xmlns="http://www.w3.org/2000/svg" xmlns:xlink="http://www.w3.org/1999/xlink" width="1600" height="1600" xml:space="preserve">
<g transform="translate(200, 1400) scale(1, -1)">
	<path id="cutlery" d="M100 700v400l50 100l50 -100v-300h100v300l50 100l50 -100v-300h100v300l50 100l50 -100v-400l-100 -203v-447q0 -21 -14.5 -35.5t-35.5 -14.5h-200q-21 0 -35.5 14.5t-14.5 35.5v447zM800 597q0 -29 10.5 -55.5t25 -43t29 -28.5t25.5 -18l10 -5v-397q0 -21 14.5 -35.5 t35.5 -14.5h200q21 0 35.5 14.5t14.5 35.5v1106q0 31 -18 40.5t-44 -7.5l-276 -117q-25 -16 -43.5 -50.5t-18.5 -65.5v-359z" />
</g>
</svg>	
