<?xml version="1.0" encoding="ISO-8859-1"?>
<!-- Converted from Font Awesome. Glyph: e067 -->
<!DOCTYPE svg PUBLIC "-//W3C//DTD SVG 1.1//EN" "http://www.w3.org/Graphics/SVG/1.1/DTD/svg11.dtd">
<svg version="1.1" xmlns="http://www.w3.org/2000/svg" xmlns:xlink="http://www.w3.org/1999/xlink" width="1600" height="1600" xml:space="preserve">
<g transform="translate(200, 1400) scale(1, -1)">
	<path id="check" d="M0 400v300q0 165 117.5 282.5t282.5 117.5h300q60 0 127 -23l-178 -177h-349q-41 0 -70.5 -29.5t-29.5 -70.5v-500q0 -41 29.5 -70.5t70.5 -29.5h500q41 0 70.5 29.5t29.5 70.5v69l200 200v-169q0 -165 -117.5 -282.5t-282.5 -117.5h-300q-165 0 -282.5 117.5 t-117.5 282.5zM342 632l283 -284l566 567l-136 137l-430 -431l-147 147z" />
</g>
</svg>	
