<?xml version="1.0" encoding="ISO-8859-1"?>
<!-- Converted from Font Awesome. Glyph: e198 -->
<!DOCTYPE svg PUBLIC "-//W3C//DTD SVG 1.1//EN" "http://www.w3.org/Graphics/SVG/1.1/DTD/svg11.dtd">
<svg version="1.1" xmlns="http://www.w3.org/2000/svg" xmlns:xlink="http://www.w3.org/1999/xlink" width="1600" height="1600" xml:space="preserve">
<g transform="translate(200, 1400) scale(1, -1)">
	<path id="cloud-upload" d="M-14 494q0 -80 56.5 -137t135.5 -57h8l414 414l403 -403q94 26 154.5 104t60.5 178q0 121 -85 207.5t-205 86.5q-46 0 -90 -14q-44 97 -134.5 156.5t-200.5 59.5q-152 0 -260 -107.5t-108 -260.5q0 -25 2 -37q-66 -14 -108.5 -67.5t-42.5 -122.5zM300 200l300 300 l300 -300h-200v-300h-200v300h-200z" />
</g>
</svg>	
