<?xml version="1.0" encoding="ISO-8859-1"?>
<!-- Converted from Font Awesome. Glyph: e181 -->
<!DOCTYPE svg PUBLIC "-//W3C//DTD SVG 1.1//EN" "http://www.w3.org/Graphics/SVG/1.1/DTD/svg11.dtd">
<svg version="1.1" xmlns="http://www.w3.org/2000/svg" xmlns:xlink="http://www.w3.org/1999/xlink" width="1600" height="1600" xml:space="preserve">
<g transform="translate(200, 1400) scale(1, -1)">
	<path id="compressed" d="M0 300q0 -41 29.5 -70.5t70.5 -29.5h300q41 0 70.5 29.5t29.5 70.5v500q0 41 -29.5 70.5t-70.5 29.5h-300q-41 0 -70.5 -29.5t-29.5 -70.5v-500zM100 100h400l200 200h105l295 98v-298h-425l-100 -100h-375zM100 300v200h300v-200h-300zM100 600v200h300v-200h-300z M100 1000h400l200 -200v-98l295 98h105v200h-425l-100 100h-375zM700 402v163l400 133v-163z" />
</g>
</svg>	
