<?xml version="1.0" encoding="ISO-8859-1"?>
<!-- Converted from Font Awesome. Glyph: e046 -->
<!DOCTYPE svg PUBLIC "-//W3C//DTD SVG 1.1//EN" "http://www.w3.org/Graphics/SVG/1.1/DTD/svg11.dtd">
<svg version="1.1" xmlns="http://www.w3.org/2000/svg" xmlns:xlink="http://www.w3.org/1999/xlink" width="1600" height="1600" xml:space="preserve">
<g transform="translate(200, 1400) scale(1, -1)">
	<path id="camera" d="M0 200q0 -41 29.5 -70.5t70.5 -29.5h1000q41 0 70.5 29.5t29.5 70.5v600q0 41 -29.5 70.5t-70.5 29.5h-150q-4 8 -11.5 21.5t-33 48t-53 61t-69 48t-83.5 21.5h-200q-41 0 -82 -20.5t-70 -50t-52 -59t-34 -50.5l-12 -20h-150q-41 0 -70.5 -29.5t-29.5 -70.5v-600z M356 500q0 100 72 172t172 72t172 -72t72 -172t-72 -172t-172 -72t-172 72t-72 172zM494 500q0 -44 31 -75t75 -31t75 31t31 75t-31 75t-75 31t-75 -31t-31 -75zM900 700v100h100v-100h-100z" />
</g>
</svg>	
