<?xml version="1.0" encoding="ISO-8859-1"?>
<!-- Converted from Font Awesome. Glyph: e159 -->
<!DOCTYPE svg PUBLIC "-//W3C//DTD SVG 1.1//EN" "http://www.w3.org/Graphics/SVG/1.1/DTD/svg11.dtd">
<svg version="1.1" xmlns="http://www.w3.org/2000/svg" xmlns:xlink="http://www.w3.org/1999/xlink" width="1600" height="1600" xml:space="preserve">
<g transform="translate(200, 1400) scale(1, -1)">
	<path id="collapse-down" d="M0 400v300q0 163 117.5 281.5t282.5 118.5h300q163 0 281.5 -119t118.5 -281v-300q0 -165 -117.5 -282.5t-282.5 -117.5h-300q-165 0 -282.5 117.5t-117.5 282.5zM200 300q0 -41 29.5 -70.5t70.5 -29.5h500q41 0 70.5 29.5t29.5 70.5v500q0 41 -29.5 70.5t-70.5 29.5 h-500q-41 0 -70.5 -29.5t-29.5 -70.5v-500zM300 700l250 -333l250 333h-500z" />
</g>
</svg>	
