<?xml version="1.0" encoding="ISO-8859-1"?>
<!-- Converted from Font Awesome. Glyph: e026 -->
<!DOCTYPE svg PUBLIC "-//W3C//DTD SVG 1.1//EN" "http://www.w3.org/Graphics/SVG/1.1/DTD/svg11.dtd">
<svg version="1.1" xmlns="http://www.w3.org/2000/svg" xmlns:xlink="http://www.w3.org/1999/xlink" width="1600" height="1600" xml:space="preserve">
<g transform="translate(200, 1400) scale(1, -1)">
	<path id="download" d="M1 600q0 122 47.5 233t127.5 191t191 127.5t233 47.5t233 -47.5t191 -127.5t127.5 -191t47.5 -233t-47.5 -233t-127.5 -191t-191 -127.5t-233 -47.5t-233 47.5t-191 127.5t-127.5 191t-47.5 233zM188 600q0 -170 121 -291t291 -121t291 121t121 291t-121 291t-291 121 t-291 -121t-121 -291zM350 600h150v300h200v-300h150l-250 -300z" />
</g>
</svg>	
