<?xml version="1.0" encoding="ISO-8859-1"?>
<!-- Converted from Font Awesome. Glyph: e182 -->
<!DOCTYPE svg PUBLIC "-//W3C//DTD SVG 1.1//EN" "http://www.w3.org/Graphics/SVG/1.1/DTD/svg11.dtd">
<svg version="1.1" xmlns="http://www.w3.org/2000/svg" xmlns:xlink="http://www.w3.org/1999/xlink" width="1600" height="1600" xml:space="preserve">
<g transform="translate(200, 1400) scale(1, -1)">
	<path id="earphone" d="M16.5 974.5q0.5 -21.5 16 -90t46.5 -140t104 -177.5t175 -208q103 -103 207.5 -176t180 -103.5t137 -47t92.5 -16.5l31 1l163 162q17 18 13.5 41t-22.5 37l-192 136q-19 14 -45 12t-42 -19l-118 -118q-142 101 -268 227t-227 268l118 118q17 17 20 41.5t-11 44.5 l-139 194q-14 19 -36.5 22t-40.5 -14l-162 -162q-1 -11 -0.5 -32.5z" />
</g>
</svg>	
