<?xml version="1.0" encoding="ISO-8859-1"?>
<!-- Converted from Font Awesome. Glyph: 20ac -->
<!DOCTYPE svg PUBLIC "-//W3C//DTD SVG 1.1//EN" "http://www.w3.org/Graphics/SVG/1.1/DTD/svg11.dtd">
<svg version="1.1" xmlns="http://www.w3.org/2000/svg" xmlns:xlink="http://www.w3.org/1999/xlink" width="1600" height="1600" xml:space="preserve">
<g transform="translate(200, 1400) scale(1, -1)">
	<path id="euro" d="M100 500l100 100h113q0 47 5 100h-218l100 100h135q37 167 112 257q117 141 297 141q242 0 354 -189q60 -103 66 -209h-181q0 55 -25.5 99t-63.5 68t-75 36.5t-67 12.5q-24 0 -52.5 -10t-62.5 -32t-65.5 -67t-50.5 -107h379l-100 -100h-300q-6 -46 -6 -100h406l-100 -100 h-300q9 -74 33 -132t52.5 -91t62 -54.5t59 -29t46.5 -7.5q29 0 66 13t75 37t63.5 67.5t25.5 96.5h174q-31 -172 -128 -278q-107 -117 -274 -117q-205 0 -324 158q-36 46 -69 131.5t-45 205.5h-217z" />
</g>
</svg>	
