<?xml version="1.0" encoding="ISO-8859-1"?>
<!-- Converted from Font Awesome. Glyph: e105 -->
<!DOCTYPE svg PUBLIC "-//W3C//DTD SVG 1.1//EN" "http://www.w3.org/Graphics/SVG/1.1/DTD/svg11.dtd">
<svg version="1.1" xmlns="http://www.w3.org/2000/svg" xmlns:xlink="http://www.w3.org/1999/xlink" width="1600" height="1600" xml:space="preserve">
<g transform="translate(200, 1400) scale(1, -1)">
	<path id="eye-open" d="M-61 600l26 40q6 10 20 30t49 63.5t74.5 85.5t97 90t116.5 83.5t132.5 59t145.5 23.5t145.5 -23.5t132.5 -59t116.5 -83.5t97 -90t74.5 -85.5t49 -63.5t20 -30l26 -40l-26 -40q-6 -10 -20 -30t-49 -63.5t-74.5 -85.5t-97 -90t-116.5 -83.5t-132.5 -59t-145.5 -23.5 t-145.5 23.5t-132.5 59t-116.5 83.5t-97 90t-74.5 85.5t-49 63.5t-20 30zM120 600q7 -10 40.5 -58t56 -78.5t68 -77.5t87.5 -75t103 -49.5t125 -21.5t123.5 20t100.5 45.5t85.5 71.5t66.5 75.5t58 81.5t47 66q-1 1 -28.5 37.5t-42 55t-43.5 53t-57.5 63.5t-58.5 54 q49 -74 49 -163q0 -124 -88 -212t-212 -88t-212 88t-88 212q0 85 46 158q-102 -87 -226 -258zM377 656q49 -124 154 -191l105 105q-37 24 -75 72t-57 84l-20 36z" />
</g>
</svg>	
