<?xml version="1.0" encoding="ISO-8859-1"?>
<!-- Converted from Font Awesome. Glyph: e106 -->
<!DOCTYPE svg PUBLIC "-//W3C//DTD SVG 1.1//EN" "http://www.w3.org/Graphics/SVG/1.1/DTD/svg11.dtd">
<svg version="1.1" xmlns="http://www.w3.org/2000/svg" xmlns:xlink="http://www.w3.org/1999/xlink" width="1600" height="1600" xml:space="preserve">
<g transform="translate(200, 1400) scale(1, -1)">
	<path id="eye-close" d="M-61 600l26 40q6 10 20 30t49 63.5t74.5 85.5t97 90t116.5 83.5t132.5 59t145.5 23.5q61 0 121 -17l37 142h148l-314 -1200h-148l37 143q-82 21 -165 71.5t-140 102t-109.5 112t-72 88.5t-29.5 43zM120 600q210 -282 393 -336l37 141q-107 18 -178.5 101.5t-71.5 193.5 q0 85 46 158q-102 -87 -226 -258zM377 656q49 -124 154 -191l47 47l23 87q-30 28 -59 69t-44 68l-14 26zM780 161l38 145q22 15 44.5 34t46 44t40.5 44t41 50.5t33.5 43.5t33 44t24.5 34q-97 127 -140 175l39 146q67 -54 131.5 -125.5t87.5 -103.5t36 -52l26 -40l-26 -40 q-7 -12 -25.5 -38t-63.5 -79.5t-95.5 -102.5t-124 -100t-146.5 -79z" />
</g>
</svg>	
