<?xml version="1.0" encoding="ISO-8859-1"?>
<!-- Converted from Font Awesome. Glyph: e065 -->
<!DOCTYPE svg PUBLIC "-//W3C//DTD SVG 1.1//EN" "http://www.w3.org/Graphics/SVG/1.1/DTD/svg11.dtd">
<svg version="1.1" xmlns="http://www.w3.org/2000/svg" xmlns:xlink="http://www.w3.org/1999/xlink" width="1600" height="1600" xml:space="preserve">
<g transform="translate(200, 1400) scale(1, -1)">
	<path id="edit" d="M0 400v300q0 165 117.5 282.5t282.5 117.5q366 -6 397 -14l-186 -186h-311q-41 0 -70.5 -29.5t-29.5 -70.5v-500q0 -41 29.5 -70.5t70.5 -29.5h500q41 0 70.5 29.5t29.5 70.5v125l200 200v-225q0 -165 -117.5 -282.5t-282.5 -117.5h-300q-165 0 -282.5 117.5 t-117.5 282.5zM436 341l161 50l412 412l-114 113l-405 -405zM995 1015l113 -113l113 113l-21 85l-92 28z" />
</g>
</svg>	
