<?xml version="1.0" encoding="ISO-8859-1"?>
<!-- Converted from Font Awesome. Glyph: e101 -->
<!DOCTYPE svg PUBLIC "-//W3C//DTD SVG 1.1//EN" "http://www.w3.org/Graphics/SVG/1.1/DTD/svg11.dtd">
<svg version="1.1" xmlns="http://www.w3.org/2000/svg" xmlns:xlink="http://www.w3.org/1999/xlink" width="1600" height="1600" xml:space="preserve">
<g transform="translate(200, 1400) scale(1, -1)">
	<path id="exclamation-sign" d="M23 600q0 118 45.5 224.5t123 184t184 123t224.5 45.5t224.5 -45.5t184 -123t123 -184t45.5 -224.5t-45.5 -224.5t-123 -184t-184 -123t-224.5 -45.5t-224.5 45.5t-184 123t-123 184t-45.5 224.5zM456 851l58 -302q4 -20 21.5 -34.5t37.5 -14.5h54q20 0 37.5 14.5 t21.5 34.5l58 302q4 20 -8 34.5t-33 14.5h-207q-20 0 -32 -14.5t-8 -34.5zM500 300h200v100h-200v-100z" />
</g>
</svg>	
