<?xml version="1.0" encoding="ISO-8859-1"?>
<!-- Converted from Font Awesome. Glyph: e162 -->
<!DOCTYPE svg PUBLIC "-//W3C//DTD SVG 1.1//EN" "http://www.w3.org/Graphics/SVG/1.1/DTD/svg11.dtd">
<svg version="1.1" xmlns="http://www.w3.org/2000/svg" xmlns:xlink="http://www.w3.org/1999/xlink" width="1600" height="1600" xml:space="preserve">
<g transform="translate(200, 1400) scale(1, -1)">
	<path id="flash" d="M216 519q10 -19 32 -19h302q-155 -438 -160 -458q-5 -21 4 -32l9 -8l9 -1q13 0 26 16l538 630q15 19 6 36q-8 18 -32 16h-300q1 4 78 219.5t79 227.5q2 17 -6 27l-8 8h-9q-16 0 -25 -15q-4 -5 -98.5 -111.5t-228 -257t-209.5 -238.5q-17 -19 -7 -40z" />
</g>
</svg>	
