<?xml version="1.0" encoding="ISO-8859-1"?>
<!-- Converted from Font Awesome. Glyph: e009 -->
<!DOCTYPE svg PUBLIC "-//W3C//DTD SVG 1.1//EN" "http://www.w3.org/Graphics/SVG/1.1/DTD/svg11.dtd">
<svg version="1.1" xmlns="http://www.w3.org/2000/svg" xmlns:xlink="http://www.w3.org/1999/xlink" width="1600" height="1600" xml:space="preserve">
<g transform="translate(200, 1400) scale(1, -1)">
	<path id="film" d="M0 0v1100h1200v-1100h-1200zM100 100h100v100h-100v-100zM100 300h100v100h-100v-100zM100 500h100v100h-100v-100zM100 700h100v100h-100v-100zM100 900h100v100h-100v-100zM300 100h600v400h-600v-400zM300 600h600v400h-600v-400zM1000 100h100v100h-100v-100z M1000 300h100v100h-100v-100zM1000 500h100v100h-100v-100zM1000 700h100v100h-100v-100zM1000 900h100v100h-100v-100z" />
</g>
</svg>	
