<?xml version="1.0" encoding="ISO-8859-1"?>
<!-- Converted from Font Awesome. Glyph: e174 -->
<!DOCTYPE svg PUBLIC "-//W3C//DTD SVG 1.1//EN" "http://www.w3.org/Graphics/SVG/1.1/DTD/svg11.dtd">
<svg version="1.1" xmlns="http://www.w3.org/2000/svg" xmlns:xlink="http://www.w3.org/1999/xlink" width="1600" height="1600" xml:space="preserve">
<g transform="translate(200, 1400) scale(1, -1)">
	<path id="floppy-remove" d="M0 150v1000q0 20 14.5 35t35.5 15h250v-300h500v300h100l200 -200v-269l-103 -103l-170 170l-298 -298h-329v-400h-150q-21 0 -35.5 14.5t-14.5 35.5zM600 1000h100v200h-100v-200zM700 133l170 170l-170 170l127 127l170 -170l170 170l127 -128l-170 -169l170 -170 l-127 -127l-170 170l-170 -170z" />
</g>
</svg>	
