<?xml version="1.0" encoding="ISO-8859-1"?>
<!-- Converted from Font Awesome. Glyph: e162 -->
<!DOCTYPE svg PUBLIC "-//W3C//DTD SVG 1.1//EN" "http://www.w3.org/Graphics/SVG/1.1/DTD/svg11.dtd">
<svg version="1.1" xmlns="http://www.w3.org/2000/svg" xmlns:xlink="http://www.w3.org/1999/xlink" width="1600" height="1600" xml:space="preserve">
<g transform="translate(200, 1400) scale(1, -1)">
	<path id="flash" d="M217 519q8 -19 31 -19h302q-155 -438 -160 -458q-5 -21 4 -32l9 -8h9q14 0 26 15q11 13 274.5 321.5t264.5 308.5q14 19 5 36q-8 17 -31 17l-301 -1q1 4 78 219.5t79 227.5q2 15 -5 27l-9 9h-9q-15 0 -25 -16q-4 -6 -98 -111.5t-228.5 -257t-209.5 -237.5q-16 -19 -6 -41 z" />
</g>
</svg>	
