<?xml version="1.0" encoding="ISO-8859-1"?>
<!-- Converted from Font Awesome. Glyph: e104 -->
<!DOCTYPE svg PUBLIC "-//W3C//DTD SVG 1.1//EN" "http://www.w3.org/Graphics/SVG/1.1/DTD/svg11.dtd">
<svg version="1.1" xmlns="http://www.w3.org/2000/svg" xmlns:xlink="http://www.w3.org/1999/xlink" width="1600" height="1600" xml:space="preserve">
<g transform="translate(200, 1400) scale(1, -1)">
	<path id="fire" d="M111 408q0 -33 5 -63q9 -56 44 -119.5t105 -108.5q31 -21 64 -16t62 23.5t57 49.5t48 61.5t35 60.5q32 66 39 184.5t-13 157.5q79 -80 122 -164t26 -184q-5 -33 -20.5 -69.5t-37.5 -80.5q-10 -19 -14.5 -29t-12 -26t-9 -23.5t-3 -19t2.5 -15.5t11 -9.5t19.5 -5t30.5 2.5 t42 8q57 20 91 34t87.5 44.5t87 64t65.5 88.5t47 122q38 172 -44.5 341.5t-246.5 278.5q22 -44 43 -129q39 -159 -32 -154q-15 2 -33 9q-79 33 -120.5 100t-44 175.5t48.5 257.5q-13 -8 -34 -23.5t-72.5 -66.5t-88.5 -105.5t-60 -138t-8 -166.5q2 -12 8 -41.5t8 -43t6 -39.5 t3.5 -39.5t-1 -33.5t-6 -31.5t-13.5 -24t-21 -20.5t-31 -12q-38 -10 -67 13t-40.5 61.5t-15 81.5t10.5 75q-52 -46 -83.5 -101t-39 -107t-7.5 -85z" />
</g>
</svg>	
