<?xml version="1.0" encoding="ISO-8859-1"?>
<!-- Converted from Font Awesome. Glyph: e047 -->
<!DOCTYPE svg PUBLIC "-//W3C//DTD SVG 1.1//EN" "http://www.w3.org/Graphics/SVG/1.1/DTD/svg11.dtd">
<svg version="1.1" xmlns="http://www.w3.org/2000/svg" xmlns:xlink="http://www.w3.org/1999/xlink" width="1600" height="1600" xml:space="preserve">
<g transform="translate(200, 1400) scale(1, -1)">
	<path id="font" d="M53 0h365v66q-41 0 -72 11t-49 38t1 71l92 234h391l82 -222q16 -45 -5.5 -88.5t-74.5 -43.5v-66h417v66q-34 1 -74 43q-18 19 -33 42t-21 37l-6 13l-385 998h-93l-399 -1006q-24 -48 -52 -75q-12 -12 -33 -25t-36 -20l-15 -7v-66zM416 521l178 457l46 -140l116 -317h-340 z" />
</g>
</svg>	
