<?xml version="1.0" encoding="ISO-8859-1"?>
<!-- Converted from Font Awesome. Glyph: e135 -->
<!DOCTYPE svg PUBLIC "-//W3C//DTD SVG 1.1//EN" "http://www.w3.org/Graphics/SVG/1.1/DTD/svg11.dtd">
<svg version="1.1" xmlns="http://www.w3.org/2000/svg" xmlns:xlink="http://www.w3.org/1999/xlink" width="1600" height="1600" xml:space="preserve">
<g transform="translate(200, 1400) scale(1, -1)">
	<path id="globe" d="M5 597q0 122 47.5 232.5t127.5 190.5t190.5 127.5t232.5 47.5q121 0 231.5 -47.5t190.5 -127.5t127.5 -190.5t47.5 -232.5q0 -162 -80 -299.5t-217.5 -217.5t-299.5 -80t-300 80t-218 217.5t-80 299.5zM254 780q-8 -33 5.5 -92.5t7.5 -87.5q0 -9 17 -44t16 -60 q12 0 23 -5.5t23 -15t20 -13.5q24 -12 108 -42q22 -8 53 -31.5t59.5 -38.5t57.5 -11q8 -18 -15 -55t-20 -57q42 -71 87 -80q0 -6 -3 -15.5t-3.5 -14.5t4.5 -17q104 -3 221 112q30 29 47 47t34.5 49t20.5 62q-14 9 -37 9.5t-36 7.5q-14 7 -49 15t-52 19q-9 0 -39.5 -0.5 t-46.5 -1.5t-39 -6.5t-39 -16.5q-50 -35 -66 -12q-4 2 -3.5 25.5t0.5 25.5q-6 13 -26.5 17t-24.5 7q2 22 -2 41t-16.5 28t-38.5 -20q-23 -25 -42 4q-19 28 -8 58q6 16 22 22q6 -1 26 -1.5t33.5 -4t19.5 -13.5q12 -19 32 -37.5t34 -27.5l14 -8q0 3 9.5 39.5t5.5 57.5 q-4 23 14.5 44.5t22.5 31.5q5 14 10 35t8.5 31t15.5 22.5t34 21.5q-6 18 10 37q8 0 23.5 -1.5t24.5 -1.5t20.5 4.5t20.5 15.5q-10 23 -30.5 42.5t-38 30t-49 26.5t-43.5 23q11 39 2 44q31 -13 58 -14.5t39 3.5l11 4q7 36 -16.5 53.5t-64.5 28.5t-56 23q-19 -3 -37 0 q-15 -12 -36.5 -21t-34.5 -12t-44 -8t-39 -6q-15 -3 -45.5 0.5t-45.5 -2.5q-21 -7 -52 -26.5t-34 -34.5q-3 -11 6.5 -22.5t8.5 -18.5q-3 -34 -27.5 -90.5t-29.5 -79.5zM518 916q3 12 16 30t16 25q10 -10 18.5 -10t14 6t14.5 14.5t16 12.5q0 -24 17 -66.5t17 -43.5 q-9 2 -31 5t-36 5t-32 8t-30 14zM692 1003h1h-1z" />
</g>
</svg>	
