<?xml version="1.0" encoding="ISO-8859-1"?>
<!-- Converted from Font Awesome. Glyph: e102 -->
<!DOCTYPE svg PUBLIC "-//W3C//DTD SVG 1.1//EN" "http://www.w3.org/Graphics/SVG/1.1/DTD/svg11.dtd">
<svg version="1.1" xmlns="http://www.w3.org/2000/svg" xmlns:xlink="http://www.w3.org/1999/xlink" width="1600" height="1600" xml:space="preserve">
<g transform="translate(200, 1400) scale(1, -1)">
	<path id="gift" d="M0 800h100v-200h400v300h200v-300h400v200h100v100h-111v6t-1 15t-3 18l-34 172q-11 39 -41.5 63t-69.5 24q-32 0 -61 -17l-239 -144q-22 -13 -40 -35q-19 24 -40 36l-238 144q-33 18 -62 18q-39 0 -69.5 -23t-40.5 -61l-35 -177q-2 -8 -3 -18t-1 -15v-6h-111v-100z M100 0h400v400h-400v-400zM200 900q-3 0 14 48t35 96l18 47l214 -191h-281zM700 0v400h400v-400h-400zM731 900l202 197q5 -12 12 -32.5t23 -64t25 -72t7 -28.5h-269z" />
</g>
</svg>	
