<?xml version="1.0" encoding="ISO-8859-1"?>
<!-- Converted from Font Awesome. Glyph: e135 -->
<!DOCTYPE svg PUBLIC "-//W3C//DTD SVG 1.1//EN" "http://www.w3.org/Graphics/SVG/1.1/DTD/svg11.dtd">
<svg version="1.1" xmlns="http://www.w3.org/2000/svg" xmlns:xlink="http://www.w3.org/1999/xlink" width="1600" height="1600" xml:space="preserve">
<g transform="translate(200, 1400) scale(1, -1)">
	<path id="globe" d="M5 597q0 122 47.5 232.5t127.5 190.5t190.5 127.5t232.5 47.5q121 0 231.5 -47.5t190.5 -127.5t127.5 -190.5t47.5 -232.5q0 -162 -80 -299.5t-217.5 -217.5t-299.5 -80t-300 80t-218 217.5t-80 299.5zM254 780q-8 -34 5.5 -93t7.5 -87q0 -9 17 -44t16 -60q12 0 23 -5.5 t23 -15t20 -13.5q20 -10 108 -42q22 -8 53 -31.5t59.5 -38.5t57.5 -11q8 -18 -15 -55.5t-20 -57.5q12 -21 22.5 -34.5t28 -27t36.5 -17.5q0 -6 -3 -15.5t-3.5 -14.5t4.5 -17q101 -2 221 111q31 30 47 48t34 49t21 62q-14 9 -37.5 9.5t-35.5 7.5q-14 7 -49 15t-52 19 q-9 0 -39.5 -0.5t-46.5 -1.5t-39 -6.5t-39 -16.5q-50 -35 -66 -12q-4 2 -3.5 25.5t0.5 25.5q-6 13 -26.5 17t-24.5 7q2 22 -2 41t-16.5 28t-38.5 -20q-23 -25 -42 4q-19 28 -8 58q8 16 22 22q6 -1 26 -1.5t33.5 -4.5t19.5 -13q12 -19 32 -37.5t34 -27.5l14 -8q0 3 9.5 39.5 t5.5 57.5q-4 23 14.5 44.5t22.5 31.5q5 14 10 35t8.5 31t15.5 22.5t34 21.5q-6 18 10 37q8 0 23.5 -1.5t24.5 -1.5t20.5 4.5t20.5 15.5q-10 23 -30.5 42.5t-38 30t-49 26.5t-43.5 23q11 41 1 44q31 -13 58.5 -14.5t39.5 3.5l11 4q6 36 -17 53.5t-64 28.5t-56 23 q-19 -3 -37 0q-15 -12 -36.5 -21t-34.5 -12t-44 -8t-39 -6q-15 -3 -46 0t-45 -3q-20 -6 -51.5 -25.5t-34.5 -34.5q-3 -11 6.5 -22.5t8.5 -18.5q-3 -34 -27.5 -91t-29.5 -79zM518 915q3 12 16 30.5t16 25.5q10 -10 18.5 -10t14 6t14.5 14.5t16 12.5q0 -18 8 -42.5t16.5 -44 t9.5 -23.5q-6 1 -39 5t-53.5 10t-36.5 16z" />
</g>
</svg>	
