<?xml version="1.0" encoding="ISO-8859-1"?>
<!-- Converted from Font Awesome. Glyph: e149 -->
<!DOCTYPE svg PUBLIC "-//W3C//DTD SVG 1.1//EN" "http://www.w3.org/Graphics/SVG/1.1/DTD/svg11.dtd">
<svg version="1.1" xmlns="http://www.w3.org/2000/svg" xmlns:xlink="http://www.w3.org/1999/xlink" width="1600" height="1600" xml:space="preserve">
<g transform="translate(200, 1400) scale(1, -1)">
	<path id="gbp" d="M100 600v100h166q-24 49 -44 104q-10 26 -14.5 55.5t-3 72.5t25 90t68.5 87q97 88 263 88q129 0 230 -89t101 -208h-153q0 52 -34 89.5t-74 51.5t-76 14q-37 0 -79 -14.5t-62 -35.5q-41 -44 -41 -101q0 -11 2.5 -24.5t5.5 -24t9.5 -26.5t10.5 -25t14 -27.5t14 -25.5 t15.5 -27t13.5 -24h242v-100h-197q8 -50 -2.5 -115t-31.5 -94q-41 -59 -99 -113q35 11 84 18t70 7q32 1 102 -16t104 -17q76 0 136 30l50 -147q-41 -25 -80.5 -36.5t-59 -13t-61.5 -1.5q-23 0 -128 33t-155 29q-39 -4 -82 -17t-66 -25l-24 -11l-55 145l16.5 11t15.5 10 t13.5 9.5t14.5 12t14.5 14t17.5 18.5q48 55 54 126.5t-30 142.5h-221z" />
</g>
</svg>	
