<?xml version="1.0" encoding="ISO-8859-1"?>
<!-- Converted from Font Awesome. Glyph: e127 -->
<!DOCTYPE svg PUBLIC "-//W3C//DTD SVG 1.1//EN" "http://www.w3.org/Graphics/SVG/1.1/DTD/svg11.dtd">
<svg version="1.1" xmlns="http://www.w3.org/2000/svg" xmlns:xlink="http://www.w3.org/1999/xlink" width="1600" height="1600" xml:space="preserve">
<g transform="translate(200, 1400) scale(1, -1)">
	<path id="hand-right" d="M8 200v600h200v-600h-200zM308 275v525q0 17 14 35.5t28 28.5l14 9l362 230q14 6 25 6q17 0 29 -12l109 -112q14 -14 14 -34q0 -18 -11 -32l-85 -121h302q85 0 138.5 -38t53.5 -110t-54.5 -111t-138.5 -39h-107l-130 -339q-7 -22 -20.5 -41.5t-28.5 -19.5h-341 q-7 0 -90 81t-83 94zM408 289l100 -89h293l131 339q6 21 19.5 41t28.5 20h203q16 0 25 15t9 36q0 20 -9 34.5t-25 14.5h-457h-6.5h-7.5t-6.5 0.5t-6 1t-5 1.5t-5.5 2.5t-4 4t-4 5.5q-5 12 -5 20q0 14 10 27l147 183l-86 83l-339 -236v-503z" />
</g>
</svg>	
