<?xml version="1.0" encoding="ISO-8859-1"?>
<!-- Converted from Font Awesome. Glyph: e130 -->
<!DOCTYPE svg PUBLIC "-//W3C//DTD SVG 1.1//EN" "http://www.w3.org/Graphics/SVG/1.1/DTD/svg11.dtd">
<svg version="1.1" xmlns="http://www.w3.org/2000/svg" xmlns:xlink="http://www.w3.org/1999/xlink" width="1600" height="1600" xml:space="preserve">
<g transform="translate(200, 1400) scale(1, -1)">
	<path id="hand-down" d="M2 585q-16 -31 6 -53l112 -110q13 -13 32 -13.5t34 10.5l121 85q0 -51 -0.5 -153.5t-0.5 -148.5q0 -84 38.5 -138t110.5 -54t111 55t39 139v106l339 131q20 6 40.5 19.5t20.5 28.5v342q0 7 -81 90t-94 83h-525q-17 0 -35.5 -14t-28.5 -28l-10 -15zM77 565l236 339h503 l89 -100v-294l-340 -130q-20 -6 -40 -20t-20 -29v-202q0 -22 -25 -31t-50 0t-25 31v456v14.5t-1.5 11.5t-5 12t-9.5 7q-24 13 -46 -5l-184 -146zM305 1104v200h600v-200h-600z" />
</g>
</svg>	
