<?xml version="1.0" encoding="ISO-8859-1"?>
<!-- Converted from Font Awesome. Glyph: e143 -->
<!DOCTYPE svg PUBLIC "-//W3C//DTD SVG 1.1//EN" "http://www.w3.org/Graphics/SVG/1.1/DTD/svg11.dtd">
<svg version="1.1" xmlns="http://www.w3.org/2000/svg" xmlns:xlink="http://www.w3.org/1999/xlink" width="1600" height="1600" xml:space="preserve">
<g transform="translate(200, 1400) scale(1, -1)">
	<path id="heart-empty" d="M80 784q0 131 98.5 229.5t230.5 98.5q143 0 241 -129q103 129 246 129q129 0 226 -98.5t97 -229.5q0 -46 -17.5 -91t-61 -99t-77 -89.5t-104.5 -105.5q-197 -191 -293 -322l-17 -23l-16 23q-43 58 -100 122.5t-92 99.5t-101 100q-71 70 -104.5 105.5t-77 89.5t-61 99 t-17.5 91zM250 784q0 -27 30.5 -70t61.5 -75.5t95 -94.5l22 -22q93 -90 190 -201q82 92 195 203l12 12q64 62 97.5 97t64.5 79t31 72q0 71 -48 119.5t-105 48.5q-74 0 -132 -83l-118 -171l-114 174q-51 80 -123 80q-60 0 -109.5 -49.5t-49.5 -118.5z" />
</g>
</svg>	
