<?xml version="1.0" encoding="ISO-8859-1"?>
<!-- Converted from Font Awesome. Glyph: e129 -->
<!DOCTYPE svg PUBLIC "-//W3C//DTD SVG 1.1//EN" "http://www.w3.org/Graphics/SVG/1.1/DTD/svg11.dtd">
<svg version="1.1" xmlns="http://www.w3.org/2000/svg" xmlns:xlink="http://www.w3.org/1999/xlink" width="1600" height="1600" xml:space="preserve">
<g transform="translate(200, 1400) scale(1, -1)">
	<path id="hand-up" d="M97 719l230 -363q4 -6 10.5 -15.5t26 -25t36.5 -15.5h525q13 0 94 83t81 90v342q0 15 -20 28.5t-41 19.5l-339 131v106q0 84 -39 139t-111 55t-110 -53.5t-38 -138.5v-302l-121 84q-15 12 -33.5 11.5t-32.5 -13.5l-112 -110q-22 -22 -6 -53zM172 739l83 86l183 -146 q22 -18 47 -5q3 1 5.5 3.5l4 4t2.5 5t1.5 5.5t1 6.5t0.5 6v7.5v7v456q0 22 25 31t50 -0.5t25 -30.5v-202q0 -16 20 -29.5t41 -19.5l339 -130v-294l-89 -100h-503zM400 0v200h600v-200h-600z" />
</g>
</svg>	
