<?xml version="1.0" encoding="ISO-8859-1"?>
<!-- Converted from Font Awesome. Glyph: e035 -->
<!DOCTYPE svg PUBLIC "-//W3C//DTD SVG 1.1//EN" "http://www.w3.org/Graphics/SVG/1.1/DTD/svg11.dtd">
<svg version="1.1" xmlns="http://www.w3.org/2000/svg" xmlns:xlink="http://www.w3.org/1999/xlink" width="1600" height="1600" xml:space="preserve">
<g transform="translate(200, 1400) scale(1, -1)">
	<path id="headphones" d="M0 275q0 -11 7 -18t18 -7h50q11 0 18 7t7 18v300q0 127 70.5 231.5t184.5 161.5t245 57t245 -57t184.5 -161.5t70.5 -231.5v-300q0 -11 7 -18t18 -7h50q11 0 18 7t7 18v300q0 116 -49.5 227t-131 192.5t-192.5 131t-227 49.5t-227 -49.5t-192.5 -131t-131 -192.5 t-49.5 -227v-300zM200 20v460q0 8 6 14t14 6h160q8 0 14 -6t6 -14v-460q0 -8 -6 -14t-14 -6h-160q-8 0 -14 6t-6 14zM800 20v460q0 8 6 14t14 6h160q8 0 14 -6t6 -14v-460q0 -8 -6 -14t-14 -6h-160q-8 0 -14 6t-6 14z" />
</g>
</svg>	
