<?xml version="1.0" encoding="ISO-8859-1"?>
<!-- Converted from Font Awesome. Glyph: e121 -->
<!DOCTYPE svg PUBLIC "-//W3C//DTD SVG 1.1//EN" "http://www.w3.org/Graphics/SVG/1.1/DTD/svg11.dtd">
<svg version="1.1" xmlns="http://www.w3.org/2000/svg" xmlns:xlink="http://www.w3.org/1999/xlink" width="1600" height="1600" xml:space="preserve">
<g transform="translate(200, 1400) scale(1, -1)">
	<path id="hdd" d="M0 100v100q0 41 29.5 70.5t70.5 29.5h1000q41 0 70.5 -29.5t29.5 -70.5v-100q0 -41 -29.5 -70.5t-70.5 -29.5h-1000q-41 0 -70.5 29.5t-29.5 70.5zM31 400l172 739q5 22 23 41.5t38 19.5h672q19 0 37.5 -22.5t23.5 -45.5l172 -732h-1138zM800 100h100v100h-100v-100z M1000 100h100v100h-100v-100z" />
</g>
</svg>	
