<?xml version="1.0" encoding="ISO-8859-1"?>
<!-- Converted from Font Awesome. Glyph: e128 -->
<!DOCTYPE svg PUBLIC "-//W3C//DTD SVG 1.1//EN" "http://www.w3.org/Graphics/SVG/1.1/DTD/svg11.dtd">
<svg version="1.1" xmlns="http://www.w3.org/2000/svg" xmlns:xlink="http://www.w3.org/1999/xlink" width="1600" height="1600" xml:space="preserve">
<g transform="translate(200, 1400) scale(1, -1)">
	<path id="hand-left" d="M-101 651q0 72 54 110t139 37h302l-85 121q-11 16 -11 32q0 21 14 34l109 113q13 12 29 12q11 0 25 -6l365 -230q7 -4 16.5 -10.5t26 -26t16.5 -36.5v-526q0 -13 -85.5 -93.5t-93.5 -80.5h-342q-15 0 -28.5 20t-19.5 41l-131 339h-106q-84 0 -139 39t-55 111zM-1 601h222 q15 0 28.5 -20.5t19.5 -40.5l131 -339h293l106 89v502l-342 237l-87 -83l145 -184q10 -11 10 -26q0 -11 -5 -20q-1 -3 -3.5 -5.5l-4 -4t-5 -2.5t-5.5 -1.5t-6.5 -1t-6.5 -0.5h-7.5h-6.5h-476v-100zM999 201v600h200v-600h-200z" />
</g>
</svg>	
