<?xml version="1.0" encoding="ISO-8859-1"?>
<!-- Converted from Font Awesome. Glyph: e180 -->
<!DOCTYPE svg PUBLIC "-//W3C//DTD SVG 1.1//EN" "http://www.w3.org/Graphics/SVG/1.1/DTD/svg11.dtd">
<svg version="1.1" xmlns="http://www.w3.org/2000/svg" xmlns:xlink="http://www.w3.org/1999/xlink" width="1600" height="1600" xml:space="preserve">
<g transform="translate(200, 1400) scale(1, -1)">
	<path id="header" d="M100 0h400v56q-75 0 -87.5 6t-12.5 44v394h500v-394q0 -38 -12.5 -44t-87.5 -6v-56h400v56q-4 0 -11 0.5t-24 3t-30 7t-24 15t-11 24.5v888q0 22 25 34.5t50 13.5l25 2v56h-400v-56q75 0 87.5 -6t12.5 -44v-394h-500v394q0 38 12.5 44t87.5 6v56h-400v-56q4 0 11 -0.5 t24 -3t30 -7t24 -15t11 -24.5v-888q0 -22 -25 -34.5t-50 -13.5l-25 -2v-56z" />
</g>
</svg>	
