<?xml version="1.0" encoding="ISO-8859-1"?>
<!-- Converted from Font Awesome. Glyph: e056 -->
<!DOCTYPE svg PUBLIC "-//W3C//DTD SVG 1.1//EN" "http://www.w3.org/Graphics/SVG/1.1/DTD/svg11.dtd">
<svg version="1.1" xmlns="http://www.w3.org/2000/svg" xmlns:xlink="http://www.w3.org/1999/xlink" width="1600" height="1600" xml:space="preserve">
<g transform="translate(200, 1400) scale(1, -1)">
	<path id="list" d="M0 50v100q0 21 14.5 35.5t35.5 14.5h100q21 0 35.5 -14.5t14.5 -35.5v-100q0 -20 -14.5 -35t-35.5 -15h-100q-21 0 -35.5 15t-14.5 35zM0 350v100q0 21 14.5 35.5t35.5 14.5h100q21 0 35.5 -14.5t14.5 -35.5v-100q0 -20 -14.5 -35t-35.5 -15h-100q-21 0 -35.5 15 t-14.5 35zM0 650v100q0 21 14.5 35.5t35.5 14.5h100q21 0 35.5 -14.5t14.5 -35.5v-100q0 -20 -14.5 -35t-35.5 -15h-100q-21 0 -35.5 15t-14.5 35zM0 950v100q0 21 14.5 35.5t35.5 14.5h100q21 0 35.5 -14.5t14.5 -35.5v-100q0 -20 -14.5 -35t-35.5 -15h-100q-21 0 -35.5 15 t-14.5 35zM300 50v100q0 21 14.5 35.5t35.5 14.5h800q21 0 35.5 -14.5t14.5 -35.5v-100q0 -20 -14.5 -35t-35.5 -15h-800q-21 0 -35.5 15t-14.5 35zM300 350v100q0 21 14.5 35.5t35.5 14.5h800q21 0 35.5 -14.5t14.5 -35.5v-100q0 -20 -14.5 -35t-35.5 -15h-800 q-21 0 -35.5 15t-14.5 35zM300 650v100q0 21 14.5 35.5t35.5 14.5h800q21 0 35.5 -14.5t14.5 -35.5v-100q0 -20 -14.5 -35t-35.5 -15h-800q-21 0 -35.5 15t-14.5 35zM300 950v100q0 21 14.5 35.5t35.5 14.5h800q21 0 35.5 -14.5t14.5 -35.5v-100q0 -20 -14.5 -35t-35.5 -15 h-800q-21 0 -35.5 15t-14.5 35z" />
</g>
</svg>	
