<?xml version="1.0" encoding="ISO-8859-1"?>
<!-- Converted from Font Awesome. Glyph: e103 -->
<!DOCTYPE svg PUBLIC "-//W3C//DTD SVG 1.1//EN" "http://www.w3.org/Graphics/SVG/1.1/DTD/svg11.dtd">
<svg version="1.1" xmlns="http://www.w3.org/2000/svg" xmlns:xlink="http://www.w3.org/1999/xlink" width="1600" height="1600" xml:space="preserve">
<g transform="translate(200, 1400) scale(1, -1)">
	<path id="leaf" d="M0 -22v143l216 193q-9 53 -13 83t-5.5 94t9 113t38.5 114t74 124q47 60 99.5 102.5t103 68t127.5 48t145.5 37.5t184.5 43.5t220 58.5q0 -189 -22 -343t-59 -258t-89 -181.5t-108.5 -120t-122 -68t-125.5 -30t-121.5 -1.5t-107.5 12.5t-87.5 17t-56.5 7.5l-99 -55z M238.5 300.5q19.5 -6.5 86.5 76.5q55 66 367 234q70 38 118.5 69.5t102 79t99 111.5t86.5 148q22 50 24 60t-6 19q-7 5 -17 5t-26.5 -14.5t-33.5 -39.5q-35 -51 -113.5 -108.5t-139.5 -89.5l-61 -32q-369 -197 -458 -401q-48 -111 -28.5 -117.5z" />
</g>
</svg>	
