<?xml version="1.0" encoding="ISO-8859-1"?>
<!-- Converted from Font Awesome. Glyph: e144 -->
<!DOCTYPE svg PUBLIC "-//W3C//DTD SVG 1.1//EN" "http://www.w3.org/Graphics/SVG/1.1/DTD/svg11.dtd">
<svg version="1.1" xmlns="http://www.w3.org/2000/svg" xmlns:xlink="http://www.w3.org/1999/xlink" width="1600" height="1600" xml:space="preserve">
<g transform="translate(200, 1400) scale(1, -1)">
	<path id="link" d="M57 353q0 -94 66 -160l141 -141q66 -66 159 -66q95 0 159 66l283 283q66 66 66 159t-66 159l-141 141q-12 12 -19 17l-105 -105l212 -212l-389 -389l-247 248l95 95l-18 18q-46 45 -75 101l-55 -55q-66 -66 -66 -159zM269 706q0 -93 66 -159l141 -141l19 -17l105 105 l-212 212l389 389l247 -247l-95 -96l18 -18q46 -46 77 -99l29 29q35 35 62.5 88t27.5 96q0 93 -66 159l-141 141q-66 66 -159 66q-95 0 -159 -66l-283 -283q-66 -64 -66 -159z" />
</g>
</svg>	
