<?xml version="1.0" encoding="ISO-8859-1"?>
<!-- Converted from Font Awesome. Glyph: e163 -->
<!DOCTYPE svg PUBLIC "-//W3C//DTD SVG 1.1//EN" "http://www.w3.org/Graphics/SVG/1.1/DTD/svg11.dtd">
<svg version="1.1" xmlns="http://www.w3.org/2000/svg" xmlns:xlink="http://www.w3.org/1999/xlink" width="1600" height="1600" xml:space="preserve">
<g transform="translate(200, 1400) scale(1, -1)">
	<path id="log-out" d="M0 400q0 -165 117.5 -282.5t282.5 -117.5h300q47 0 100 15v185h-500q-41 0 -70.5 29.5t-29.5 70.5v500q0 41 29.5 70.5t70.5 29.5h500v185q-14 4 -114 7.5t-193 5.5l-93 2q-165 0 -282.5 -117.5t-117.5 -282.5v-300zM600 400v300h300v200l400 -350l-400 -350v200h-300z " />
</g>
</svg>	
