<?xml version="1.0" encoding="ISO-8859-1"?>
<!-- Converted from Font Awesome. Glyph: e032 -->
<!DOCTYPE svg PUBLIC "-//W3C//DTD SVG 1.1//EN" "http://www.w3.org/Graphics/SVG/1.1/DTD/svg11.dtd">
<svg version="1.1" xmlns="http://www.w3.org/2000/svg" xmlns:xlink="http://www.w3.org/1999/xlink" width="1600" height="1600" xml:space="preserve">
<g transform="translate(200, 1400) scale(1, -1)">
	<path id="list-alt" d="M100 0h1100v1200h-1100v-1200zM200 100v900h900v-900h-900zM300 200v100h100v-100h-100zM300 400v100h100v-100h-100zM300 600v100h100v-100h-100zM300 800v100h100v-100h-100zM500 200h500v100h-500v-100zM500 400v100h500v-100h-500zM500 600v100h500v-100h-500z M500 800v100h500v-100h-500z" />
</g>
</svg>	
