<?xml version="1.0" encoding="ISO-8859-1"?>
<!-- Converted from Font Awesome. Glyph: e002 -->
<!DOCTYPE svg PUBLIC "-//W3C//DTD SVG 1.1//EN" "http://www.w3.org/Graphics/SVG/1.1/DTD/svg11.dtd">
<svg version="1.1" xmlns="http://www.w3.org/2000/svg" xmlns:xlink="http://www.w3.org/1999/xlink" width="1600" height="1600" xml:space="preserve">
<g transform="translate(200, 1400) scale(1, -1)">
	<path id="music" d="M14 84q18 -55 86 -75.5t147 5.5q65 21 109 69t44 90v606l600 155v-521q-64 16 -138 -7q-79 -26 -122.5 -83t-25.5 -111q17 -55 85.5 -75.5t147.5 4.5q70 23 111.5 63.5t41.5 95.5v881q0 10 -7 15.5t-17 2.5l-752 -193q-10 -3 -17 -12.5t-7 -19.5v-689q-64 17 -138 -7 q-79 -25 -122.5 -82t-25.5 -112z" />
</g>
</svg>	
