<?xml version="1.0" encoding="ISO-8859-1"?>
<!-- Converted from Font Awesome. Glyph: e062 -->
<!DOCTYPE svg PUBLIC "-//W3C//DTD SVG 1.1//EN" "http://www.w3.org/Graphics/SVG/1.1/DTD/svg11.dtd">
<svg version="1.1" xmlns="http://www.w3.org/2000/svg" xmlns:xlink="http://www.w3.org/1999/xlink" width="1600" height="1600" xml:space="preserve">
<g transform="translate(200, 1400) scale(1, -1)">
	<path id="map-marker" d="M148 745q0 124 60.5 231.5t165 172t226.5 64.5q123 0 227 -63t164.5 -169.5t60.5 -229.5t-73 -272q-73 -114 -166.5 -237t-150.5 -189l-57 -66q-10 9 -27 26t-66.5 70.5t-96 109t-104 135.5t-100.5 155q-63 139 -63 262zM342 772q0 -107 75.5 -182.5t181.5 -75.5 q107 0 182.5 75.5t75.5 182.5t-75.5 182t-182.5 75t-182 -75.5t-75 -181.5z" />
</g>
</svg>	
