<?xml version="1.0" encoding="ISO-8859-1"?>
<!-- Converted from Font Awesome. Glyph: e112 -->
<!DOCTYPE svg PUBLIC "-//W3C//DTD SVG 1.1//EN" "http://www.w3.org/Graphics/SVG/1.1/DTD/svg11.dtd">
<svg version="1.1" xmlns="http://www.w3.org/2000/svg" xmlns:xlink="http://www.w3.org/1999/xlink" width="1600" height="1600" xml:space="preserve">
<g transform="translate(200, 1400) scale(1, -1)">
	<path id="magnet" d="M100 600v200h300v-250q0 -113 6 -145q17 -92 102 -117q39 -11 92 -11q37 0 66.5 5.5t50 15.5t36 24t24 31.5t14 37.5t7 42t2.5 45t0 47v25v250h300v-200q0 -42 -3 -83t-15 -104t-31.5 -116t-58 -109.5t-89 -96.5t-129 -65.5t-174.5 -25.5t-174.5 25.5t-129 65.5t-89 96.5 t-58 109.5t-31.5 116t-15 104t-3 83zM100 900v300h300v-300h-300zM800 900v300h300v-300h-300z" />
</g>
</svg>	
