<?xml version="1.0" encoding="ISO-8859-1"?>
<!-- Converted from Font Awesome. Glyph: e164 -->
<!DOCTYPE svg PUBLIC "-//W3C//DTD SVG 1.1//EN" "http://www.w3.org/Graphics/SVG/1.1/DTD/svg11.dtd">
<svg version="1.1" xmlns="http://www.w3.org/2000/svg" xmlns:xlink="http://www.w3.org/1999/xlink" width="1600" height="1600" xml:space="preserve">
<g transform="translate(200, 1400) scale(1, -1)">
	<path id="new-window" d="M0 400q0 -165 117.5 -282.5t282.5 -117.5h300q163 0 281.5 117.5t118.5 282.5v98l-78 73l-122 -123v-148q0 -41 -29.5 -70.5t-70.5 -29.5h-500q-41 0 -70.5 29.5t-29.5 70.5v500q0 41 29.5 70.5t70.5 29.5h156l118 122l-74 78h-100q-165 0 -282.5 -117.5t-117.5 -282.5 v-300zM496 709l353 342l-149 149h500v-500l-149 149l-342 -353z" />
</g>
</svg>	
