<?xml version="1.0" encoding="ISO-8859-1"?>
<!-- Converted from Font Awesome. Glyph: e017 -->
<!DOCTYPE svg PUBLIC "-//W3C//DTD SVG 1.1//EN" "http://www.w3.org/Graphics/SVG/1.1/DTD/svg11.dtd">
<svg version="1.1" xmlns="http://www.w3.org/2000/svg" xmlns:xlink="http://www.w3.org/1999/xlink" width="1600" height="1600" xml:space="preserve">
<g transform="translate(200, 1400) scale(1, -1)">
	<path id="off" d="M23 600q0 183 105 331t272 210v-166q-103 -55 -165 -155t-62 -220q0 -177 125 -302t302 -125t302 125t125 302q0 120 -62 220t-165 155v166q167 -62 272 -210t105 -331q0 -118 -45.5 -224.5t-123 -184t-184 -123t-224.5 -45.5t-224.5 45.5t-184 123t-123 184t-45.5 224.5 zM500 750q0 -21 14.5 -35.5t35.5 -14.5h100q21 0 35.5 14.5t14.5 35.5v400q0 21 -14.5 35.5t-35.5 14.5h-100q-21 0 -35.5 -14.5t-14.5 -35.5v-400z" />
</g>
</svg>	
