<?xml version="1.0" encoding="ISO-8859-1"?>
<!-- Converted from Font Awesome. Glyph: e060 -->
<!DOCTYPE svg PUBLIC "-//W3C//DTD SVG 1.1//EN" "http://www.w3.org/Graphics/SVG/1.1/DTD/svg11.dtd">
<svg version="1.1" xmlns="http://www.w3.org/2000/svg" xmlns:xlink="http://www.w3.org/1999/xlink" width="1600" height="1600" xml:space="preserve">
<g transform="translate(200, 1400) scale(1, -1)">
	<path id="picture" d="M0 44v1012q0 18 13 31t31 13h1112q19 0 31.5 -13t12.5 -31v-1012q0 -18 -12.5 -31t-31.5 -13h-1112q-18 0 -31 13t-13 31zM100 263l247 182l298 -131l-74 156l293 318l236 -288v500h-1000v-737zM208 750q0 56 39 95t95 39t95 -39t39 -95t-39 -95t-95 -39t-95 39t-39 95z " />
</g>
</svg>	
