<?xml version="1.0" encoding="ISO-8859-1"?>
<!-- Converted from Font Awesome. Glyph: e142 -->
<!DOCTYPE svg PUBLIC "-//W3C//DTD SVG 1.1//EN" "http://www.w3.org/Graphics/SVG/1.1/DTD/svg11.dtd">
<svg version="1.1" xmlns="http://www.w3.org/2000/svg" xmlns:xlink="http://www.w3.org/1999/xlink" width="1600" height="1600" xml:space="preserve">
<g transform="translate(200, 1400) scale(1, -1)">
	<path id="paperclip" d="M-40 375q-13 -95 35 -173q35 -57 94 -89t129 -32q63 0 119 28q33 16 65 40.5t52.5 45.5t59.5 64q40 44 57 61l394 394q35 35 47 84t-3 96q-27 87 -117 104q-20 2 -29 2q-46 0 -79.5 -17t-67.5 -51l-388 -396l-7 -7l69 -67l377 373q20 22 39 38q23 23 50 23q38 0 53 -36 q16 -39 -20 -75l-547 -547q-52 -52 -125 -52q-55 0 -100 33t-54 96q-5 35 2.5 66t31.5 63t42 50t56 54q24 21 44 41l348 348q52 52 82.5 79.5t84 54t107.5 26.5q25 0 48 -4q95 -17 154 -94.5t51 -175.5q-7 -101 -98 -192l-252 -249l-253 -256l7 -7l69 -60l517 511 q67 67 95 157t11 183q-16 87 -67 154t-130 103q-69 33 -152 33q-107 0 -197 -55q-40 -24 -111 -95l-512 -512q-68 -68 -81 -163z" />
</g>
</svg>	
