<?xml version="1.0" encoding="ISO-8859-1"?>
<!-- Converted from Font Awesome. Glyph: e145 -->
<!DOCTYPE svg PUBLIC "-//W3C//DTD SVG 1.1//EN" "http://www.w3.org/Graphics/SVG/1.1/DTD/svg11.dtd">
<svg version="1.1" xmlns="http://www.w3.org/2000/svg" xmlns:xlink="http://www.w3.org/1999/xlink" width="1600" height="1600" xml:space="preserve">
<g transform="translate(200, 1400) scale(1, -1)">
	<path id="phone" d="M200 100v953q0 21 30 46t81 48t129 38t163 15t162 -15t127 -38t79 -48t29 -46v-953q0 -41 -29.5 -70.5t-70.5 -29.5h-600q-41 0 -70.5 29.5t-29.5 70.5zM300 300h600v700h-600v-700zM496 150q0 -43 30.5 -73.5t73.5 -30.5t73.5 30.5t30.5 73.5t-30.5 73.5t-73.5 30.5 t-73.5 -30.5t-30.5 -73.5z" />
</g>
</svg>	
