<?xml version="1.0" encoding="ISO-8859-1"?>
<!-- Converted from Font Awesome. Glyph: e183 -->
<!DOCTYPE svg PUBLIC "-//W3C//DTD SVG 1.1//EN" "http://www.w3.org/Graphics/SVG/1.1/DTD/svg11.dtd">
<svg version="1.1" xmlns="http://www.w3.org/2000/svg" xmlns:xlink="http://www.w3.org/1999/xlink" width="1600" height="1600" xml:space="preserve">
<g transform="translate(200, 1400) scale(1, -1)">
	<path id="phone-alt" d="M0 50v212q0 20 10.5 45.5t24.5 39.5l365 303v50q0 4 1 10.5t12 22.5t30 28.5t60 23t97 10.5t97 -10t60 -23.5t30 -27.5t12 -24l1 -10v-50l365 -303q14 -14 24.5 -39.5t10.5 -45.5v-212q0 -21 -15 -35.5t-35 -14.5h-1100q-21 0 -35.5 14.5t-14.5 35.5zM0 712 q0 -21 14.5 -33.5t34.5 -8.5l202 33q20 4 34.5 21t14.5 38v146q141 24 300 24t300 -24v-146q0 -21 14.5 -38t34.5 -21l202 -33q20 -4 34.5 8.5t14.5 33.5v200q-6 8 -19 20.5t-63 45t-112 57t-171 45t-235 20.5q-92 0 -175 -10.5t-141.5 -27t-108.5 -36.5t-81.5 -40 t-53.5 -36.5t-31 -27.5l-9 -10v-200z" />
</g>
</svg>	
