<?xml version="1.0" encoding="ISO-8859-1"?>
<!-- Converted from Font Awesome. Glyph: e045 -->
<!DOCTYPE svg PUBLIC "-//W3C//DTD SVG 1.1//EN" "http://www.w3.org/Graphics/SVG/1.1/DTD/svg11.dtd">
<svg version="1.1" xmlns="http://www.w3.org/2000/svg" xmlns:xlink="http://www.w3.org/1999/xlink" width="1600" height="1600" xml:space="preserve">
<g transform="translate(200, 1400) scale(1, -1)">
	<path id="print" d="M0 100v700h200l100 -200h600l100 200h200v-700h-200v200h-800v-200h-200zM253 829l40 -124h592l62 124l-94 346q-2 11 -10 18t-18 7h-450q-10 0 -18 -7t-10 -18zM281 24l38 152q2 10 11.5 17t19.5 7h500q10 0 19.5 -7t11.5 -17l38 -152q2 -10 -3.5 -17t-15.5 -7h-600 q-10 0 -15.5 7t-3.5 17z" />
</g>
</svg>	
