<?xml version="1.0" encoding="ISO-8859-1"?>
<!-- Converted from Font Awesome. Glyph: e085 -->
<!DOCTYPE svg PUBLIC "-//W3C//DTD SVG 1.1//EN" "http://www.w3.org/Graphics/SVG/1.1/DTD/svg11.dtd">
<svg version="1.1" xmlns="http://www.w3.org/2000/svg" xmlns:xlink="http://www.w3.org/1999/xlink" width="1600" height="1600" xml:space="preserve">
<g transform="translate(200, 1400) scale(1, -1)">
	<path id="question-sign" d="M3 600q0 162 80 299.5t217.5 217.5t299.5 80t299.5 -80t217.5 -217.5t80 -299.5t-80 -300t-217.5 -218t-299.5 -80t-299.5 80t-217.5 218t-80 300zM363 700h144q4 0 11.5 -1t11 -1t6.5 3t3 9t1 11t3.5 8.5t3.5 6t5.5 4t6.5 2.5t9 1.5t9 0.5h11.5h12.5q19 0 30 -10t11 -26 q0 -22 -4 -28t-27 -22q-5 -1 -12.5 -3t-27 -13.5t-34 -27t-26.5 -46t-11 -68.5h200q5 3 14 8t31.5 25.5t39.5 45.5t31 69t14 94q0 51 -17.5 89t-42 58t-58.5 32t-58.5 15t-51.5 3q-105 0 -172 -56t-67 -183zM500 300h200v100h-200v-100z" />
</g>
</svg>	
