<?xml version="1.0" encoding="ISO-8859-1"?>
<!-- Converted from Font Awesome. Glyph: e039 -->
<!DOCTYPE svg PUBLIC "-//W3C//DTD SVG 1.1//EN" "http://www.w3.org/Graphics/SVG/1.1/DTD/svg11.dtd">
<svg version="1.1" xmlns="http://www.w3.org/2000/svg" xmlns:xlink="http://www.w3.org/1999/xlink" width="1600" height="1600" xml:space="preserve">
<g transform="translate(200, 1400) scale(1, -1)">
	<path id="qrcode" d="M0 0h500v500h-200v100h-100v-100h-200v-500zM0 600h100v100h400v100h100v100h-100v300h-500v-600zM100 100v300h300v-300h-300zM100 800v300h300v-300h-300zM200 200v100h100v-100h-100zM200 900h100v100h-100v-100zM500 500v100h300v-300h200v-100h-100v-100h-200v100 h-100v100h100v200h-200zM600 0v100h100v-100h-100zM600 1000h100v-300h200v-300h300v200h-200v100h200v500h-600v-200zM800 800v300h300v-300h-300zM900 0v100h300v-100h-300zM900 900v100h100v-100h-100zM1100 200v100h100v-100h-100z" />
</g>
</svg>	
