<?xml version="1.0" encoding="ISO-8859-1"?>
<!-- Converted from Font Awesome. Glyph: e030 -->
<!DOCTYPE svg PUBLIC "-//W3C//DTD SVG 1.1//EN" "http://www.w3.org/Graphics/SVG/1.1/DTD/svg11.dtd">
<svg version="1.1" xmlns="http://www.w3.org/2000/svg" xmlns:xlink="http://www.w3.org/1999/xlink" width="1600" height="1600" xml:space="preserve">
<g transform="translate(200, 1400) scale(1, -1)">
	<path id="repeat" d="M23 600q0 -118 45.5 -224.5t123 -184t184 -123t224.5 -45.5t224.5 45.5t184 123t123 184t45.5 224.5h-150q0 -177 -125 -302t-302 -125t-302 125t-125 302t125 302t302 125q136 0 246 -81l-146 -146h400v400l-145 -145q-157 122 -355 122q-118 0 -224.5 -45.5t-184 -123 t-123 -184t-45.5 -224.5z" />
</g>
</svg>	
