<?xml version="1.0" encoding="ISO-8859-1"?>
<!-- Converted from Font Awesome. Glyph: e031 -->
<!DOCTYPE svg PUBLIC "-//W3C//DTD SVG 1.1//EN" "http://www.w3.org/Graphics/SVG/1.1/DTD/svg11.dtd">
<svg version="1.1" xmlns="http://www.w3.org/2000/svg" xmlns:xlink="http://www.w3.org/1999/xlink" width="1600" height="1600" xml:space="preserve">
<g transform="translate(200, 1400) scale(1, -1)">
	<path id="refresh" d="M23 600q0 118 45.5 224.5t123 184t184 123t224.5 45.5q198 0 355 -122l145 145v-400h-400l147 147q-112 80 -247 80q-177 0 -302 -125t-125 -302h-150zM100 0v400h400l-147 -147q112 -80 247 -80q177 0 302 125t125 302h150q0 -118 -45.5 -224.5t-123 -184t-184 -123 t-224.5 -45.5q-198 0 -355 122z" />
</g>
</svg>	
