<?xml version="1.0" encoding="ISO-8859-1"?>
<!-- Converted from Font Awesome. Glyph: e003 -->
<!DOCTYPE svg PUBLIC "-//W3C//DTD SVG 1.1//EN" "http://www.w3.org/Graphics/SVG/1.1/DTD/svg11.dtd">
<svg version="1.1" xmlns="http://www.w3.org/2000/svg" xmlns:xlink="http://www.w3.org/1999/xlink" width="1600" height="1600" xml:space="preserve">
<g transform="translate(200, 1400) scale(1, -1)">
	<path id="search" d="M23 693q0 200 142 342t342 142t342 -142t142 -342q0 -142 -78 -261l300 -300q7 -8 7 -18t-7 -18l-109 -109q-8 -7 -18 -7t-18 7l-300 300q-119 -78 -261 -78q-200 0 -342 142t-142 342zM176 693q0 -136 97 -233t234 -97t233.5 96.5t96.5 233.5t-96.5 233.5t-233.5 96.5 t-234 -97t-97 -233z" />
</g>
</svg>	
