<?xml version="1.0" encoding="ISO-8859-1"?>
<!-- Converted from Font Awesome. Glyph: e087 -->
<!DOCTYPE svg PUBLIC "-//W3C//DTD SVG 1.1//EN" "http://www.w3.org/Graphics/SVG/1.1/DTD/svg11.dtd">
<svg version="1.1" xmlns="http://www.w3.org/2000/svg" xmlns:xlink="http://www.w3.org/1999/xlink" width="1600" height="1600" xml:space="preserve">
<g transform="translate(200, 1400) scale(1, -1)">
	<path id="screenshot" d="M0 500v200h194q15 60 36 104.5t55.5 86t88 69t126.5 40.5v200h200v-200q54 -20 113 -60t112.5 -105.5t71.5 -134.5h203v-200h-203q-25 -102 -116.5 -186t-180.5 -117v-197h-200v197q-140 27 -208 102.5t-98 200.5h-194zM290 500q24 -73 79.5 -127.5t130.5 -78.5v206h200 v-206q149 48 201 206h-201v200h200q-25 74 -76 127.5t-124 76.5v-204h-200v203q-75 -24 -130 -77.5t-79 -125.5h209v-200h-210z" />
</g>
</svg>	
