<?xml version="1.0" encoding="ISO-8859-1"?>
<!-- Converted from Font Awesome. Glyph: e066 -->
<!DOCTYPE svg PUBLIC "-//W3C//DTD SVG 1.1//EN" "http://www.w3.org/Graphics/SVG/1.1/DTD/svg11.dtd">
<svg version="1.1" xmlns="http://www.w3.org/2000/svg" xmlns:xlink="http://www.w3.org/1999/xlink" width="1600" height="1600" xml:space="preserve">
<g transform="translate(200, 1400) scale(1, -1)">
	<path id="share" d="M0 400v300q0 165 117.5 282.5t282.5 117.5h261l2 -80q-133 -32 -218 -120h-145q-41 0 -70.5 -29.5t-29.5 -70.5v-500q0 -41 29.5 -70.5t70.5 -29.5h500q41 0 70.5 29.5t29.5 70.5l200 153v-53q0 -165 -117.5 -282.5t-282.5 -117.5h-300q-165 0 -282.5 117.5t-117.5 282.5 zM423 524q30 38 81.5 64t103 35.5t99 14t77.5 3.5l29 -1v-209l360 324l-359 318v-216q-7 0 -19 -1t-48 -8t-69.5 -18.5t-76.5 -37t-76.5 -59t-62 -88t-39.5 -121.5z" />
</g>
</svg>	
