<?xml version="1.0" encoding="ISO-8859-1"?>
<!-- Converted from Font Awesome. Glyph: e116 -->
<!DOCTYPE svg PUBLIC "-//W3C//DTD SVG 1.1//EN" "http://www.w3.org/Graphics/SVG/1.1/DTD/svg11.dtd">
<svg version="1.1" xmlns="http://www.w3.org/2000/svg" xmlns:xlink="http://www.w3.org/1999/xlink" width="1600" height="1600" xml:space="preserve">
<g transform="translate(200, 1400) scale(1, -1)">
	<path id="shopping-cart" d="M18 939q-5 24 10 42q14 19 39 19h896l38 162q5 17 18.5 27.5t30.5 10.5h94q20 0 35 -14.5t15 -35.5t-15 -35.5t-35 -14.5h-54l-201 -961q-2 -4 -6 -10.5t-19 -17.5t-33 -11h-31v-50q0 -20 -14.5 -35t-35.5 -15t-35.5 15t-14.5 35v50h-300v-50q0 -20 -14.5 -35t-35.5 -15 t-35.5 15t-14.5 35v50h-50q-21 0 -35.5 15t-14.5 35q0 21 14.5 35.5t35.5 14.5h535l48 200h-633q-32 0 -54.5 21t-27.5 43z" />
</g>
</svg>	
