<?xml version="1.0" encoding="ISO-8859-1"?>
<!-- Converted from Font Awesome. Glyph: e186 -->
<!DOCTYPE svg PUBLIC "-//W3C//DTD SVG 1.1//EN" "http://www.w3.org/Graphics/SVG/1.1/DTD/svg11.dtd">
<svg version="1.1" xmlns="http://www.w3.org/2000/svg" xmlns:xlink="http://www.w3.org/1999/xlink" width="1600" height="1600" xml:space="preserve">
<g transform="translate(200, 1400) scale(1, -1)">
	<path id="sd-video" d="M-100 300v500q0 124 88 212t212 88h700q124 0 212 -88t88 -212v-500q0 -124 -88 -212t-212 -88h-700q-124 0 -212 88t-88 212zM100 200h900v700h-900v-700zM200 300h300v300h-200v100h200v100h-300v-300h200v-100h-200v-100zM600 300h200v100h100v300h-100v100h-200v-500 zM700 400v300h100v-300h-100z" />
</g>
</svg>	
