<?xml version="1.0" encoding="ISO-8859-1"?>
<!-- Converted from Font Awesome. Glyph: e125 -->
<!DOCTYPE svg PUBLIC "-//W3C//DTD SVG 1.1//EN" "http://www.w3.org/Graphics/SVG/1.1/DTD/svg11.dtd">
<svg version="1.1" xmlns="http://www.w3.org/2000/svg" xmlns:xlink="http://www.w3.org/1999/xlink" width="1600" height="1600" xml:space="preserve">
<g transform="translate(200, 1400) scale(1, -1)">
	<path id="thumbs-up" d="M0 200h200v600h-200v-600zM300 275q0 -75 100 -75h61q123 -100 139 -100h250q46 0 83 57l238 344q29 31 29 74v100q0 44 -30.5 84.5t-69.5 40.5h-328q28 118 28 125v150q0 44 -30.5 84.5t-69.5 40.5h-50q-27 0 -51 -20t-38 -48l-96 -198l-145 -196q-20 -26 -20 -63v-400z M400 300v375l150 212l100 213h50v-175l-50 -225h450v-125l-250 -375h-214l-136 100h-100z" />
</g>
</svg>	
