<?xml version="1.0" encoding="ISO-8859-1"?>
<!-- Converted from Font Awesome. Glyph: e200 -->
<!DOCTYPE svg PUBLIC "-//W3C//DTD SVG 1.1//EN" "http://www.w3.org/Graphics/SVG/1.1/DTD/svg11.dtd">
<svg version="1.1" xmlns="http://www.w3.org/2000/svg" xmlns:xlink="http://www.w3.org/1999/xlink" width="1600" height="1600" xml:space="preserve">
<g transform="translate(200, 1400) scale(1, -1)">
	<path id="tree-deciduous" d="M121 700q0 -53 28.5 -97t75.5 -65q-4 -16 -4 -38q0 -74 52.5 -126.5t126.5 -52.5q56 0 100 30v-306l-75 -45h350l-75 45v306q46 -30 100 -30q74 0 126.5 52.5t52.5 126.5q0 24 -9 55q50 32 79.5 83t29.5 112q0 90 -61.5 155.5t-150.5 71.5q-26 89 -99.5 145.5 t-167.5 56.5q-116 0 -197.5 -81.5t-81.5 -197.5q0 -4 1 -12t1 -11q-14 2 -23 2q-74 0 -126.5 -52.5t-52.5 -126.5z" />
</g>
</svg>	
