<?xml version="1.0" encoding="ISO-8859-1"?>
<!-- Converted from Font Awesome. Glyph: e126 -->
<!DOCTYPE svg PUBLIC "-//W3C//DTD SVG 1.1//EN" "http://www.w3.org/Graphics/SVG/1.1/DTD/svg11.dtd">
<svg version="1.1" xmlns="http://www.w3.org/2000/svg" xmlns:xlink="http://www.w3.org/1999/xlink" width="1600" height="1600" xml:space="preserve">
<g transform="translate(200, 1400) scale(1, -1)">
	<path id="thumbs-down" d="M0 400v600h200v-600h-200zM300 525v400q0 75 100 75h61q123 100 139 100h250q46 0 83 -57l238 -344q29 -31 29 -74v-100q0 -44 -30.5 -84.5t-69.5 -40.5h-328q28 -118 28 -125v-150q0 -44 -30.5 -84.5t-69.5 -40.5h-50q-27 0 -51 20t-38 48l-96 198l-145 196 q-20 26 -20 63zM400 525l150 -212l100 -213h50v175l-50 225h450v125l-250 375h-214l-136 -100h-100v-375z" />
</g>
</svg>	
