<?xml version="1.0" encoding="ISO-8859-1"?>
<!-- Converted from Font Awesome. Glyph: e050 -->
<!DOCTYPE svg PUBLIC "-//W3C//DTD SVG 1.1//EN" "http://www.w3.org/Graphics/SVG/1.1/DTD/svg11.dtd">
<svg version="1.1" xmlns="http://www.w3.org/2000/svg" xmlns:xlink="http://www.w3.org/1999/xlink" width="1600" height="1600" xml:space="preserve">
<g transform="translate(200, 1400) scale(1, -1)">
	<path id="text-height" d="M-75 200h75v800h-75l125 167l125 -167h-75v-800h75l-125 -167zM300 900v300h150h700h150v-300h-50q0 29 -8 48.5t-18.5 30t-33.5 15t-39.5 5.5t-50.5 1h-200v-850l100 -50v-100h-400v100l100 50v850h-200q-34 0 -50.5 -1t-40 -5.5t-33.5 -15t-18.5 -30t-8.5 -48.5h-49z " />
</g>
</svg>	
