<?xml version="1.0" encoding="ISO-8859-1"?>
<!-- Converted from Font Awesome. Glyph: e020 -->
<!DOCTYPE svg PUBLIC "-//W3C//DTD SVG 1.1//EN" "http://www.w3.org/Graphics/SVG/1.1/DTD/svg11.dtd">
<svg version="1.1" xmlns="http://www.w3.org/2000/svg" xmlns:xlink="http://www.w3.org/1999/xlink" width="1600" height="1600" xml:space="preserve">
<g transform="translate(200, 1400) scale(1, -1)">
	<path id="trash" d="M100 1025v50q0 10 7.5 17.5t17.5 7.5h275v100q0 41 29.5 70.5t70.5 29.5h300q41 0 70.5 -29.5t29.5 -70.5v-100h275q10 0 17.5 -7.5t7.5 -17.5v-50q0 -11 -7 -18t-18 -7h-1050q-11 0 -18 7t-7 18zM200 100v800h900v-800q0 -41 -29.5 -71t-70.5 -30h-700q-41 0 -70.5 30 t-29.5 71zM300 100h100v700h-100v-700zM500 100h100v700h-100v-700zM500 1100h300v100h-300v-100zM700 100h100v700h-100v-700zM900 100h100v700h-100v-700z" />
</g>
</svg>	
