<?xml version="1.0" encoding="ISO-8859-1"?>
<!-- Converted from Font Awesome. Glyph: e064 -->
<!DOCTYPE svg PUBLIC "-//W3C//DTD SVG 1.1//EN" "http://www.w3.org/Graphics/SVG/1.1/DTD/svg11.dtd">
<svg version="1.1" xmlns="http://www.w3.org/2000/svg" xmlns:xlink="http://www.w3.org/1999/xlink" width="1600" height="1600" xml:space="preserve">
<g transform="translate(200, 1400) scale(1, -1)">
	<path id="tint" d="M117 406q0 94 34 186t88.5 172.5t112 159t115 177t87.5 194.5q21 -71 57.5 -142.5t76 -130.5t83 -118.5t82 -117t70 -116t50 -125.5t18.5 -136q0 -89 -39 -165.5t-102 -126.5t-140 -79.5t-156 -33.5q-114 6 -211.5 53t-161.5 138.5t-64 210.5zM243 414q14 -82 59.5 -136 t136.5 -80l16 98q-7 6 -18 17t-34 48t-33 77q-15 73 -14 143.5t10 122.5l9 51q-92 -110 -119.5 -185t-12.5 -156z" />
</g>
</svg>	
