<?xml version="1.0" encoding="ISO-8859-1"?>
<!-- Converted from Font Awesome. Glyph: e011 -->
<!DOCTYPE svg PUBLIC "-//W3C//DTD SVG 1.1//EN" "http://www.w3.org/Graphics/SVG/1.1/DTD/svg11.dtd">
<svg version="1.1" xmlns="http://www.w3.org/2000/svg" xmlns:xlink="http://www.w3.org/1999/xlink" width="1600" height="1600" xml:space="preserve">
<g transform="translate(200, 1400) scale(1, -1)">
	<path id="th" d="M0 50v200q0 21 14.5 35.5t35.5 14.5h200q21 0 35.5 -14.5t14.5 -35.5v-200q0 -21 -14.5 -35.5t-35.5 -14.5h-200q-21 0 -35.5 14.5t-14.5 35.5zM0 450v200q0 21 14.5 35.5t35.5 14.5h200q21 0 35.5 -14.5t14.5 -35.5v-200q0 -21 -14.5 -35.5t-35.5 -14.5h-200 q-21 0 -35.5 14.5t-14.5 35.5zM0 850v200q0 21 14.5 35.5t35.5 14.5h200q21 0 35.5 -14.5t14.5 -35.5v-200q0 -21 -14.5 -35.5t-35.5 -14.5h-200q-21 0 -35.5 14.5t-14.5 35.5zM400 50v200q0 21 14.5 35.5t35.5 14.5h200q21 0 35.5 -14.5t14.5 -35.5v-200q0 -21 -14.5 -35.5 t-35.5 -14.5h-200q-21 0 -35.5 14.5t-14.5 35.5zM400 450v200q0 21 14.5 35.5t35.5 14.5h200q21 0 35.5 -14.5t14.5 -35.5v-200q0 -21 -14.5 -35.5t-35.5 -14.5h-200q-21 0 -35.5 14.5t-14.5 35.5zM400 850v200q0 21 14.5 35.5t35.5 14.5h200q21 0 35.5 -14.5t14.5 -35.5 v-200q0 -21 -14.5 -35.5t-35.5 -14.5h-200q-21 0 -35.5 14.5t-14.5 35.5zM800 50v200q0 21 14.5 35.5t35.5 14.5h200q21 0 35.5 -14.5t14.5 -35.5v-200q0 -21 -14.5 -35.5t-35.5 -14.5h-200q-21 0 -35.5 14.5t-14.5 35.5zM800 450v200q0 21 14.5 35.5t35.5 14.5h200 q21 0 35.5 -14.5t14.5 -35.5v-200q0 -21 -14.5 -35.5t-35.5 -14.5h-200q-21 0 -35.5 14.5t-14.5 35.5zM800 850v200q0 21 14.5 35.5t35.5 14.5h200q21 0 35.5 -14.5t14.5 -35.5v-200q0 -21 -14.5 -35.5t-35.5 -14.5h-200q-21 0 -35.5 14.5t-14.5 35.5z" />
</g>
</svg>	
