<?xml version="1.0" encoding="ISO-8859-1"?>
<!-- Converted from Font Awesome. Glyph: e137 -->
<!DOCTYPE svg PUBLIC "-//W3C//DTD SVG 1.1//EN" "http://www.w3.org/Graphics/SVG/1.1/DTD/svg11.dtd">
<svg version="1.1" xmlns="http://www.w3.org/2000/svg" xmlns:xlink="http://www.w3.org/1999/xlink" width="1600" height="1600" xml:space="preserve">
<g transform="translate(190, 1400) scale(1, -1)">
	<path id="tasks" d="M0 196v100q0 41 29.5 70.5t70.5 29.5h1000q41 0 70.5 -29.5t29.5 -70.5v-100q0 -41 -29.5 -70.5t-70.5 -29.5h-1000q-41 0 -70.5 29.5t-29.5 70.5zM0 596v100q0 41 29.5 70.5t70.5 29.5h1000q41 0 70.5 -29.5t29.5 -70.5v-100q0 -41 -29.5 -70.5t-70.5 -29.5h-1000 q-41 0 -70.5 29.5t-29.5 70.5zM0 996v100q0 41 29.5 70.5t70.5 29.5h1000q41 0 70.5 -29.5t29.5 -70.5v-100q0 -41 -29.5 -70.5t-70.5 -29.5h-1000q-41 0 -70.5 29.5t-29.5 70.5zM600 596h500v100h-500v-100zM800 196h300v100h-300v-100zM900 996h200v100h-200v-100z" />
</g>
</svg>	
