<?xml version="1.0" encoding="ISO-8859-1"?>
<!-- Converted from Font Awesome. Glyph: e051 -->
<!DOCTYPE svg PUBLIC "-//W3C//DTD SVG 1.1//EN" "http://www.w3.org/Graphics/SVG/1.1/DTD/svg11.dtd">
<svg version="1.1" xmlns="http://www.w3.org/2000/svg" xmlns:xlink="http://www.w3.org/1999/xlink" width="1600" height="1600" xml:space="preserve">
<g transform="translate(200, 1400) scale(1, -1)">
	<path id="text-width" d="M33 51l167 125v-75h800v75l167 -125l-167 -125v75h-800v-75zM100 901v300h150h700h150v-300h-50q0 29 -8 48.5t-18 30t-33.5 15t-40 5.5t-50.5 1h-200v-650l100 -50v-100h-400v100l100 50v650h-200q-34 0 -50.5 -1t-39.5 -5.5t-33.5 -15t-18.5 -30t-8 -48.5h-50z" />
</g>
</svg>	
