<?xml version="1.0" encoding="ISO-8859-1"?>
<!-- Converted from Font Awesome. Glyph: e148 -->
<!DOCTYPE svg PUBLIC "-//W3C//DTD SVG 1.1//EN" "http://www.w3.org/Graphics/SVG/1.1/DTD/svg11.dtd">
<svg version="1.1" xmlns="http://www.w3.org/2000/svg" xmlns:xlink="http://www.w3.org/1999/xlink" width="1600" height="1600" xml:space="preserve">
<g transform="translate(200, 1400) scale(1, -1)">
	<path id="usd" d="M295 433h139q5 -77 48.5 -126.5t117.5 -64.5v335l-27 7q-46 14 -79 26.5t-72 36t-62.5 52t-40 72.5t-16.5 99q0 92 44 159.5t109 101t144 40.5v78h100v-79q38 -4 72.5 -13.5t75.5 -31.5t71 -53.5t51.5 -84t24.5 -118.5h-159q-8 72 -35 109.5t-101 50.5v-307l64 -14 q34 -7 64 -16.5t70 -31.5t67.5 -52t47.5 -80.5t20 -112.5q0 -139 -89 -224t-244 -96v-77h-100v78q-152 17 -237 104q-40 40 -52.5 93.5t-15.5 139.5zM466 889q0 -29 8 -51t16.5 -34t29.5 -22.5t31 -13.5t38 -10q7 -2 11 -3v274q-61 -8 -97.5 -37.5t-36.5 -102.5zM700 237 q170 18 170 151q0 64 -44 99.5t-126 60.5v-311z" />
</g>
</svg>	
