<?xml version="1.0" encoding="ISO-8859-1"?>
<!-- Converted from Font Awesome. Glyph: e038 -->
<!DOCTYPE svg PUBLIC "-//W3C//DTD SVG 1.1//EN" "http://www.w3.org/Graphics/SVG/1.1/DTD/svg11.dtd">
<svg version="1.1" xmlns="http://www.w3.org/2000/svg" xmlns:xlink="http://www.w3.org/1999/xlink" width="1600" height="1600" xml:space="preserve">
<g transform="translate(200, 1400) scale(1, -1)">
	<path id="volume-up" d="M0 401v400h300l300 200v-800l-300 200h-300zM702 858l69 53q111 -135 111 -310q0 -170 -106 -303l-67 55q86 110 86 248q0 145 -93 257zM889 951l7 -8q123 -151 123 -344q0 -189 -119 -339l-7 -8l81 -66l6 8q142 178 142 405q0 230 -144 408l-6 8z" />
</g>
</svg>	
