<?xml version="1.0" encoding="ISO-8859-1"?>
<!-- Converted from Font Awesome. Glyph: e016 -->
<!DOCTYPE svg PUBLIC "-//W3C//DTD SVG 1.1//EN" "http://www.w3.org/Graphics/SVG/1.1/DTD/svg11.dtd">
<svg version="1.1" xmlns="http://www.w3.org/2000/svg" xmlns:xlink="http://www.w3.org/1999/xlink" width="1600" height="1600" xml:space="preserve">
<g transform="translate(200, 1400) scale(1, -1)">
	<path id="zoom-out" d="M23 694q0 200 142 342t342 142t342 -142t142 -342q0 -141 -78 -262l300 -299q7 -7 7 -18t-7 -18l-109 -109q-8 -8 -18 -8t-18 8l-300 299q-120 -77 -261 -77q-200 0 -342 142t-142 342zM176 694q0 -136 97 -233t234 -97t233.5 97t96.5 233t-96.5 233t-233.5 97t-234 -97 t-97 -233zM300 601h400v200h-400v-200z" />
</g>
</svg>	
