<?xml version="1.0" encoding="UTF-8" standalone="no"?>
<!-- Created with Inkscape (http://www.inkscape.org/) -->
<svg id="svg2" xmlns:rdf="http://www.w3.org/1999/02/22-rdf-syntax-ns#" xmlns="http://www.w3.org/2000/svg" height="1308" width="883" version="1.1" ws-layout="scale-25" xmlns:cc="http://creativecommons.org/ns#" xmlns:dc="http://purl.org/dc/elements/1.1/">
 <title id="title2818">WireframeSketcher SVG asset</title>
 <defs id="defs4"></defs>
 <metadata id="metadata7">
  <rdf:RDF>
   <cc:Work rdf:about="">
    <dc:format>image/svg+xml</dc:format>
    <dc:type rdf:resource="http://purl.org/dc/dcmitype/StillImage"/>
    <dc:title>WireframeSketcher SVG asset</dc:title>
    <dc:creator>
     <cc:Agent>
      <dc:title>Peter Severin</dc:title>
     </cc:Agent>
    </dc:creator>
    <dc:rights>
     <cc:Agent>
      <dc:title>Copyright (c) WireframeSketcher.com</dc:title>
     </cc:Agent>
    </dc:rights>
   </cc:Work>
  </rdf:RDF>
 </metadata>
 <path id="frame" stroke-linejoin="round" style="enable-background:accumulate;color:#000000;" d="M51,1c-27.7,0-50,22.3-50,50v1206c0,28,22.3,50,50,50h781c27.7,0,50-22,50-50v-1206c0-27.7-22.3-50-50-50h-781zm5,140,770,0,0,1026-770,0,0-1026z" fill-rule="nonzero" stroke-dashoffset="0" stroke="#000" stroke-linecap="round" stroke-miterlimit="4" stroke-dasharray="none" stroke-width="2" fill="#FFF"/>
 <path id="path3775" stroke-linejoin="round" style="enable-background:accumulate;color:#000000;" d="M448,74a7,7,0,1,1,-14,0,7,7,0,1,1,14,0z" fill-rule="nonzero" transform="translate(0.5,0)" stroke-dashoffset="0" stroke="#000" stroke-linecap="round" stroke-miterlimit="4" stroke-dasharray="none" stroke-width="2" fill="#FFF"/>
 <path id="path3777" stroke-linejoin="round" style="enable-background:accumulate;color:#000000;" d="M448,1232a6.5,6.5,0,1,1,-13,0,6.5,6.5,0,1,1,13,0z" fill-rule="nonzero" stroke-dashoffset="0" stroke="#000" stroke-linecap="round" stroke-miterlimit="4" stroke-dasharray="none" stroke-width="2" fill="#FFF"/>
 <rect id="ws-guides-1" style="color:#000000;enable-background:accumulate;" height="220" width="190" stroke="#000" y="544" x="346.5" stroke-width="2" fill="none"/>
 <rect id="ws-guides-2" stroke-linejoin="round" style="enable-background:accumulate;color:#000000;" stroke-dasharray="none" stroke-dashoffset="0" height="160" width="140" stroke="#000" stroke-linecap="round" stroke-miterlimit="4" y="574" x="371.5" stroke-width="2" fill="none"/>
</svg>
