<?xml version="1.0" encoding="UTF-8" standalone="no"?>
<!-- Created with Inkscape (http://www.inkscape.org/) -->
<svg id="svg2" xmlns:rdf="http://www.w3.org/1999/02/22-rdf-syntax-ns#" xmlns="http://www.w3.org/2000/svg" height="1265" width="716" version="1.1" ws-layout="scale-9" xmlns:cc="http://creativecommons.org/ns#" xmlns:dc="http://purl.org/dc/elements/1.1/">
 <title id="title2818">WireframeSketcher SVG asset</title>
 <defs id="defs4"></defs>
 <metadata id="metadata7">
  <rdf:RDF>
   <cc:Work rdf:about="">
    <dc:format>image/svg+xml</dc:format>
    <dc:type rdf:resource="http://purl.org/dc/dcmitype/StillImage"/>
    <dc:title>WireframeSketcher SVG asset</dc:title>
    <dc:creator>
     <cc:Agent>
      <dc:title>Peter Severin</dc:title>
     </cc:Agent>
    </dc:creator>
    <dc:rights>
     <cc:Agent>
      <dc:title>Copyright (c) WireframeSketcher.com</dc:title>
     </cc:Agent>
    </dc:rights>
   </cc:Work>
  </rdf:RDF>
 </metadata>
 <path id="rect3003" stroke-linejoin="round" style="enable-background:accumulate;color:#000000;" d="M46,1c-24.93,0-45,20.07-45,45v1173c0,25,20.07,45,45,45h624c24.9,0,45-20,45-45v-1173c0-24.93-20.1-45-45-45h-624zm11,148,602,0,0,962-602,0,0-962z" fill-rule="nonzero" stroke-dashoffset="0" stroke="#000" stroke-linecap="round" stroke-miterlimit="4" stroke-dasharray="none" stroke-width="2" fill="#FFF"/>
 <path id="path3775" stroke-linejoin="round" style="enable-background:accumulate;color:#000000;" d="M648.1,201.5a9.5,9.5,0,1,1,-19,0,9.5,9.5,0,1,1,19,0z" fill-rule="nonzero" transform="translate(-125.1,-94)" stroke-dashoffset="0" stroke="#000" stroke-linecap="round" stroke-miterlimit="4" stroke-dasharray="none" stroke-width="2" fill="#FFF"/>
 <path id="path3777" stroke-linejoin="round" style="enable-background:accumulate;color:#000000;" d="M488.1,1276a4,4,0,1,1,-8,0,4,4,0,1,1,8,0z" fill-rule="nonzero" transform="translate(-125.1,-93)" stroke-dashoffset="0" stroke="#000" stroke-linecap="round" stroke-miterlimit="4" stroke-dasharray="none" stroke-width="2" fill="#FFF"/>
 <rect id="ws-guides" stroke-linejoin="round" style="enable-background:accumulate;color:#000000;" stroke-dasharray="none" fill-rule="nonzero" stroke-dashoffset="0" ry="0" height="280" width="140" stroke="#000" stroke-linecap="round" stroke-miterlimit="4" y="492" x="288" stroke-width="2" fill="#FFF"/>
</svg>
