<?xml version="1.0" encoding="UTF-8" standalone="no"?>
<!-- Created with Inkscape (http://www.inkscape.org/) -->
<svg id="svg2" xmlns:rdf="http://www.w3.org/1999/02/22-rdf-syntax-ns#" xmlns="http://www.w3.org/2000/svg" height="872" width="456" version="1.1" xmlns:cc="http://creativecommons.org/ns#" xmlns:dc="http://purl.org/dc/elements/1.1/" ws-layout="scale-25">
 <title id="title2818">WireframeSketcher SVG asset</title>
 <defs id="defs4"></defs>
 <metadata id="metadata7">
  <rdf:RDF>
   <cc:Work rdf:about="">
    <dc:format>image/svg+xml</dc:format>
    <dc:type rdf:resource="http://purl.org/dc/dcmitype/StillImage"/>
    <dc:title>WireframeSketcher SVG asset</dc:title>
    <dc:creator>
     <cc:Agent>
      <dc:title>Peter Severin</dc:title>
     </cc:Agent>
    </dc:creator>
    <dc:rights>
     <cc:Agent>
      <dc:title>Copyright (c) WireframeSketcher.com</dc:title>
     </cc:Agent>
    </dc:rights>
   </cc:Work>
  </rdf:RDF>
 </metadata>
 <rect id="toggle1" style="enable-background:accumulate;color:#000000;" fill-rule="nonzero" ry="2" height="101" width="7" y="365" x="448" fill="#000"/>
 <rect id="toggle2" style="enable-background:accumulate;color:#000000;" fill-rule="nonzero" ry="2" height="49" width="7" y="276" x="448" fill="#000"/>
 <path id="frame" stroke-linejoin="round" style="enable-background:accumulate;color:#000000;" d="M155,1l-77,2c-39.33,0-77,29.67-77,69v728c0,39.3,37.68,68,77,69l80,2h72,70.4l71.6-2c39.3-0.6,79-29.7,79-69v-728c0-39.33-33.7-68.018-73-69l-80-2h-73-70zm-135,75h412v730h-412v-730z" fill-rule="nonzero" stroke-dashoffset="0" stroke="#000" stroke-linecap="round" stroke-miterlimit="4" stroke-width="2" fill="#FFF"/>
 <rect id="speaker" stroke-linejoin="round" style="enable-background:accumulate;color:#000000;" stroke-dasharray="none" fill-rule="nonzero" stroke-dashoffset="0" ry="7" height="14" width="142" stroke="#000" stroke-linecap="round" stroke-miterlimit="4" y="27" x="155" stroke-width="2" fill="#FFF"/>
 <rect id="microphone" stroke-linejoin="round" style="enable-background:accumulate;color:#000000;" stroke-dasharray="none" fill-rule="nonzero" stroke-dashoffset="0" ry="7" height="14" width="142" stroke="#000" stroke-linecap="round" stroke-miterlimit="4" y="833" x="155" stroke-width="2" fill="#FFF"/>
 <path id="camera" stroke-linejoin="round" style="enable-background:accumulate;color:#000000;" d="M370,37a7,7,0,1,1,-14,0,7,7,0,1,1,14,0z" fill-rule="nonzero" transform="translate(1,0)" stroke-dashoffset="0" stroke="#000" stroke-linecap="round" stroke-miterlimit="4" stroke-dasharray="none" stroke-width="2" fill="#FFF"/>
 <rect id="ws-guides-1" style="color:#000000;enable-background:accumulate;" height="220" width="190" stroke="#000" y="563" x="145" stroke-width="2" fill="none"/>
 <rect id="ws-guides-2" stroke-linejoin="round" style="enable-background:accumulate;color:#000000;" stroke-dasharray="none" stroke-dashoffset="0" height="160" width="168" stroke="#000" stroke-linecap="round" stroke-miterlimit="4" y="593" x="156" stroke-width="2" fill="none"/>
</svg>
