<?xml version="1.0" encoding="UTF-8" standalone="no"?>
<!-- Created with Inkscape (http://www.inkscape.org/) -->
<svg id="svg2" xmlns:rdf="http://www.w3.org/1999/02/22-rdf-syntax-ns#" xmlns="http://www.w3.org/2000/svg" height="794" width="406" version="1.1" ws-layout="scale-25" xmlns:cc="http://creativecommons.org/ns#" xmlns:dc="http://purl.org/dc/elements/1.1/">
 <title id="title2818">WireframeSketcher SVG asset</title>
 <defs id="defs4"></defs>
 <metadata id="metadata7">
  <rdf:RDF>
   <cc:Work rdf:about="">
    <dc:format>image/svg+xml</dc:format>
    <dc:type rdf:resource="http://purl.org/dc/dcmitype/StillImage"/>
    <dc:title>WireframeSketcher SVG asset</dc:title>
    <dc:creator>
     <cc:Agent>
      <dc:title>Peter Severin</dc:title>
     </cc:Agent>
    </dc:creator>
    <dc:rights>
     <cc:Agent>
      <dc:title>Copyright (c) WireframeSketcher.com</dc:title>
     </cc:Agent>
    </dc:rights>
   </cc:Work>
  </rdf:RDF>
 </metadata>
 <path id="path3858" style="enable-background:accumulate;color:#000000;" d="M403.5,102,401,102,401,152,403.5,152c1.4,0,2.5-1.3,2.5-3v-44c0-1.7-1.1-3-2.5-3z" fill="#000"/>
 <path id="rect3842" style="enable-background:accumulate;color:#000000;" fill="#000" d="M2.5,151,5,151,5,275,2.5,275c-1.385,0-2.5-1.3-2.5-3v-118c0-1.7,1.115-3,2.5-3z"/>
 <path id="rect3016" stroke-linejoin="round" style="enable-background:accumulate;color:#000000;" d="M203,1c-17.7,0.333-35.3,0.667-53,1-12,0.226-96.8,5.62-117,10-17.28,3.75-28,16.17-28,35v700c0,17,7.76,29.6,23,33,7.18,1.6,65,12,122,12,17.7,0,35.3,0.7,53,1,17.7-0.3,35.3-0.7,53-1,57-1.1,114.9-10.4,122-12,15.5-3.6,23-15.9,23-33v-700c0-18.96-10.6-32-28.1-35-24.9-4.25-104.9-9.774-116.9-10-17.7-0.333-35.3-0.667-53-1zm-181,65,362,0,0,642-362,0,0-642z" stroke-dashoffset="0" stroke="#000" stroke-linecap="round" stroke-miterlimit="4" stroke-width="2" fill="#FFF"/>
 <path id="path3836" stroke-linejoin="round" style="enable-background:accumulate;color:#000000;" d="M215,39a10,10,0,1,1,-20,0,10,10,0,1,1,20,0z" transform="translate(-2,-1)" stroke-dashoffset="0" stroke="#000" stroke-linecap="round" stroke-miterlimit="4" stroke-dasharray="none" stroke-width="2" fill="none"/>
 <path id="path3840" stroke-linejoin="round" style="enable-background:accumulate;color:#000000;" d="M79,40.5a6.5,6.5,0,1,1,-13,0,6.5,6.5,0,1,1,13,0z" transform="translate(-1,-2)" stroke-dashoffset="0" stroke="#000" stroke-linecap="round" stroke-miterlimit="4" stroke-dasharray="none" stroke-width="2" fill="none"/>
 <rect id="ws-guides-1" style="enable-background:accumulate;color:#000000;" height="220" width="190" stroke="#000" y="302" x="108" stroke-width="2" fill="none"/>
 <rect id="ws-guides-2" stroke-linejoin="round" style="enable-background:accumulate;color:#000000;" stroke-dasharray="none" stroke-dashoffset="0" height="160" width="140" stroke="#000" stroke-linecap="round" stroke-miterlimit="4" y="332" x="133" stroke-width="2" fill="none"/>
</svg>
